<svg width="594" height="348" viewBox="0 0 594 348" fill="none" xmlns="http://www.w3.org/2000/svg">
<rect x="138.537" y="74.6133" width="15.5446" height="21.0699" transform="rotate(10.183 138.537 74.6133)" fill="#FF9D87"/>
<path d="M233.545 193.413H581.805C585.039 193.41 588.138 192.121 590.424 189.829C592.71 187.538 593.996 184.431 594 181.19V12.2231C593.996 8.98248 592.71 5.8756 590.424 3.5841C588.138 1.29261 585.039 0.00364815 581.805 0H233.545C230.312 0.00364815 227.212 1.29261 224.926 3.5841C222.64 5.8756 221.354 8.98248 221.35 12.2231V181.19C221.354 184.431 222.64 187.538 224.926 189.829C227.212 192.121 230.312 193.41 233.545 193.413ZM581.805 1.43802C584.658 1.44125 587.393 2.57857 589.41 4.60047C591.427 6.62238 592.562 9.36374 592.565 12.2231V181.19C592.562 184.049 591.427 186.791 589.41 188.813C587.393 190.835 584.658 191.972 581.805 191.975H233.545C230.692 191.972 227.957 190.835 225.94 188.813C223.923 186.791 222.788 184.049 222.785 181.19V12.2231C222.788 9.36374 223.923 6.62238 225.94 4.60047C227.957 2.57857 230.692 1.44125 233.545 1.43802H581.805Z" fill="#3F3D56"/>
<path d="M527.11 42.062C523.544 42.062 520.654 39.1648 520.654 35.5909C520.654 32.0171 523.544 29.1199 527.11 29.1199C530.675 29.1199 533.565 32.0171 533.565 35.5909C533.565 39.1648 530.675 42.062 527.11 42.062Z" fill="#CCCCCC"/>
<path d="M527.11 66.5083C523.544 66.5083 520.654 63.6111 520.654 60.0372C520.654 56.4634 523.544 53.5662 527.11 53.5662C530.675 53.5662 533.565 56.4634 533.565 60.0372C533.565 63.6111 530.675 66.5083 527.11 66.5083Z" fill="#CCCCCC"/>
<path d="M527.11 90.9546C523.544 90.9546 520.654 88.0574 520.654 84.4835C520.654 80.9097 523.544 78.0125 527.11 78.0125C530.675 78.0125 533.565 80.9097 533.565 84.4835C533.565 88.0574 530.675 90.9546 527.11 90.9546Z" fill="#CCCCCC"/>
<path d="M527.11 115.401C523.544 115.401 520.654 112.504 520.654 108.93C520.654 105.356 523.544 102.459 527.11 102.459C530.675 102.459 533.565 105.356 533.565 108.93C533.565 112.504 530.675 115.401 527.11 115.401Z" fill="#CCCCCC"/>
<path d="M418.435 164.293C414.869 164.293 411.979 161.396 411.979 157.822C411.979 154.249 414.869 151.351 418.435 151.351C422 151.351 424.891 154.249 424.891 157.822C424.891 161.396 422 164.293 418.435 164.293Z" fill="#CCCCCC"/>
<path d="M465.061 164.293C461.496 164.293 458.605 161.396 458.605 157.822C458.605 154.249 461.496 151.351 465.061 151.351C468.627 151.351 471.517 154.249 471.517 157.822C471.517 161.396 468.627 164.293 465.061 164.293Z" fill="#CCCCCC"/>
<path d="M322.314 164.293C318.748 164.293 315.858 161.396 315.858 157.822C315.858 154.249 318.748 151.351 322.314 151.351C325.879 151.351 328.77 154.249 328.77 157.822C328.77 161.396 325.879 164.293 322.314 164.293Z" fill="#CCCCCC"/>
<path d="M371.092 164.293C367.526 164.293 364.636 161.396 364.636 157.822C364.636 154.249 367.526 151.351 371.092 151.351C374.657 151.351 377.548 154.249 377.548 157.822C377.548 161.396 374.657 164.293 371.092 164.293Z" fill="#CCCCCC"/>
<path d="M282.502 36.3098H494.83C495.02 36.3098 495.203 36.2341 495.337 36.0992C495.472 35.9644 495.547 35.7815 495.547 35.5908C495.547 35.4001 495.472 35.2173 495.337 35.0824C495.203 34.9476 495.02 34.8718 494.83 34.8718H282.502C282.312 34.8718 282.13 34.9476 281.995 35.0824C281.86 35.2173 281.785 35.4001 281.785 35.5908C281.785 35.7815 281.86 35.9644 281.995 36.0992C282.13 36.2341 282.312 36.3098 282.502 36.3098Z" fill="#CCCCCC"/>
<path d="M282.502 60.7561H494.83C495.02 60.7561 495.203 60.6804 495.337 60.5455C495.472 60.4107 495.547 60.2278 495.547 60.0371C495.547 59.8464 495.472 59.6636 495.337 59.5287C495.203 59.3939 495.02 59.3181 494.83 59.3181H282.502C282.312 59.3181 282.13 59.3939 281.995 59.5287C281.86 59.6636 281.785 59.8464 281.785 60.0371C281.785 60.2278 281.86 60.4107 281.995 60.5455C282.13 60.6804 282.312 60.7561 282.502 60.7561Z" fill="#CCCCCC"/>
<path d="M282.502 85.2024H494.83C495.02 85.2024 495.203 85.1267 495.337 84.9918C495.472 84.857 495.547 84.6741 495.547 84.4834C495.547 84.2927 495.472 84.1098 495.337 83.975C495.203 83.8402 495.02 83.7644 494.83 83.7644H282.502C282.312 83.7644 282.13 83.8402 281.995 83.975C281.86 84.1098 281.785 84.2927 281.785 84.4834C281.785 84.6741 281.86 84.857 281.995 84.9918C282.13 85.1267 282.312 85.2024 282.502 85.2024Z" fill="#CCCCCC"/>
<path d="M282.502 109.649H494.83C495.02 109.649 495.203 109.573 495.337 109.438C495.472 109.303 495.547 109.12 495.547 108.93C495.547 108.739 495.472 108.556 495.337 108.421C495.203 108.286 495.02 108.211 494.83 108.211H282.502C282.312 108.211 282.13 108.286 281.995 108.421C281.86 108.556 281.785 108.739 281.785 108.93C281.785 109.12 281.86 109.303 281.995 109.438C282.13 109.573 282.312 109.649 282.502 109.649Z" fill="#CCCCCC"/>
<path d="M454.59 134H475.41C476.362 133.996 477.274 132.585 477.947 130.077C478.62 127.569 478.999 124.169 479 120.622V48.3784C478.999 44.8315 478.62 41.431 477.947 38.923C477.274 36.4149 476.362 35.0041 475.41 35H454.59C453.638 35.0041 452.726 36.4149 452.053 38.923C451.38 41.431 451.001 44.8315 451 48.3784V120.622C451.001 124.169 451.38 127.569 452.053 130.077C452.726 132.585 453.638 133.996 454.59 134Z" fill="#00A5B9"/>
<path d="M407.59 134H428.41C429.362 133.998 430.274 133.441 430.947 132.451C431.62 131.461 431.999 130.119 432 128.718V64.2817C431.999 62.8814 431.62 61.5389 430.947 60.5488C430.274 59.5586 429.362 59.0016 428.41 59H407.59C406.638 59.0016 405.726 59.5586 405.053 60.5488C404.38 61.5389 404.001 62.8814 404 64.2817V128.718C404.001 130.119 404.38 131.461 405.053 132.451C405.726 133.441 406.638 133.998 407.59 134Z" fill="#00A5B9"/>
<path d="M360.59 134H381.41C382.362 133.999 383.274 133.753 383.947 133.316C384.62 132.878 384.999 132.285 385 131.667V87.3333C384.999 86.7147 384.62 86.1216 383.947 85.6842C383.274 85.2468 382.362 85.0007 381.41 85H360.59C359.638 85.0007 358.726 85.2468 358.053 85.6842C357.38 86.1216 357.001 86.7147 357 87.3333V131.667C357.001 132.285 357.38 132.878 358.053 133.316C358.726 133.753 359.638 133.999 360.59 134Z" fill="#00A5B9"/>
<path d="M311.59 134H332.41C333.362 134 334.274 133.9 334.947 133.724C335.62 133.547 335.999 133.308 336 133.058V108.942C335.999 108.692 335.62 108.453 334.947 108.276C334.274 108.1 333.362 108 332.41 108H311.59C310.638 108 309.726 108.1 309.053 108.276C308.38 108.453 308.001 108.692 308 108.942V133.058C308.001 133.308 308.38 133.547 309.053 133.724C309.726 133.9 310.638 134 311.59 134Z" fill="#00A5B9"/>
<path opacity="0.25" d="M118.09 343.934C124.54 338.47 128.458 329.839 127.431 321.437C126.403 313.035 120.039 305.311 111.784 303.527C103.528 301.743 94.1177 306.682 91.6102 314.765C90.2303 299.181 88.6401 282.944 80.374 269.672C72.8893 257.655 59.9255 249.057 45.8758 247.519C31.826 245.98 17.0334 251.79 8.27106 262.906C-0.491272 274.021 -2.63669 290.18 3.50022 302.942C8.02107 312.343 16.3501 319.339 25.0768 325.031C53.2759 343.268 87.097 350.684 120.317 345.915L118.09 343.934Z" fill="url(#paint0_linear)"/>
<path d="M22.1646 252.112C33.7574 261.577 44.3926 272.162 53.9163 283.716C68.8209 301.734 80.8819 321.937 89.679 343.619C90.323 345.201 87.7605 345.889 87.1237 344.325C72.7301 309.087 49.7519 278.029 20.2908 253.99C18.9678 252.911 20.8526 251.041 22.1646 252.112Z" fill="white"/>
<path d="M186.123 146C186.938 145.998 187.752 145.916 188.552 145.756H188.552C188.698 145.727 188.844 145.695 188.99 145.662L364.661 104.664C366.569 104.219 367.836 103.015 367.609 101.865C367.513 101.526 367.326 101.221 367.068 100.982C366.81 100.743 366.491 100.58 366.146 100.512C365.298 100.277 364.406 100.257 363.548 100.454L186.787 137.455C182.807 138.288 180.044 140.736 180.497 143.029C180.734 144.228 181.788 145.158 183.464 145.648C184.33 145.889 185.225 146.008 186.123 146Z" fill="#3F3D56"/>
<path d="M223.336 140.328C222.427 140.864 221.412 141.193 220.362 141.293C219.312 141.393 218.253 141.26 217.26 140.906C216.267 140.551 215.363 139.982 214.613 139.239C213.862 138.497 213.284 137.598 212.917 136.607L187.289 137.143L194.389 125.845L217.637 127.069C219.339 126.562 221.167 126.699 222.776 127.453C224.384 128.207 225.66 129.527 226.362 131.161C227.065 132.796 227.145 134.631 226.587 136.321C226.029 138.01 224.873 139.436 223.336 140.328V140.328Z" fill="#FEB19E"/>
<path d="M212.205 136.225L212.338 128.351C212.348 127.538 212.054 126.751 211.514 126.145C210.974 125.539 210.227 125.157 209.42 125.075L163.367 120.621L124.997 108.011C123.839 107.63 122.617 107.484 121.402 107.581C120.187 107.678 119.004 108.016 117.92 108.576C116.837 109.135 115.875 109.905 115.092 110.84C114.308 111.776 113.717 112.858 113.354 114.024C112.991 115.191 112.863 116.417 112.978 117.634C113.092 118.85 113.447 120.031 114.021 121.109C114.594 122.187 115.376 123.139 116.321 123.911C117.265 124.683 118.354 125.26 119.522 125.606L161.992 138.21L208.896 139.405C209.605 139.422 210.3 139.205 210.874 138.788C211.448 138.37 211.869 137.775 212.073 137.094C212.156 136.812 212.2 136.519 212.205 136.225Z" fill="#3F3D56"/>
<path d="M144.053 339.215L152.847 339.214L157.031 305.214L144.052 305.215L144.053 339.215Z" fill="#FEB19E"/>
<path d="M141.81 347.76L170.166 347.759V347.399C170.166 345.946 169.881 344.508 169.326 343.166C168.771 341.823 167.958 340.604 166.934 339.577C165.909 338.549 164.692 337.734 163.353 337.178C162.014 336.622 160.579 336.336 159.129 336.336H159.128L141.81 336.337L141.81 347.76Z" fill="#2F2E41"/>
<path d="M118.229 339.215L127.024 339.214L131.207 305.214L118.228 305.215L118.229 339.215Z" fill="#FEB19E"/>
<path d="M115.987 347.76L144.343 347.759V347.399C144.343 345.946 144.057 344.508 143.503 343.166C142.948 341.823 142.135 340.604 141.11 339.577C140.085 338.549 138.868 337.734 137.529 337.178C136.19 336.622 134.755 336.336 133.306 336.336H133.305L115.986 336.337L115.987 347.76Z" fill="#2F2E41"/>
<path d="M112.327 201.807L114.427 326.694C114.434 327.09 114.522 327.48 114.685 327.839C114.849 328.199 115.085 328.521 115.379 328.786C115.673 329.05 116.018 329.251 116.392 329.375C116.767 329.5 117.163 329.546 117.556 329.51L127.847 328.572C128.522 328.511 129.153 328.212 129.629 327.728C130.105 327.245 130.395 326.608 130.448 325.93L136.472 248.029C136.486 247.846 136.57 247.676 136.705 247.552C136.841 247.429 137.019 247.362 137.202 247.366C137.385 247.37 137.559 247.443 137.69 247.572C137.821 247.7 137.897 247.874 137.904 248.058L140.916 327.742C140.944 328.486 141.258 329.189 141.793 329.705C142.327 330.221 143.041 330.509 143.783 330.509H154.819C155.55 330.509 156.253 330.23 156.785 329.728C157.318 329.226 157.639 328.54 157.683 327.809L165.409 201.088L119.5 189.584L112.327 201.807Z" fill="#2F2E41"/>
<path d="M145.626 89.637C135.896 89.637 128.008 81.7306 128.008 71.9774C128.008 62.2243 135.896 54.3179 145.626 54.3179C155.357 54.3179 163.245 62.2243 163.245 71.9774C163.245 81.7306 155.357 89.637 145.626 89.637Z" fill="#FEB19E"/>
<path d="M166.981 205.522C167.287 205.226 167.53 204.873 167.698 204.483C167.866 204.092 167.955 203.672 167.96 203.246L169.149 118.085C169.22 113.753 167.92 109.51 165.435 105.965C162.95 102.42 159.408 99.7555 155.317 98.3546C153.667 90.8486 144.882 89.9084 139.76 90.0207C138.482 90.0483 137.229 90.3844 136.108 91.0006C134.987 91.6168 134.031 92.4948 133.321 93.5603L129.649 99.08L121.558 103.834C117.813 106.025 114.859 109.352 113.123 113.334C111.386 117.316 110.956 121.749 111.895 125.992L113.141 131.671C117.528 151.774 117.11 172.632 111.923 192.543L109.416 202.123C109.286 202.622 109.276 203.145 109.388 203.648C109.5 204.152 109.731 204.621 110.061 205.017C110.39 205.413 110.81 205.724 111.284 205.925C111.758 206.125 112.273 206.209 112.786 206.169L115.698 205.945C116.453 205.887 117.165 205.565 117.707 205.034C118.249 204.503 118.587 203.797 118.662 203.041L119.144 198.212C119.153 198.123 119.194 198.041 119.26 197.981C119.326 197.921 119.412 197.888 119.501 197.888C119.59 197.888 119.675 197.921 119.741 197.981C119.807 198.041 119.849 198.123 119.858 198.212L120.324 202.887C120.403 203.677 120.768 204.411 121.352 204.948C121.935 205.485 122.694 205.789 123.486 205.801L164.683 206.436C164.7 206.436 164.717 206.437 164.734 206.437C165.574 206.439 166.381 206.11 166.981 205.522Z" fill="#3F3D56"/>
<path d="M144.248 82.1568C144.176 84.6532 142.447 86.0974 140.324 87.405C138.201 88.7125 135.72 89.2795 133.289 89.8264C132.962 90.0002 132.596 90.0868 132.227 90.0777C131.857 90.0686 131.496 89.9642 131.179 89.7745C130.861 89.5849 130.598 89.3163 130.414 88.9949C130.23 88.6734 130.132 88.3099 130.129 87.9393L127.899 79.4383C127.11 76.7228 126.536 73.9491 126.182 71.1431C125.645 65.744 126.922 59.9359 130.681 56.0322C134.441 52.1285 140.961 50.7417 145.467 53.7495C150.813 46.9047 175.252 62.0275 169.224 66.7872C168.151 67.6339 166.512 66.5625 165.151 66.4586C163.789 66.3548 162.264 66.5948 161.399 67.6537C160.269 69.0373 160.761 71.0982 160.296 72.824C160.103 73.4313 159.792 73.9944 159.382 74.4807C158.971 74.967 158.468 75.3671 157.903 75.6577C157.337 75.9484 156.719 76.1239 156.086 76.1741C155.452 76.2244 154.814 76.1484 154.21 75.9505C153.085 75.3946 152.026 74.7123 151.054 73.9168C150.01 73.2196 148.69 72.7045 147.515 73.1442C145.966 73.7237 145.415 75.625 145.275 77.2767C145.039 78.924 144.696 80.5542 144.248 82.1568Z" fill="#2F2E41"/>
<path d="M13.7346 348H287.035C287.225 348 287.408 347.924 287.542 347.789C287.677 347.655 287.752 347.472 287.752 347.281C287.752 347.09 287.677 346.907 287.542 346.773C287.408 346.638 287.225 346.562 287.035 346.562H13.7346C13.5444 346.562 13.362 346.638 13.2274 346.773C13.0929 346.907 13.0173 347.09 13.0173 347.281C13.0173 347.472 13.0929 347.655 13.2274 347.789C13.362 347.924 13.5444 348 13.7346 348Z" fill="#3F3D56"/>
<path opacity="0.2" d="M148.363 124.388L151.232 159.62L166.296 196.289L144.059 160.339L148.363 124.388Z" fill="black"/>
<path d="M169.818 209.945C168.996 209.283 168.328 208.448 167.863 207.5C167.397 206.552 167.144 205.513 167.123 204.456C167.101 203.399 167.311 202.35 167.737 201.384C168.163 200.417 168.796 199.556 169.59 198.86L159.994 175.035L173.051 177.678L180.162 199.898C181.239 201.313 181.76 203.075 181.627 204.849C181.495 206.624 180.717 208.288 179.442 209.526C178.167 210.765 176.483 211.491 174.71 211.568C172.936 211.646 171.195 211.068 169.818 209.945V209.945Z" fill="#FEB19E"/>
<path d="M170.517 199.437L177.908 196.767C178.67 196.488 179.299 195.933 179.673 195.212C180.047 194.49 180.137 193.655 179.927 192.87L167.735 148.134L165.876 107.702C165.82 106.482 165.522 105.285 165.001 104.181C164.479 103.077 163.744 102.088 162.837 101.271C161.931 100.454 160.871 99.8265 159.72 99.4239C158.57 99.0214 157.351 98.8521 156.134 98.9261C154.917 99 153.728 99.3156 152.634 99.8546C151.54 100.394 150.564 101.145 149.763 102.065C148.961 102.986 148.35 104.057 147.965 105.216C147.581 106.375 147.43 107.6 147.521 108.818L150.841 153.09L166.377 197.465C166.612 198.136 167.061 198.71 167.654 199.1C168.247 199.49 168.952 199.673 169.659 199.622C169.952 199.6 170.241 199.537 170.517 199.437Z" fill="#3F3D56"/>
<path d="M282.502 134.095H494.83C495.02 134.095 495.203 134.019 495.337 133.884C495.472 133.75 495.547 133.567 495.547 133.376C495.547 133.185 495.472 133.002 495.337 132.868C495.203 132.733 495.02 132.657 494.83 132.657H282.502C282.312 132.657 282.13 132.733 281.995 132.868C281.86 133.002 281.785 133.185 281.785 133.376C281.785 133.567 281.86 133.75 281.995 133.884C282.13 134.019 282.312 134.095 282.502 134.095Z" fill="#3F3D56"/>
<g opacity="0.8">
<path d="M361.616 230.172C360.406 228.599 358.972 227.206 357.372 226.037C353.907 223.49 349.62 222 345 222C333.421 222 324 231.425 324 243.007C324 254.589 333.421 264 345 264C348.952 264 352.668 262.9 355.827 260.979C357.539 259.949 359.083 258.668 360.433 257.22C363.885 253.476 366 248.478 366 243.007C366 238.176 364.358 233.722 361.616 230.172Z" fill="#A1A1A1" fill-opacity="0.25"/>
<path d="M367 264H358.183L355 260.881C356.804 259.817 358.433 258.495 359.856 257L367 264Z" fill="#A1A1A1"/>
<path d="M361.616 230.172C360.406 228.599 358.972 227.206 357.372 226.037C353.907 223.49 349.62 222 345 222C333.421 222 324 231.425 324 243.007C324 254.589 333.421 264 345 264C348.952 264 352.668 262.9 355.827 260.979C357.539 259.949 359.083 258.668 360.433 257.22C363.885 253.476 366 248.478 366 243.007C366 238.176 364.358 233.722 361.616 230.172ZM351.471 256.622C349.509 257.555 347.31 258.084 345 258.084C336.692 258.084 329.928 251.318 329.928 243.007C329.928 234.696 336.692 227.93 345 227.93C347.895 227.93 350.608 228.752 352.905 230.172C354.602 231.216 356.078 232.608 357.247 234.223C359.028 236.701 360.085 239.736 360.085 243.007C360.085 246.849 358.638 250.371 356.258 253.03C354.922 254.52 353.294 255.745 351.471 256.622Z" fill="#A1A1A1"/>
<path d="M355.997 252.431L346.807 243.592L367.713 224.478L369 222H367.713H361.431L338 243.43L351.491 256C353.293 255.198 354.617 253.88 355.997 252.431Z" fill="#A1A1A1"/>
<path d="M370.068 219.051L368.249 231.359L357.992 218.992L370.068 219.051Z" fill="#A2A2A2"/>
<path d="M407.598 254.147C409.379 254.147 410.959 254.377 412.337 254.837C413.716 255.296 415.009 255.957 416.215 256.819L412.381 261.859C410.686 260.107 408.991 258.786 407.297 257.896C405.631 257.005 403.52 256.56 400.963 256.56C398.35 256.56 396.066 255.957 394.113 254.751C392.189 253.544 390.695 251.792 389.633 249.494C388.599 247.168 388.082 244.367 388.082 241.093C388.082 237.876 388.613 235.105 389.676 232.778C390.767 230.423 392.304 228.628 394.286 227.393C396.296 226.129 398.651 225.497 401.351 225.497C404.08 225.497 406.435 226.115 408.417 227.35C410.399 228.556 411.921 230.322 412.984 232.649C414.046 234.975 414.578 237.79 414.578 241.093C414.578 244.454 413.946 247.182 412.682 249.279C411.418 251.347 409.724 252.97 407.598 254.147ZM394.759 241.093C394.759 244.884 395.32 247.642 396.44 249.365C397.56 251.088 399.197 251.95 401.351 251.95C403.534 251.95 405.171 251.103 406.263 249.408C407.354 247.685 407.9 244.913 407.9 241.093C407.9 237.273 407.354 234.516 406.263 232.821C405.171 231.098 403.534 230.236 401.351 230.236C399.168 230.236 397.517 231.098 396.397 232.821C395.305 234.544 394.759 237.302 394.759 241.093ZM437.946 256H432.647L432.346 252.941C431.541 254.205 430.565 255.153 429.416 255.785C428.267 256.388 426.931 256.689 425.409 256.689C423.341 256.689 421.761 256.072 420.67 254.837C419.579 253.573 419.033 251.821 419.033 249.581V233.166H425.151V248.805C425.151 250.011 425.352 250.873 425.754 251.39C426.156 251.878 426.788 252.122 427.65 252.122C429.287 252.122 430.68 251.132 431.829 249.15V233.166H437.946V256ZM450.45 226.186V250.916H462.255L461.566 256H444.117V226.186H450.45ZM482.936 249.667C482.936 250.557 483.065 251.218 483.324 251.649C483.582 252.051 484.013 252.352 484.616 252.553L483.324 256.603C481.974 256.488 480.868 256.172 480.006 255.655C479.173 255.138 478.527 254.334 478.067 253.243C476.574 255.54 474.29 256.689 471.217 256.689C468.948 256.689 467.139 256.043 465.789 254.751C464.467 253.429 463.807 251.72 463.807 249.624C463.807 247.125 464.712 245.215 466.521 243.894C468.331 242.572 470.93 241.912 474.319 241.912H476.947V240.792C476.947 239.384 476.631 238.408 475.999 237.862C475.368 237.316 474.319 237.043 472.854 237.043C471.246 237.043 469.235 237.445 466.823 238.25L465.444 234.157C468.288 233.037 471.102 232.476 473.888 232.476C476.99 232.476 479.274 233.151 480.739 234.501C482.203 235.823 482.936 237.804 482.936 240.447V249.667ZM472.897 252.295C474.621 252.295 475.971 251.448 476.947 249.753V245.401H474.922C471.619 245.401 469.968 246.637 469.968 249.107C469.968 250.112 470.212 250.902 470.7 251.476C471.217 252.022 471.95 252.295 472.897 252.295ZM501.413 232.476C504.084 232.476 506.152 233.539 507.617 235.665C509.111 237.79 509.858 240.763 509.858 244.583C509.858 246.938 509.484 249.035 508.737 250.873C508.019 252.683 506.971 254.104 505.592 255.138C504.242 256.172 502.648 256.689 500.81 256.689C498.311 256.689 496.315 255.713 494.821 253.76L494.477 256H489.048V224.075L495.166 223.386V235.622C495.884 234.645 496.789 233.884 497.88 233.338C498.972 232.764 500.149 232.476 501.413 232.476ZM499.087 252.166C502.016 252.166 503.481 249.638 503.481 244.583C503.481 241.797 503.122 239.844 502.404 238.724C501.715 237.575 500.71 237 499.388 237C497.751 237 496.344 237.977 495.166 239.93V249.71C496.171 251.347 497.478 252.166 499.087 252.166Z" fill="#A1A1A1"/>
</g>
<defs>
<linearGradient id="paint0_linear" x1="-1.23584e-05" y1="247.275" x2="132.708" y2="254.594" gradientUnits="userSpaceOnUse">
<stop stop-color="#00B38F"/>
<stop offset="1" stop-color="#00A5B9"/>
</linearGradient>
</defs>
</svg>
