<svg width="86" height="83" viewBox="0 0 86 83" fill="none" xmlns="http://www.w3.org/2000/svg">
<g opacity="0.6">
<mask id="path-1-outside-1" maskUnits="userSpaceOnUse" x="-0.134766" y="-0.449463" width="86" height="84" fill="black">
<rect fill="white" x="-0.134766" y="-0.449463" width="86" height="84"/>
<path d="M17.4176 82.2921H9.54357C9.39906 82.2921 9.2587 82.2435 9.14478 82.154C9.03086 82.0645 8.94991 81.9392 8.91479 81.7981L7.48416 76.0552C7.46021 75.959 7.45838 75.8585 7.47878 75.7615C7.49919 75.6644 7.5413 75.5733 7.60192 75.4951C7.66254 75.4169 7.74007 75.3536 7.82862 75.3101C7.91717 75.2666 8.0144 75.244 8.11294 75.244H18.8482C18.9467 75.244 19.044 75.2666 19.1325 75.3101C19.2211 75.3536 19.2986 75.4169 19.3592 75.4951C19.4198 75.5733 19.462 75.6644 19.4824 75.7615C19.5028 75.8585 19.5009 75.959 19.477 76.0552L18.0463 81.7981C18.0112 81.9392 17.9303 82.0645 17.8164 82.154C17.7024 82.2435 17.5621 82.2921 17.4176 82.2921ZM10.0492 80.9869H16.912L18.0178 76.5492H8.94267L10.0492 80.9869Z"/>
<path d="M76.4533 82.2921H68.5798C68.4353 82.2921 68.2949 82.2435 68.181 82.154C68.0671 82.0645 67.9861 81.9392 67.951 81.7981L66.5197 76.0552C66.4958 75.959 66.4939 75.8585 66.5143 75.7615C66.5347 75.6644 66.5769 75.5733 66.6375 75.4951C66.6981 75.4169 66.7756 75.3536 66.8642 75.3101C66.9527 75.2666 67.05 75.244 67.1485 75.244H77.8846C77.9832 75.244 78.0804 75.2666 78.1689 75.3101C78.2575 75.3536 78.335 75.4169 78.3957 75.4951C78.4563 75.5733 78.4984 75.6644 78.5188 75.7615C78.5392 75.8585 78.5374 75.959 78.5134 76.0552L77.0821 81.7981C77.047 81.9392 76.966 82.0645 76.8521 82.154C76.7382 82.2435 76.5978 82.2921 76.4533 82.2921ZM69.0854 80.9869H75.9477L77.0536 76.5492H67.9783L69.0854 80.9869Z"/>
<path d="M81.3253 76.5492H4.67422C3.66439 76.548 2.69625 76.1436 1.98219 75.4248C1.26812 74.7059 0.866435 73.7312 0.865234 72.7146V4.38588C0.866435 3.36916 1.2681 2.39443 1.98215 1.67545C2.69619 0.956462 3.66433 0.551919 4.67422 0.550537H81.3253C82.3353 0.551746 83.3036 0.956213 84.0178 1.67522C84.7319 2.39422 85.1337 3.36905 85.1349 4.38588V72.7132C85.1339 73.7302 84.7322 74.7052 84.018 75.4243C83.3038 76.1435 82.3354 76.548 81.3253 76.5492ZM4.67422 1.85574C4.00796 1.85643 3.36918 2.12324 2.89812 2.5976C2.42706 3.07196 2.16221 3.71511 2.16169 4.38588V72.7132C2.16221 73.3839 2.42708 74.027 2.89816 74.5013C3.36924 74.9755 4.00802 75.2422 4.67422 75.2427H81.3253C81.9913 75.2422 82.6299 74.9757 83.1011 74.5018C83.5722 74.0278 83.8374 73.3851 83.8384 72.7146V4.38588C83.8378 3.71505 83.5728 3.07191 83.1016 2.59756C82.6304 2.12322 81.9916 1.85643 81.3253 1.85574H4.67422Z"/>
<path d="M79.5799 63.3992H72.9349C72.763 63.3992 72.5981 63.3305 72.4766 63.2081C72.355 63.0857 72.2867 62.9197 72.2867 62.7466V48.8429C72.2867 48.6698 72.355 48.5038 72.4766 48.3814C72.5981 48.259 72.763 48.1903 72.9349 48.1903H79.5799C79.7518 48.1903 79.9167 48.259 80.0383 48.3814C80.1599 48.5038 80.2281 48.6698 80.2281 48.8429V62.7466C80.2281 62.9197 80.1599 63.0857 80.0383 63.2081C79.9167 63.3305 79.7518 63.3992 79.5799 63.3992ZM73.5832 62.094H78.9317V49.4955H73.5832V62.094Z"/>
<path d="M76.2613 70.3505H9.26432C9.0924 70.3505 8.92752 70.2818 8.80595 70.1594C8.68439 70.037 8.61609 69.871 8.61609 69.698V7.40192C8.61609 7.22884 8.68439 7.06284 8.80595 6.94046C8.92752 6.81807 9.0924 6.74932 9.26432 6.74932H76.2613C76.4332 6.74932 76.5981 6.81807 76.7197 6.94046C76.8412 7.06284 76.9095 7.22884 76.9095 7.40192V14.3534C76.9095 14.5265 76.8412 14.6925 76.7197 14.8149C76.5981 14.9373 76.4332 15.006 76.2613 15.006H73.5841V27.5973H76.2613C76.4332 27.5973 76.5981 27.6661 76.7197 27.7885C76.8412 27.9109 76.9095 28.0768 76.9095 28.2499V48.8428C76.9095 49.0158 76.8412 49.1818 76.7197 49.3042C76.5981 49.4266 76.4332 49.4954 76.2613 49.4954L73.5832 49.4955V62.094L76.2613 62.0938C76.4332 62.0938 76.5981 62.1626 76.7197 62.285C76.8412 62.4074 76.9095 62.5734 76.9095 62.7464V69.698C76.9095 69.871 76.8412 70.037 76.7197 70.1594C76.5981 70.2818 76.4332 70.3505 76.2613 70.3505ZM9.91255 69.0453H75.6131V63.399L72.9349 63.3992C72.763 63.3992 72.5981 63.3305 72.4766 63.2081C72.355 63.0857 72.2867 62.9197 72.2867 62.7466V48.8429C72.2867 48.6698 72.355 48.5038 72.4766 48.3814C72.5981 48.259 72.763 48.1903 72.9349 48.1903L75.6131 48.1902V28.9025H72.9359C72.764 28.9025 72.5991 28.8338 72.4775 28.7114C72.3559 28.589 72.2877 28.423 72.2877 28.2499V14.3534C72.2877 14.1803 72.3559 14.0144 72.4775 13.892C72.5991 13.7696 72.764 13.7008 72.9359 13.7008H75.6131V8.05452H9.91255V69.0453Z"/>
<path d="M79.5799 28.9029L72.9359 28.9025C72.764 28.9025 72.5991 28.8338 72.4775 28.7114C72.3559 28.589 72.2877 28.423 72.2877 28.2499V14.3534C72.2877 14.1803 72.3559 14.0144 72.4775 13.892C72.5991 13.7696 72.764 13.7008 72.9359 13.7008L79.5799 13.7011C79.7518 13.7011 79.9167 13.7699 80.0383 13.8923C80.1599 14.0147 80.2281 14.1807 80.2281 14.3537V28.2503C80.2281 28.4234 80.1599 28.5894 80.0383 28.7118C79.9167 28.8342 79.7518 28.9029 79.5799 28.9029ZM73.5841 27.5973L78.9317 27.5977V15.0064L73.5841 15.006V27.5973Z"/>
<path d="M27.7282 49.429C25.5909 49.429 23.5015 48.7909 21.7243 47.5954C19.9472 46.3999 18.5621 44.7007 17.7442 42.7127C16.9263 40.7247 16.7123 38.5372 17.1293 36.4268C17.5463 34.3163 18.5756 32.3778 20.087 30.8563C21.5984 29.3348 23.524 28.2986 25.6204 27.8789C27.7167 27.4592 29.8896 27.6748 31.8642 28.4983C33.8388 29.3218 35.5266 30.7164 36.7139 32.5056C37.9013 34.2948 38.535 36.3983 38.5348 38.5501C38.5314 41.4344 37.3917 44.1996 35.3658 46.2391C33.3399 48.2785 30.5932 49.4257 27.7282 49.429ZM27.7282 28.9752C25.8473 28.9752 24.0087 29.5367 22.4447 30.5887C20.8808 31.6407 19.6619 33.136 18.9421 34.8854C18.2222 36.6348 18.0339 38.5599 18.4008 40.4171C18.7677 42.2743 19.6734 43.9803 21.0033 45.3193C22.3333 46.6583 24.0278 47.5702 25.8725 47.9397C27.7172 48.3092 29.6294 48.1197 31.3672 47.3952C33.1049 46.6706 34.5903 45.4436 35.6353 43.8692C36.6804 42.2948 37.2383 40.4437 37.2384 38.5501C37.2358 36.0116 36.233 33.5778 34.4501 31.7827C32.6672 29.9876 30.2498 28.9779 27.7282 28.9752Z"/>
<path d="M27.7285 45.646C26.3341 45.6461 24.9711 45.23 23.8117 44.4502C22.6524 43.6704 21.7487 42.562 21.2151 41.2652C20.6814 39.9684 20.5418 38.5413 20.8138 37.1646C21.0857 35.7879 21.7571 34.5232 22.7431 33.5307C23.729 32.5381 24.9852 31.8622 26.3527 31.5883C27.7202 31.3145 29.1377 31.4551 30.4258 31.9923C31.714 32.5296 32.815 33.4393 33.5895 34.6065C34.3641 35.7737 34.7774 37.1459 34.7773 38.5496C34.7749 40.431 34.0315 42.2346 32.7101 43.5648C31.3887 44.8951 29.5972 45.6436 27.7285 45.646ZM27.7285 32.7572C26.5906 32.7571 25.4783 33.0966 24.5321 33.7329C23.586 34.3692 22.8485 35.2737 22.413 36.332C21.9774 37.3902 21.8633 38.5548 22.0852 39.6783C22.3071 40.8018 22.8549 41.8339 23.6593 42.644C24.4638 43.454 25.4889 44.0058 26.6048 44.2294C27.7208 44.453 28.8775 44.3384 29.9288 43.9002C30.9801 43.4619 31.8787 42.7197 32.5109 41.7673C33.1432 40.8149 33.4807 39.6952 33.4808 38.5496C33.4791 37.0141 32.8726 35.542 31.7942 34.4561C30.7158 33.3702 29.2537 32.7593 27.7285 32.7572Z"/>
<path d="M27.7301 28.975C27.5581 28.975 27.3933 28.9063 27.2717 28.7839C27.1501 28.6615 27.0818 28.4955 27.0818 28.3224V24.681C27.0818 24.5079 27.1501 24.3419 27.2717 24.2195C27.3933 24.0971 27.5581 24.0284 27.7301 24.0284C27.902 24.0284 28.0669 24.0971 28.1885 24.2195C28.31 24.3419 28.3783 24.5079 28.3783 24.681V28.3224C28.3783 28.4955 28.31 28.6615 28.1885 28.7839C28.0669 28.9063 27.902 28.975 27.7301 28.975Z"/>
<path d="M27.7301 53.0711C27.5581 53.0711 27.3933 53.0023 27.2717 52.88C27.1501 52.7576 27.0818 52.5916 27.0818 52.4185V48.777C27.0818 48.6039 27.1501 48.438 27.2717 48.3156C27.3933 48.1932 27.5581 48.1244 27.7301 48.1244C27.902 48.1244 28.0669 48.1932 28.1885 48.3156C28.31 48.438 28.3783 48.6039 28.3783 48.777V52.4185C28.3783 52.5916 28.31 52.7576 28.1885 52.88C28.0669 53.0023 27.902 53.0711 27.7301 53.0711Z"/>
<path d="M41.5043 39.204H37.8872C37.7153 39.204 37.5504 39.1353 37.4289 39.0129C37.3073 38.8905 37.239 38.7245 37.239 38.5514C37.239 38.3783 37.3073 38.2123 37.4289 38.0899C37.5504 37.9675 37.7153 37.8987 37.8872 37.8987H41.5043C41.6762 37.8987 41.8411 37.9675 41.9627 38.0899C42.0842 38.2123 42.1525 38.3783 42.1525 38.5514C42.1525 38.7245 42.0842 38.8905 41.9627 39.0129C41.8411 39.1353 41.6762 39.204 41.5043 39.204Z"/>
<path d="M17.5704 39.204H13.9527C13.7807 39.204 13.6159 39.1353 13.4943 39.0129C13.3727 38.8905 13.3044 38.7245 13.3044 38.5514C13.3044 38.3783 13.3727 38.2123 13.4943 38.0899C13.6159 37.9675 13.7807 37.8987 13.9527 37.8987H17.5704C17.7423 37.8987 17.9072 37.9675 18.0288 38.0899C18.1503 38.2123 18.2186 38.3783 18.2186 38.5514C18.2186 38.7245 18.1503 38.8905 18.0288 39.0129C17.9072 39.1353 17.7423 39.204 17.5704 39.204Z"/>
<path d="M34.911 31.9706C34.7828 31.9706 34.6575 31.9323 34.5509 31.8606C34.4443 31.7889 34.3613 31.6869 34.3122 31.5677C34.2632 31.4485 34.2503 31.3173 34.2753 31.1907C34.3003 31.0641 34.3621 30.9479 34.4527 30.8566L37.0112 28.2815C37.071 28.2191 37.1425 28.1694 37.2216 28.1352C37.3007 28.101 37.3857 28.083 37.4718 28.0823C37.5579 28.0815 37.6432 28.098 37.7229 28.1308C37.8025 28.1636 37.8749 28.2121 37.9358 28.2734C37.9966 28.3346 38.0448 28.4075 38.0774 28.4877C38.11 28.5679 38.1264 28.6538 38.1256 28.7405C38.1249 28.8271 38.107 28.9128 38.073 28.9924C38.039 29.072 37.9897 29.144 37.9277 29.2042L35.3693 31.7794C35.2477 31.9018 35.0829 31.9706 34.911 31.9706Z"/>
<path d="M17.988 49.0088C17.8599 49.0088 17.7346 48.9705 17.628 48.8988C17.5214 48.8271 17.4383 48.7252 17.3893 48.6059C17.3402 48.4867 17.3274 48.3555 17.3524 48.2289C17.3774 48.1023 17.4391 47.9861 17.5297 47.8948L20.0877 45.3202C20.2099 45.2014 20.3737 45.1356 20.5437 45.1371C20.7136 45.1386 20.8762 45.2072 20.9964 45.3282C21.1166 45.4492 21.1848 45.6129 21.1862 45.784C21.1877 45.9551 21.1224 46.12 21.0043 46.243L18.4463 48.8176C18.3248 48.94 18.16 49.0088 17.988 49.0088Z"/>
<path d="M37.4677 49.0088C37.2958 49.0088 37.131 48.94 37.0094 48.8176L34.4509 46.243C34.3329 46.12 34.2675 45.9551 34.269 45.784C34.2705 45.6129 34.3386 45.4492 34.4588 45.3282C34.579 45.2072 34.7416 45.1386 34.9116 45.1371C35.0815 45.1356 35.2453 45.2014 35.3675 45.3202L37.926 47.8948C38.0167 47.9861 38.0784 48.1023 38.1034 48.2289C38.1284 48.3555 38.1155 48.4867 38.0665 48.6059C38.0174 48.7252 37.9344 48.8271 37.8278 48.8988C37.7212 48.9705 37.5959 49.0088 37.4677 49.0088Z"/>
<path d="M20.5472 31.9695C20.3753 31.9695 20.2104 31.9007 20.0889 31.7783L17.5309 29.2031C17.4129 29.08 17.3475 28.9152 17.349 28.7441C17.3505 28.573 17.4186 28.4093 17.5388 28.2883C17.659 28.1673 17.8216 28.0987 17.9916 28.0972C18.1615 28.0957 18.3253 28.1615 18.4475 28.2804L21.0055 30.8555C21.0961 30.9468 21.1578 31.063 21.1828 31.1896C21.2078 31.3162 21.195 31.4474 21.1459 31.5666C21.0969 31.6858 21.0138 31.7878 20.9072 31.8595C20.8007 31.9312 20.6754 31.9695 20.5472 31.9695Z"/>
</mask>
<path d="M17.4176 82.2921H9.54357C9.39906 82.2921 9.2587 82.2435 9.14478 82.154C9.03086 82.0645 8.94991 81.9392 8.91479 81.7981L7.48416 76.0552C7.46021 75.959 7.45838 75.8585 7.47878 75.7615C7.49919 75.6644 7.5413 75.5733 7.60192 75.4951C7.66254 75.4169 7.74007 75.3536 7.82862 75.3101C7.91717 75.2666 8.0144 75.244 8.11294 75.244H18.8482C18.9467 75.244 19.044 75.2666 19.1325 75.3101C19.2211 75.3536 19.2986 75.4169 19.3592 75.4951C19.4198 75.5733 19.462 75.6644 19.4824 75.7615C19.5028 75.8585 19.5009 75.959 19.477 76.0552L18.0463 81.7981C18.0112 81.9392 17.9303 82.0645 17.8164 82.154C17.7024 82.2435 17.5621 82.2921 17.4176 82.2921ZM10.0492 80.9869H16.912L18.0178 76.5492H8.94267L10.0492 80.9869Z" fill="#735A94"/>
<path d="M76.4533 82.2921H68.5798C68.4353 82.2921 68.2949 82.2435 68.181 82.154C68.0671 82.0645 67.9861 81.9392 67.951 81.7981L66.5197 76.0552C66.4958 75.959 66.4939 75.8585 66.5143 75.7615C66.5347 75.6644 66.5769 75.5733 66.6375 75.4951C66.6981 75.4169 66.7756 75.3536 66.8642 75.3101C66.9527 75.2666 67.05 75.244 67.1485 75.244H77.8846C77.9832 75.244 78.0804 75.2666 78.1689 75.3101C78.2575 75.3536 78.335 75.4169 78.3957 75.4951C78.4563 75.5733 78.4984 75.6644 78.5188 75.7615C78.5392 75.8585 78.5374 75.959 78.5134 76.0552L77.0821 81.7981C77.047 81.9392 76.966 82.0645 76.8521 82.154C76.7382 82.2435 76.5978 82.2921 76.4533 82.2921ZM69.0854 80.9869H75.9477L77.0536 76.5492H67.9783L69.0854 80.9869Z" fill="#735A94"/>
<path d="M81.3253 76.5492H4.67422C3.66439 76.548 2.69625 76.1436 1.98219 75.4248C1.26812 74.7059 0.866435 73.7312 0.865234 72.7146V4.38588C0.866435 3.36916 1.2681 2.39443 1.98215 1.67545C2.69619 0.956462 3.66433 0.551919 4.67422 0.550537H81.3253C82.3353 0.551746 83.3036 0.956213 84.0178 1.67522C84.7319 2.39422 85.1337 3.36905 85.1349 4.38588V72.7132C85.1339 73.7302 84.7322 74.7052 84.018 75.4243C83.3038 76.1435 82.3354 76.548 81.3253 76.5492ZM4.67422 1.85574C4.00796 1.85643 3.36918 2.12324 2.89812 2.5976C2.42706 3.07196 2.16221 3.71511 2.16169 4.38588V72.7132C2.16221 73.3839 2.42708 74.027 2.89816 74.5013C3.36924 74.9755 4.00802 75.2422 4.67422 75.2427H81.3253C81.9913 75.2422 82.6299 74.9757 83.1011 74.5018C83.5722 74.0278 83.8374 73.3851 83.8384 72.7146V4.38588C83.8378 3.71505 83.5728 3.07191 83.1016 2.59756C82.6304 2.12322 81.9916 1.85643 81.3253 1.85574H4.67422Z" fill="#735A94"/>
<path d="M79.5799 63.3992H72.9349C72.763 63.3992 72.5981 63.3305 72.4766 63.2081C72.355 63.0857 72.2867 62.9197 72.2867 62.7466V48.8429C72.2867 48.6698 72.355 48.5038 72.4766 48.3814C72.5981 48.259 72.763 48.1903 72.9349 48.1903H79.5799C79.7518 48.1903 79.9167 48.259 80.0383 48.3814C80.1599 48.5038 80.2281 48.6698 80.2281 48.8429V62.7466C80.2281 62.9197 80.1599 63.0857 80.0383 63.2081C79.9167 63.3305 79.7518 63.3992 79.5799 63.3992ZM73.5832 62.094H78.9317V49.4955H73.5832V62.094Z" fill="#735A94"/>
<path d="M76.2613 70.3505H9.26432C9.0924 70.3505 8.92752 70.2818 8.80595 70.1594C8.68439 70.037 8.61609 69.871 8.61609 69.698V7.40192C8.61609 7.22884 8.68439 7.06284 8.80595 6.94046C8.92752 6.81807 9.0924 6.74932 9.26432 6.74932H76.2613C76.4332 6.74932 76.5981 6.81807 76.7197 6.94046C76.8412 7.06284 76.9095 7.22884 76.9095 7.40192V14.3534C76.9095 14.5265 76.8412 14.6925 76.7197 14.8149C76.5981 14.9373 76.4332 15.006 76.2613 15.006H73.5841V27.5973H76.2613C76.4332 27.5973 76.5981 27.6661 76.7197 27.7885C76.8412 27.9109 76.9095 28.0768 76.9095 28.2499V48.8428C76.9095 49.0158 76.8412 49.1818 76.7197 49.3042C76.5981 49.4266 76.4332 49.4954 76.2613 49.4954L73.5832 49.4955V62.094L76.2613 62.0938C76.4332 62.0938 76.5981 62.1626 76.7197 62.285C76.8412 62.4074 76.9095 62.5734 76.9095 62.7464V69.698C76.9095 69.871 76.8412 70.037 76.7197 70.1594C76.5981 70.2818 76.4332 70.3505 76.2613 70.3505ZM9.91255 69.0453H75.6131V63.399L72.9349 63.3992C72.763 63.3992 72.5981 63.3305 72.4766 63.2081C72.355 63.0857 72.2867 62.9197 72.2867 62.7466V48.8429C72.2867 48.6698 72.355 48.5038 72.4766 48.3814C72.5981 48.259 72.763 48.1903 72.9349 48.1903L75.6131 48.1902V28.9025H72.9359C72.764 28.9025 72.5991 28.8338 72.4775 28.7114C72.3559 28.589 72.2877 28.423 72.2877 28.2499V14.3534C72.2877 14.1803 72.3559 14.0144 72.4775 13.892C72.5991 13.7696 72.764 13.7008 72.9359 13.7008H75.6131V8.05452H9.91255V69.0453Z" fill="#735A94"/>
<path d="M79.5799 28.9029L72.9359 28.9025C72.764 28.9025 72.5991 28.8338 72.4775 28.7114C72.3559 28.589 72.2877 28.423 72.2877 28.2499V14.3534C72.2877 14.1803 72.3559 14.0144 72.4775 13.892C72.5991 13.7696 72.764 13.7008 72.9359 13.7008L79.5799 13.7011C79.7518 13.7011 79.9167 13.7699 80.0383 13.8923C80.1599 14.0147 80.2281 14.1807 80.2281 14.3537V28.2503C80.2281 28.4234 80.1599 28.5894 80.0383 28.7118C79.9167 28.8342 79.7518 28.9029 79.5799 28.9029ZM73.5841 27.5973L78.9317 27.5977V15.0064L73.5841 15.006V27.5973Z" fill="#735A94"/>
<path d="M27.7282 49.429C25.5909 49.429 23.5015 48.7909 21.7243 47.5954C19.9472 46.3999 18.5621 44.7007 17.7442 42.7127C16.9263 40.7247 16.7123 38.5372 17.1293 36.4268C17.5463 34.3163 18.5756 32.3778 20.087 30.8563C21.5984 29.3348 23.524 28.2986 25.6204 27.8789C27.7167 27.4592 29.8896 27.6748 31.8642 28.4983C33.8388 29.3218 35.5266 30.7164 36.7139 32.5056C37.9013 34.2948 38.535 36.3983 38.5348 38.5501C38.5314 41.4344 37.3917 44.1996 35.3658 46.2391C33.3399 48.2785 30.5932 49.4257 27.7282 49.429ZM27.7282 28.9752C25.8473 28.9752 24.0087 29.5367 22.4447 30.5887C20.8808 31.6407 19.6619 33.136 18.9421 34.8854C18.2222 36.6348 18.0339 38.5599 18.4008 40.4171C18.7677 42.2743 19.6734 43.9803 21.0033 45.3193C22.3333 46.6583 24.0278 47.5702 25.8725 47.9397C27.7172 48.3092 29.6294 48.1197 31.3672 47.3952C33.1049 46.6706 34.5903 45.4436 35.6353 43.8692C36.6804 42.2948 37.2383 40.4437 37.2384 38.5501C37.2358 36.0116 36.233 33.5778 34.4501 31.7827C32.6672 29.9876 30.2498 28.9779 27.7282 28.9752Z" fill="#735A94"/>
<path d="M27.7285 45.646C26.3341 45.6461 24.9711 45.23 23.8117 44.4502C22.6524 43.6704 21.7487 42.562 21.2151 41.2652C20.6814 39.9684 20.5418 38.5413 20.8138 37.1646C21.0857 35.7879 21.7571 34.5232 22.7431 33.5307C23.729 32.5381 24.9852 31.8622 26.3527 31.5883C27.7202 31.3145 29.1377 31.4551 30.4258 31.9923C31.714 32.5296 32.815 33.4393 33.5895 34.6065C34.3641 35.7737 34.7774 37.1459 34.7773 38.5496C34.7749 40.431 34.0315 42.2346 32.7101 43.5648C31.3887 44.8951 29.5972 45.6436 27.7285 45.646ZM27.7285 32.7572C26.5906 32.7571 25.4783 33.0966 24.5321 33.7329C23.586 34.3692 22.8485 35.2737 22.413 36.332C21.9774 37.3902 21.8633 38.5548 22.0852 39.6783C22.3071 40.8018 22.8549 41.8339 23.6593 42.644C24.4638 43.454 25.4889 44.0058 26.6048 44.2294C27.7208 44.453 28.8775 44.3384 29.9288 43.9002C30.9801 43.4619 31.8787 42.7197 32.5109 41.7673C33.1432 40.8149 33.4807 39.6952 33.4808 38.5496C33.4791 37.0141 32.8726 35.542 31.7942 34.4561C30.7158 33.3702 29.2537 32.7593 27.7285 32.7572Z" fill="#735A94"/>
<path d="M27.7301 28.975C27.5581 28.975 27.3933 28.9063 27.2717 28.7839C27.1501 28.6615 27.0818 28.4955 27.0818 28.3224V24.681C27.0818 24.5079 27.1501 24.3419 27.2717 24.2195C27.3933 24.0971 27.5581 24.0284 27.7301 24.0284C27.902 24.0284 28.0669 24.0971 28.1885 24.2195C28.31 24.3419 28.3783 24.5079 28.3783 24.681V28.3224C28.3783 28.4955 28.31 28.6615 28.1885 28.7839C28.0669 28.9063 27.902 28.975 27.7301 28.975Z" fill="#735A94"/>
<path d="M27.7301 53.0711C27.5581 53.0711 27.3933 53.0023 27.2717 52.88C27.1501 52.7576 27.0818 52.5916 27.0818 52.4185V48.777C27.0818 48.6039 27.1501 48.438 27.2717 48.3156C27.3933 48.1932 27.5581 48.1244 27.7301 48.1244C27.902 48.1244 28.0669 48.1932 28.1885 48.3156C28.31 48.438 28.3783 48.6039 28.3783 48.777V52.4185C28.3783 52.5916 28.31 52.7576 28.1885 52.88C28.0669 53.0023 27.902 53.0711 27.7301 53.0711Z" fill="#735A94"/>
<path d="M41.5043 39.204H37.8872C37.7153 39.204 37.5504 39.1353 37.4289 39.0129C37.3073 38.8905 37.239 38.7245 37.239 38.5514C37.239 38.3783 37.3073 38.2123 37.4289 38.0899C37.5504 37.9675 37.7153 37.8987 37.8872 37.8987H41.5043C41.6762 37.8987 41.8411 37.9675 41.9627 38.0899C42.0842 38.2123 42.1525 38.3783 42.1525 38.5514C42.1525 38.7245 42.0842 38.8905 41.9627 39.0129C41.8411 39.1353 41.6762 39.204 41.5043 39.204Z" fill="#735A94"/>
<path d="M17.5704 39.204H13.9527C13.7807 39.204 13.6159 39.1353 13.4943 39.0129C13.3727 38.8905 13.3044 38.7245 13.3044 38.5514C13.3044 38.3783 13.3727 38.2123 13.4943 38.0899C13.6159 37.9675 13.7807 37.8987 13.9527 37.8987H17.5704C17.7423 37.8987 17.9072 37.9675 18.0288 38.0899C18.1503 38.2123 18.2186 38.3783 18.2186 38.5514C18.2186 38.7245 18.1503 38.8905 18.0288 39.0129C17.9072 39.1353 17.7423 39.204 17.5704 39.204Z" fill="#735A94"/>
<path d="M34.911 31.9706C34.7828 31.9706 34.6575 31.9323 34.5509 31.8606C34.4443 31.7889 34.3613 31.6869 34.3122 31.5677C34.2632 31.4485 34.2503 31.3173 34.2753 31.1907C34.3003 31.0641 34.3621 30.9479 34.4527 30.8566L37.0112 28.2815C37.071 28.2191 37.1425 28.1694 37.2216 28.1352C37.3007 28.101 37.3857 28.083 37.4718 28.0823C37.5579 28.0815 37.6432 28.098 37.7229 28.1308C37.8025 28.1636 37.8749 28.2121 37.9358 28.2734C37.9966 28.3346 38.0448 28.4075 38.0774 28.4877C38.11 28.5679 38.1264 28.6538 38.1256 28.7405C38.1249 28.8271 38.107 28.9128 38.073 28.9924C38.039 29.072 37.9897 29.144 37.9277 29.2042L35.3693 31.7794C35.2477 31.9018 35.0829 31.9706 34.911 31.9706Z" fill="#735A94"/>
<path d="M17.988 49.0088C17.8599 49.0088 17.7346 48.9705 17.628 48.8988C17.5214 48.8271 17.4383 48.7252 17.3893 48.6059C17.3402 48.4867 17.3274 48.3555 17.3524 48.2289C17.3774 48.1023 17.4391 47.9861 17.5297 47.8948L20.0877 45.3202C20.2099 45.2014 20.3737 45.1356 20.5437 45.1371C20.7136 45.1386 20.8762 45.2072 20.9964 45.3282C21.1166 45.4492 21.1848 45.6129 21.1862 45.784C21.1877 45.9551 21.1224 46.12 21.0043 46.243L18.4463 48.8176C18.3248 48.94 18.16 49.0088 17.988 49.0088Z" fill="#735A94"/>
<path d="M37.4677 49.0088C37.2958 49.0088 37.131 48.94 37.0094 48.8176L34.4509 46.243C34.3329 46.12 34.2675 45.9551 34.269 45.784C34.2705 45.6129 34.3386 45.4492 34.4588 45.3282C34.579 45.2072 34.7416 45.1386 34.9116 45.1371C35.0815 45.1356 35.2453 45.2014 35.3675 45.3202L37.926 47.8948C38.0167 47.9861 38.0784 48.1023 38.1034 48.2289C38.1284 48.3555 38.1155 48.4867 38.0665 48.6059C38.0174 48.7252 37.9344 48.8271 37.8278 48.8988C37.7212 48.9705 37.5959 49.0088 37.4677 49.0088Z" fill="#735A94"/>
<path d="M20.5472 31.9695C20.3753 31.9695 20.2104 31.9007 20.0889 31.7783L17.5309 29.2031C17.4129 29.08 17.3475 28.9152 17.349 28.7441C17.3505 28.573 17.4186 28.4093 17.5388 28.2883C17.659 28.1673 17.8216 28.0987 17.9916 28.0972C18.1615 28.0957 18.3253 28.1615 18.4475 28.2804L21.0055 30.8555C21.0961 30.9468 21.1578 31.063 21.1828 31.1896C21.2078 31.3162 21.195 31.4474 21.1459 31.5666C21.0969 31.6858 21.0138 31.7878 20.9072 31.8595C20.8007 31.9312 20.6754 31.9695 20.5472 31.9695Z" fill="#735A94"/>
<path d="M72.9349 63.1992C72.8165 63.1992 72.7026 63.1519 72.6185 63.0671L72.3347 63.349C72.4936 63.5091 72.7095 63.5992 72.9349 63.5992V63.1992ZM72.6185 63.0671C72.5342 62.9824 72.4867 62.8671 72.4867 62.7466H72.0867C72.0867 62.9723 72.1757 63.189 72.3347 63.349L72.6185 63.0671ZM72.4867 62.7466V48.8429H72.0867V62.7466H72.4867ZM72.4867 48.8429C72.4867 48.7224 72.5342 48.6071 72.6185 48.5224L72.3347 48.2405C72.1757 48.4005 72.0867 48.6172 72.0867 48.8429H72.4867ZM72.6185 48.5224C72.7026 48.4376 72.8165 48.3903 72.9349 48.3903V47.9903C72.7095 47.9903 72.4936 48.0804 72.3347 48.2405L72.6185 48.5224ZM73.3832 49.4955V62.094H73.7832V49.4955H73.3832ZM73.3841 15.006V27.5973H73.7841V15.006H73.3841ZM72.9359 28.7025C72.8174 28.7025 72.7036 28.6552 72.6194 28.5704L72.3356 28.8523C72.4946 29.0124 72.7105 29.1025 72.9359 29.1025V28.7025ZM72.6194 28.5704C72.5352 28.4857 72.4877 28.3704 72.4877 28.2499H72.0877C72.0877 28.4756 72.1767 28.6923 72.3356 28.8523L72.6194 28.5704ZM72.4877 28.2499V14.3534H72.0877V28.2499H72.4877ZM72.4877 14.3534C72.4877 14.233 72.5352 14.1177 72.6194 14.0329L72.3356 13.751C72.1767 13.911 72.0877 14.1277 72.0877 14.3534H72.4877ZM72.6194 14.0329C72.7036 13.9482 72.8174 13.9008 72.9359 13.9008V13.5008C72.7105 13.5008 72.4946 13.591 72.3356 13.751L72.6194 14.0329ZM17.4176 82.2921V82.6921H17.4176L17.4176 82.2921ZM9.54357 82.2921L9.54356 82.6921H9.54357V82.2921ZM8.91479 81.7981L9.30296 81.7015L9.30293 81.7014L8.91479 81.7981ZM7.48416 76.0552L7.09599 76.1518L7.09602 76.1519L7.48416 76.0552ZM8.11294 75.244V74.844H8.11293L8.11294 75.244ZM18.8482 75.244L18.8482 74.844H18.8482V75.244ZM19.477 76.0552L19.8651 76.1519L19.8651 76.1518L19.477 76.0552ZM18.0463 81.7981L17.6582 81.7014L17.6582 81.7015L18.0463 81.7981ZM10.0492 80.9869L9.66107 81.0837C9.7055 81.2619 9.86555 81.3869 10.0492 81.3869V80.9869ZM16.912 80.9869V81.3869C17.0956 81.3869 17.2557 81.2619 17.3001 81.0836L16.912 80.9869ZM18.0178 76.5492L18.406 76.6459C18.4357 76.5265 18.4088 76.3999 18.333 76.3029C18.2572 76.2059 18.1409 76.1492 18.0178 76.1492V76.5492ZM8.94267 76.5492V76.1492C8.81954 76.1492 8.70327 76.2059 8.62746 76.3029C8.55165 76.4 8.52476 76.5265 8.55455 76.646L8.94267 76.5492ZM76.4533 82.2921V82.6921H76.4533L76.4533 82.2921ZM68.5798 82.2921L68.5798 82.6921H68.5798V82.2921ZM67.951 81.7981L68.3392 81.7015L68.3392 81.7014L67.951 81.7981ZM66.5197 76.0552L66.1316 76.1518L66.1316 76.1519L66.5197 76.0552ZM67.1485 75.244V74.844H67.1485L67.1485 75.244ZM77.8846 75.244L77.8846 74.844H77.8846V75.244ZM78.5134 76.0552L78.9015 76.1519L78.9016 76.1518L78.5134 76.0552ZM77.0821 81.7981L76.694 81.7014L76.6939 81.7015L77.0821 81.7981ZM69.0854 80.9869L68.6973 81.0838C68.7418 81.2619 68.9018 81.3869 69.0854 81.3869V80.9869ZM75.9477 80.9869V81.3869C76.1314 81.3869 76.2914 81.2619 76.3358 81.0836L75.9477 80.9869ZM77.0536 76.5492L77.4417 76.6459C77.4715 76.5265 77.4446 76.3999 77.3688 76.3029C77.293 76.2059 77.1767 76.1492 77.0536 76.1492V76.5492ZM67.9783 76.5492V76.1492C67.8551 76.1492 67.7388 76.2059 67.663 76.303C67.5872 76.4 67.5603 76.5266 67.5902 76.646L67.9783 76.5492ZM81.3253 76.5492V76.9492H81.3257L81.3253 76.5492ZM4.67422 76.5492L4.67374 76.9492H4.67422V76.5492ZM0.865234 72.7146H0.465234L0.465235 72.715L0.865234 72.7146ZM0.865234 4.38588L0.465234 4.3854V4.38588H0.865234ZM4.67422 0.550537V0.150537L4.67368 0.150537L4.67422 0.550537ZM81.3253 0.550537L81.3257 0.150537H81.3253V0.550537ZM85.1349 4.38588H85.5349V4.3854L85.1349 4.38588ZM85.1349 72.7132L85.5349 72.7137V72.7132H85.1349ZM4.67422 1.85574V1.45574L4.67381 1.45574L4.67422 1.85574ZM2.16169 4.38588L1.76169 4.38557V4.38588H2.16169ZM2.16169 72.7132H1.76169L1.76169 72.7136L2.16169 72.7132ZM4.67422 75.2427L4.67391 75.6427H4.67422V75.2427ZM81.3253 75.2427V75.6427H81.3256L81.3253 75.2427ZM83.8384 72.7146L84.2384 72.7152V72.7146H83.8384ZM83.8384 4.38588H84.2384V4.38547L83.8384 4.38588ZM81.3253 1.85574L81.3257 1.45574H81.3253V1.85574ZM72.9349 63.3992L72.9349 62.9992C72.714 62.9993 72.5349 63.1783 72.5349 63.3993C72.5349 63.6202 72.714 63.7992 72.9349 63.7992V63.3992ZM72.9349 48.1903L72.9349 47.7903C72.714 47.7903 72.5349 47.9694 72.5349 48.1903C72.5349 48.4112 72.714 48.5903 72.9349 48.5903V48.1903ZM73.5832 62.094L73.5831 61.694C73.3622 61.694 73.1831 61.8731 73.1832 62.094C73.1832 62.3149 73.3622 62.494 73.5832 62.494V62.094ZM78.9317 62.094V62.494C79.1526 62.494 79.3317 62.3149 79.3317 62.094H78.9317ZM78.9317 49.4955H79.3317C79.3317 49.2746 79.1526 49.0955 78.9317 49.0955V49.4955ZM73.5832 49.4955L73.5831 49.0955C73.3622 49.0955 73.1832 49.2746 73.1832 49.4955C73.1832 49.7164 73.3622 49.8955 73.5832 49.8955V49.4955ZM73.5841 15.006V14.606C73.3632 14.606 73.1841 14.7851 73.1841 15.006C73.1841 15.2269 73.3632 15.406 73.5841 15.406L73.5841 15.006ZM73.5841 27.5973V27.1973C73.3632 27.1973 73.1841 27.3764 73.1841 27.5973C73.1841 27.8182 73.3632 27.9973 73.5841 27.9973L73.5841 27.5973ZM76.2613 49.4954V49.0954H76.2613L76.2613 49.4954ZM76.2613 62.0938V61.6938H76.2613L76.2613 62.0938ZM9.91255 69.0453H9.51255C9.51255 69.2663 9.69163 69.4453 9.91255 69.4453V69.0453ZM75.6131 69.0453V69.4453C75.834 69.4453 76.0131 69.2663 76.0131 69.0453H75.6131ZM75.6131 63.399H76.0131C76.0131 63.2929 75.9709 63.1912 75.8959 63.1162C75.8209 63.0412 75.7191 62.999 75.613 62.999L75.6131 63.399ZM75.6131 48.1902L75.6131 48.5902C75.834 48.5902 76.0131 48.4111 76.0131 48.1902H75.6131ZM75.6131 28.9025H76.0131C76.0131 28.6816 75.834 28.5025 75.6131 28.5025V28.9025ZM72.9359 28.9025V28.5025C72.715 28.5025 72.5359 28.6816 72.5359 28.9025C72.5359 29.1234 72.715 29.3025 72.9359 29.3025L72.9359 28.9025ZM72.9359 13.7008V13.3008C72.715 13.3008 72.5359 13.4799 72.5359 13.7008C72.5359 13.9217 72.715 14.1008 72.9359 14.1008L72.9359 13.7008ZM75.6131 13.7008V14.1008C75.834 14.1008 76.0131 13.9217 76.0131 13.7008H75.6131ZM75.6131 8.05452H76.0131C76.0131 7.8336 75.834 7.65452 75.6131 7.65452V8.05452ZM9.91255 8.05452V7.65452C9.69163 7.65452 9.51255 7.8336 9.51255 8.05452H9.91255ZM79.5799 28.9029L79.5799 29.3029H79.5799V28.9029ZM79.5799 13.7011L79.5799 14.1011H79.5799V13.7011ZM78.9317 27.5977L78.9317 27.9977C79.0378 27.9977 79.1395 27.9556 79.2145 27.8806C79.2895 27.8056 79.3317 27.7038 79.3317 27.5977H78.9317ZM78.9317 15.0064H79.3317C79.3317 14.7854 79.1526 14.6064 78.9317 14.6064L78.9317 15.0064ZM27.7282 49.429V49.829H27.7287L27.7282 49.429ZM38.5348 38.5501L38.9348 38.5506V38.5502L38.5348 38.5501ZM27.7282 28.9752L27.7287 28.5752H27.7282V28.9752ZM37.2384 38.5501L37.6384 38.5502V38.5497L37.2384 38.5501ZM27.7285 45.646L27.7285 46.046H27.729L27.7285 45.646ZM34.7773 38.5496L35.1773 38.5502V38.5497L34.7773 38.5496ZM27.7285 32.7572L27.729 32.3572H27.7285L27.7285 32.7572ZM33.4808 38.5496L33.8808 38.5497V38.5492L33.4808 38.5496ZM34.911 31.9706L34.9109 32.3706H34.911L34.911 31.9706ZM34.4527 30.8566L34.1689 30.5747L34.1688 30.5748L34.4527 30.8566ZM37.0112 28.2815L37.295 28.5634L37.2998 28.5584L37.0112 28.2815ZM37.9277 29.2042L37.6489 28.9174L37.644 28.9223L37.9277 29.2042ZM35.3693 31.7794L35.0855 31.4975L35.0854 31.4975L35.3693 31.7794ZM17.988 49.0088L17.988 49.4088H17.9881L17.988 49.0088ZM17.5297 47.8948L17.246 47.6129L17.2459 47.613L17.5297 47.8948ZM20.0877 45.3202L19.8088 45.0334L19.8039 45.0383L20.0877 45.3202ZM21.0043 46.243L21.2881 46.525L21.2929 46.52L21.0043 46.243ZM18.4463 48.8176L18.1626 48.5357L18.1625 48.5357L18.4463 48.8176ZM37.4677 49.0088L37.4677 49.4088H37.4678L37.4677 49.0088ZM37.0094 48.8176L37.2933 48.5358L37.2932 48.5356L37.0094 48.8176ZM34.4509 46.243L34.1622 46.52L34.1672 46.525L34.4509 46.243ZM35.3675 45.3202L35.6513 45.0382L35.6464 45.0335L35.3675 45.3202ZM37.926 47.8948L38.2099 47.613L38.2098 47.6128L37.926 47.8948ZM20.5472 31.9695L20.5471 32.3695H20.5473L20.5472 31.9695ZM20.0889 31.7783L20.3727 31.4964L20.3727 31.4964L20.0889 31.7783ZM17.5309 29.2031L17.2423 29.4801L17.2471 29.485L17.5309 29.2031ZM18.4475 28.2804L18.7314 27.9984L18.7264 27.9936L18.4475 28.2804ZM21.0055 30.8555L21.2893 30.5737L21.2893 30.5736L21.0055 30.8555ZM17.4176 81.8921H9.54357V82.6921H17.4176V81.8921ZM9.54358 81.8921C9.48893 81.8921 9.43554 81.8738 9.3919 81.8395L8.89766 82.4685C9.08186 82.6133 9.3092 82.6921 9.54356 82.6921L9.54358 81.8921ZM9.3919 81.8395C9.34821 81.8051 9.31669 81.7567 9.30296 81.7015L8.52663 81.8947C8.58313 82.1218 8.71351 82.3239 8.89766 82.4685L9.3919 81.8395ZM9.30293 81.7014L7.8723 75.9585L7.09602 76.1519L8.52665 81.8948L9.30293 81.7014ZM7.87232 75.9586C7.86297 75.921 7.86224 75.8817 7.87022 75.8438L7.08734 75.6791C7.05451 75.8353 7.05746 75.9969 7.09599 76.1518L7.87232 75.9586ZM7.87022 75.8438C7.8782 75.8058 7.89462 75.7704 7.91806 75.7402L7.28577 75.2501C7.18797 75.3762 7.12017 75.523 7.08734 75.6791L7.87022 75.8438ZM7.91806 75.7402C7.94149 75.7099 7.97128 75.6857 8.00503 75.6691L7.65221 74.9511C7.50885 75.0216 7.38358 75.1239 7.28577 75.2501L7.91806 75.7402ZM8.00503 75.6691C8.03876 75.6525 8.07566 75.644 8.11295 75.644L8.11293 74.844C7.95315 74.844 7.79557 74.8807 7.65221 74.9511L8.00503 75.6691ZM8.11294 75.644H18.8482V74.844H8.11294V75.644ZM18.8482 75.644C18.8855 75.644 18.9224 75.6525 18.9561 75.6691L19.3089 74.9511C19.1656 74.8807 19.008 74.844 18.8482 74.844L18.8482 75.644ZM18.9561 75.6691C18.9899 75.6857 19.0196 75.7099 19.0431 75.7402L19.6754 75.2501C19.5776 75.1239 19.4523 75.0216 19.3089 74.9511L18.9561 75.6691ZM19.0431 75.7402C19.0665 75.7704 19.0829 75.8058 19.0909 75.8438L19.8738 75.6791C19.841 75.523 19.7732 75.3762 19.6754 75.2501L19.0431 75.7402ZM19.0909 75.8438C19.0989 75.8817 19.0982 75.921 19.0888 75.9586L19.8651 76.1518C19.9037 75.9969 19.9066 75.8353 19.8738 75.6791L19.0909 75.8438ZM19.0888 75.9585L17.6582 81.7014L18.4345 81.8948L19.8651 76.1519L19.0888 75.9585ZM17.6582 81.7015C17.6445 81.7567 17.6129 81.8051 17.5692 81.8395L18.0635 82.4685C18.2476 82.3239 18.378 82.1218 18.4345 81.8947L17.6582 81.7015ZM17.5692 81.8395C17.5256 81.8738 17.4722 81.8921 17.4176 81.8921L17.4176 82.6921C17.6519 82.6921 17.8793 82.6133 18.0635 82.4685L17.5692 81.8395ZM10.0492 81.3869H16.912V80.5869H10.0492V81.3869ZM17.3001 81.0836L18.406 76.6459L17.6297 76.4525L16.5238 80.8902L17.3001 81.0836ZM18.0178 76.1492H8.94267V76.9492H18.0178V76.1492ZM8.55455 76.646L9.66107 81.0837L10.4373 80.8902L9.33078 76.4524L8.55455 76.646ZM76.4533 81.8921H68.5798V82.6921H76.4533V81.8921ZM68.5798 81.8921C68.5252 81.8921 68.4718 81.8738 68.4281 81.8395L67.9339 82.4685C68.1181 82.6133 68.3454 82.6921 68.5798 82.6921L68.5798 81.8921ZM68.4281 81.8395C68.3844 81.8051 68.3529 81.7567 68.3392 81.7015L67.5629 81.8947C67.6194 82.1218 67.7497 82.3239 67.9339 82.4685L68.4281 81.8395ZM68.3392 81.7014L66.9078 75.9585L66.1316 76.1519L67.5629 81.8948L68.3392 81.7014ZM66.9079 75.9586C66.8985 75.921 66.8978 75.8817 66.9058 75.8438L66.1229 75.6791C66.0901 75.8353 66.093 75.9969 66.1316 76.1518L66.9079 75.9586ZM66.9058 75.8438C66.9138 75.8058 66.9302 75.7704 66.9536 75.7402L66.3213 75.2501C66.2235 75.3762 66.1557 75.523 66.1229 75.6791L66.9058 75.8438ZM66.9536 75.7402C66.9771 75.7099 67.0068 75.6857 67.0406 75.6691L66.6878 74.9511C66.5444 75.0216 66.4192 75.1239 66.3213 75.2501L66.9536 75.7402ZM67.0406 75.6691C67.0743 75.6525 67.1112 75.644 67.1485 75.644L67.1485 74.844C66.9887 74.844 66.8311 74.8807 66.6878 74.9511L67.0406 75.6691ZM67.1485 75.644H77.8846V74.844H67.1485V75.644ZM77.8846 75.644C77.9219 75.644 77.9588 75.6525 77.9925 75.6691L78.3454 74.9511C78.202 74.8807 78.0444 74.844 77.8846 74.844L77.8846 75.644ZM77.9925 75.6691C78.0263 75.6857 78.0561 75.71 78.0795 75.7402L78.7118 75.2501C78.614 75.1239 78.4887 75.0216 78.3454 74.9511L77.9925 75.6691ZM78.0795 75.7402C78.103 75.7704 78.1194 75.8058 78.1273 75.8438L78.9102 75.6791C78.8774 75.523 78.8096 75.3762 78.7118 75.2501L78.0795 75.7402ZM78.1273 75.8438C78.1353 75.8817 78.1346 75.921 78.1253 75.9586L78.9016 76.1518C78.9401 75.9969 78.9431 75.8353 78.9102 75.6791L78.1273 75.8438ZM78.1253 75.9585L76.694 81.7014L77.4702 81.8948L78.9015 76.1519L78.1253 75.9585ZM76.6939 81.7015C76.6802 81.7567 76.6487 81.8051 76.605 81.8395L77.0992 82.4685C77.2834 82.3239 77.4138 82.1218 77.4703 81.8947L76.6939 81.7015ZM76.605 81.8395C76.5614 81.8738 76.508 81.8921 76.4533 81.8921L76.4533 82.6921C76.6877 82.6921 76.915 82.6133 77.0992 82.4685L76.605 81.8395ZM69.0854 81.3869H75.9477V80.5869H69.0854V81.3869ZM76.3358 81.0836L77.4417 76.6459L76.6655 76.4525L75.5596 80.8902L76.3358 81.0836ZM77.0536 76.1492H67.9783V76.9492H77.0536V76.1492ZM67.5902 76.646L68.6973 81.0838L69.4735 80.8901L68.3664 76.4524L67.5902 76.646ZM81.3253 76.1492H4.67422V76.9492H81.3253V76.1492ZM4.6747 76.1492C3.77166 76.1482 2.90536 75.7866 2.26598 75.1429L1.6984 75.7066C2.48715 76.5007 3.55712 76.9479 4.67374 76.9492L4.6747 76.1492ZM2.26598 75.1429C1.62651 74.4991 1.26631 73.6257 1.26523 72.7141L0.465235 72.715C0.46656 73.8367 0.909733 74.9127 1.6984 75.7066L2.26598 75.1429ZM1.26523 72.7146V4.38588H0.465234V72.7146H1.26523ZM1.26523 4.38635C1.26631 3.47468 1.6265 2.6012 2.26596 1.95731L1.69833 1.39358C0.909703 2.18767 0.466559 3.26364 0.465235 4.3854L1.26523 4.38635ZM2.26596 1.95731C2.90534 1.31352 3.77165 0.951772 4.67477 0.950537L4.67368 0.150537C3.557 0.152065 2.48705 0.599406 1.69833 1.39358L2.26596 1.95731ZM4.67422 0.950537H81.3253V0.150537H4.67422V0.950537ZM81.3248 0.950537C82.228 0.951618 83.0945 1.3133 83.734 1.95711L84.3016 1.39333C83.5127 0.59913 82.4425 0.151874 81.3257 0.150537L81.3248 0.950537ZM83.734 1.95711C84.3736 2.60101 84.7338 3.47458 84.7349 4.38635L85.5349 4.3854C85.5336 3.26352 85.0903 2.18743 84.3016 1.39333L83.734 1.95711ZM84.7349 4.38588V72.7132H85.5349V4.38588H84.7349ZM84.7349 72.7128C84.734 73.6247 84.3738 74.4984 83.7342 75.1425L84.3018 75.7062C85.0906 74.9119 85.5338 73.8357 85.5349 72.7137L84.7349 72.7128ZM83.7342 75.1425C83.0947 75.7864 82.2281 76.1482 81.3248 76.1492L81.3257 76.9492C82.4427 76.9479 83.5129 76.5005 84.3018 75.7062L83.7342 75.1425ZM4.67381 1.45574C3.90071 1.45654 3.16006 1.76616 2.6143 2.31575L3.18195 2.87946C3.57831 2.48032 4.1152 2.25632 4.67464 2.25574L4.67381 1.45574ZM2.6143 2.31575C2.06862 2.86525 1.76229 3.60971 1.76169 4.38557L2.56169 4.38618C2.56212 3.82052 2.78551 3.27868 3.18195 2.87946L2.6143 2.31575ZM1.76169 4.38588V72.7132H2.56169V4.38588H1.76169ZM1.76169 72.7136C1.76229 73.4894 2.06865 74.2338 2.61437 74.7832L3.18196 74.2194C2.78551 73.8203 2.56212 73.2785 2.56169 72.7129L1.76169 72.7136ZM2.61437 74.7832C3.16018 75.3327 3.90086 75.6421 4.67391 75.6427L4.67453 74.8427C4.11518 74.8423 3.57831 74.6184 3.18196 74.2194L2.61437 74.7832ZM4.67422 75.6427H81.3253V74.8427H4.67422V75.6427ZM81.3256 75.6427C82.0984 75.6421 82.8389 75.3329 83.3848 74.7838L82.8174 74.2198C82.421 74.6186 81.8842 74.8423 81.325 74.8427L81.3256 75.6427ZM83.3848 74.7838C83.9305 74.2348 84.2373 73.4908 84.2384 72.7152L83.4384 72.7139C83.4376 73.2794 83.2139 73.8209 82.8174 74.2198L83.3848 74.7838ZM84.2384 72.7146V4.38588H83.4384V72.7146H84.2384ZM84.2384 4.38547C84.2376 3.60956 83.9312 2.86513 83.3854 2.31567L82.8178 2.87945C83.2143 3.27868 83.4379 3.82054 83.4384 4.38628L84.2384 4.38547ZM83.3854 2.31567C82.8395 1.76612 82.0988 1.45654 81.3257 1.45574L81.3248 2.25574C81.8844 2.25632 82.4213 2.48032 82.8178 2.87945L83.3854 2.31567ZM81.3253 1.45574H4.67422V2.25574H81.3253V1.45574ZM79.5799 62.9992H72.9349V63.7992H79.5799V62.9992ZM72.9349 48.5903H79.5799V47.7903H72.9349V48.5903ZM79.5799 48.5903C79.6449 48.5903 79.7077 48.6162 79.7545 48.6633L80.3221 48.0995C80.1257 47.9018 79.8588 47.7903 79.5799 47.7903V48.5903ZM79.7545 48.6633C79.8013 48.7105 79.8281 48.775 79.8281 48.8429H80.6281C80.6281 48.5646 80.5184 48.2971 80.3221 48.0995L79.7545 48.6633ZM79.8281 48.8429V62.7466H80.6281V48.8429H79.8281ZM79.8281 62.7466C79.8281 62.8145 79.8013 62.879 79.7545 62.9262L80.3221 63.49C80.5184 63.2924 80.6281 63.0249 80.6281 62.7466H79.8281ZM79.7545 62.9262C79.7077 62.9733 79.6449 62.9992 79.5799 62.9992V63.7992C79.8588 63.7992 80.1257 63.6877 80.3221 63.49L79.7545 62.9262ZM73.5832 62.494H78.9317V61.694H73.5832V62.494ZM79.3317 62.094V49.4955H78.5317V62.094H79.3317ZM78.9317 49.0955H73.5832V49.8955H78.9317V49.0955ZM76.2613 69.9506H9.26432V70.7505H76.2613V69.9506ZM9.26432 69.9506C9.19936 69.9506 9.13651 69.9246 9.08974 69.8775L8.52216 70.4413C8.71853 70.639 8.98543 70.7505 9.26432 70.7505V69.9506ZM9.08974 69.8775C9.04289 69.8303 9.01609 69.7658 9.01609 69.698H8.21609C8.21609 69.9763 8.32588 70.2437 8.52216 70.4413L9.08974 69.8775ZM9.01609 69.698V7.40192H8.21609V69.698H9.01609ZM9.01609 7.40192C9.01609 7.33406 9.04289 7.26952 9.08974 7.22235L8.52216 6.65857C8.32588 6.85617 8.21609 7.12361 8.21609 7.40192H9.01609ZM9.08974 7.22235C9.13651 7.17527 9.19935 7.14932 9.26432 7.14932V6.34932C8.98544 6.34932 8.71853 6.46087 8.52216 6.65857L9.08974 7.22235ZM9.26432 7.14932H76.2613V6.34932H9.26432V7.14932ZM76.2613 7.14932C76.3263 7.14932 76.3891 7.17527 76.4359 7.22235L77.0034 6.65857C76.8071 6.46088 76.5402 6.34932 76.2613 6.34932V7.14932ZM76.4359 7.22235C76.4827 7.26952 76.5095 7.33407 76.5095 7.40192H77.3095C77.3095 7.1236 77.1997 6.85616 77.0034 6.65857L76.4359 7.22235ZM76.5095 7.40192V14.3534H77.3095V7.40192H76.5095ZM76.5095 14.3534C76.5095 14.4213 76.4827 14.4858 76.4359 14.533L77.0034 15.0968C77.1997 14.8992 77.3095 14.6317 77.3095 14.3534H76.5095ZM76.4359 14.533C76.3891 14.5801 76.3263 14.606 76.2613 14.606V15.406C76.5402 15.406 76.8071 15.2945 77.0034 15.0968L76.4359 14.533ZM76.2613 14.606H73.5841V15.406H76.2613V14.606ZM73.5841 27.9973H76.2613V27.1973H73.5841V27.9973ZM76.2613 27.9973C76.3263 27.9973 76.3891 28.0233 76.4359 28.0704L77.0034 27.5066C76.8071 27.3089 76.5402 27.1973 76.2613 27.1973V27.9973ZM76.4359 28.0704C76.4827 28.1175 76.5095 28.1821 76.5095 28.2499H77.3095C77.3095 27.9716 77.1997 27.7042 77.0034 27.5066L76.4359 28.0704ZM76.5095 28.2499V48.8428H77.3095V28.2499H76.5095ZM76.5095 48.8428C76.5095 48.9106 76.4827 48.9752 76.4359 49.0223L77.0034 49.5861C77.1997 49.3885 77.3095 49.1211 77.3095 48.8428H76.5095ZM76.4359 49.0223C76.3891 49.0694 76.3263 49.0954 76.2613 49.0954V49.8954C76.5402 49.8954 76.8071 49.7838 77.0034 49.5861L76.4359 49.0223ZM76.2613 49.0954L73.5831 49.0955L73.5832 49.8955L76.2613 49.8954L76.2613 49.0954ZM73.5832 62.494L76.2613 62.4938L76.2613 61.6938L73.5831 61.694L73.5832 62.494ZM76.2613 62.4938C76.3263 62.4938 76.3891 62.5198 76.4359 62.5669L77.0034 62.0031C76.8071 61.8054 76.5402 61.6938 76.2613 61.6938V62.4938ZM76.4359 62.5669C76.4827 62.614 76.5095 62.6786 76.5095 62.7464H77.3095C77.3095 62.4681 77.1997 62.2007 77.0034 62.0031L76.4359 62.5669ZM76.5095 62.7464V69.698H77.3095V62.7464H76.5095ZM76.5095 69.698C76.5095 69.7658 76.4827 69.8303 76.4359 69.8775L77.0034 70.4413C77.1997 70.2437 77.3095 69.9763 77.3095 69.698H76.5095ZM76.4359 69.8775C76.3891 69.9246 76.3262 69.9506 76.2613 69.9506V70.7505C76.5402 70.7505 76.8071 70.639 77.0034 70.4413L76.4359 69.8775ZM9.91255 69.4453H75.6131V68.6453H9.91255V69.4453ZM76.0131 69.0453V63.399H75.2131V69.0453H76.0131ZM75.613 62.999L72.9349 62.9992L72.935 63.7992L75.6131 63.799L75.613 62.999ZM72.9349 48.5903L75.6131 48.5902L75.6131 47.7902L72.9349 47.7903L72.9349 48.5903ZM76.0131 48.1902V28.9025H75.2131V48.1902H76.0131ZM75.6131 28.5025H72.9359V29.3025H75.6131V28.5025ZM72.9359 14.1008H75.6131V13.3008H72.9359V14.1008ZM76.0131 13.7008V8.05452H75.2131V13.7008H76.0131ZM75.6131 7.65452H9.91255V8.45452H75.6131V7.65452ZM9.51255 8.05452V69.0453H10.3125V8.05452H9.51255ZM79.5799 28.5029L72.9359 28.5025L72.9359 29.3025L79.5799 29.3029L79.5799 28.5029ZM72.9359 14.1008L79.5799 14.1011L79.5799 13.3011L72.9359 13.3008L72.9359 14.1008ZM79.5799 14.1011C79.6449 14.1011 79.7077 14.1271 79.7545 14.1742L80.3221 13.6104C80.1257 13.4127 79.8588 13.3011 79.5799 13.3011V14.1011ZM79.7545 14.1742C79.8013 14.2213 79.8281 14.2859 79.8281 14.3537H80.6281C80.6281 14.0755 80.5184 13.808 80.3221 13.6104L79.7545 14.1742ZM79.8281 14.3537V28.2503H80.6281V14.3537H79.8281ZM79.8281 28.2503C79.8281 28.3182 79.8013 28.3827 79.7545 28.4299L80.3221 28.9937C80.5184 28.7961 80.6281 28.5286 80.6281 28.2503H79.8281ZM79.7545 28.4299C79.7077 28.477 79.6449 28.5029 79.5799 28.5029V29.3029C79.8588 29.3029 80.1257 29.1914 80.3221 28.9937L79.7545 28.4299ZM73.5841 27.9973L78.9317 27.9977L78.9317 27.1977L73.5841 27.1973L73.5841 27.9973ZM79.3317 27.5977V15.0064H78.5317V27.5977H79.3317ZM78.9317 14.6064L73.5841 14.606L73.5841 15.406L78.9317 15.4064L78.9317 14.6064ZM27.7282 49.029C25.6706 49.029 23.6589 48.4147 21.9476 47.2635L21.5011 47.9273C23.3441 49.1671 25.5112 49.829 27.7282 49.829V49.029ZM21.9476 47.2635C20.2363 46.1123 18.902 44.4758 18.1141 42.5605L17.3743 42.8649C18.2221 44.9257 19.6581 46.6876 21.5011 47.9273L21.9476 47.2635ZM18.1141 42.5605C17.3261 40.6453 17.1199 38.5377 17.5217 36.5043L16.7369 36.3492C16.3047 38.5367 16.5264 40.8042 17.3743 42.8649L18.1141 42.5605ZM17.5217 36.5043C17.9235 34.4709 18.9152 32.6036 20.3708 31.1382L19.8033 30.5744C18.2361 32.152 17.1692 34.1617 16.7369 36.3492L17.5217 36.5043ZM20.3708 31.1382C21.8265 29.6728 23.6807 28.6752 25.6989 28.2711L25.5418 27.4867C23.3674 27.9221 21.3704 28.9967 19.8033 30.5744L20.3708 31.1382ZM25.6989 28.2711C27.7171 27.8671 29.809 28.0746 31.7102 28.8675L32.0182 28.1291C29.9701 27.275 27.7163 27.0514 25.5418 27.4867L25.6989 28.2711ZM31.7102 28.8675C33.6115 29.6604 35.2369 31.0033 36.3806 32.7268L37.0472 32.2844C35.8162 30.4295 34.0662 28.9833 32.0182 28.1291L31.7102 28.8675ZM36.3806 32.7268C37.5244 34.4503 38.135 36.4768 38.1348 38.5501L38.9348 38.5502C38.935 36.3198 38.2782 34.1394 37.0472 32.2844L36.3806 32.7268ZM38.1348 38.5497C38.1315 41.3289 37.0334 43.9928 35.0821 45.9572L35.6496 46.521C37.7501 44.4064 38.9313 41.54 38.9348 38.5506L38.1348 38.5497ZM35.0821 45.9572C33.1308 47.9214 30.486 49.0258 27.7278 49.029L27.7287 49.829C30.7005 49.8256 33.549 48.6356 35.6496 46.521L35.0821 45.9572ZM27.7282 28.5752C25.7676 28.5752 23.8513 29.1605 22.2215 30.2568L22.668 30.9206C24.1661 29.9129 25.927 29.3752 27.7282 29.3752V28.5752ZM22.2215 30.2568C20.5917 31.3531 19.3219 32.911 18.5721 34.7332L19.312 35.0376C20.0018 33.3609 21.1699 31.9283 22.668 30.9206L22.2215 30.2568ZM18.5721 34.7332C17.8224 36.5554 17.6262 38.5603 18.0084 40.4946L18.7932 40.3396C18.4415 38.5594 18.6221 36.7143 19.312 35.0376L18.5721 34.7332ZM18.0084 40.4946C18.3905 42.4289 19.3338 44.2061 20.7195 45.6012L21.2871 45.0374C20.0129 43.7545 19.1449 42.1197 18.7932 40.3396L18.0084 40.4946ZM20.7195 45.6012C22.1052 46.9964 23.8711 47.9468 25.7939 48.332L25.9511 47.5475C24.1844 47.1937 22.5613 46.3203 21.2871 45.0374L20.7195 45.6012ZM25.7939 48.332C27.7168 48.7171 29.7099 48.5195 31.5211 47.7644L31.2132 47.026C29.5489 47.7199 27.7177 47.9014 25.9511 47.5475L25.7939 48.332ZM31.5211 47.7644C33.3323 47.0092 34.8799 45.7305 35.9686 44.0904L35.3021 43.6479C34.3006 45.1566 32.8776 46.332 31.2132 47.026L31.5211 47.7644ZM35.9686 44.0904C37.0573 42.4503 37.6383 40.5223 37.6384 38.5502L36.8384 38.5501C36.8383 40.3652 36.3035 42.1392 35.3021 43.6479L35.9686 44.0904ZM37.6384 38.5497C37.6357 35.9061 36.5915 33.371 34.7339 31.5008L34.1663 32.0646C35.8746 33.7845 36.8359 36.1171 36.8384 38.5505L37.6384 38.5497ZM34.7339 31.5008C32.8763 29.6305 30.357 28.578 27.7287 28.5752L27.7278 29.3752C30.1425 29.3778 32.4581 30.3447 34.1663 32.0646L34.7339 31.5008ZM27.7284 45.246C26.4138 45.2461 25.1285 44.8538 24.035 44.1183L23.5885 44.7821C24.8137 45.6062 26.2545 46.0461 27.7285 46.046L27.7284 45.246ZM24.035 44.1183C22.9414 43.3828 22.0887 42.337 21.585 41.113L20.8452 41.4174C21.4087 42.787 22.3633 43.9581 23.5885 44.7821L24.035 44.1183ZM21.585 41.113C21.0813 39.8889 20.9494 38.5418 21.2062 37.2421L20.4213 37.0871C20.1341 38.5409 20.2816 40.0478 20.8452 41.4174L21.585 41.113ZM21.2062 37.2421C21.4629 35.9425 22.0967 34.749 23.0269 33.8125L22.4593 33.2488C21.4176 34.2975 20.7085 35.6332 20.4213 37.0871L21.2062 37.2421ZM23.0269 33.8125C23.957 32.8761 25.1418 32.2387 26.4312 31.9805L26.2741 31.1961C24.8285 31.4856 23.501 32.2001 22.4593 33.2488L23.0269 33.8125ZM26.4312 31.9805C27.7206 31.7224 29.0571 31.8549 30.2719 32.3615L30.5798 31.6232C29.2182 31.0553 27.7198 30.9067 26.2741 31.1961L26.4312 31.9805ZM30.2719 32.3615C31.4866 32.8682 32.5253 33.7262 33.2562 34.8277L33.9228 34.3853C33.1046 33.1524 31.9413 32.191 30.5798 31.6232L30.2719 32.3615ZM33.2562 34.8277C33.9872 35.9292 34.3774 37.2244 34.3773 38.5496L35.1773 38.5497C35.1774 37.0675 34.741 35.6183 33.9228 34.3853L33.2562 34.8277ZM34.3773 38.5491C34.375 40.3254 33.6731 42.0277 32.4263 43.283L32.9939 43.8467C34.3899 42.4413 35.1748 40.5365 35.1773 38.5502L34.3773 38.5491ZM32.4263 43.283C31.1796 44.5381 29.4899 45.2437 27.7279 45.246L27.729 46.046C29.7045 46.0434 31.5978 45.2522 32.9939 43.8467L32.4263 43.283ZM27.7285 32.3572C26.511 32.3571 25.3209 32.7204 24.3089 33.401L24.7554 34.0648C25.6357 33.4728 26.6703 33.1571 27.7284 33.1572L27.7285 32.3572ZM24.3089 33.401C23.2969 34.0816 22.5086 35.0487 22.0431 36.1797L22.7829 36.4842C23.1885 35.4987 23.875 34.6569 24.7554 34.0648L24.3089 33.401ZM22.0431 36.1797C21.5776 37.3107 21.4557 38.5552 21.6928 39.7558L22.4776 39.6008C22.271 38.5543 22.3772 37.4697 22.7829 36.4842L22.0431 36.1797ZM21.6928 39.7558C21.9299 40.9564 22.5153 42.0596 23.3755 42.9258L23.9432 42.3621C23.1944 41.6081 22.6843 40.6472 22.4776 39.6008L21.6928 39.7558ZM23.3755 42.9258C24.2358 43.792 25.3322 44.3823 26.5262 44.6216L26.6834 43.8372C25.6456 43.6292 24.6919 43.116 23.9432 42.3621L23.3755 42.9258ZM26.5262 44.6216C27.7203 44.8608 28.958 44.7382 30.0827 44.2694L29.7749 43.531C28.797 43.9386 27.7212 44.0451 26.6834 43.8372L26.5262 44.6216ZM30.0827 44.2694C31.2074 43.8005 32.1683 43.0066 32.8442 41.9885L32.1777 41.5461C31.589 42.4327 30.7528 43.1233 29.7749 43.531L30.0827 44.2694ZM32.8442 41.9885C33.52 40.9704 33.8807 39.7737 33.8808 38.5497L33.0808 38.5496C33.0807 39.6166 32.7663 40.6594 32.1777 41.5461L32.8442 41.9885ZM33.8808 38.5492C33.879 36.9086 33.231 35.3353 32.078 34.1743L31.5104 34.738C32.5141 35.7488 33.0792 37.1196 33.0808 38.5501L33.8808 38.5492ZM32.078 34.1743C30.925 33.0132 29.361 32.3594 27.729 32.3572L27.7279 33.1572C29.1463 33.1591 30.5067 33.7273 31.5104 34.738L32.078 34.1743ZM27.7301 28.575C27.6651 28.575 27.6022 28.5491 27.5555 28.502L26.9879 29.0658C27.1843 29.2635 27.4512 29.375 27.7301 29.375V28.575ZM27.5555 28.502C27.5086 28.4548 27.4818 28.3903 27.4818 28.3224H26.6818C26.6818 28.6007 26.7916 28.8682 26.9879 29.0658L27.5555 28.502ZM27.4818 28.3224V24.681H26.6818V28.3224H27.4818ZM27.4818 24.681C27.4818 24.6131 27.5086 24.5486 27.5555 24.5014L26.9879 23.9376C26.7916 24.1352 26.6818 24.4026 26.6818 24.681H27.4818ZM27.5555 24.5014C27.6022 24.4543 27.6651 24.4284 27.7301 24.4284V23.6284C27.4512 23.6284 27.1843 23.7399 26.9879 23.9376L27.5555 24.5014ZM27.7301 24.4284C27.7951 24.4284 27.8579 24.4543 27.9047 24.5014L28.4723 23.9376C28.2759 23.7399 28.009 23.6284 27.7301 23.6284V24.4284ZM27.9047 24.5014C27.9515 24.5486 27.9783 24.6131 27.9783 24.681H28.7783C28.7783 24.4026 28.6685 24.1352 28.4723 23.9376L27.9047 24.5014ZM27.9783 24.681V28.3224H28.7783V24.681H27.9783ZM27.9783 28.3224C27.9783 28.3903 27.9515 28.4548 27.9047 28.502L28.4723 29.0658C28.6685 28.8682 28.7783 28.6007 28.7783 28.3224H27.9783ZM27.9047 28.502C27.8579 28.5491 27.7951 28.575 27.7301 28.575V29.375C28.009 29.375 28.2759 29.2635 28.4723 29.0658L27.9047 28.502ZM27.7301 52.6711C27.6651 52.6711 27.6022 52.6451 27.5555 52.5981L26.9879 53.1619C27.1843 53.3595 27.4512 53.4711 27.7301 53.4711V52.6711ZM27.5555 52.5981C27.5086 52.5509 27.4818 52.4863 27.4818 52.4185H26.6818C26.6818 52.6968 26.7916 52.9643 26.9879 53.1619L27.5555 52.5981ZM27.4818 52.4185V48.777H26.6818V52.4185H27.4818ZM27.4818 48.777C27.4818 48.7092 27.5086 48.6446 27.5555 48.5975L26.9879 48.0337C26.7916 48.2313 26.6818 48.4987 26.6818 48.777H27.4818ZM27.5555 48.5975C27.6022 48.5504 27.6651 48.5244 27.7301 48.5244V47.7244C27.4512 47.7244 27.1843 47.836 26.9879 48.0337L27.5555 48.5975ZM27.7301 48.5244C27.7951 48.5244 27.8579 48.5504 27.9047 48.5975L28.4723 48.0337C28.2759 47.836 28.009 47.7244 27.7301 47.7244V48.5244ZM27.9047 48.5975C27.9515 48.6446 27.9783 48.7092 27.9783 48.777H28.7783C28.7783 48.4987 28.6685 48.2313 28.4723 48.0337L27.9047 48.5975ZM27.9783 48.777V52.4185H28.7783V48.777H27.9783ZM27.9783 52.4185C27.9783 52.4863 27.9515 52.5509 27.9047 52.5981L28.4723 53.1619C28.6685 52.9643 28.7783 52.6968 28.7783 52.4185H27.9783ZM27.9047 52.5981C27.8579 52.6451 27.7951 52.6711 27.7301 52.6711V53.4711C28.009 53.4711 28.2759 53.3595 28.4723 53.1619L27.9047 52.5981ZM41.5043 38.804H37.8872V39.604H41.5043V38.804ZM37.8872 38.804C37.8223 38.804 37.7594 38.7781 37.7127 38.731L37.1451 39.2948C37.3414 39.4925 37.6083 39.604 37.8872 39.604V38.804ZM37.7127 38.731C37.6658 38.6838 37.639 38.6193 37.639 38.5514H36.839C36.839 38.8297 36.9488 39.0971 37.1451 39.2948L37.7127 38.731ZM37.639 38.5514C37.639 38.4835 37.6658 38.419 37.7127 38.3718L37.1451 37.808C36.9488 38.0056 36.839 38.2731 36.839 38.5514H37.639ZM37.7127 38.3718C37.7594 38.3247 37.8223 38.2987 37.8872 38.2987V37.4987C37.6083 37.4987 37.3414 37.6103 37.1451 37.808L37.7127 38.3718ZM37.8872 38.2987H41.5043V37.4987H37.8872V38.2987ZM41.5043 38.2987C41.5693 38.2987 41.6321 38.3247 41.6789 38.3718L42.2465 37.808C42.0501 37.6103 41.7832 37.4987 41.5043 37.4987V38.2987ZM41.6789 38.3718C41.7257 38.419 41.7525 38.4835 41.7525 38.5514H42.5525C42.5525 38.2731 42.4427 38.0056 42.2465 37.808L41.6789 38.3718ZM41.7525 38.5514C41.7525 38.6193 41.7257 38.6838 41.6789 38.731L42.2465 39.2948C42.4427 39.0971 42.5525 38.8297 42.5525 38.5514H41.7525ZM41.6789 38.731C41.6321 38.7781 41.5693 38.804 41.5043 38.804V39.604C41.7832 39.604 42.0501 39.4925 42.2465 39.2948L41.6789 38.731ZM17.5704 38.804H13.9527V39.604H17.5704V38.804ZM13.9527 38.804C13.8877 38.804 13.8249 38.7781 13.7781 38.731L13.2105 39.2948C13.4069 39.4925 13.6738 39.604 13.9527 39.604V38.804ZM13.7781 38.731C13.7312 38.6838 13.7044 38.6193 13.7044 38.5514H12.9044C12.9044 38.8297 13.0142 39.0971 13.2105 39.2948L13.7781 38.731ZM13.7044 38.5514C13.7044 38.4835 13.7312 38.419 13.7781 38.3718L13.2105 37.808C13.0142 38.0056 12.9044 38.2731 12.9044 38.5514H13.7044ZM13.7781 38.3718C13.8249 38.3247 13.8877 38.2987 13.9527 38.2987V37.4987C13.6738 37.4987 13.4069 37.6103 13.2105 37.808L13.7781 38.3718ZM13.9527 38.2987H17.5704V37.4987H13.9527V38.2987ZM17.5704 38.2987C17.6353 38.2987 17.6982 38.3247 17.745 38.3718L18.3126 37.808C18.1162 37.6103 17.8493 37.4987 17.5704 37.4987V38.2987ZM17.745 38.3718C17.7918 38.419 17.8186 38.4835 17.8186 38.5514H18.6186C18.6186 38.2731 18.5088 38.0056 18.3126 37.808L17.745 38.3718ZM17.8186 38.5514C17.8186 38.6193 17.7918 38.6838 17.745 38.731L18.3126 39.2948C18.5088 39.0971 18.6186 38.8297 18.6186 38.5514H17.8186ZM17.745 38.731C17.6982 38.7781 17.6353 38.804 17.5704 38.804V39.604C17.8493 39.604 18.1162 39.4925 18.3126 39.2948L17.745 38.731ZM34.911 31.5706C34.8626 31.5706 34.815 31.5561 34.7742 31.5287L34.3276 32.1924C34.5 32.3084 34.703 32.3705 34.9109 32.3706L34.911 31.5706ZM34.7742 31.5287C34.7334 31.5013 34.7013 31.462 34.6821 31.4155L33.9423 31.7199C34.0213 31.9119 34.1552 32.0764 34.3276 32.1924L34.7742 31.5287ZM34.6821 31.4155C34.663 31.369 34.658 31.3177 34.6678 31.2682L33.8829 31.1132C33.8427 31.3168 33.8633 31.5279 33.9423 31.7199L34.6821 31.4155ZM34.6678 31.2682C34.6775 31.2187 34.7016 31.1736 34.7365 31.1385L34.1688 30.5748C34.0225 30.7221 33.9231 30.9096 33.8829 31.1132L34.6678 31.2682ZM34.7364 31.1385L37.2949 28.5634L36.7274 27.9995L34.1689 30.5747L34.7364 31.1385ZM37.2998 28.5584C37.3229 28.5344 37.3503 28.5154 37.3804 28.5024L37.0628 27.7681C36.9347 27.8235 36.8191 27.9039 36.7225 28.0045L37.2998 28.5584ZM37.3804 28.5024C37.4104 28.4893 37.4427 28.4825 37.4753 28.4822L37.4683 27.6823C37.3287 27.6835 37.1909 27.7127 37.0628 27.7681L37.3804 28.5024ZM37.4753 28.4822C37.5079 28.482 37.5402 28.4882 37.5705 28.5007L37.8752 27.761C37.7462 27.7078 37.6079 27.681 37.4683 27.6823L37.4753 28.4822ZM37.5705 28.5007C37.6008 28.5132 37.6286 28.5317 37.652 28.5553L38.2196 27.9915C38.1213 27.8925 38.0042 27.8141 37.8752 27.761L37.5705 28.5007ZM37.652 28.5553C37.6754 28.5789 37.6941 28.6071 37.7068 28.6383L38.4479 28.3371C38.3954 28.208 38.3179 28.0904 38.2196 27.9915L37.652 28.5553ZM37.7068 28.6383C37.7195 28.6696 37.7259 28.7031 37.7256 28.737L38.5256 28.7439C38.5268 28.6046 38.5004 28.4663 38.4479 28.3371L37.7068 28.6383ZM37.7256 28.737C37.7253 28.771 37.7183 28.8044 37.7051 28.8354L38.4409 29.1494C38.4956 29.0212 38.5244 28.8833 38.5256 28.7439L37.7256 28.737ZM37.7051 28.8354C37.6919 28.8664 37.6727 28.8943 37.6489 28.9175L38.2066 29.491C38.3066 29.3938 38.3862 29.2776 38.4409 29.1494L37.7051 28.8354ZM37.644 28.9223L35.0855 31.4975L35.653 32.0613L38.2115 29.4862L37.644 28.9223ZM35.0854 31.4975C35.0387 31.5446 34.9758 31.5706 34.9109 31.5706L34.911 32.3706C35.1899 32.3705 35.4568 32.2589 35.6531 32.0612L35.0854 31.4975ZM17.9881 48.6088C17.9397 48.6088 17.892 48.5943 17.8513 48.5669L17.4047 49.2306C17.5771 49.3466 17.7801 49.4088 17.988 49.4088L17.9881 48.6088ZM17.8513 48.5669C17.8105 48.5395 17.7783 48.5002 17.7592 48.4537L17.0194 48.7581C17.0984 48.9501 17.2323 49.1147 17.4047 49.2306L17.8513 48.5669ZM17.7592 48.4537C17.7401 48.4073 17.735 48.356 17.7448 48.3064L16.96 48.1514C16.9198 48.355 16.9404 48.5661 17.0194 48.7581L17.7592 48.4537ZM17.7448 48.3064C17.7546 48.2569 17.7787 48.2118 17.8136 48.1766L17.2459 47.613C17.0996 47.7603 17.0002 47.9478 16.96 48.1514L17.7448 48.3064ZM17.8135 48.1767L20.3714 45.6022L19.8039 45.0383L17.246 47.6129L17.8135 48.1767ZM20.3665 45.607C20.4135 45.5613 20.4759 45.5365 20.5402 45.5371L20.5472 44.7371C20.2714 44.7347 20.0063 44.8414 19.8088 45.0335L20.3665 45.607ZM20.5402 45.5371C20.6044 45.5376 20.6664 45.5635 20.7126 45.6101L21.2802 45.0463C21.086 44.8508 20.8229 44.7395 20.5472 44.7371L20.5402 45.5371ZM20.7126 45.6101C20.7589 45.6567 20.7857 45.7204 20.7862 45.7874L21.5862 45.7805C21.5838 45.5054 21.4742 45.2417 21.2802 45.0463L20.7126 45.6101ZM20.7862 45.7874C20.7868 45.8545 20.7612 45.9186 20.7156 45.9661L21.2929 46.52C21.4836 46.3213 21.5886 46.0557 21.5862 45.7805L20.7862 45.7874ZM20.7205 45.9611L18.1626 48.5357L18.7301 49.0995L21.288 46.525L20.7205 45.9611ZM18.1625 48.5357C18.1158 48.5828 18.0529 48.6088 17.988 48.6088L17.9881 49.4088C18.267 49.4087 18.5339 49.2972 18.7302 49.0994L18.1625 48.5357ZM37.4678 48.6088C37.4029 48.6088 37.34 48.5828 37.2933 48.5358L36.7256 49.0994C36.9219 49.2971 37.1888 49.4087 37.4677 49.4088L37.4678 48.6088ZM37.2932 48.5356L34.7347 45.9611L34.1672 46.525L36.7257 49.0996L37.2932 48.5356ZM34.7396 45.9661C34.6941 45.9187 34.6684 45.8545 34.669 45.7874L33.869 45.7805C33.8666 46.0557 33.9717 46.3212 34.1623 46.5199L34.7396 45.9661ZM34.669 45.7874C34.6696 45.7203 34.6963 45.6567 34.7426 45.6101L34.175 45.0463C33.981 45.2417 33.8714 45.5054 33.869 45.7805L34.669 45.7874ZM34.7426 45.6101C34.7889 45.5635 34.8508 45.5376 34.9151 45.5371L34.9081 44.7371C34.6324 44.7395 34.3692 44.8509 34.175 45.0463L34.7426 45.6101ZM34.9151 45.5371C34.9793 45.5365 35.0417 45.5613 35.0887 45.607L35.6464 45.0335C35.4489 44.8414 35.1838 44.7347 34.9081 44.7371L34.9151 45.5371ZM35.0838 45.6022L37.6423 48.1768L38.2098 47.6128L35.6512 45.0383L35.0838 45.6022ZM37.6422 48.1766C37.6771 48.2118 37.7012 48.2569 37.7109 48.3064L38.4958 48.1514C38.4556 47.9478 38.3562 47.7603 38.2099 47.613L37.6422 48.1766ZM37.7109 48.3064C37.7207 48.3559 37.7157 48.4073 37.6966 48.4537L38.4364 48.7581C38.5154 48.5661 38.536 48.355 38.4958 48.1514L37.7109 48.3064ZM37.6966 48.4537C37.6774 48.5002 37.6453 48.5395 37.6045 48.5669L38.0511 49.2306C38.2235 49.1147 38.3574 48.9501 38.4364 48.7581L37.6966 48.4537ZM37.6045 48.5669C37.5637 48.5943 37.5161 48.6088 37.4677 48.6088L37.4678 49.4088C37.6757 49.4088 37.8787 49.3466 38.0511 49.2306L37.6045 48.5669ZM20.5473 31.5695C20.4823 31.5695 20.4195 31.5435 20.3727 31.4964L19.805 32.0601C20.0014 32.2578 20.2682 32.3694 20.5471 32.3695L20.5473 31.5695ZM20.3727 31.4964L17.8147 28.9212L17.2471 29.485L19.8051 32.0602L20.3727 31.4964ZM17.8196 28.9262C17.774 28.8787 17.7484 28.8146 17.749 28.7475L16.949 28.7406C16.9466 29.0158 17.0517 29.2814 17.2423 29.48L17.8196 28.9262ZM17.749 28.7475C17.7496 28.6805 17.7763 28.6168 17.8226 28.5702L17.255 28.0064C17.061 28.2018 16.9514 28.4655 16.949 28.7406L17.749 28.7475ZM17.8226 28.5702C17.8689 28.5237 17.9308 28.4977 17.9951 28.4972L17.9881 27.6972C17.7124 27.6996 17.4492 27.811 17.255 28.0064L17.8226 28.5702ZM17.9951 28.4972C18.0593 28.4966 18.1217 28.5214 18.1687 28.5671L18.7264 27.9936C18.5289 27.8015 18.2638 27.6948 17.9881 27.6972L17.9951 28.4972ZM18.1638 28.5623L20.7217 31.1374L21.2893 30.5736L18.7313 27.9985L18.1638 28.5623ZM20.7216 31.1374C20.7566 31.1725 20.7806 31.2176 20.7904 31.2671L21.5752 31.1121C21.535 30.9085 21.4357 30.721 21.2893 30.5737L20.7216 31.1374ZM20.7904 31.2671C20.8002 31.3167 20.7951 31.3679 20.776 31.4144L21.5159 31.7188C21.5948 31.5268 21.6155 31.3157 21.5752 31.1121L20.7904 31.2671ZM20.776 31.4144C20.7569 31.4609 20.7247 31.5002 20.6839 31.5276L21.1305 32.1913C21.3029 32.0754 21.4369 31.9108 21.5159 31.7188L20.776 31.4144ZM20.6839 31.5276C20.6432 31.555 20.5956 31.5695 20.5471 31.5695L20.5473 32.3695C20.7552 32.3694 20.9581 32.3073 21.1305 32.1913L20.6839 31.5276Z" fill="#735A94" mask="url(#path-1-outside-1)"/>
</g>
</svg>
