<svg width="81" height="81" viewBox="0 0 81 81" fill="none" xmlns="http://www.w3.org/2000/svg">
<g opacity="0.6">
<mask id="path-1-inside-1" fill="white">
<path d="M66.9329 37.6036C66.6552 37.6032 66.3868 37.5034 66.1763 37.3223C65.9657 37.1412 65.827 36.8907 65.785 36.6161C64.9309 31.2475 62.4013 26.2866 58.558 22.4427C54.7146 18.5987 49.7544 16.0688 44.3866 15.2146C44.0896 15.1692 43.8216 15.0107 43.6389 14.7722C43.4561 14.5337 43.3728 14.2337 43.4062 13.9351C43.4097 13.8724 43.4097 13.8094 43.4062 13.7467V1.1628C43.4064 1.00034 43.4406 0.839722 43.5066 0.691285C43.5726 0.542847 43.669 0.409885 43.7895 0.300965C43.91 0.192045 44.052 0.109583 44.2063 0.0588923C44.3606 0.00820132 44.5239 -0.00959449 44.6855 0.00665127C53.9799 0.982007 62.6573 5.12044 69.2658 11.7294C75.8742 18.3384 80.0126 27.0169 80.9884 36.3125C81.0047 36.4748 80.9867 36.6386 80.9356 36.7934C80.8845 36.9483 80.8014 37.0906 80.6917 37.2113C80.5821 37.3319 80.4483 37.4282 80.299 37.4937C80.1498 37.5593 79.9884 37.5928 79.8254 37.592H67.248C67.1841 37.592 67.1224 37.592 67.0608 37.592C67.0184 37.5982 66.9757 37.6021 66.9329 37.6036ZM67.9121 35.2657H78.5217C77.366 26.9769 73.5396 19.291 67.6227 13.3732C61.7057 7.45536 54.0209 3.6284 45.7333 2.47248V13.0837C51.2137 14.1625 56.2492 16.8479 60.1988 20.7981C64.1484 24.7483 66.8334 29.7845 67.9121 35.2657Z"/>
<path d="M44.5704 81C44.2619 81 43.9661 80.8774 43.748 80.6593C43.5299 80.4412 43.4074 80.1453 43.4074 79.8369V67.2518C43.4109 67.1891 43.4109 67.1262 43.4074 67.0634C43.3739 66.7648 43.4573 66.4648 43.64 66.2263C43.8228 65.9878 44.0908 65.8293 44.3878 65.7839C49.7556 64.9299 54.716 62.4 58.5593 58.556C62.4027 54.7121 64.9323 49.751 65.7862 44.3824C65.8315 44.0853 65.99 43.8173 66.2284 43.6346C66.4669 43.4518 66.7669 43.3684 67.0654 43.4019H79.8312C79.9942 43.4011 80.1556 43.4345 80.3049 43.5001C80.4541 43.5657 80.5879 43.6619 80.6976 43.7826C80.8072 43.9032 80.8903 44.0456 80.9414 44.2004C80.9925 44.3552 81.0105 44.5191 80.9942 44.6813C80.0194 53.9788 75.8809 62.6591 69.2715 69.2694C62.662 75.8796 53.9828 80.0184 44.6866 80.993C44.648 80.9975 44.6092 80.9998 44.5704 81ZM45.7333 67.916V78.5272C54.0209 77.3713 61.7057 73.5443 67.6227 67.6265C73.5396 61.7087 77.366 54.0228 78.5217 45.7339H67.9121C66.8334 51.2152 64.1484 56.2514 60.1988 60.2016C56.2492 64.1517 51.2137 66.8371 45.7333 67.916Z"/>
<path d="M24.6838 20.0986C24.517 20.0986 24.3522 20.0628 24.2005 19.9936C24.0488 19.9244 23.9138 19.8233 23.8046 19.6973C23.7523 19.6368 23.6999 19.581 23.6395 19.5252L14.7428 10.6272C14.6277 10.5121 14.538 10.3741 14.4796 10.2222C14.4212 10.0702 14.3953 9.9077 14.4036 9.74511C14.4119 9.58252 14.4543 9.42349 14.528 9.27831C14.6016 9.13313 14.7049 9.00503 14.8312 8.9023C20.9667 3.89752 28.4363 0.804419 36.3134 0.00669613C36.4752 -0.0108574 36.639 0.0061967 36.7938 0.0567287C36.9485 0.107261 37.0908 0.190116 37.2112 0.299804C37.3319 0.408813 37.4285 0.541949 37.4946 0.690609C37.5607 0.839269 37.5949 1.00015 37.5949 1.16285V13.7479C37.5914 13.8107 37.5914 13.8736 37.5949 13.9363C37.6284 14.2351 37.5449 14.5353 37.3619 14.7738C37.1789 15.0123 36.9106 15.1707 36.6134 15.2158C32.5451 15.8395 28.688 17.4382 25.3711 19.8753C25.1715 20.0208 24.9308 20.099 24.6838 20.0986ZM17.3141 9.90957L24.8199 17.4152C27.9697 15.2729 31.5251 13.7987 35.2667 13.0837V2.47253C28.7405 3.35848 22.5553 5.92078 17.3141 9.90957Z"/>
<path d="M14.0671 37.6036C14.0244 37.6036 13.9817 37.6013 13.9392 37.5967C13.8764 37.5967 13.8148 37.5967 13.752 37.5967H1.16879C1.00577 37.5975 0.844397 37.564 0.695146 37.4984C0.545896 37.4328 0.412099 37.3366 0.302439 37.2159C0.192778 37.0953 0.109704 36.9529 0.0586053 36.7981C0.00750701 36.6433 -0.0104733 36.4794 0.00583098 36.3172C0.804904 28.44 3.89832 20.9706 8.90245 14.8354C9.00529 14.7092 9.13348 14.606 9.27872 14.5324C9.42396 14.4589 9.58301 14.4167 9.7456 14.4085C9.90777 14.401 10.0697 14.4271 10.2213 14.4854C10.3728 14.5437 10.5106 14.6327 10.626 14.747L19.5226 23.6449C19.5819 23.7031 19.6307 23.7543 19.6877 23.8043C19.9113 23.995 20.0544 24.2633 20.0883 24.5552C20.1222 24.8472 20.0443 25.1411 19.8703 25.378C17.4326 28.6955 15.8334 32.5536 15.2092 36.6231C15.1659 36.8954 15.0273 37.1435 14.8181 37.3231C14.609 37.5026 14.3428 37.6021 14.0671 37.6036ZM2.47828 35.2657H13.0879C13.8018 31.5235 15.2754 27.9675 17.4176 24.8174L9.91423 17.3105C5.92602 22.5525 3.3641 28.7386 2.47828 35.2657Z"/>
<path d="M36.4296 81C36.3908 80.9999 36.352 80.9975 36.3134 80.993C27.0192 80.0174 18.342 75.8789 11.7338 69.2699C5.12562 62.661 0.987409 53.9826 0.0116478 44.6871C-0.00465641 44.5249 0.0133239 44.3611 0.0644221 44.2062C0.11552 44.0514 0.198595 43.9091 0.308256 43.7884C0.417916 43.6678 0.551712 43.5715 0.700963 43.5059C0.850214 43.4403 1.01158 43.4069 1.1746 43.4077H13.9392C14.2378 43.3742 14.5377 43.4576 14.7762 43.6404C15.0147 43.8232 15.1732 44.0912 15.2185 44.3882C16.0724 49.7569 18.6019 54.7179 22.4453 58.5619C26.2887 62.4058 31.249 64.9357 36.6169 65.7898C36.9139 65.8351 37.1819 65.9936 37.3646 66.2321C37.5474 66.4706 37.6307 66.7706 37.5973 67.0692C37.5938 67.132 37.5938 67.1949 37.5973 67.2576V79.8369C37.5973 80.1454 37.4747 80.4412 37.2566 80.6593C37.0385 80.8775 36.7427 81 36.4343 81H36.4296ZM2.47828 45.734C3.63403 54.0228 7.46042 61.7087 13.3774 67.6265C19.2943 73.5443 26.9791 77.3713 35.2667 78.5272V67.916C29.7863 66.8371 24.7508 64.1517 20.8012 60.2016C16.8516 56.2514 14.1666 51.2152 13.0879 45.734H2.47828Z"/>
<path d="M47.1998 52.6115C47.1044 52.6115 47.0079 52.6115 46.9125 52.6034C45.5617 52.5273 44.2951 51.9224 43.3866 50.9196C42.4782 49.9168 42.0009 48.5966 42.0582 47.2446C42.1153 45.8927 42.7024 44.6175 43.6923 43.6951C44.6822 42.7726 45.9954 42.2769 47.3478 42.3152C48.7003 42.3536 49.9833 42.9228 50.9193 43.8999C51.8554 44.877 52.3693 46.1833 52.3498 47.5364C52.3304 48.8894 51.7792 50.1804 50.8154 51.1302C49.8516 52.0799 48.5528 52.6121 47.1998 52.6115ZM47.1917 44.5975C46.5405 44.5982 45.9093 44.8223 45.4035 45.2324C44.8978 45.6426 44.548 46.2139 44.4129 46.8509C44.2777 47.488 44.3652 48.1521 44.6608 48.7324C44.9563 49.3126 45.4421 49.7739 46.0368 50.039C46.6316 50.3041 47.2993 50.357 47.9284 50.1889C48.5574 50.0207 49.1097 49.6418 49.493 49.1153C49.8763 48.5888 50.0672 47.9467 50.034 47.2964C50.0008 46.646 49.7454 46.0267 49.3106 45.542C49.0441 45.2438 48.7175 45.0055 48.3523 44.8427C47.9871 44.6799 47.5915 44.5964 47.1917 44.5975Z"/>
<path d="M33.8095 38.7272C32.9476 38.7275 32.0994 38.5122 31.3419 38.1009C30.5845 37.6896 29.9419 37.0954 29.4727 36.3724C29.0034 35.6493 28.7225 34.8204 28.6553 33.961C28.5882 33.1016 28.737 32.2391 29.0882 31.4519C29.4394 30.6647 29.9819 29.9779 30.6662 29.4539C31.3506 28.9299 32.1551 28.5854 33.0065 28.4518C33.858 28.3182 34.7293 28.3996 35.5413 28.6887C36.3532 28.9779 37.08 29.4655 37.6554 30.1072C38.3223 30.8503 38.7597 31.7706 38.9147 32.7569C39.0698 33.7433 38.9358 34.7535 38.5289 35.6653C38.1221 36.5771 37.4599 37.3515 36.6224 37.8949C35.7848 38.4383 34.8078 38.7274 33.8095 38.7272ZM33.8025 30.7144C33.1515 30.7153 32.5205 30.9396 32.015 31.3498C31.5094 31.7601 31.1599 32.3314 31.0249 32.9683C30.8898 33.6053 30.9774 34.2693 31.273 34.8494C31.5686 35.4296 32.0543 35.8907 32.6489 36.1558C33.2435 36.4208 33.9111 36.4738 34.54 36.3058C35.169 36.1378 35.7213 35.7591 36.1047 35.2328C36.488 34.7066 36.6792 34.0647 36.6463 33.4144C36.6133 32.7641 36.3583 32.1449 35.9238 31.66C35.6756 31.3811 35.3744 31.1543 35.0378 30.9927C34.7012 30.8312 34.3359 30.7382 33.963 30.7191C33.9084 30.7156 33.856 30.7144 33.8025 30.7144Z"/>
<path d="M30.951 50.968C30.7195 50.9685 30.4932 50.8998 30.301 50.7709C30.1087 50.6419 29.9594 50.4586 29.8719 50.2442C29.7845 50.0299 29.763 49.7943 29.8102 49.5677C29.8574 49.3411 29.9712 49.1337 30.1369 48.9721L49.235 30.362C49.3443 30.2551 49.4737 30.1708 49.6156 30.1139C49.7575 30.0569 49.9093 30.0285 50.0622 30.0302C50.2151 30.032 50.3662 30.0638 50.5068 30.1239C50.6474 30.184 50.7748 30.2713 50.8817 30.3806C50.9886 30.49 51.073 30.6194 51.1299 30.7613C51.1868 30.9033 51.2152 31.0551 51.2135 31.208C51.2117 31.3609 51.1799 31.512 51.1198 31.6527C51.0597 31.7933 50.9725 31.9207 50.8631 32.0276L31.765 50.6377C31.5477 50.8507 31.2552 50.9693 30.951 50.968Z"/>
</mask>
<path d="M66.9329 37.6036C66.6552 37.6032 66.3868 37.5034 66.1763 37.3223C65.9657 37.1412 65.827 36.8907 65.785 36.6161C64.9309 31.2475 62.4013 26.2866 58.558 22.4427C54.7146 18.5987 49.7544 16.0688 44.3866 15.2146C44.0896 15.1692 43.8216 15.0107 43.6389 14.7722C43.4561 14.5337 43.3728 14.2337 43.4062 13.9351C43.4097 13.8724 43.4097 13.8094 43.4062 13.7467V1.1628C43.4064 1.00034 43.4406 0.839722 43.5066 0.691285C43.5726 0.542847 43.669 0.409885 43.7895 0.300965C43.91 0.192045 44.052 0.109583 44.2063 0.0588923C44.3606 0.00820132 44.5239 -0.00959449 44.6855 0.00665127C53.9799 0.982007 62.6573 5.12044 69.2658 11.7294C75.8742 18.3384 80.0126 27.0169 80.9884 36.3125C81.0047 36.4748 80.9867 36.6386 80.9356 36.7934C80.8845 36.9483 80.8014 37.0906 80.6917 37.2113C80.5821 37.3319 80.4483 37.4282 80.299 37.4937C80.1498 37.5593 79.9884 37.5928 79.8254 37.592H67.248C67.1841 37.592 67.1224 37.592 67.0608 37.592C67.0184 37.5982 66.9757 37.6021 66.9329 37.6036ZM67.9121 35.2657H78.5217C77.366 26.9769 73.5396 19.291 67.6227 13.3732C61.7057 7.45536 54.0209 3.6284 45.7333 2.47248V13.0837C51.2137 14.1625 56.2492 16.8479 60.1988 20.7981C64.1484 24.7483 66.8334 29.7845 67.9121 35.2657Z" stroke="#735A94" stroke-width="3" stroke-linejoin="round" mask="url(#path-1-inside-1)"/>
<path d="M44.5704 81C44.2619 81 43.9661 80.8774 43.748 80.6593C43.5299 80.4412 43.4074 80.1453 43.4074 79.8369V67.2518C43.4109 67.1891 43.4109 67.1262 43.4074 67.0634C43.3739 66.7648 43.4573 66.4648 43.64 66.2263C43.8228 65.9878 44.0908 65.8293 44.3878 65.7839C49.7556 64.9299 54.716 62.4 58.5593 58.556C62.4027 54.7121 64.9323 49.751 65.7862 44.3824C65.8315 44.0853 65.99 43.8173 66.2284 43.6346C66.4669 43.4518 66.7669 43.3684 67.0654 43.4019H79.8312C79.9942 43.4011 80.1556 43.4345 80.3049 43.5001C80.4541 43.5657 80.5879 43.6619 80.6976 43.7826C80.8072 43.9032 80.8903 44.0456 80.9414 44.2004C80.9925 44.3552 81.0105 44.5191 80.9942 44.6813C80.0194 53.9788 75.8809 62.6591 69.2715 69.2694C62.662 75.8796 53.9828 80.0184 44.6866 80.993C44.648 80.9975 44.6092 80.9998 44.5704 81ZM45.7333 67.916V78.5272C54.0209 77.3713 61.7057 73.5443 67.6227 67.6265C73.5396 61.7087 77.366 54.0228 78.5217 45.7339H67.9121C66.8334 51.2152 64.1484 56.2514 60.1988 60.2016C56.2492 64.1517 51.2137 66.8371 45.7333 67.916Z" stroke="#735A94" stroke-width="3" stroke-linejoin="round" mask="url(#path-1-inside-1)"/>
<path d="M24.6838 20.0986C24.517 20.0986 24.3522 20.0628 24.2005 19.9936C24.0488 19.9244 23.9138 19.8233 23.8046 19.6973C23.7523 19.6368 23.6999 19.581 23.6395 19.5252L14.7428 10.6272C14.6277 10.5121 14.538 10.3741 14.4796 10.2222C14.4212 10.0702 14.3953 9.9077 14.4036 9.74511C14.4119 9.58252 14.4543 9.42349 14.528 9.27831C14.6016 9.13313 14.7049 9.00503 14.8312 8.9023C20.9667 3.89752 28.4363 0.804419 36.3134 0.00669613C36.4752 -0.0108574 36.639 0.0061967 36.7938 0.0567287C36.9485 0.107261 37.0908 0.190116 37.2112 0.299804C37.3319 0.408813 37.4285 0.541949 37.4946 0.690609C37.5607 0.839269 37.5949 1.00015 37.5949 1.16285V13.7479C37.5914 13.8107 37.5914 13.8736 37.5949 13.9363C37.6284 14.2351 37.5449 14.5353 37.3619 14.7738C37.1789 15.0123 36.9106 15.1707 36.6134 15.2158C32.5451 15.8395 28.688 17.4382 25.3711 19.8753C25.1715 20.0208 24.9308 20.099 24.6838 20.0986ZM17.3141 9.90957L24.8199 17.4152C27.9697 15.2729 31.5251 13.7987 35.2667 13.0837V2.47253C28.7405 3.35848 22.5553 5.92078 17.3141 9.90957Z" stroke="#735A94" stroke-width="3" stroke-linejoin="round" mask="url(#path-1-inside-1)"/>
<path d="M14.0671 37.6036C14.0244 37.6036 13.9817 37.6013 13.9392 37.5967C13.8764 37.5967 13.8148 37.5967 13.752 37.5967H1.16879C1.00577 37.5975 0.844397 37.564 0.695146 37.4984C0.545896 37.4328 0.412099 37.3366 0.302439 37.2159C0.192778 37.0953 0.109704 36.9529 0.0586053 36.7981C0.00750701 36.6433 -0.0104733 36.4794 0.00583098 36.3172C0.804904 28.44 3.89832 20.9706 8.90245 14.8354C9.00529 14.7092 9.13348 14.606 9.27872 14.5324C9.42396 14.4589 9.58301 14.4167 9.7456 14.4085C9.90777 14.401 10.0697 14.4271 10.2213 14.4854C10.3728 14.5437 10.5106 14.6327 10.626 14.747L19.5226 23.6449C19.5819 23.7031 19.6307 23.7543 19.6877 23.8043C19.9113 23.995 20.0544 24.2633 20.0883 24.5552C20.1222 24.8472 20.0443 25.1411 19.8703 25.378C17.4326 28.6955 15.8334 32.5536 15.2092 36.6231C15.1659 36.8954 15.0273 37.1435 14.8181 37.3231C14.609 37.5026 14.3428 37.6021 14.0671 37.6036ZM2.47828 35.2657H13.0879C13.8018 31.5235 15.2754 27.9675 17.4176 24.8174L9.91423 17.3105C5.92602 22.5525 3.3641 28.7386 2.47828 35.2657Z" stroke="#735A94" stroke-width="3" stroke-linejoin="round" mask="url(#path-1-inside-1)"/>
<path d="M36.4296 81C36.3908 80.9999 36.352 80.9975 36.3134 80.993C27.0192 80.0174 18.342 75.8789 11.7338 69.2699C5.12562 62.661 0.987409 53.9826 0.0116478 44.6871C-0.00465641 44.5249 0.0133239 44.3611 0.0644221 44.2062C0.11552 44.0514 0.198595 43.9091 0.308256 43.7884C0.417916 43.6678 0.551712 43.5715 0.700963 43.5059C0.850214 43.4403 1.01158 43.4069 1.1746 43.4077H13.9392C14.2378 43.3742 14.5377 43.4576 14.7762 43.6404C15.0147 43.8232 15.1732 44.0912 15.2185 44.3882C16.0724 49.7569 18.6019 54.7179 22.4453 58.5619C26.2887 62.4058 31.249 64.9357 36.6169 65.7898C36.9139 65.8351 37.1819 65.9936 37.3646 66.2321C37.5474 66.4706 37.6307 66.7706 37.5973 67.0692C37.5938 67.132 37.5938 67.1949 37.5973 67.2576V79.8369C37.5973 80.1454 37.4747 80.4412 37.2566 80.6593C37.0385 80.8775 36.7427 81 36.4343 81H36.4296ZM2.47828 45.734C3.63403 54.0228 7.46042 61.7087 13.3774 67.6265C19.2943 73.5443 26.9791 77.3713 35.2667 78.5272V67.916C29.7863 66.8371 24.7508 64.1517 20.8012 60.2016C16.8516 56.2514 14.1666 51.2152 13.0879 45.734H2.47828Z" stroke="#735A94" stroke-width="3" stroke-linejoin="round" mask="url(#path-1-inside-1)"/>
<path d="M47.1998 52.6115C47.1044 52.6115 47.0079 52.6115 46.9125 52.6034C45.5617 52.5273 44.2951 51.9224 43.3866 50.9196C42.4782 49.9168 42.0009 48.5966 42.0582 47.2446C42.1153 45.8927 42.7024 44.6175 43.6923 43.6951C44.6822 42.7726 45.9954 42.2769 47.3478 42.3152C48.7003 42.3536 49.9833 42.9228 50.9193 43.8999C51.8554 44.877 52.3693 46.1833 52.3498 47.5364C52.3304 48.8894 51.7792 50.1804 50.8154 51.1302C49.8516 52.0799 48.5528 52.6121 47.1998 52.6115ZM47.1917 44.5975C46.5405 44.5982 45.9093 44.8223 45.4035 45.2324C44.8978 45.6426 44.548 46.2139 44.4129 46.8509C44.2777 47.488 44.3652 48.1521 44.6608 48.7324C44.9563 49.3126 45.4421 49.7739 46.0368 50.039C46.6316 50.3041 47.2993 50.357 47.9284 50.1889C48.5574 50.0207 49.1097 49.6418 49.493 49.1153C49.8763 48.5888 50.0672 47.9467 50.034 47.2964C50.0008 46.646 49.7454 46.0267 49.3106 45.542C49.0441 45.2438 48.7175 45.0055 48.3523 44.8427C47.9871 44.6799 47.5915 44.5964 47.1917 44.5975Z" stroke="#735A94" stroke-width="3" stroke-linejoin="round" mask="url(#path-1-inside-1)"/>
<path d="M33.8095 38.7272C32.9476 38.7275 32.0994 38.5122 31.3419 38.1009C30.5845 37.6896 29.9419 37.0954 29.4727 36.3724C29.0034 35.6493 28.7225 34.8204 28.6553 33.961C28.5882 33.1016 28.737 32.2391 29.0882 31.4519C29.4394 30.6647 29.9819 29.9779 30.6662 29.4539C31.3506 28.9299 32.1551 28.5854 33.0065 28.4518C33.858 28.3182 34.7293 28.3996 35.5413 28.6887C36.3532 28.9779 37.08 29.4655 37.6554 30.1072C38.3223 30.8503 38.7597 31.7706 38.9147 32.7569C39.0698 33.7433 38.9358 34.7535 38.5289 35.6653C38.1221 36.5771 37.4599 37.3515 36.6224 37.8949C35.7848 38.4383 34.8078 38.7274 33.8095 38.7272ZM33.8025 30.7144C33.1515 30.7153 32.5205 30.9396 32.015 31.3498C31.5094 31.7601 31.1599 32.3314 31.0249 32.9683C30.8898 33.6053 30.9774 34.2693 31.273 34.8494C31.5686 35.4296 32.0543 35.8907 32.6489 36.1558C33.2435 36.4208 33.9111 36.4738 34.54 36.3058C35.169 36.1378 35.7213 35.7591 36.1047 35.2328C36.488 34.7066 36.6792 34.0647 36.6463 33.4144C36.6133 32.7641 36.3583 32.1449 35.9238 31.66C35.6756 31.3811 35.3744 31.1543 35.0378 30.9927C34.7012 30.8312 34.3359 30.7382 33.963 30.7191C33.9084 30.7156 33.856 30.7144 33.8025 30.7144Z" stroke="#735A94" stroke-width="3" stroke-linejoin="round" mask="url(#path-1-inside-1)"/>
<path d="M30.951 50.968C30.7195 50.9685 30.4932 50.8998 30.301 50.7709C30.1087 50.6419 29.9594 50.4586 29.8719 50.2442C29.7845 50.0299 29.763 49.7943 29.8102 49.5677C29.8574 49.3411 29.9712 49.1337 30.1369 48.9721L49.235 30.362C49.3443 30.2551 49.4737 30.1708 49.6156 30.1139C49.7575 30.0569 49.9093 30.0285 50.0622 30.0302C50.2151 30.032 50.3662 30.0638 50.5068 30.1239C50.6474 30.184 50.7748 30.2713 50.8817 30.3806C50.9886 30.49 51.073 30.6194 51.1299 30.7613C51.1868 30.9033 51.2152 31.0551 51.2135 31.208C51.2117 31.3609 51.1799 31.512 51.1198 31.6527C51.0597 31.7933 50.9725 31.9207 50.8631 32.0276L31.765 50.6377C31.5477 50.8507 31.2552 50.9693 30.951 50.968Z" stroke="#735A94" stroke-width="3" stroke-linejoin="round" mask="url(#path-1-inside-1)"/>
</g>
</svg>
