<svg width="80" height="85" viewBox="0 0 80 85" fill="none" xmlns="http://www.w3.org/2000/svg">
<path opacity="0.6" d="M61.1399 2.7374C61.1399 2.87547 61.2518 2.9874 61.3899 2.9874H68.5524H75.1142L66.4358 11.7253L57.4847 20.7379L55.0657 18.9914C41.374 9.10603 22.1046 10.9407 10.5006 23.2343C2.94222 31.2417 -0.377501 41.3767 1.08898 51.9873L1.33659 51.9531L1.08898 51.9874C2.6482 63.267 9.86795 73.3301 20.0159 78.3646C22.7858 79.7389 24.8488 80.5755 27.1293 81.0625C29.4073 81.5489 31.8894 81.6837 35.4935 81.6719C38.2716 81.6627 39.8567 81.6392 41.0996 81.5074C42.3516 81.3747 43.254 81.1325 44.6661 80.6961C48.3635 79.5536 52.7378 77.4153 55.2381 75.5215C55.7337 75.1462 56.2322 74.7866 56.6355 74.51C56.8372 74.3717 57.0137 74.255 57.1533 74.1679C57.242 74.1126 57.3094 74.0733 57.3563 74.048C57.3678 74.0543 57.3813 74.0622 57.3969 74.0718C57.4843 74.1255 57.6079 74.2142 57.7668 74.3389C58.0828 74.5868 58.5164 74.9593 59.0377 75.4302C60.0793 76.3709 61.4588 77.6935 62.924 79.1705L63.1015 78.9944L62.9241 79.1705C65.4537 81.7199 66.8088 83.0712 67.6063 83.7124C67.9976 84.0271 68.2982 84.2087 68.5662 84.2437C68.8741 84.2838 69.0795 84.1275 69.2411 83.9804L69.2411 83.9803C69.3979 83.8375 69.5843 83.6433 69.557 83.3303C69.5448 83.19 69.4907 83.0468 69.4076 82.8958C69.324 82.7439 69.2033 82.5706 69.0426 82.3678C68.4056 81.5639 67.0429 80.1773 64.4602 77.5743L59.2025 72.2759L60.7977 70.52L60.6126 70.3519L60.7977 70.5199C64.4185 66.5328 66.7052 62.4004 68.4413 56.7182C68.8628 55.3391 69.0979 54.4415 69.2274 53.1859C69.356 51.9393 69.3802 50.342 69.3894 47.5632C69.4053 42.6365 69.2858 40.9908 68.7461 38.9842L68.5047 39.0491L68.7461 38.9841C67.2714 33.503 64.8639 28.8583 61.2936 24.6096L61.1022 24.7704L61.2936 24.6096L59.3696 22.3203L68.0732 13.5667C70.5105 11.1155 72.7545 8.88744 74.4066 7.27254C75.2328 6.46493 75.9101 5.81146 76.3892 5.36031C76.5751 5.18527 76.7302 5.04158 76.8521 4.93153C76.8572 4.98571 76.8623 5.04554 76.8674 5.11097C76.8976 5.50247 76.9251 6.07229 76.9483 6.77963C76.9947 8.1932 77.0235 10.1449 77.0235 12.2931V20.1114C77.0235 20.2495 77.1355 20.3614 77.2735 20.3614H78.1368H79C79.1381 20.3614 79.25 20.2495 79.25 20.1114V10.5557V1C79.25 0.861929 79.1381 0.75 79 0.75H70.1949H61.3899C61.2518 0.75 61.1399 0.861929 61.1399 1V1.8687V2.7374ZM54.0156 21.0537L55.865 22.3592L43.7108 34.594L31.3478 47.0387C31.251 47.1362 31.251 47.2936 31.3478 47.3911L43.7215 59.8465L55.8982 72.104L54.7909 72.9855C48.3943 78.0768 38.6758 80.5793 30.3519 79.2738C17.279 77.2232 6.49494 66.937 3.79336 53.9399C3.43078 52.1947 3.24472 49.736 3.24055 47.2853C3.23638 44.8341 3.4142 42.4126 3.77065 40.741C7.12152 25.0254 21.2742 14.0966 37.0315 15.0438C38.5358 15.1343 41.0765 15.5098 42.6669 15.8774C45.9931 16.6462 51.0156 18.9361 54.0156 21.0537ZM59.2387 25.8377C62.4542 29.4367 65.0647 34.3095 66.4052 39.2199C66.9972 41.3891 67.127 42.8154 67.1297 47.3888C67.1311 49.9263 67.1109 51.3707 66.985 52.5335C66.8598 53.6887 66.6299 54.57 66.2016 55.9815C64.9738 60.0295 62.5618 64.672 60.0676 67.7922C59.5117 68.4874 58.9664 69.144 58.536 69.6415C58.3206 69.8904 58.1353 70.098 57.9923 70.2502C57.9319 70.3145 57.8802 70.3678 57.8377 70.4095C57.8046 70.3854 57.7649 70.355 57.718 70.3178C57.544 70.1797 57.2949 69.9656 56.9772 69.681C56.3429 69.113 55.4469 68.275 54.3545 67.2294C52.1701 65.1385 49.2058 62.2227 45.9891 58.9867L34.4639 47.3924L45.9405 35.8391C49.1445 32.614 52.0826 29.6823 54.2353 27.5571C55.3117 26.4944 56.1912 25.6339 56.8091 25.0394C57.1183 24.7419 57.3608 24.5121 57.5294 24.3572C57.5819 24.309 57.6263 24.2688 57.663 24.2364C57.6731 24.2446 57.684 24.2534 57.6956 24.2631C57.7944 24.3452 57.9277 24.4676 58.0871 24.623C58.405 24.933 58.8148 25.3631 59.2387 25.8376L59.4251 25.6711L59.2387 25.8377Z" fill="#735A94" stroke="#735A94" stroke-width="0.5" stroke-linejoin="round"/>
</svg>
