<svg width="20" height="20" viewBox="0 0 20 20" fill="none" xmlns="http://www.w3.org/2000/svg">
<path fill-rule="evenodd" clip-rule="evenodd" d="M2.05323 3.42786C1.05437 3.93284 0.492515 4.7769 0.500075 5.76105C0.50526 6.45024 1.20299 8.15314 1.7184 8.73467C2.0299 9.0861 2.09103 9.04154 2.57577 8.11034C3.32469 6.67217 4.15592 5.61831 5.08371 4.93177C6.00026 4.25361 5.94906 4.14463 4.37107 3.41353C3.17607 2.85979 3.17694 2.85979 2.05323 3.42786ZM15.6289 3.41353C14.0509 4.14463 13.9997 4.25361 14.9163 4.93177C15.8441 5.61831 16.6753 6.67217 17.4242 8.11034C17.909 9.04154 17.9701 9.0861 18.2816 8.73467C18.797 8.15314 19.4947 6.45024 19.4999 5.76105C19.5075 4.76697 18.9409 3.9227 17.9304 3.42301C16.7935 2.86111 16.8211 2.86111 15.6289 3.41353ZM5.86093 10.121C4.79511 10.8607 4.09284 12.3661 4.29655 13.4749C4.60372 15.1467 6.23831 16.0667 7.18446 15.1004C8.47796 13.7794 9.16942 10.7464 8.36455 9.9242C7.86512 9.41437 6.75329 9.50173 5.86093 10.121ZM11.6536 9.98112C10.6053 11.164 12.209 15.5341 13.6915 15.5341C15.4401 15.5341 16.4446 13.1425 15.4179 11.4233C14.4482 9.79889 12.4824 9.04573 11.6536 9.98112ZM7.96082 11.8832C8.3909 12.5537 8.20038 13.2702 7.50589 13.5934C6.39384 14.1107 5.36841 12.5742 6.23507 11.6891C6.74551 11.168 7.56076 11.2598 7.96082 11.8832ZM13.8451 11.6072C14.427 12.2016 13.9339 13.7692 13.1648 13.7692C12.5861 13.7692 11.9441 13.0723 11.9441 12.444C11.9441 11.5018 13.2003 10.9487 13.8451 11.6072ZM6.9099 12.2382C6.8317 12.5433 6.6941 12.6507 6.5215 12.542C6.33271 12.4226 6.29685 12.4862 6.39902 12.7584C6.47873 12.9702 6.54375 13.1851 6.54375 13.2358C6.54375 13.2865 6.7898 13.328 7.09049 13.328C7.70765 13.328 8.01784 12.7831 7.69684 12.2633C7.36742 11.7301 7.04253 11.7198 6.9099 12.2382ZM12.4904 12.0827C11.8932 12.5287 12.1532 13.2177 12.9192 13.2177C13.4178 13.2177 13.5796 13.1083 13.6314 12.7363C13.7211 12.0933 13.0167 11.6898 12.4904 12.0827ZM13.3878 12.7077C13.3189 12.8835 13.2677 12.8312 13.2573 12.5742C13.248 12.3417 13.299 12.2115 13.3707 12.2847C13.4424 12.358 13.4502 12.5484 13.3878 12.7077ZM8.99812 15.7053C9.08323 15.8463 8.97026 15.8897 8.70412 15.8187C8.02713 15.6378 8.19454 16.1532 8.97393 16.6491C9.45305 16.9538 9.88141 17.0561 10.3234 16.9714C11.0274 16.8362 11.9066 16.0841 11.6575 15.8297C11.3985 15.565 8.84086 15.4454 8.99812 15.7053Z" fill="#3A205A"/>
</svg>
