<svg width="20" height="20" viewBox="0 0 20 20" fill="none" xmlns="http://www.w3.org/2000/svg">
<path fill-rule="evenodd" clip-rule="evenodd" d="M8.32462 1.09837C4.79512 1.86137 2.0774 4.52517 1.24828 8.0339C0.917239 9.43421 0.917239 10.6093 1.24828 12.0096C1.96434 15.0402 4.02156 17.3937 6.9516 18.5343C7.9734 18.9322 8.41822 19 10.0055 19C11.5928 19 12.0376 18.9322 13.0594 18.5343C15.9894 17.3937 18.0467 15.0402 18.7627 12.0096C19.2528 9.93558 18.9837 7.88137 17.9554 5.84887C16.5236 3.01912 13.658 1.1711 10.459 1.01504C9.67428 0.97673 8.71387 1.01416 8.32462 1.09837ZM10.7985 5.19002C10.6909 5.97068 10.7125 6.04959 11.033 6.04959C11.295 6.04959 11.4259 5.87923 11.5418 5.38757C11.6694 4.84612 11.7853 4.71531 12.1786 4.66976C12.7167 4.60726 12.7802 4.83765 12.4966 5.8245C12.3405 6.36719 12.3651 6.40885 13.0716 6.7953C14.423 7.53464 14.693 8.9579 13.6537 9.86549C13.239 10.2278 13.2362 10.2472 13.5573 10.5215C14.291 11.1484 14.1435 12.6536 13.2678 13.4748C12.8786 13.8399 12.6339 13.9056 11.6643 13.9056H10.5202L10.3304 14.6559C10.1752 15.2688 10.0651 15.4062 9.72948 15.4062C9.17178 15.4062 9.07004 15.1765 9.28449 14.4013C9.42073 13.9095 9.41188 13.7102 9.24928 13.6072C8.88019 13.3732 8.81526 13.4394 8.60842 14.2587C8.41291 15.0337 8.22235 15.1723 7.65244 14.9541C7.44985 14.8766 7.42667 14.7133 7.54522 14.2038C7.76356 13.266 7.7425 13.1113 7.39571 13.1101C7.2255 13.1096 6.79254 13.0278 6.43354 12.9285C5.80436 12.754 5.78772 12.729 5.96431 12.2232C6.11859 11.782 6.24174 11.6989 6.74264 11.6989C7.41039 11.6989 7.35554 11.8193 8.05231 8.8232C8.51748 6.82266 8.51288 6.76264 7.87361 6.52184C7.41535 6.34936 7.35094 6.25208 7.44578 5.87552C7.5983 5.26911 7.5891 5.27229 8.50385 5.50214C9.36092 5.71752 9.65163 5.6552 9.65163 5.25622C9.65163 5.12258 9.72541 4.81947 9.81582 4.58255C9.94764 4.23636 10.072 4.16927 10.4485 4.24112C10.8995 4.3271 10.9126 4.3624 10.7985 5.19002ZM10.1246 7.79433C10.0685 8.07432 9.97188 8.50543 9.90978 8.75224C9.80415 9.17205 9.84803 9.20859 10.5915 9.31981C11.56 9.46475 12.0751 9.32105 12.22 8.86522C12.4008 8.29694 12.13 7.79751 11.4981 7.53411C10.5731 7.14837 10.2415 7.21122 10.1246 7.79433ZM9.32412 11.2005C9.2077 11.7031 9.17532 12.1769 9.25176 12.2532C9.32837 12.3296 9.83794 12.4446 10.3841 12.5086C11.2511 12.6103 11.4252 12.5773 11.7531 12.2502C11.9597 12.044 12.1287 11.8067 12.1287 11.7227C12.1287 11.3461 11.3463 10.6356 10.7495 10.4701C9.64084 10.163 9.55378 10.2076 9.32412 11.2005Z" fill="#3A205A"/>
</svg>
