<svg width="440" height="446" viewBox="0 0 440 446" fill="none" xmlns="http://www.w3.org/2000/svg">
<path d="M388.81 383.335C379.789 392.792 371.246 398.886 364.504 403.71C285.211 460.344 191.398 443.841 171.459 439.811C142.021 433.86 85.1054 422.34 43.9526 374.163C-18.3025 301.279 -8.61201 186.439 39.6811 110.635C48.511 96.7663 95.1784 19.8042 190.012 7.47445C247.405 0.000402451 314.299 15.0754 362.751 55.4765C464.422 140.293 457.186 311.657 388.81 383.335Z" fill="url(#paint0_linear)"/>
<path opacity="0.45" d="M300.719 430.306C299.954 430.194 299.269 429.798 298.807 429.179C292.112 420.197 243.453 349.932 308.21 285.696C369.684 224.714 397.56 212.194 401.258 176.363C401.688 172.173 407.378 171.174 409.243 174.95C423.205 203.133 444.977 268.923 372.952 312.101C293.499 359.723 300.002 411.946 303.859 426.783C304.385 428.735 302.743 430.575 300.719 430.306Z" fill="#00B28F"/>
<path opacity="0.45" d="M310.569 431.638C308.768 431.4 307.333 430.004 307.047 428.211C305.15 415.992 300.496 370.323 334.285 358.215C371.485 344.886 401.513 379.368 428.847 352.376C430.282 350.947 432.704 352.185 432.354 354.185C429.915 368.292 419.077 400.949 370.848 407.518C319.223 414.548 313.422 420.451 314.458 427.767C314.809 430.02 312.848 431.956 310.569 431.638Z" fill="#00B28F"/>
<path opacity="0.47" d="M399.473 212.892C398.836 215.558 398.007 218.049 397.003 220.524C396.015 223 394.883 225.412 393.656 227.776C391.217 232.505 388.285 236.996 385.081 241.265C378.626 249.786 370.8 257.26 362.194 263.591C357.89 266.749 353.3 269.637 348.758 272.256C344.343 274.81 340.087 277.667 336.007 280.761C327.846 286.95 320.451 294.122 313.932 301.993C300.927 317.751 291.698 336.761 288.654 356.993C287.108 367.086 287.092 377.432 288.479 387.604C289.865 397.791 292.782 407.772 296.623 417.404C296.83 417.912 296.575 418.499 296.065 418.706C295.571 418.912 295.013 418.674 294.774 418.198C290.28 408.693 286.917 398.569 285.052 388.143C284.096 382.922 283.538 377.638 283.378 372.322C283.251 367.006 283.474 361.674 284.144 356.374C285.435 345.79 288.431 335.412 292.766 325.653C297.101 315.878 302.823 306.754 309.517 298.439C316.195 290.108 323.957 282.649 332.437 276.128C336.692 272.875 341.123 269.875 345.761 267.162C350.304 264.575 354.607 261.925 358.783 258.926C367.118 253.007 374.817 246.168 381.431 238.361C384.778 234.489 387.822 230.347 390.596 226.031C393.321 221.699 395.855 217.144 397.688 212.416L397.704 212.352C397.879 211.876 398.421 211.654 398.9 211.829C399.346 212.003 399.585 212.463 399.473 212.892Z" fill="white"/>
<path opacity="0.47" d="M308.434 423.355C308.593 422.911 308.545 422.498 308.529 422.086L308.497 420.832L308.465 418.309C308.465 416.627 308.497 414.961 308.577 413.279C308.72 409.93 309.007 406.582 309.47 403.25C310.394 396.601 311.908 389.968 314.602 383.716C317.263 377.511 321.312 371.576 327.177 367.705C330.094 365.8 333.393 364.451 336.804 363.753C340.215 363.039 343.721 362.928 347.148 363.23C360.584 364.785 373.749 367.34 386.962 369.434C393.544 370.418 400.206 371.275 406.661 370.402C408.271 370.164 409.849 369.815 411.379 369.323C412.893 368.799 414.392 368.181 415.794 367.355C418.599 365.753 421.07 363.579 423.285 361.151C423.588 360.818 424.114 360.786 424.449 361.087C424.783 361.389 424.815 361.897 424.512 362.23C422.281 364.801 419.715 367.165 416.734 368.942C415.252 369.847 413.658 370.561 412.017 371.164C410.375 371.735 408.686 372.148 406.964 372.433C400.079 373.433 393.273 372.576 386.611 371.672C379.933 370.72 373.35 369.498 366.736 368.434C360.137 367.371 353.475 366.34 346.909 365.562C343.673 365.245 340.39 365.324 337.234 365.959C334.062 366.562 331.05 367.784 328.341 369.514C322.89 372.973 318.921 378.479 316.243 384.43C313.518 390.412 311.908 396.902 310.888 403.44C310.378 406.709 310.043 410.026 309.836 413.342C309.741 414.993 309.661 416.659 309.629 418.325L309.613 420.816L309.629 422.054C309.645 422.467 309.613 422.895 309.82 423.276C310.011 423.641 309.868 424.101 309.501 424.291C309.135 424.482 308.673 424.339 308.481 423.974C308.37 423.784 308.354 423.561 308.434 423.355Z" fill="white"/>
<path d="M238.225 5.88759C217.983 5.7289 197.566 8.91847 179.492 16.3925C137.431 33.7685 101.745 79.7394 115.707 126.694C120.249 141.944 117.858 158.78 133.127 165.397C141.383 168.984 163.872 171.126 172.431 168.285C195.159 160.78 210.093 140.214 197.741 117.411C193.789 110.112 188.656 103.447 185.246 95.8777C181.835 88.3084 180.273 79.3268 183.747 71.7893C190.585 56.9999 213.313 52.287 228.04 52.7313C245.429 53.255 261.192 61.8239 270.548 76.5181C282.214 94.8303 285.163 117.11 283.458 138.358C281.625 161.097 271.998 178.473 257.558 195.912C245.126 210.94 231.451 225.348 223.179 242.994C215.592 259.18 213.122 277.127 212.771 294.852C212.707 298.28 195.558 330.652 195.621 340.538C195.637 341.934 215.066 346.568 216.485 346.584C223.8 346.663 244.536 346.901 252.171 346.98C253.733 346.996 255.04 345.743 255.056 344.187C255.597 296.09 270.452 250.23 308.066 217.938C321.758 206.179 336.5 196.611 347.131 181.774C362.305 160.621 369.78 139.817 367.628 113.73C365.652 89.8952 357.778 66.0449 342.175 47.5582C325.423 27.6591 300.878 15.25 275.361 9.88644C263.455 7.39509 250.88 5.9828 238.225 5.88759Z" fill="url(#paint1_linear)"/>
<path d="M275.552 400.885C275.552 423.006 263.232 442.572 241.03 442.572C236.232 442.572 219.911 442.619 215.64 441.08C200.148 435.51 200.1 423.672 200.1 406.328C200.1 384.208 207.607 362.468 229.809 362.468C252.011 362.468 275.552 378.765 275.552 400.885Z" fill="url(#paint2_linear)"/>
<path d="M218.987 0.841443C198.746 0.682759 178.329 3.87232 160.255 11.3464C118.193 28.7223 82.5074 74.6933 96.4693 121.648C101.012 136.898 111.499 156.098 126.752 162.732C135.008 166.318 144.619 166.08 153.178 163.255C175.906 155.749 190.84 135.184 178.488 112.381C174.535 105.081 169.403 98.4166 165.992 90.8474C162.582 83.2781 161.02 74.2966 164.494 66.7591C171.332 51.9696 194.06 47.2567 208.787 47.701C226.175 48.2247 241.938 56.7937 251.294 71.4879C262.961 89.8001 265.91 112.079 264.204 133.327C262.371 156.067 252.745 173.443 238.305 190.882C225.873 205.91 212.198 220.318 203.926 237.964C196.339 254.15 193.868 272.097 193.518 289.822C193.454 293.25 194.618 329.112 194.681 338.998C194.697 340.395 195.829 341.522 197.231 341.537C204.547 341.617 225.283 341.855 232.917 341.934C234.479 341.95 235.786 340.696 235.802 339.141C236.344 291.044 251.199 245.184 288.813 212.892C302.504 201.133 317.247 191.565 327.878 176.728C343.051 155.575 350.526 134.771 348.375 108.684C346.398 84.8491 338.525 60.9988 322.921 42.512C306.154 22.6288 281.609 10.2197 256.092 4.87203C244.234 2.34895 231.642 0.952523 218.987 0.841443Z" fill="url(#paint3_linear)"/>
<path d="M221.091 441.334C243.309 441.334 261.32 423.402 261.32 401.282C261.32 379.162 243.309 361.23 221.091 361.23C198.874 361.23 180.863 379.162 180.863 401.282C180.863 423.402 198.874 441.334 221.091 441.334Z" fill="url(#paint4_linear)"/>
<path opacity="0.63" d="M109.794 117.046C109.555 117.046 109.348 116.887 109.284 116.649C106.463 103.971 106.048 84.1349 120.09 61.5541C133.797 39.5287 153.003 24.7869 177.213 17.7413C203.081 10.2196 233.794 11.8224 268.508 22.5336C268.779 22.6129 268.938 22.8985 268.842 23.1842C268.763 23.4539 268.46 23.6126 268.205 23.5174C201.535 2.95189 149.241 16.6464 120.983 62.1095C107.132 84.3888 107.531 103.955 110.304 116.427C110.368 116.697 110.192 116.983 109.905 117.046C109.874 117.046 109.826 117.046 109.794 117.046Z" fill="white"/>
<path opacity="0.63" d="M118.257 137.437C118.098 137.437 117.938 137.358 117.843 137.231C117.715 137.072 114.815 133.073 112.121 126.059C112.025 125.79 112.153 125.504 112.424 125.393C112.695 125.298 112.982 125.425 113.093 125.695C115.739 132.581 118.656 136.596 118.672 136.628C118.847 136.85 118.783 137.183 118.56 137.342C118.464 137.405 118.369 137.437 118.257 137.437Z" fill="white"/>
<path opacity="0.63" d="M234.543 375.321C234.464 375.321 234.384 375.305 234.304 375.258C230.176 373.179 225.729 372.116 221.075 372.116C220.789 372.116 220.565 371.878 220.565 371.608C220.565 371.322 220.789 371.1 221.075 371.1C225.889 371.1 230.495 372.195 234.766 374.353C235.021 374.48 235.117 374.798 234.99 375.052C234.926 375.226 234.735 375.321 234.543 375.321Z" fill="white"/>
<path opacity="0.63" d="M204.436 426.386C204.34 426.386 204.229 426.354 204.149 426.291C195.781 420.658 190.792 411.311 190.792 401.266C190.792 390.142 196.913 379.939 206.779 374.671C207.034 374.544 207.336 374.623 207.48 374.877C207.607 375.131 207.528 375.432 207.273 375.575C197.758 380.669 191.844 390.507 191.844 401.266C191.844 410.962 196.674 420.007 204.754 425.434C204.994 425.593 205.057 425.91 204.898 426.148C204.754 426.307 204.595 426.386 204.436 426.386Z" fill="white"/>
<g opacity="0.3">
<path opacity="0.3" d="M10.0997 113.746C10.2272 113.539 10.3069 113.301 10.2909 113.047C10.275 112.428 10.2591 111.794 10.275 111.159C10.275 110.492 9.74902 109.937 9.06368 109.937C8.39427 109.937 7.83643 110.461 7.83643 111.143C7.83643 111.81 7.83643 112.476 7.85237 113.127C7.86831 113.793 8.44208 114.317 9.11149 114.301C9.54182 114.285 9.89247 114.063 10.0997 113.746Z" fill="#91B3FA"/>
</g>
<g opacity="0.3">
<path opacity="0.3" d="M25.6557 147.292C25.9745 146.8 25.8948 146.133 25.4485 145.736C24.9863 145.324 24.5241 144.879 24.0618 144.435C23.5837 143.959 22.8186 143.975 22.3405 144.451C21.8623 144.927 21.8783 145.689 22.3564 146.165C22.8346 146.625 23.3127 147.085 23.8068 147.53C24.3009 147.974 25.0819 147.942 25.5282 147.45C25.5919 147.387 25.6238 147.339 25.6557 147.292Z" fill="#91B3FA"/>
<path opacity="0.3" d="M95.8485 140.024C95.45 140.563 94.7009 140.69 94.1431 140.293C93.6011 139.897 93.4736 139.151 93.8721 138.596C94.6212 137.564 95.3384 136.485 96.0079 135.374C96.3585 134.803 97.1076 134.613 97.6814 134.962C98.2552 135.311 98.4464 136.057 98.0958 136.628C97.8089 137.104 97.5061 137.58 97.2032 138.056C96.7729 138.722 96.3107 139.389 95.8485 140.024ZM99.5302 131.391C98.9086 131.121 98.6217 130.407 98.8927 129.804C99.4027 128.63 99.8649 127.408 100.279 126.202C100.487 125.568 101.188 125.218 101.825 125.441C102.463 125.647 102.814 126.345 102.59 126.98C102.16 128.265 101.666 129.535 101.124 130.772C101.092 130.836 101.06 130.899 101.028 130.947C100.726 131.439 100.088 131.629 99.5302 131.391ZM91.6088 145.102C90.6685 146.07 89.6803 147.022 88.6603 147.926C88.1502 148.371 87.3852 148.323 86.9389 147.815C86.4927 147.307 86.5405 146.546 87.0505 146.101C88.0227 145.244 88.9631 144.356 89.8397 143.42C90.3019 142.944 91.067 142.912 91.561 143.388C91.9914 143.8 92.0551 144.451 91.7364 144.927C91.7045 144.991 91.6726 145.054 91.6088 145.102ZM102.845 121.537C102.192 121.41 101.746 120.775 101.873 120.125C102.112 118.871 102.303 117.57 102.431 116.3C102.495 115.634 103.1 115.142 103.77 115.221C104.439 115.285 104.933 115.888 104.854 116.554C104.71 117.903 104.519 119.252 104.264 120.585C104.232 120.744 104.168 120.886 104.089 121.029C103.834 121.41 103.339 121.632 102.845 121.537ZM83.4165 151.941C82.2849 152.687 81.1214 153.401 79.9261 154.051C79.3363 154.369 78.6032 154.163 78.2685 153.575C77.9497 152.988 78.1569 152.258 78.7466 151.925C79.8782 151.306 80.9939 150.64 82.0618 149.926C82.6196 149.561 83.3847 149.703 83.7513 150.259C84.0222 150.671 84.0222 151.195 83.7513 151.592C83.6716 151.735 83.56 151.846 83.4165 151.941ZM73.9014 156.828C72.6422 157.304 71.3353 157.749 70.0283 158.13C69.3749 158.32 68.7055 157.939 68.5142 157.304C68.3229 156.654 68.7055 155.987 69.343 155.797C70.5862 155.432 71.8134 155.019 73.0247 154.559C73.6463 154.321 74.3636 154.639 74.6026 155.257C74.7461 155.638 74.6983 156.035 74.4911 156.352C74.3476 156.575 74.1564 156.733 73.9014 156.828ZM63.5574 159.542C62.2185 159.732 60.8479 159.875 59.4931 159.97C58.8237 160.018 58.2499 159.51 58.2021 158.844C58.1543 158.177 58.6643 157.606 59.3337 157.558C60.6247 157.479 61.9157 157.336 63.1908 157.146C63.8602 157.051 64.4818 157.511 64.5774 158.161C64.6252 158.463 64.5455 158.764 64.4021 159.002C64.2108 159.272 63.908 159.478 63.5574 159.542ZM52.8627 159.923C51.508 159.828 50.1373 159.669 48.7985 159.447C48.129 159.336 47.6828 158.717 47.7943 158.066C47.9059 157.4 48.5275 156.955 49.181 157.066C50.456 157.273 51.7471 157.416 53.0381 157.511C53.7075 157.558 54.2175 158.146 54.1697 158.812C54.1537 159.018 54.09 159.225 53.9784 159.383C53.7393 159.732 53.3249 159.955 52.8627 159.923ZM42.3275 157.971C41.0365 157.574 39.7295 157.13 38.4704 156.622C37.8488 156.368 37.546 155.67 37.7851 155.051C38.0401 154.432 38.7414 154.131 39.363 154.369C40.5583 154.845 41.7856 155.273 43.0288 155.654C43.6663 155.845 44.0329 156.527 43.8416 157.162C43.8098 157.273 43.7619 157.384 43.6982 157.463C43.4113 157.907 42.8694 158.13 42.3275 157.971ZM32.5095 153.766C31.6488 153.274 30.7722 152.75 29.9434 152.211C29.6406 152.02 29.3377 151.814 29.0508 151.608C28.493 151.227 28.3336 150.481 28.7321 149.926C29.1146 149.37 29.8637 149.227 30.4215 149.608C30.7084 149.799 30.9953 149.989 31.2822 150.18C32.0791 150.687 32.892 151.195 33.7208 151.655C34.3105 151.989 34.5177 152.719 34.183 153.306C34.1671 153.322 34.1511 153.353 34.1511 153.369C33.7686 153.893 33.0673 154.083 32.5095 153.766Z" fill="#91B3FA"/>
<path opacity="0.3" d="M104.869 110.619C104.997 110.413 105.077 110.175 105.061 109.921C105.029 109.271 104.997 108.604 104.949 107.938C104.901 107.271 104.311 106.779 103.642 106.827C102.973 106.875 102.463 107.462 102.526 108.128C102.574 108.763 102.606 109.398 102.638 110.016C102.67 110.683 103.228 111.207 103.897 111.191C104.296 111.159 104.662 110.937 104.869 110.619Z" fill="#91B3FA"/>
</g>
<path opacity="0.8" d="M89.5998 96.4489C89.5201 96.2108 89.3129 96.068 89.0738 96.0521L82.1566 95.8935C80.499 93.1323 78.3792 90.6093 75.845 88.467L76.8332 81.6436C76.8651 81.4056 76.7535 81.1675 76.5304 81.0564L69.1509 77.2798C68.9278 77.1687 68.6728 77.2004 68.4975 77.375L63.4928 82.1355C60.2573 81.3262 56.9741 81.0723 53.7545 81.3421L49.6105 75.8198C49.4671 75.6294 49.2121 75.5501 48.9889 75.6136L41.0517 78.1525C40.8285 78.2319 40.6691 78.4381 40.6532 78.6762L40.4938 85.5631C37.7206 87.2134 35.1864 89.3239 33.0347 91.847L26.1812 90.8632C25.9421 90.8314 25.7031 90.9425 25.5915 91.1646L21.7982 98.5118C21.6866 98.7339 21.7185 98.9878 21.8938 99.1624L26.6753 104.145C25.8624 107.366 25.6074 110.635 25.8784 113.841L20.3318 117.966C20.1406 118.109 20.0609 118.363 20.1246 118.585L22.6588 126.456C22.7385 126.678 22.9457 126.837 23.1848 126.853L30.102 127.012C31.7596 129.773 33.8794 132.296 36.4136 134.438L35.4254 141.261C35.3936 141.499 35.5051 141.737 35.7283 141.849L43.1077 145.625C43.3308 145.736 43.5859 145.705 43.7612 145.53L48.7658 140.769C52.0013 141.579 55.2846 141.833 58.5041 141.563L62.6481 147.085C62.7915 147.276 63.0466 147.355 63.2697 147.291L71.1751 144.768C71.4142 144.689 71.5576 144.483 71.5736 144.245L71.7329 137.358C74.5062 135.707 77.0404 133.597 79.1921 131.074L86.0456 132.058C86.2846 132.089 86.5237 131.978 86.6353 131.756L90.4286 124.409C90.5402 124.187 90.5083 123.933 90.333 123.758L85.5515 118.776C86.3643 115.554 86.6193 112.286 86.3484 109.08L91.8949 104.954C92.0862 104.812 92.1659 104.558 92.1021 104.335L89.5998 96.4489Z" fill="#00A5B9"/>
<path d="M62.3932 116.967C59.349 120.41 54.0575 120.744 50.6148 117.697C48.9413 116.221 47.9372 114.206 47.8097 111.984C47.6662 109.763 48.3994 107.636 49.8816 105.97C52.9259 102.527 58.2174 102.193 61.6601 105.24C64.7999 108.001 65.3577 112.603 63.1423 115.999C62.9192 116.332 62.6642 116.649 62.3932 116.967ZM49.7541 111.873C49.8657 113.571 50.6307 115.126 51.9058 116.253C54.5516 118.57 58.5999 118.316 60.9428 115.682C63.2858 113.047 63.0148 109.017 60.3691 106.684C57.7233 104.367 53.675 104.621 51.332 107.255C51.1248 107.493 50.9336 107.747 50.7583 108.001C50.0092 109.144 49.6585 110.493 49.7541 111.873Z" fill="#BDD0FB"/>
<path d="M73.1515 122.679C73.534 122.092 73.8847 121.489 74.2034 120.87C74.2991 120.68 74.4106 120.474 74.5063 120.267C74.9844 119.284 75.3669 118.252 75.6698 117.205C75.6698 117.189 75.6857 117.173 75.6857 117.157C75.7016 117.11 75.7016 117.078 75.7176 117.03C75.7335 116.951 75.7654 116.872 75.7813 116.792C75.8451 116.586 75.7494 116.364 75.5741 116.253C75.5263 116.221 75.4785 116.205 75.4307 116.189C75.1757 116.126 74.9047 116.269 74.841 116.538C74.4744 117.871 73.9803 119.172 73.3428 120.41C70.171 126.551 64.1623 130.296 57.7232 130.883C54.1371 131.217 50.4394 130.566 47.0126 128.805C46.407 128.503 45.8332 128.154 45.2754 127.805C41.5139 125.377 38.7247 121.759 37.3381 117.443C35.7442 112.492 36.1905 107.223 38.5653 102.59C43.5062 93.0371 55.3165 89.2763 64.8954 94.1955C65.4852 94.497 66.0589 94.8302 66.6168 95.1952C69.0235 96.7503 71.0476 98.8132 72.5618 101.225C72.5937 101.289 72.6574 101.336 72.7052 101.368C72.8646 101.463 73.0559 101.479 73.2312 101.368C73.4543 101.225 73.534 100.924 73.3906 100.702C71.8127 98.1626 69.6769 95.9886 67.1587 94.3701C66.5849 93.9892 65.9792 93.6401 65.3577 93.3227C55.3006 88.1655 42.8846 92.1326 37.7047 102.146C35.2023 107.001 34.7401 112.539 36.4137 117.728C37.864 122.251 40.7967 126.059 44.7335 128.614C45.3232 128.995 45.9288 129.344 46.5664 129.677C51.4435 132.169 57.006 132.629 62.2178 130.963C66.7762 129.519 70.5854 126.615 73.1515 122.679Z" fill="#BDD0FB"/>
<g opacity="0.3">
<path opacity="0.3" d="M136.889 58.3804C137.064 58.1106 137.049 57.7457 136.825 57.4918C136.411 57.0157 135.981 56.5397 135.534 56.0795C135.247 55.778 134.769 55.778 134.466 56.0636C134.164 56.3492 134.164 56.8253 134.451 57.1268C134.881 57.5552 135.295 58.0154 135.694 58.4756C135.965 58.793 136.443 58.8247 136.762 58.555C136.809 58.4915 136.857 58.4439 136.889 58.3804Z" fill="#91B3FA"/>
</g>
<g opacity="0.3">
<path opacity="0.3" d="M139.168 96.5441C138.435 97.6231 137.638 98.6705 136.793 99.6702C136.522 99.9875 136.044 100.019 135.726 99.7495C135.407 99.4798 135.375 99.0037 135.646 98.6863C136.459 97.7501 137.224 96.7504 137.909 95.7031C138.132 95.354 138.61 95.2746 138.945 95.4968C139.296 95.7189 139.391 96.1791 139.168 96.5441C139.168 96.5282 139.168 96.5282 139.168 96.5441ZM140.14 93.4815C139.774 93.2911 139.614 92.8467 139.806 92.4818C140.364 91.371 140.874 90.2126 141.304 89.0542C141.447 88.6733 141.878 88.467 142.26 88.6098C142.643 88.7527 142.85 89.1811 142.707 89.562C142.26 90.7838 141.734 91.9898 141.145 93.1641C141.129 93.1958 141.113 93.2117 141.097 93.2276C140.905 93.5449 140.491 93.656 140.14 93.4815ZM134.036 102.463C133.064 103.336 132.028 104.161 130.96 104.923C130.625 105.161 130.147 105.081 129.908 104.748C129.669 104.415 129.749 103.939 130.083 103.701C131.103 102.987 132.092 102.193 133.016 101.352C133.319 101.067 133.797 101.098 134.084 101.4C134.323 101.654 134.339 102.035 134.164 102.304C134.132 102.368 134.084 102.415 134.036 102.463ZM142.93 86.3565C142.531 86.2613 142.276 85.8646 142.372 85.452C142.659 84.246 142.866 82.9924 142.993 81.7705C143.041 81.358 143.408 81.0565 143.822 81.1041C144.237 81.1517 144.539 81.5166 144.492 81.9292C144.348 83.2304 144.141 84.5317 143.838 85.8011C143.822 85.8963 143.79 85.9757 143.743 86.0392C143.567 86.2931 143.248 86.4359 142.93 86.3565ZM127.629 106.986C126.481 107.604 125.27 108.16 124.059 108.636C123.676 108.795 123.23 108.604 123.086 108.207C122.927 107.827 123.118 107.382 123.517 107.239C124.68 106.779 125.828 106.256 126.928 105.668C127.294 105.478 127.756 105.605 127.948 105.97C128.075 106.224 128.059 106.509 127.916 106.732C127.836 106.843 127.74 106.922 127.629 106.986ZM120.313 109.842C119.038 110.175 117.747 110.413 116.456 110.588C116.042 110.635 115.659 110.35 115.611 109.937C115.564 109.524 115.85 109.144 116.265 109.096C117.492 108.937 118.735 108.683 119.947 108.382C120.345 108.271 120.759 108.525 120.855 108.921C120.903 109.128 120.871 109.35 120.759 109.524C120.648 109.683 120.504 109.794 120.313 109.842ZM112.519 110.873C111.212 110.889 109.89 110.826 108.583 110.683C108.168 110.635 107.865 110.27 107.913 109.858C107.961 109.445 108.328 109.144 108.742 109.191C109.985 109.334 111.244 109.398 112.487 109.382C112.902 109.382 113.237 109.715 113.253 110.127C113.253 110.286 113.205 110.429 113.125 110.54C113.013 110.73 112.774 110.873 112.519 110.873Z" fill="#91B3FA"/>
<path opacity="0.3" d="M144.539 78.3906C144.619 78.2636 144.667 78.1208 144.667 77.9621C144.651 77.3274 144.619 76.6768 144.571 76.0579C144.539 75.6453 144.173 75.3438 143.758 75.3756C143.344 75.4073 143.041 75.7723 143.073 76.1849C143.121 76.7879 143.153 77.3909 143.169 78.0097C143.169 78.4223 143.519 78.7556 143.934 78.7397C144.173 78.7238 144.412 78.5969 144.539 78.3906Z" fill="#91B3FA"/>
</g>
<path opacity="0.8" d="M134.355 68.3776C134.307 68.2189 134.164 68.1237 134.004 68.1078L129.366 68.0126C128.251 66.1719 126.832 64.4739 125.143 63.0458L125.796 58.4757C125.812 58.317 125.732 58.1583 125.589 58.0789L120.648 55.54C120.505 55.4606 120.329 55.4924 120.218 55.6035L116.871 58.793C114.703 58.2535 112.504 58.0789 110.352 58.2535L107.579 54.5561C107.483 54.4292 107.308 54.3657 107.164 54.4292L101.873 56.1113C101.713 56.1589 101.618 56.3017 101.602 56.4604L101.506 61.0781C99.6573 62.1889 97.9519 63.6012 96.5174 65.2832L91.9272 64.6326C91.7678 64.6168 91.6084 64.6961 91.5287 64.8389L88.9786 69.7581C88.8989 69.9009 88.9308 70.0755 89.0423 70.1866L92.2459 73.519C91.704 75.6771 91.5287 77.8669 91.704 80.0092L87.9904 82.7703C87.8629 82.8655 87.7991 83.04 87.8629 83.1829L89.5524 88.4512C89.6002 88.6099 89.7436 88.7051 89.903 88.7209L94.5411 88.8162C95.6567 90.6569 97.0752 92.3548 98.7647 93.783L98.1112 98.3531C98.0953 98.5118 98.175 98.6705 98.3184 98.7498L103.259 101.289C103.403 101.368 103.578 101.336 103.69 101.225L107.037 98.0357C109.204 98.5753 111.404 98.7498 113.555 98.5753L116.329 102.273C116.424 102.4 116.6 102.463 116.743 102.4L122.035 100.718C122.194 100.67 122.29 100.527 122.306 100.368L122.401 95.7507C124.25 94.6399 125.955 93.2276 127.39 91.5455L131.98 92.1961C132.14 92.212 132.299 92.1327 132.379 91.9899L134.929 87.0706C135.008 86.9278 134.977 86.7533 134.865 86.6422L131.661 83.3098C132.203 81.1517 132.379 78.9618 132.203 76.8196L135.917 74.0585C136.044 73.9633 136.108 73.7887 136.044 73.6459L134.355 68.3776Z" fill="#00A5B9"/>
<path d="M116.233 82.1672C115.229 83.3097 113.842 83.9762 112.328 84.0714C110.814 84.1666 109.348 83.6747 108.216 82.675C105.857 80.6121 105.634 77.0258 107.706 74.6773C109.778 72.3288 113.38 72.1066 115.739 74.1695C116.871 75.1692 117.556 76.5498 117.652 78.0573C117.731 79.2792 117.412 80.4693 116.759 81.4849C116.584 81.7388 116.424 81.9609 116.233 82.1672ZM109.204 81.5483C110.049 82.2783 111.117 82.6433 112.232 82.5798C113.348 82.5163 114.368 82.0085 115.101 81.1834C115.835 80.3423 116.201 79.2792 116.137 78.1684C116.074 77.0576 115.564 76.042 114.735 75.312C112.998 73.7887 110.352 73.9632 108.838 75.677C108.694 75.8357 108.583 75.9944 108.471 76.1689C107.339 77.8669 107.626 80.1678 109.204 81.5483Z" fill="#BDD0FB"/>
<path d="M123.724 86.1503C123.979 85.7536 124.218 85.341 124.441 84.9125C124.887 84.0556 125.238 83.167 125.493 82.2308C125.509 82.1832 125.509 82.1514 125.525 82.1038C125.605 81.7864 125.477 81.4532 125.206 81.2787C125.142 81.2311 125.063 81.1993 124.983 81.1835C124.584 81.0724 124.17 81.3104 124.059 81.7071C123.819 82.564 123.501 83.405 123.086 84.2143C123.07 84.2619 123.038 84.3095 123.023 84.3413C122.034 86.2138 120.6 87.7847 118.879 88.9273C117.938 89.5461 116.918 90.0539 115.818 90.403C115.802 90.403 115.802 90.403 115.787 90.4189C115.755 90.4348 115.739 90.4348 115.707 90.4506C112.487 91.4821 109.061 91.1965 106.048 89.6572C105.666 89.4509 105.283 89.2446 104.917 89.0066C102.478 87.4356 100.677 85.0871 99.7844 82.2942C98.7485 79.0888 99.0353 75.6771 100.581 72.678C102.127 69.6947 104.757 67.4731 107.977 66.4417C111.196 65.4102 114.623 65.6958 117.635 67.2351C118.018 67.4255 118.384 67.6477 118.751 67.8698C120.297 68.8695 121.62 70.2025 122.592 71.7735C122.656 71.8687 122.736 71.948 122.815 72.0115C123.054 72.1702 123.373 72.1702 123.628 72.0273C123.979 71.8052 124.09 71.345 123.867 70.9959C122.767 69.2345 121.301 67.7429 119.564 66.6321C119.165 66.3782 118.751 66.1243 118.321 65.918C114.958 64.1883 111.117 63.871 107.515 65.0294C103.912 66.1719 100.98 68.6474 99.2425 72.0115C97.5053 75.3597 97.1865 79.184 98.35 82.7703C99.3541 85.8964 101.378 88.5147 104.088 90.2761C104.486 90.53 104.917 90.7839 105.347 91.006C111.882 94.3225 119.819 92.1327 123.724 86.1503Z" fill="#BDD0FB"/>
<path opacity="0.8" d="M289.164 136.961L267.296 159.225L293.515 152.243L289.164 136.961Z" fill="#00A5B9"/>
<path opacity="0.8" d="M419.237 146.181L295.013 152.179C291.826 152.338 289.148 149.799 289.148 146.625V95.7349C289.148 90.1968 293.563 85.6743 299.109 85.4997L411.076 82.0563C419.412 82.0563 426.17 88.7845 426.17 97.0837V138.929C426.17 142.801 423.126 145.99 419.237 146.181Z" fill="#00A5B9"/>
<path opacity="0.85" d="M298.727 150.132C296.751 150.132 294.886 149.386 293.435 148.021C291.905 146.561 291.061 144.594 291.061 142.483V96.6235C291.061 91.2123 295.412 86.8485 300.974 86.6898L409.371 83.4368C417.579 83.4368 424.257 89.927 424.257 97.9088V137.453C424.257 141.261 421.197 144.388 417.292 144.562L299.093 150.132C298.982 150.132 298.854 150.132 298.727 150.132ZM409.387 83.9604L300.99 87.2135C295.73 87.3721 291.602 91.4979 291.602 96.6076V142.467C291.602 144.435 292.383 146.26 293.818 147.609C295.252 148.958 297.117 149.656 299.078 149.561L417.276 143.991C420.894 143.816 423.731 140.928 423.731 137.405V97.8612C423.731 90.2126 417.292 83.9604 409.387 83.9604Z" fill="white"/>
<path d="M409.02 93.2436L309.693 96.9409C308.72 96.9727 307.955 97.6233 307.987 98.3691L308.019 99.2418C308.051 99.9877 308.848 100.559 309.82 100.527L409.164 96.9092C410.136 96.8774 410.917 96.2268 410.869 95.481L410.821 94.5289C410.789 93.7831 409.992 93.2118 409.02 93.2436Z" fill="url(#paint5_linear)"/>
<path d="M400.127 118.284L300.799 121.966C299.827 121.997 299.062 122.664 299.093 123.441L299.125 124.346C299.157 125.123 299.97 125.71 300.926 125.679L400.27 122.092C401.242 122.061 402.007 121.394 401.976 120.617L401.928 119.617C401.912 118.839 401.099 118.252 400.127 118.284Z" fill="url(#paint6_linear)"/>
<path d="M411.73 128.757L300.99 132.915C299.906 132.962 299.046 133.629 299.078 134.422L299.109 135.327C299.141 136.104 300.034 136.707 301.118 136.66L411.857 132.597C412.941 132.55 413.802 131.883 413.77 131.09L413.722 130.09C413.706 129.313 412.814 128.71 411.73 128.757Z" fill="url(#paint7_linear)"/>
<path d="M354.559 108.001L300.416 109.572C299.89 109.588 299.492 110.318 299.524 111.191L299.572 112.206C299.619 113.079 300.066 113.762 300.608 113.746L354.75 112.286C355.276 112.27 355.675 111.54 355.643 110.667L355.595 109.556C355.547 108.684 355.085 107.985 354.559 108.001Z" fill="url(#paint8_linear)"/>
<path d="M414.216 106.145L363.038 107.605C362.528 107.62 362.161 108.35 362.209 109.223L362.257 110.239C362.305 111.111 362.735 111.794 363.229 111.778L414.407 110.429C414.917 110.413 415.284 109.683 415.236 108.811L415.188 107.7C415.156 106.811 414.71 106.129 414.216 106.145Z" fill="url(#paint9_linear)"/>
<path d="M100.533 426.83C100.533 426.83 99.5133 432.606 99.0033 438.319C98.812 440.556 100.533 442.492 102.781 442.588C110.415 442.905 126.768 443.524 132.633 443.254C133.51 443.222 134.084 442.318 133.765 441.493C133.494 440.81 132.968 440.255 132.298 439.953L105.299 427.592L100.533 426.83Z" fill="#14002E"/>
<path d="M99.6885 423.435L100.517 430.337C100.517 430.337 105.251 432.527 108.471 430.068L106.51 422.371L99.6885 423.435Z" fill="url(#paint10_linear)"/>
<path d="M100.311 293.646C99.9599 295.455 98.398 383.605 107.865 423.117C108.025 423.768 107.69 424.418 107.068 424.672C105.618 425.259 102.765 426.116 99.3543 426.227C98.3024 426.259 97.3461 425.577 97.0592 424.577C94.3496 415.405 81.3918 369.482 79.7023 325.606C77.8057 276.588 79.7023 323.939 79.7023 323.939L80.818 293.631L100.311 293.646Z" fill="#3A205A"/>
<path d="M69.4696 429.83C69.4696 429.83 67.8439 432.749 66.266 440.493C65.9791 441.89 66.9673 443.223 68.3858 443.365C70.9041 443.619 74.793 443.937 77.901 443.905C79.3355 443.889 80.4511 442.651 80.2758 441.239C79.9252 438.414 78.8573 433.781 75.5421 430.163L69.4696 429.83Z" fill="#14002E"/>
<path d="M68.0352 420.959L69.9637 431.401C69.9637 431.401 71.8604 432.813 75.6218 431.781L74.6974 420.547L68.0352 420.959Z" fill="url(#paint11_linear)"/>
<path d="M62.8551 296.344C55.1091 342.854 64.5286 411.311 67.7163 424.704C67.9075 425.529 68.577 426.148 69.4058 426.291C70.8243 426.529 73.1513 426.719 75.4623 426.053C76.2592 425.831 76.8171 425.117 76.849 424.291C77.2793 413.453 76.5143 346.964 83.7184 320.686C84.085 319.353 84.8978 318.195 86.0294 317.386L100.023 307.484L101.091 291.472L62.8551 296.344Z" fill="url(#paint12_linear)"/>
<path d="M112.169 208.211C88.9625 207.83 63.3655 214.272 63.3655 214.272C56.4483 254.451 62.1542 300.787 62.1542 300.787C80.1167 305.484 100.374 297.915 100.374 297.915C103.355 281.126 117.285 233.87 117.285 233.87C128.617 232.473 137.957 229.22 145.639 224.904C139.774 218.128 137.017 209.528 135.805 204.434C127.629 206.973 119.325 208.337 112.169 208.211Z" fill="#00B28F"/>
<path d="M180.704 174.189C178.425 171.443 175.54 172.745 175.54 172.745C172.129 187.106 154.23 198.737 135.837 204.434C137.033 209.528 139.806 218.144 145.671 224.904C176.177 207.83 180.704 174.189 180.704 174.189Z" fill="#FEB19E"/>
<path d="M180.146 174.887C180.385 175.648 177.627 176.791 176.002 173.697C175.938 172.221 175.045 165.873 175.922 164.667C180.656 158.241 189.82 150.195 189.82 150.195C191.366 151.719 190.091 153.21 190.091 153.21L185.644 157.828C186.569 159.494 187.716 160.923 188.242 162.938C188.641 164.477 188.402 166.112 187.621 167.508C186.84 168.904 185.772 170.729 184.768 172.157C182.871 174.871 180.146 174.887 180.146 174.887Z" fill="url(#paint13_linear)"/>
<path d="M183.7 160.843L179.652 164.271L178.376 167.683L181.994 171.681C181.994 171.681 183.206 164.921 184.114 163.462C185.007 161.986 184.545 161.272 183.7 160.843Z" fill="url(#paint14_linear)"/>
<path d="M72.2749 236.647L63.3813 214.288C63.3813 214.288 41.7051 228.951 38.1509 247.533C42.247 247.834 49.6902 248.897 56.99 252.563C58.5838 243.772 72.2749 236.647 72.2749 236.647Z" fill="#00B28F"/>
<path d="M91.2095 257.689C91.2095 257.689 66.8876 271.383 58.6794 259.688C56.974 257.26 56.5596 254.848 56.9899 252.547C49.6902 248.882 42.247 247.818 38.1508 247.517C37.0829 253.118 37.6408 259.085 40.956 265.099C55.3323 291.282 94.445 263.655 94.445 263.655L91.2095 257.689Z" fill="#FEB19E"/>
<path d="M88.2925 275.017L101.569 228.856C101.713 228.332 102.175 227.951 102.717 227.888C105.123 227.602 112.088 226.824 120.137 226.142C129.828 225.333 141.096 224.666 147.822 225.222C148.779 225.301 149.352 226.317 148.938 227.158C145.113 234.87 129.382 266.21 121.492 276.477C121.237 276.81 120.823 277.016 120.392 277.016L89.5835 276.731C88.691 276.731 88.0375 275.874 88.2925 275.017Z" fill="#14002E"/>
<path d="M121.508 222.127L131.135 220.524C131.645 220.445 132.075 220.921 131.9 221.413L130.944 224.285C130.864 224.539 130.641 224.714 130.386 224.746L121.126 225.983C120.648 226.047 120.249 225.618 120.361 225.142L120.95 222.635C121.014 222.381 121.237 222.175 121.508 222.127Z" fill="#BDD0FB"/>
<path d="M114.304 230.236L115.101 226.126C115.18 225.713 115.515 225.396 115.945 225.364L135.39 223.397C136.044 223.333 136.57 223.92 136.41 224.571L135.167 229.696C135.071 230.109 134.705 230.411 134.29 230.426L115.292 231.379C114.67 231.41 114.192 230.855 114.304 230.236Z" fill="#BDD0FB"/>
<path d="M91.4962 263.861C91.4962 263.861 89.6473 256.292 90.3964 253.61C91.1455 250.928 92.5959 247.469 97.4093 248.231C102.223 248.993 107.913 251.024 107.913 251.024C107.913 251.024 107.626 254.531 103.96 253.388L106.223 255.134C106.223 255.134 105.904 257.942 102.812 256.435L104.932 258.752C104.932 258.752 103.609 261.053 101.33 259.577C99.035 258.101 97.9512 264.766 91.4962 263.861Z" fill="#FEB19E"/>
<path d="M88.6756 189.47L81.2961 210.718C81.1686 211.067 81.312 211.464 81.6467 211.638C83.655 212.749 90.9069 215.954 99.6412 210.432C100.55 209.861 101.171 208.925 101.315 207.861L103.705 189.47H88.6756Z" fill="#FFA088"/>
<path d="M100.717 180.505C100.717 180.505 108.83 195.691 107.778 201.832C106.742 207.974 96.701 207.529 87.919 202.547L81.7827 186.139L100.717 180.505Z" fill="#FEB19E"/>
<path d="M88.3176 194.501C88.6682 194.343 88.8116 193.914 88.5885 193.581C87.935 192.597 86.7237 190.582 86.3412 188.82C86.3412 188.82 84.8908 187.884 90.0548 186.662C95.2188 185.425 102.917 183.52 104.543 179.141C106.121 174.872 101.977 164.145 95.3623 172.698C95.1073 173.031 94.6132 173.031 94.3582 172.698C93.2744 171.286 90.4214 168.382 86.4687 170.143C82.7551 171.794 82.3407 174.507 82.4044 175.872C82.4204 176.268 82.0538 176.586 81.6713 176.506C79.7906 176.157 75.296 175.84 73.208 180.442C71.4867 184.219 72.6024 186.361 73.6224 187.408C73.9571 187.741 73.8137 188.313 73.3515 188.44C72.1242 188.82 70.5304 189.852 70.6898 192.724C70.9129 196.691 75.3756 196.342 76.6348 196.167C76.842 196.136 77.0492 196.215 77.1926 196.358C78.2764 197.564 83.1854 202.658 88.4929 203.261C88.9551 203.308 89.3057 202.864 89.1623 202.42L86.8672 195.771C86.7556 195.469 86.915 195.12 87.2019 194.993L88.3176 194.501Z" fill="#14002E"/>
<path d="M89.2418 195.437C89.2418 195.437 83.4721 191.502 83.0418 194.819C82.6274 198.135 88.2377 199.627 91.0269 198.389L89.2418 195.437Z" fill="#FFA088"/>
<defs>
<linearGradient id="paint0_linear" x1="496.877" y1="574.886" x2="106.143" y2="87.4823" gradientUnits="userSpaceOnUse">
<stop stop-color="#00B28F" stop-opacity="0"/>
<stop offset="1" stop-color="#00A5B9" stop-opacity="0.16"/>
</linearGradient>
<linearGradient id="paint1_linear" x1="780.174" y1="-300.385" x2="-37.7109" y2="399.819" gradientUnits="userSpaceOnUse">
<stop stop-color="#E1473D"/>
<stop offset="1" stop-color="#E9605A"/>
</linearGradient>
<linearGradient id="paint2_linear" x1="899.908" y1="-160.528" x2="82.0213" y2="539.676" gradientUnits="userSpaceOnUse">
<stop stop-color="#E1473D"/>
<stop offset="1" stop-color="#E9605A"/>
</linearGradient>
<linearGradient id="paint3_linear" x1="13.8075" y1="362.748" x2="723.15" y2="-391.723" gradientUnits="userSpaceOnUse">
<stop stop-color="#FF928E"/>
<stop offset="1" stop-color="#FE7062"/>
</linearGradient>
<linearGradient id="paint4_linear" x1="303.603" y1="310.505" x2="142.809" y2="488.966" gradientUnits="userSpaceOnUse">
<stop stop-color="#FF928E"/>
<stop offset="1" stop-color="#FE7062"/>
</linearGradient>
<linearGradient id="paint5_linear" x1="362.206" y1="108.957" x2="415.252" y2="108.957" gradientUnits="userSpaceOnUse">
<stop stop-color="#DAE3FE"/>
<stop offset="1" stop-color="#E9EFFD"/>
</linearGradient>
<linearGradient id="paint6_linear" x1="362.206" y1="108.957" x2="415.252" y2="108.957" gradientUnits="userSpaceOnUse">
<stop stop-color="#DAE3FE"/>
<stop offset="1" stop-color="#E9EFFD"/>
</linearGradient>
<linearGradient id="paint7_linear" x1="362.206" y1="108.957" x2="415.252" y2="108.957" gradientUnits="userSpaceOnUse">
<stop stop-color="#DAE3FE"/>
<stop offset="1" stop-color="#E9EFFD"/>
</linearGradient>
<linearGradient id="paint8_linear" x1="362.206" y1="108.957" x2="415.252" y2="108.957" gradientUnits="userSpaceOnUse">
<stop stop-color="#DAE3FE"/>
<stop offset="1" stop-color="#E9EFFD"/>
</linearGradient>
<linearGradient id="paint9_linear" x1="362.206" y1="108.957" x2="415.252" y2="108.957" gradientUnits="userSpaceOnUse">
<stop stop-color="#DAE3FE"/>
<stop offset="1" stop-color="#E9EFFD"/>
</linearGradient>
<linearGradient id="paint10_linear" x1="99.6929" y1="426.799" x2="108.475" y2="426.799" gradientUnits="userSpaceOnUse">
<stop stop-color="#FEBBBA"/>
<stop offset="1" stop-color="#FF928E"/>
</linearGradient>
<linearGradient id="paint11_linear" x1="68.0411" y1="426.35" x2="75.624" y2="426.35" gradientUnits="userSpaceOnUse">
<stop stop-color="#FEBBBA"/>
<stop offset="1" stop-color="#FF928E"/>
</linearGradient>
<linearGradient id="paint12_linear" x1="80.4816" y1="291.472" x2="80.4816" y2="426.511" gradientUnits="userSpaceOnUse">
<stop stop-color="#321655"/>
<stop offset="1" stop-color="#3A205A"/>
</linearGradient>
<linearGradient id="paint13_linear" x1="187.026" y1="151.248" x2="171.652" y2="195.369" gradientUnits="userSpaceOnUse">
<stop stop-color="#FEBBBA"/>
<stop offset="1" stop-color="#FF928E"/>
</linearGradient>
<linearGradient id="paint14_linear" x1="175.123" y1="179.41" x2="186.712" y2="155.927" gradientUnits="userSpaceOnUse">
<stop stop-color="#FEBBBA"/>
<stop offset="1" stop-color="#FF928E"/>
</linearGradient>
</defs>
</svg>
