<svg width="487" height="344" viewBox="0 0 487 344" fill="none" xmlns="http://www.w3.org/2000/svg">
<path d="M487 194.291H83.4424V340.555H487V194.291Z" fill="#3A205A"/>
<path opacity="0.1" d="M192.305 194.291L83.4424 268.795V225.648L129.26 194.291H192.305Z" fill="black"/>
<path opacity="0.1" d="M299.888 194.291L198.065 263.981L194.419 266.478L86.1816 340.555H83.4424V299.277L153.187 251.549L155.521 249.95L236.848 194.291H299.888Z" fill="black"/>
<path d="M95.304 267.884L94.2178 266.527C94.3258 266.442 105.211 257.883 122.598 252.988C132.67 250.126 143.166 249.043 153.613 249.788C166.568 250.728 179.45 254.54 191.9 261.119L191.085 262.653C163.386 248.016 138.811 250.227 123.071 254.658C106.019 259.46 95.4092 267.8 95.304 267.884Z" fill="#F2F2F2"/>
<path d="M200.548 267.206C195.35 266.31 188.472 265.936 183.518 266.889L190.269 261.251L191.839 252.613C193.461 257.377 197.193 263.149 200.548 267.206Z" fill="#F2F2F2"/>
<path d="M273.447 284.855C265.128 284.846 256.849 283.691 248.846 281.424C231.459 276.528 220.574 267.97 220.466 267.884L221.552 266.527C221.657 266.611 232.32 274.981 249.39 279.773C265.115 284.187 289.666 286.379 317.332 271.758L318.148 273.292C305.698 279.871 292.816 283.683 279.861 284.623C277.726 284.778 275.588 284.855 273.447 284.855Z" fill="#F2F2F2"/>
<path d="M326.796 267.206C323.442 271.264 319.71 277.036 318.087 281.8L316.517 273.161L309.767 267.524C314.721 268.477 321.599 268.103 326.796 267.206Z" fill="#F2F2F2"/>
<path d="M352.589 267.884L351.502 266.527C351.61 266.442 362.496 257.883 379.883 252.988C389.955 250.127 400.451 249.044 410.897 249.788C423.853 250.728 436.735 254.54 449.185 261.119L448.369 262.653C420.672 248.017 396.095 250.226 380.356 254.658C363.303 259.46 352.694 267.8 352.589 267.884Z" fill="#F2F2F2"/>
<path d="M457.833 267.206C452.635 266.31 445.757 265.936 440.803 266.889L447.554 261.251L449.124 252.613C450.746 257.377 454.478 263.149 457.833 267.206Z" fill="#F2F2F2"/>
<path d="M221.879 285.434H193.583V286.302H221.879V285.434Z" fill="#00A5B9"/>
<path d="M221.879 294.114H193.583V294.982H221.879V294.114Z" fill="#00A5B9"/>
<path d="M221.879 302.795H193.583V303.663H221.879V302.795Z" fill="#00A5B9"/>
<path d="M208.384 278.056C211.51 278.056 214.043 275.53 214.043 272.414C214.043 269.298 211.51 266.771 208.384 266.771C205.258 266.771 202.725 269.298 202.725 272.414C202.725 275.53 205.258 278.056 208.384 278.056Z" fill="#00A5B9"/>
<path d="M348.998 234.221H320.701V235.089H348.998V234.221Z" fill="#00A5B9"/>
<path d="M348.998 242.901H320.701V243.769H348.998V242.901Z" fill="#00A5B9"/>
<path d="M348.998 251.581H320.701V252.449H348.998V251.581Z" fill="#00A5B9"/>
<path d="M335.067 270.244C338.193 270.244 340.727 267.718 340.727 264.602C340.727 261.485 338.193 258.959 335.067 258.959C331.942 258.959 329.408 261.485 329.408 264.602C329.408 267.718 331.942 270.244 335.067 270.244Z" fill="#00A5B9"/>
<path d="M480.035 285.434H451.738V286.302H480.035V285.434Z" fill="#00A5B9"/>
<path d="M480.035 294.114H451.738V294.982H480.035V294.114Z" fill="#00A5B9"/>
<path d="M480.035 302.795H451.738V303.663H480.035V302.795Z" fill="#00A5B9"/>
<path d="M465.669 278.056C468.794 278.056 471.328 275.53 471.328 272.414C471.328 269.298 468.794 266.771 465.669 266.771C462.543 266.771 460.009 269.298 460.009 272.414C460.009 275.53 462.543 278.056 465.669 278.056Z" fill="#00A5B9"/>
<path d="M151.556 155.016L143.126 146.006L152.164 137.602L160.593 146.612L151.556 155.016ZM144.47 146.052L151.603 153.676L159.25 146.565L152.117 138.941L144.47 146.052Z" fill="#00B28F"/>
<path d="M354.373 49.3962L345.943 40.3862L354.981 31.9824L363.41 40.9924L354.373 49.3962ZM347.287 40.4329L354.42 48.0566L362.067 40.9457L354.934 33.322L347.287 40.4329Z" fill="#00B28F"/>
<path d="M457.89 195.022H445.531V182.701H457.89V195.022ZM446.482 194.074H456.939V183.649H446.482L446.482 194.074Z" fill="#00B28F"/>
<path d="M274.853 243.554C278.338 243.554 281.163 240.737 281.163 237.263C281.163 233.789 278.338 230.973 274.853 230.973C271.369 230.973 268.544 233.789 268.544 237.263C268.544 240.737 271.369 243.554 274.853 243.554Z" fill="#00A5B9"/>
<path d="M274.853 255.435C271.248 255.435 267.724 254.369 264.727 252.373C261.729 250.376 259.393 247.538 258.013 244.217C256.634 240.897 256.273 237.243 256.976 233.718C257.68 230.193 259.416 226.955 261.965 224.414C264.514 221.872 267.762 220.142 271.297 219.44C274.833 218.739 278.498 219.099 281.829 220.475C285.159 221.85 288.006 224.179 290.009 227.167C292.012 230.156 293.081 233.669 293.081 237.263C293.075 242.081 291.153 246.7 287.736 250.107C284.319 253.513 279.686 255.43 274.853 255.435ZM274.853 220.489C271.526 220.489 268.273 221.473 265.506 223.316C262.739 225.159 260.582 227.779 259.309 230.844C258.035 233.909 257.702 237.282 258.351 240.536C259.001 243.789 260.603 246.778 262.956 249.124C265.309 251.47 268.307 253.068 271.571 253.715C274.835 254.362 278.218 254.03 281.292 252.76C284.366 251.491 286.994 249.341 288.843 246.582C290.692 243.824 291.679 240.581 291.679 237.263C291.673 232.816 289.899 228.552 286.745 225.408C283.591 222.263 279.314 220.494 274.853 220.489Z" fill="#F2F2F2"/>
<path d="M291.925 85.762H239.358V146.818H291.925V85.762Z" fill="#00B28F"/>
<path d="M274.052 238.071L273.322 237.36C276.681 233.563 279.228 229.122 280.805 224.309C283.288 216.858 284.501 205.092 276.177 191.347C267.66 177.284 267.277 165.861 268.455 158.756C269.737 151.024 273.008 146.69 273.146 146.509L273.957 147.127C273.925 147.169 270.682 151.48 269.452 158.982C268.316 165.907 268.713 177.053 277.051 190.821C285.588 204.917 284.323 217.01 281.759 224.673C278.981 232.975 274.252 237.867 274.052 238.071Z" fill="#00B28F"/>
<path d="M312.339 147.327H238.848V74.0596H312.339V147.327ZM239.868 146.309H311.318V75.0772H239.868V146.309Z" fill="#00B28F"/>
<path d="M299.07 95.4292H254.158V96.4468H299.07V95.4292Z" fill="#14002E"/>
<path d="M299.07 106.623H254.158V107.64H299.07V106.623Z" fill="#14002E"/>
<path d="M299.07 117.816H254.158V118.834H299.07V117.816Z" fill="#14002E"/>
<path d="M59.4504 295.793L57.6045 313.586L68.0665 312.36L69.2973 297.634L59.4504 295.793Z" fill="#FFB9B9"/>
<path d="M78.5285 206.215C78.5285 206.215 87.1445 201.306 86.5291 208.669C85.9136 216.031 82.8365 222.781 82.8365 222.781C82.8365 222.781 90.8371 243.641 82.8365 245.482C74.8359 247.323 68.6816 243.028 68.6816 239.96C68.6816 236.892 78.5285 206.215 78.5285 206.215Z" fill="#AE6FFF"/>
<path fill-rule="evenodd" clip-rule="evenodd" d="M12.0623 228.303C-21.7862 212.35 31.756 160.812 31.756 160.812L92.6834 168.174L78.5285 243.028C79.1439 263.275 71.1434 299.475 71.1434 299.475L57.604 298.861L59.4503 227.075L59.0225 222.127L53.2961 222.167C51.4498 221.553 22.5246 228.303 22.5246 228.303H12.0623ZM37.0202 207.442H57.7525L56.3731 191.489C51.278 191.207 43.7093 198.972 37.0202 207.442Z" fill="#E83F54"/>
<path d="M69.2972 309.905C69.2972 309.905 58.2195 304.997 56.3733 309.905C54.527 314.814 55.1424 328.925 55.1424 328.925C55.1424 328.925 57.6041 333.22 56.3733 338.129C55.1424 343.037 61.2967 345.491 69.2972 343.037C77.2978 340.583 77.2978 334.447 77.2978 334.447L69.2972 309.905Z" fill="#AE6FFF"/>
<path d="M51.4497 38.1006L52.6809 61.4158L63.1429 70.619L74.8362 54.0534V37.4873L51.4497 38.1006Z" fill="#FF9E86"/>
<path d="M59.4503 61.4158L52.4051 56.1966L47.7572 63.2565L26.8326 75.5275L39.1412 107.432L39.7566 138.724C39.7566 138.724 16.9858 162.039 30.5252 165.106C44.0646 168.174 92.068 174.923 94.5297 169.401C96.9914 163.879 91.4526 106.819 91.4526 106.819L93.2988 58.348L74.836 51.6931L59.4503 61.4158Z" fill="url(#paint0_linear)"/>
<path d="M21.9092 100.275C21.9092 100.275 16.9858 135.042 26.2172 135.042C31.6997 135.061 37.1338 134.019 42.2183 131.975L34.8332 112.954L37.9103 100.07L21.9092 100.275Z" fill="#FFB9B9"/>
<path d="M36.0644 130.747L42.8341 131.975C42.8341 131.975 62.5278 119.703 63.7587 119.09C64.9895 118.476 44.065 108.046 44.065 108.046L29.9102 113.568L36.0644 130.747Z" fill="#FFB9B9"/>
<path d="M44.0646 108.046L35.1774 111.513L37.9103 100.07L21.9092 100.275C21.9092 100.275 16.9858 135.042 26.2172 135.042C31.6997 135.061 37.1338 134.019 42.2183 131.975L42.1717 131.855L42.8337 131.975C42.8337 131.975 62.5274 119.704 63.7583 119.09C64.9891 118.476 44.0646 108.046 44.0646 108.046Z" fill="#FF9E86"/>
<path d="M65.6872 49.7342C75.3927 49.7342 83.2606 41.8902 83.2606 32.2143C83.2606 22.5383 75.3927 14.6943 65.6872 14.6943C55.9817 14.6943 48.1138 22.5383 48.1138 32.2143C48.1138 41.8902 55.9817 49.7342 65.6872 49.7342Z" fill="#FEB19E"/>
<path d="M50.1504 12.4494L46.7168 11.079C46.7168 11.079 53.8961 3.19909 63.8847 3.88432L61.0753 0.80085C61.0753 0.80085 67.9425 -1.93995 74.1853 5.2547C77.4671 9.03678 81.2641 13.4824 83.6311 18.4904H87.3083L85.7736 21.8593L91.145 25.2282L85.6318 24.6231C86.154 27.5315 85.9752 30.5221 85.1103 33.3482L85.2581 36.011C85.2581 36.011 78.8674 26.1535 78.8674 24.7831V28.2091C78.8674 28.2091 75.4339 25.1257 75.4339 23.0701L73.561 25.4683L72.6246 21.6997L61.0754 25.4683L62.9482 22.3849L55.769 23.4127L58.5783 19.644C58.5783 19.644 50.4626 24.0979 50.1504 27.8666C49.8383 31.6352 45.7805 36.4316 45.7805 36.4316L43.9077 33.0056C43.9077 33.0056 41.0983 17.5884 50.1504 12.4494Z" fill="#F3EAF5"/>
<path d="M80.9906 89.6395C80.9906 89.6395 76.0672 95.1615 76.0672 103.138L43.4495 101.911C43.4495 101.911 34.8335 100.683 34.8335 106.819V112.955C34.8335 112.955 39.1415 111.114 41.6032 112.955C44.0649 114.795 70.5283 130.748 83.4523 124.612C96.3763 118.477 99.4534 94.5479 99.4534 94.5479C99.4534 94.5479 87.7603 84.7311 80.9906 89.6395Z" fill="#FEB19E"/>
<path d="M29.8413 75H27.3016C24.0113 78.7029 22.2214 83.2874 22.2222 88.0101C22.1639 93.0684 21.4177 98.1017 20 103L40 99.8889L29.8413 75Z" fill="url(#paint1_linear)"/>
<path d="M335.484 153.207H334.529V177.913H335.484V153.207Z" fill="#00B28F"/>
<path d="M335.006 147.464C336.012 150.166 337.728 153.519 339.546 155.597L335.006 153.961L330.468 155.597C332.286 153.519 334.002 150.166 335.006 147.464Z" fill="#00B28F"/>
<path d="M220.952 131.797H219.998V156.504H220.952V131.797Z" fill="#00B28F"/>
<path d="M220.475 126.055C221.48 128.757 223.196 132.11 225.014 134.188L220.475 132.551L215.937 134.188C217.754 132.11 219.47 128.757 220.475 126.055Z" fill="#00B28F"/>
<path d="M379.388 112.767H378.433V137.473H379.388V112.767Z" fill="#00B28F"/>
<path d="M378.911 107.024C379.916 109.727 381.632 113.079 383.45 115.157L378.911 113.521L374.373 115.157C376.19 113.079 377.906 109.727 378.911 107.024Z" fill="#00B28F"/>
<path d="M88.3753 58.9617L93.2988 58.3481C93.2988 58.3481 103.146 59.5752 101.915 78.5954C100.684 97.6156 100.068 98.8427 100.068 98.8427C100.068 98.8427 87.1445 87.1852 77.9131 92.7072L88.3753 58.9617Z" fill="url(#paint2_linear)"/>
<defs>
<linearGradient id="paint0_linear" x1="60.6935" y1="51.6931" x2="60.6935" y2="171.505" gradientUnits="userSpaceOnUse">
<stop stop-color="#B0ABDD"/>
<stop offset="1" stop-color="#756FB5"/>
</linearGradient>
<linearGradient id="paint1_linear" x1="30" y1="75" x2="30" y2="103" gradientUnits="userSpaceOnUse">
<stop stop-color="#B0ABDD"/>
<stop offset="1" stop-color="#756FB5"/>
</linearGradient>
<linearGradient id="paint2_linear" x1="89.9672" y1="58.3481" x2="89.9672" y2="98.8427" gradientUnits="userSpaceOnUse">
<stop stop-color="#B0ABDD"/>
<stop offset="1" stop-color="#756FB5"/>
</linearGradient>
</defs>
</svg>
