<svg width="495" height="380" viewBox="0 0 495 380" fill="none" xmlns="http://www.w3.org/2000/svg">
<g opacity="0.25">
<path d="M94.166 354.565C94.166 354.565 -53.5764 268.39 22.406 163.579C98.3884 58.7681 161.704 -27.4063 273.545 23.8241C385.387 75.0544 349.528 70.416 429.712 56.4384C509.916 42.4608 531.008 352.235 406.499 356.894C281.99 361.554 94.166 354.565 94.166 354.565Z" fill="#B0ABDD"/>
<path d="M389.276 27.4641C389.276 39.0497 387.113 46.1009 376.609 46.1009C366.105 46.1009 347.052 34.3905 347.052 22.8049C347.052 11.2193 361.883 8.82725 372.387 8.82725C382.87 8.82725 389.276 15.8992 389.276 27.4641Z" fill="#B0ABDD"/>
<path d="M94.9356 37.6977C91.358 34.1201 90.9628 28.7329 94.0412 25.6545C97.1196 22.5761 102.507 22.9713 106.084 26.5489C109.662 30.1265 110.057 35.5137 106.979 38.5921C103.88 41.6705 98.4924 41.2753 94.9356 37.6977Z" fill="#B0ABDD"/>
<path d="M132.729 3.50244C133.27 1.40164 135.184 0.0704421 137.014 0.528042C138.824 1.00644 139.864 3.08644 139.323 5.18724C138.782 7.28804 136.868 8.61924 135.038 8.16164C133.208 7.70404 132.168 5.60324 132.729 3.50244Z" fill="#B0ABDD"/>
</g>
<path opacity="0.6" d="M348.82 366.67H154.07C149.14 366.67 145.146 362.677 145.146 357.747C145.146 352.818 149.14 348.824 154.07 348.824H348.82C353.75 348.824 357.743 352.818 357.743 357.747C357.743 362.677 353.75 366.67 348.82 366.67Z" fill="#8AA8FF"/>
<path d="M335.571 207.904C335.571 207.904 310.674 201.539 313.087 183.755C315.499 165.971 332.971 167.594 334.739 157.672C336.507 147.75 332.41 136.019 342.394 128.677C352.378 121.334 364.608 122.874 367.312 120.045C370.016 117.216 373.677 108.813 377.795 106.046C381.914 103.301 387.259 92.6305 398.575 89.5521C409.89 86.4737 415.901 90.0721 423.514 81.9185C423.514 81.9185 428.173 92.2145 428.235 96.8321C428.298 101.45 421.704 110.373 413.301 112.786C404.877 115.198 392.688 128.157 393.167 136.498C393.645 144.838 396.203 148.354 398.991 153.158C401.778 157.963 405.397 165.493 394.29 172.19C383.183 178.888 382.247 181.654 383.952 190.37C385.658 199.085 383.515 207.426 361.863 209.277C338.879 211.294 335.571 207.904 335.571 207.904Z" fill="url(#paint0_linear)"/>
<path d="M328.041 251.043C327.646 250.877 327.376 250.482 327.417 250.024C329.56 226.395 335.301 203.765 344.515 182.736C351.878 165.909 361.446 150.08 372.99 135.666C392.625 111.122 411.387 99.0575 411.574 98.9535C412.032 98.6623 412.656 98.7871 412.947 99.2655C413.238 99.7231 413.113 100.347 412.635 100.638C412.448 100.763 393.915 112.682 374.488 136.997C356.579 159.419 334.198 197.254 329.414 250.211C329.373 250.752 328.873 251.168 328.333 251.105C328.229 251.105 328.125 251.085 328.041 251.043Z" fill="#513983"/>
<path d="M346.262 181.384C346.054 181.301 345.887 181.155 345.762 180.947C345.492 180.469 345.658 179.866 346.137 179.595L392.666 153.304C393.145 153.034 393.748 153.2 394.018 153.678C394.289 154.157 394.122 154.76 393.644 155.03L347.114 181.322C346.844 181.467 346.532 181.488 346.262 181.384Z" fill="#513983"/>
<path d="M348.446 176.725C348.279 176.662 348.113 176.538 348.009 176.371C347.676 175.893 347.489 175.622 350.651 155.904C352.19 146.357 353.812 136.747 353.812 136.643C353.895 136.102 354.415 135.728 354.956 135.832C355.497 135.915 355.871 136.435 355.767 136.976C353.334 151.474 349.735 173.542 349.756 175.56C349.839 175.934 349.694 176.35 349.361 176.6C349.111 176.808 348.737 176.85 348.446 176.725Z" fill="#513983"/>
<path d="M393.728 115.261C393.665 115.24 393.624 115.219 393.561 115.178C393.104 114.887 392.958 114.263 393.249 113.805L403.025 98.2465C403.316 97.7889 403.94 97.6433 404.398 97.9345C404.856 98.2257 405.001 98.8497 404.71 99.3073L394.934 114.866C394.684 115.282 394.164 115.448 393.728 115.261Z" fill="#513983"/>
<path d="M217.531 325.591C217.531 325.591 212.497 314.026 211.561 302.69C210.646 291.354 207.485 261.88 189.056 248.443C170.627 235.027 102.715 206.635 28.251 243.368C28.251 243.368 55.707 256.535 62.4462 266.248C70.5998 277.979 96.0382 322.013 112.782 330.811C129.547 339.61 159.769 338.57 182.857 332.683C206.008 326.776 217.531 325.591 217.531 325.591Z" fill="url(#paint1_linear)"/>
<path d="M217.531 326.589C217.219 326.589 216.928 326.443 216.72 326.194C216.595 326.027 203.637 308.95 174.787 290.792C148.163 274.048 102.195 252.936 34.3039 247.486C33.7423 247.445 33.3471 246.966 33.3887 246.405C33.4303 245.843 33.9295 245.448 34.4703 245.49C102.819 250.96 149.141 272.259 175.952 289.149C205.072 307.494 218.197 324.8 218.322 324.966C218.654 325.403 218.571 326.048 218.114 326.381C217.947 326.526 217.739 326.589 217.531 326.589Z" fill="#513983"/>
<path d="M189.097 300.339C188.66 300.339 188.265 300.048 188.14 299.611L173.081 248.111C172.936 247.57 173.227 247.029 173.768 246.863C174.308 246.717 174.849 247.008 175.016 247.549L190.075 299.05C190.22 299.591 189.929 300.131 189.388 300.298C189.284 300.319 189.18 300.339 189.097 300.339Z" fill="#513983"/>
<path d="M182.108 303.459C172.561 303.459 155.817 301.858 129.464 294.432C128.923 294.287 128.611 293.725 128.777 293.184C128.923 292.643 129.484 292.331 130.025 292.498C174.6 305.061 191.697 300.651 191.864 300.61C192.404 300.464 192.945 300.776 193.091 301.317C193.236 301.858 192.924 302.399 192.384 302.544C192.092 302.648 188.952 303.459 182.108 303.459Z" fill="#513983"/>
<path d="M148.974 276.544C148.683 276.544 148.371 276.419 148.184 276.149L117.504 236.338C117.171 235.901 117.254 235.277 117.691 234.923C118.128 234.591 118.752 234.674 119.105 235.111L149.785 274.922C150.118 275.359 150.035 275.983 149.598 276.336C149.411 276.461 149.182 276.544 148.974 276.544Z" fill="#513983"/>
<path d="M83.0798 271.032C82.6014 271.032 82.1646 270.679 82.0814 270.2C81.9982 269.659 82.3518 269.139 82.9134 269.035L120.083 262.879C120.624 262.795 121.144 263.149 121.248 263.711C121.331 264.251 120.977 264.771 120.416 264.875L83.2462 271.032C83.1838 271.011 83.1214 271.032 83.0798 271.032Z" fill="#513983"/>
<path d="M86.22 255.245C86.0536 255.245 85.8872 255.203 85.7208 255.12L57.6408 239.416C57.1624 239.146 56.9752 238.542 57.2456 238.043C57.516 237.565 58.14 237.398 58.6184 237.648L86.6984 253.352C87.1768 253.622 87.364 254.226 87.0936 254.725C86.9064 255.058 86.5736 255.245 86.22 255.245Z" fill="#513983"/>
<path d="M178.032 250.211C178.032 250.211 179.384 241.122 183.17 233.758C186.976 226.395 196.398 206.968 190.179 191.555C183.96 176.142 152.947 132.421 92.752 126.41C92.752 126.41 104.65 145.13 105.066 153.741C105.586 164.141 104.317 201.165 111.285 213.042C118.253 224.939 137.326 235.963 153.883 241.226C170.44 246.509 178.032 250.211 178.032 250.211Z" fill="url(#paint2_linear)"/>
<path d="M177.886 251.21C177.428 251.147 177.054 250.773 177.012 250.295C176.992 250.149 175.577 234.611 164.761 212.314C154.777 191.743 134.539 161 94.7276 131.506C94.2908 131.173 94.1868 130.549 94.5196 130.091C94.8524 129.655 95.4764 129.551 95.934 129.883C136.099 159.648 156.545 190.723 166.612 211.523C177.553 234.133 178.947 249.463 179.009 250.087C179.051 250.648 178.656 251.127 178.094 251.168C178.032 251.231 177.969 251.231 177.886 251.21Z" fill="#513983"/>
<path d="M170.439 224.024C170.398 224.024 170.335 224.003 170.294 224.003C169.753 223.858 169.441 223.296 169.607 222.755L180.153 185.128C180.299 184.587 180.86 184.275 181.401 184.442C181.942 184.587 182.254 185.149 182.087 185.69L171.542 223.317C171.396 223.775 170.939 224.087 170.439 224.024Z" fill="#513983"/>
<path d="M171.438 226.583C171.397 226.583 171.334 226.562 171.293 226.541C170.773 226.395 158.521 222.568 135.413 197.192C135.038 196.776 135.059 196.152 135.475 195.778C135.891 195.403 136.515 195.424 136.889 195.84C159.52 220.696 171.729 224.586 171.854 224.627C172.374 224.794 172.686 225.355 172.52 225.875C172.374 226.354 171.917 226.645 171.438 226.583Z" fill="#513983"/>
<path d="M154.819 193.843C154.362 193.781 153.987 193.427 153.946 192.949L150.327 156.507C150.264 155.946 150.68 155.467 151.221 155.405C151.782 155.342 152.261 155.758 152.323 156.299L155.942 192.741C156.005 193.302 155.589 193.781 155.048 193.843C154.965 193.843 154.902 193.843 154.819 193.843Z" fill="#513983"/>
<path d="M141.57 175.539C141.486 175.518 141.403 175.498 141.32 175.477L115.965 164.952C115.445 164.744 115.216 164.162 115.424 163.642C115.632 163.122 116.214 162.893 116.734 163.101L142.09 173.626C142.61 173.834 142.838 174.416 142.63 174.936C142.443 175.373 142.006 175.602 141.57 175.539Z" fill="#513983"/>
<path d="M124.243 156.486C123.931 156.445 123.661 156.258 123.494 155.966L112.2 135.437C111.929 134.958 112.117 134.334 112.595 134.064C113.073 133.794 113.697 133.981 113.968 134.459L125.262 154.989C125.533 155.467 125.345 156.091 124.867 156.362C124.68 156.486 124.451 156.507 124.243 156.486Z" fill="#513983"/>
<path d="M323.133 347.742C323.133 347.742 322.197 331.893 316.789 318.664C311.381 305.435 298.152 270.574 311.194 245.032C324.235 219.49 384.264 149.04 488.638 147.917C488.638 147.917 465.342 178.306 463.283 193.032C460.808 210.816 457.314 274.672 443.523 294.058C429.733 313.443 395.246 329.48 365.981 335.99C336.736 342.522 323.133 347.742 323.133 347.742Z" fill="url(#paint3_linear)"/>
<path d="M323.133 348.741C323.07 348.741 323.008 348.741 322.966 348.72C322.425 348.616 322.051 348.096 322.155 347.555C322.197 347.285 327.064 320.453 349.257 283.387C362.278 261.63 378.648 240.643 397.888 220.987C421.933 196.443 450.574 173.917 483.022 154.053C483.501 153.762 484.104 153.907 484.395 154.386C484.686 154.864 484.541 155.467 484.062 155.758C410.971 200.478 371.389 250.336 351.046 284.302C328.998 321.077 324.173 347.638 324.131 347.888C324.027 348.387 323.611 348.741 323.133 348.741Z" fill="#513983"/>
<path d="M340.272 303.106C340.21 303.126 340.147 303.127 340.085 303.127C339.606 303.127 339.19 302.794 339.107 302.315L326.71 236.005C326.606 235.464 326.96 234.944 327.522 234.84C328.062 234.736 328.582 235.09 328.686 235.651L341.083 301.962C341.166 302.482 340.813 303.002 340.272 303.106Z" fill="#513983"/>
<path d="M338.192 307.37C338.129 307.39 338.067 307.39 338.005 307.39C337.526 307.39 337.11 307.058 337.027 306.579C336.923 306.038 337.277 305.498 337.817 305.394C338.025 305.352 359.741 300.589 402.672 261.069C403.088 260.694 403.712 260.715 404.086 261.131C404.461 261.547 404.44 262.171 404.024 262.546C360.552 302.544 339.086 307.182 338.192 307.37Z" fill="#513983"/>
<path d="M371.554 253.622C371.492 253.622 371.43 253.622 371.367 253.602C370.826 253.498 370.473 252.978 370.577 252.437L382.35 190.328C382.454 189.787 382.974 189.434 383.514 189.538C384.055 189.642 384.409 190.162 384.305 190.702L372.532 252.811C372.449 253.29 372.033 253.622 371.554 253.622Z" fill="#513983"/>
<path d="M397.139 224.211C396.702 224.211 396.307 223.941 396.182 223.504C396.016 222.984 396.307 222.402 396.848 222.235L442.046 208.008C442.587 207.842 443.149 208.133 443.315 208.674C443.482 209.194 443.19 209.776 442.65 209.943L397.451 224.17C397.326 224.191 397.222 224.211 397.139 224.211Z" fill="#513983"/>
<path d="M429.816 194.072C429.629 194.072 429.421 194.01 429.254 193.906C428.797 193.594 428.672 192.97 428.984 192.512L451.552 158.92C451.864 158.463 452.488 158.338 452.945 158.65C453.403 158.962 453.528 159.586 453.216 160.043L430.648 193.635C430.461 193.927 430.149 194.072 429.816 194.072Z" fill="#513983"/>
<path d="M345.076 37.1775C345.076 28.3583 338.795 21.2031 331.057 21.2031H188.639C180.902 21.2031 174.62 28.3583 174.62 37.1775V205.408V324.467V341.918C174.62 350.738 180.902 357.893 188.639 357.893H331.057C338.795 357.893 345.076 350.738 345.076 341.918V326.776V58.6847V37.1775Z" fill="#87A7F9"/>
<path d="M320.096 357.914H177.678C169.941 357.914 163.659 350.759 163.659 341.939V37.1778C163.659 28.3586 169.941 21.2034 177.678 21.2034H320.096C327.834 21.2034 334.115 28.3586 334.115 37.1778V341.939C334.115 350.759 327.834 357.914 320.096 357.914Z" fill="#B7D2ED"/>
<path opacity="0.36" d="M334.115 326.776L163.659 324.467V58.6848H334.115V326.776Z" fill="white"/>
<path d="M274.044 43.7714H223.708C222.585 43.7714 221.67 42.7314 221.67 41.421C221.67 40.1314 222.585 39.0706 223.708 39.0706H274.044C275.167 39.0706 276.083 40.1106 276.083 41.421C276.083 42.7314 275.167 43.7714 274.044 43.7714Z" fill="#8AA8FF"/>
<path d="M289.561 41.4417C289.561 42.7313 288.521 43.7921 287.211 43.7921C285.921 43.7921 284.86 42.7521 284.86 41.4417C284.86 40.1521 285.9 39.0913 287.211 39.0913C288.521 39.0913 289.561 40.1521 289.561 41.4417Z" fill="#8AA8FF"/>
<path d="M177.678 24.136H320.096C327.834 24.136 334.115 31.2912 334.115 40.1104V37.1568C334.115 28.3376 327.834 21.1824 320.096 21.1824H177.678C169.941 21.1824 163.659 28.3376 163.659 37.1568V40.1104C163.659 31.2912 169.941 24.136 177.678 24.136Z" fill="#E9F1FF"/>
<path d="M320.096 354.96H177.678C169.941 354.96 163.659 347.805 163.659 338.986V341.939C163.659 350.758 169.941 357.914 177.678 357.914H320.096C327.834 357.914 334.115 350.758 334.115 341.939V338.986C334.115 347.805 327.834 354.96 320.096 354.96Z" fill="#C4D5F2"/>
<path d="M334.115 158.4L345.077 153.2V161.728L334.115 166.491V158.4Z" fill="white"/>
<path d="M334.115 106.587L345.077 101.97V104.715L334.115 109.479V106.587Z" fill="white"/>
<path d="M286.607 70.416H208.961V312.05H286.607V70.416Z" fill="#B7D2ED"/>
<path d="M247.795 86.3074L241.097 99.8482L226.163 102.011L236.979 112.557L234.421 127.429L247.795 120.419L261.149 127.429L258.59 112.557L269.406 102.011L254.472 99.8482L247.795 86.3074Z" fill="#B0ABDD"/>
<path d="M247.795 125.079L241.097 138.619L226.163 140.783L236.979 151.328L234.421 166.2L247.795 159.191L261.149 166.2L258.59 151.328L269.406 140.783L254.472 138.619L247.795 125.079Z" fill="#B0ABDD"/>
<path d="M247.795 163.85L241.097 177.391L226.163 179.575L236.979 190.099L234.421 204.971L247.795 197.962L261.149 204.971L258.59 190.099L269.406 179.575L254.472 177.391L247.795 163.85Z" fill="#B0ABDD"/>
<path d="M247.795 202.642L241.097 216.162L226.163 218.346L236.979 228.871L234.421 243.763L247.795 236.733L261.149 243.763L258.59 228.871L269.406 218.346L254.472 216.162L247.795 202.642Z" fill="#B0ABDD"/>
<path d="M247.795 241.413L241.097 254.933L226.163 257.117L236.979 267.642L234.421 282.535L247.795 275.504L261.149 282.535L258.59 267.642L269.406 257.117L254.472 254.933L247.795 241.413Z" fill="#B0ABDD"/>
<path d="M138.928 379.483C138.616 379.483 138.304 379.421 138.012 379.296C136.889 378.797 136.411 377.486 136.91 376.363L235.377 158.296C235.876 157.173 237.187 156.695 238.31 157.194C239.433 157.693 239.912 159.003 239.412 160.126L140.945 378.194C140.571 378.984 139.76 379.483 138.928 379.483Z" fill="#00A5B9"/>
<path d="M96.537 379.483C96.225 379.483 95.913 379.421 95.6218 379.296C94.4986 378.797 94.0202 377.486 94.5194 376.363L192.987 158.296C193.486 157.173 194.796 156.695 195.919 157.194C197.043 157.693 197.521 159.003 197.022 160.126L98.5546 378.173C98.1802 378.984 97.369 379.483 96.537 379.483Z" fill="#00A5B9"/>
<path d="M142.754 368.667H101.425C100.198 368.667 99.1992 367.669 99.1992 366.442C99.1992 365.214 100.198 364.216 101.425 364.216H142.754C143.982 364.216 144.98 365.214 144.98 366.442C144.959 367.669 143.961 368.667 142.754 368.667Z" fill="#00A5B9"/>
<path d="M162.037 325.944H120.707C119.48 325.944 118.481 324.946 118.481 323.719C118.481 322.491 119.48 321.493 120.707 321.493H162.037C163.264 321.493 164.262 322.491 164.262 323.719C164.262 324.946 163.264 325.944 162.037 325.944Z" fill="#00A5B9"/>
<path d="M181.318 283.242H139.988C138.761 283.242 137.763 282.243 137.763 281.016C137.763 279.789 138.761 278.791 139.988 278.791H181.318C182.545 278.791 183.544 279.789 183.544 281.016C183.544 282.243 182.545 283.242 181.318 283.242Z" fill="#00A5B9"/>
<path d="M200.6 240.519H159.271C158.043 240.519 157.045 239.52 157.045 238.293C157.045 237.066 158.043 236.067 159.271 236.067H200.6C201.827 236.067 202.826 237.066 202.826 238.293C202.826 239.541 201.827 240.519 200.6 240.519Z" fill="#00A5B9"/>
<path d="M219.881 197.816H178.552C177.325 197.816 176.326 196.818 176.326 195.591C176.326 194.363 177.325 193.365 178.552 193.365H219.881C221.109 193.365 222.107 194.363 222.107 195.591C222.107 196.818 221.109 197.816 219.881 197.816Z" fill="#00A5B9"/>
<path d="M186 135.742C183.979 137.242 182.75 137.396 180.396 136.227L180 131L186 135.742Z" fill="#C6839E"/>
<path d="M186 135.742C183.979 137.242 182.75 137.396 180.396 136.227L180 131L186 135.742Z" fill="#FFA28B"/>
<path d="M188.453 131.963C188.287 134.002 186.477 135.52 184.439 135.354L183.523 135.27C180.799 135.042 178.781 132.65 179.01 129.925L179.675 122.146L189.223 122.957L188.453 131.963Z" fill="#FEB19E"/>
<path d="M185.458 134.626L184.543 134.542C181.818 134.314 179.8 131.922 180.029 129.197L180.611 122.208L179.675 122.125L179.01 129.904C178.781 132.629 180.799 135.021 183.523 135.25L184.439 135.333C185.583 135.437 186.643 135 187.392 134.251C186.81 134.542 186.144 134.688 185.458 134.626Z" fill="#FFA28B"/>
<path d="M177.99 121.938C177.262 124.87 178.177 128.177 178.864 130.632L179.425 130.195C179.425 130.195 179.425 127.72 180.112 125.848C180.798 123.976 181.963 123.747 181.963 123.747L177.99 121.938Z" fill="#0A1A4E"/>
<path d="M178.012 129.239C178.656 129.946 179.676 129.904 180.3 129.114C180.924 128.323 180.903 127.117 180.258 126.41C179.613 125.703 178.594 125.744 177.97 126.535C177.367 127.304 177.388 128.511 178.012 129.239Z" fill="#FFA28B"/>
<path d="M177.99 121.938C178.656 120.918 179.321 119.982 181.006 120.398C181.006 120.398 181.797 117.944 186.934 119.421C187.246 119.504 187.704 119.629 188.141 119.712C189.451 120.003 190.387 121.168 190.387 122.52C190.387 123.498 190.075 124.371 188.952 124.309C187.225 124.226 185.561 122.645 184.085 122.499C183.44 122.437 181.984 123.726 181.984 123.726H178.51L177.99 121.938Z" fill="#0A1A4E"/>
<path d="M232.278 99.7024L226.433 111.538L213.371 113.43L222.835 122.645L220.589 135.645L232.278 129.509L243.947 135.645L241.721 122.645L251.185 113.43L238.123 111.538L232.278 99.7024Z" fill="#FFB93E"/>
<path d="M188.345 184.553C193.198 183.765 196.494 179.193 195.706 174.339C194.919 169.486 190.346 166.19 185.493 166.978C180.639 167.766 177.344 172.338 178.131 177.192C178.919 182.045 183.492 185.341 188.345 184.553Z" fill="#00D1CB"/>
<path d="M173.372 173.813L172.124 203.328L172.041 205.179L171.896 207.009L171.625 210.691L171.064 218.054L169.94 232.801C169.836 234.07 170.793 235.173 172.062 235.277C173.206 235.36 174.225 234.59 174.475 233.509L177.928 219.032L179.654 211.773L180.528 208.153L180.964 206.344L181.276 204.513L186.185 175.165C186.768 171.649 184.396 168.321 180.881 167.739C177.366 167.157 174.038 169.528 173.456 173.043C173.414 173.272 173.393 173.563 173.372 173.813Z" fill="#031749"/>
<path d="M184.064 175.227L189.451 204.118L189.431 203.494L190.991 233.113C191.053 234.382 192.135 235.36 193.403 235.297C194.547 235.235 195.463 234.341 195.567 233.217L198.416 203.702V203.681L198.375 203.078L196.835 173.729C196.648 170.173 193.611 167.448 190.055 167.635C186.498 167.822 183.773 170.859 183.96 174.416C183.96 174.665 184.002 174.977 184.064 175.227Z" fill="#031749"/>
<path d="M219.487 137.725C219.216 136.539 219.757 135.416 220.652 135.229L223.418 134.626C224.312 134.418 225.269 135.229 225.519 136.414C225.768 137.538 225.269 138.598 224.416 138.765L221.463 139.41C220.61 139.576 219.716 138.827 219.487 137.725Z" fill="#FFA28B"/>
<path d="M224.936 132.691C224.853 132.816 224.812 132.962 224.832 133.128C224.986 133.903 224.825 134.587 224.582 135.125C224.581 134.426 224.375 133.597 223.688 132.774C223.501 132.546 223.148 132.504 222.919 132.712C222.877 132.733 222.836 132.754 222.815 132.795C222.669 133.003 222.669 133.274 222.836 133.482C224 134.875 223.21 136.31 223.168 136.373C223.023 136.643 223.106 136.976 223.376 137.122C223.478 137.177 223.589 137.199 223.696 137.192C223.862 137.351 224.104 137.391 224.306 137.303C224.263 137.413 224.254 137.536 224.288 137.655C224.244 137.686 224.204 137.723 224.167 137.766C224.104 137.85 224.063 137.954 224.063 138.078C224.042 138.39 224.292 138.64 224.604 138.661L224.615 138.661C224.828 138.664 227.298 138.694 228.639 136.602C228.805 136.352 228.722 135.998 228.472 135.832C228.223 135.666 227.869 135.749 227.703 135.998C227.24 136.706 226.6 137.093 226.025 137.304C226.686 136.69 227.464 135.659 227.536 134.189C227.557 133.877 227.308 133.627 227.016 133.607C226.808 133.586 226.642 133.69 226.538 133.835C226.476 133.919 226.434 134.023 226.434 134.127C226.368 135.634 225.258 136.548 224.779 136.878C225.319 136.258 226.313 134.81 225.935 132.92C225.872 132.629 225.581 132.421 225.29 132.483C225.144 132.504 225.02 132.587 224.936 132.691Z" fill="#FFA28B"/>
<path d="M181.942 145.338C182.109 145.296 182.296 145.275 182.462 145.234H182.483C193.465 143.882 196.544 143.611 199.747 142.779C201.557 142.03 203.678 142.717 204.656 144.464C205.717 146.336 205.051 148.728 203.158 149.789C202.888 149.934 202.597 150.059 202.305 150.142C202.056 150.226 201.744 150.288 201.078 150.475C197.854 151.432 187.496 153.928 184.168 154.718C181.568 155.342 178.968 153.72 178.344 151.141C177.741 148.562 179.342 145.962 181.942 145.338Z" fill="#FFA28B"/>
<path d="M177.575 150.683C177.991 153.491 180.591 155.425 183.399 155.03L192.509 153.699C190.741 150.454 190.179 146.918 190.783 143.861L182.109 144.838H182.067C182.026 144.838 181.963 144.859 181.922 144.859C179.114 145.275 177.179 147.875 177.575 150.683Z" fill="#ED6964"/>
<path d="M200.683 142.529C203.845 141.614 207.88 140.013 219.819 136.289C220.568 136.061 221.358 136.477 221.587 137.205C221.816 137.933 221.4 138.619 220.942 138.848C209.814 145.379 205.738 148.041 203.97 149.185C203.72 149.414 203.45 149.622 203.158 149.809C201.286 150.87 198.894 150.205 197.833 148.312C196.773 146.44 197.438 144.048 199.331 142.987C199.747 142.737 200.205 142.592 200.683 142.529Z" fill="#FEB19E"/>
<path d="M192.592 139.097C194.61 139.638 196.191 141.344 196.503 143.174C197.148 146.835 196.212 152.909 195.754 156.59L197.397 175.352C197.064 175.56 195.317 176.85 192.884 177.598C186.644 179.491 180.716 179.741 173.997 177.266C173.54 177.099 172.812 176.413 172.812 176.413L174.496 161.27C174.704 160.001 174.725 158.712 174.58 157.422L172.604 141.593L178.24 139.659C178.677 139.305 179.426 139.305 179.967 139.16H180.258C180.757 140.699 181.672 140.969 183.42 140.99C185.167 140.99 185.853 140.054 186.04 138.224L187.975 138.432L192.592 139.097Z" fill="#00B28F"/>
<path d="M194.298 237.149H190.887V235.963H194.402V237.045C194.402 237.107 194.339 237.149 194.298 237.149Z" fill="#321C4C"/>
<path d="M200.579 237.149H195.545C195.462 237.149 195.379 237.066 195.379 236.982V235.963L200.579 236.816V237.149Z" fill="#321C4C"/>
<path d="M195.441 233.093L200.1 235.61C200.496 235.818 200.704 236.234 200.62 236.629L200.579 236.795L191.988 236.566L190.865 236.587V235.942L191.115 233.384C192.321 233.634 194.9 233.53 195.441 233.093Z" fill="#422360"/>
<path d="M196.107 235.11C196.128 235.11 196.149 235.11 196.169 235.09C196.211 235.069 197.105 234.674 197.064 233.862C197.064 233.779 196.981 233.696 196.897 233.717C196.814 233.717 196.752 233.8 196.752 233.883C196.793 234.466 196.065 234.798 196.065 234.798C195.982 234.84 195.941 234.923 195.982 235.006C195.982 235.069 196.045 235.11 196.107 235.11Z" fill="#774DB2"/>
<path d="M197.355 235.547C197.376 235.547 197.397 235.547 197.417 235.526C197.459 235.506 198.353 235.11 198.312 234.299C198.312 234.216 198.229 234.133 198.145 234.154C198.062 234.154 198 234.237 198 234.32C198.041 234.902 197.313 235.235 197.313 235.235C197.23 235.277 197.189 235.36 197.23 235.443C197.23 235.506 197.293 235.547 197.355 235.547Z" fill="#774DB2"/>
<path d="M174.371 233.592C174.746 236.275 174.975 236.629 174.517 236.608L168.963 236.566C168.818 236.566 168.693 236.442 168.735 236.296C168.943 235.131 168.693 236.234 170.149 233.28C171.147 232.885 172.874 232.49 174.371 233.592Z" fill="#422360"/>
<path d="M174.875 236.609L168.656 236.574L168.653 237.115L174.872 237.15L174.875 236.609Z" fill="#321C4C"/>
<path d="M173.082 235.277C173.123 235.277 173.165 235.256 173.207 235.214C173.269 235.152 173.248 235.048 173.186 234.986C172.125 234.05 170.773 234.944 170.773 234.965C170.69 235.006 170.69 235.11 170.731 235.194C170.773 235.277 170.877 235.277 170.96 235.235C171.002 235.194 172.104 234.466 172.999 235.235C173.019 235.277 173.061 235.277 173.082 235.277Z" fill="#774DB2"/>
<path d="M173.185 234.487C173.227 234.487 173.269 234.466 173.31 234.424C173.373 234.362 173.352 234.258 173.289 234.195C172.229 233.259 170.877 234.154 170.877 234.175C170.793 234.216 170.793 234.32 170.835 234.403C170.877 234.487 170.981 234.487 171.064 234.445C171.105 234.403 172.208 233.675 173.102 234.445C173.102 234.466 173.144 234.487 173.185 234.487Z" fill="#774DB2"/>
<path d="M214.64 129.259C215.202 130.341 216.325 130.861 217.136 130.445L219.653 129.134C220.485 128.718 220.693 127.491 220.131 126.41C219.611 125.39 218.551 124.891 217.781 125.286L215.098 126.68C214.307 127.096 214.099 128.24 214.64 129.259Z" fill="#FFA28B"/>
<path d="M217.948 126.056C218.031 126.139 218.114 126.202 218.218 126.222C218.27 126.235 218.324 126.24 218.379 126.236C218.432 126.357 218.522 126.451 218.631 126.507C218.415 126.558 218.234 126.731 218.202 126.96C218.117 127.023 218.049 127.112 218.01 127.221C217.906 127.512 218.052 127.824 218.343 127.928C218.405 127.949 219.924 128.531 219.924 130.362C219.924 130.632 220.09 130.84 220.34 130.902C220.381 130.923 220.423 130.923 220.485 130.902C220.797 130.923 221.047 130.674 221.047 130.362C221.047 129.309 220.688 128.548 220.251 128.012C220.771 128.27 221.317 128.688 221.692 129.363C221.775 129.509 221.9 129.592 222.045 129.633C222.17 129.675 222.316 129.654 222.42 129.592C222.69 129.446 222.794 129.113 222.648 128.843C221.693 127.11 219.929 126.651 219.147 126.532C219.642 126.474 221.182 126.396 222.274 127.574C222.357 127.658 222.44 127.72 222.544 127.741C222.711 127.782 222.898 127.741 223.064 127.616C223.293 127.408 223.314 127.054 223.106 126.826C222.079 125.712 220.78 125.437 219.874 125.402C220.464 125.175 221.238 125.04 222.087 125.307C222.378 125.411 222.69 125.245 222.773 124.954C222.877 124.662 222.711 124.35 222.42 124.267C220.091 123.551 218.238 125.063 218.01 125.249C218 125.257 217.993 125.263 217.989 125.266C217.76 125.474 217.74 125.827 217.948 126.056Z" fill="#FFA28B"/>
<path d="M176.992 136.789C177.158 136.747 177.346 136.726 177.512 136.685H177.533C188.515 135.333 191.594 135.062 194.797 134.23C196.606 133.482 198.728 134.168 199.706 135.915C200.766 137.787 200.101 140.179 198.208 141.24C197.938 141.386 197.646 141.51 197.355 141.594C197.106 141.677 196.794 141.739 196.128 141.926C192.904 142.883 182.546 145.379 179.218 146.17C176.618 146.794 174.018 145.171 173.394 142.592C172.79 140.013 174.413 137.413 176.992 136.789Z" fill="#FFA28B"/>
<path d="M172.645 142.155C173.061 144.963 175.661 146.898 178.469 146.502L187.579 145.171C185.811 141.926 185.249 138.39 185.853 135.333L177.179 136.31H177.137C177.096 136.31 177.033 136.331 176.992 136.331C174.184 136.726 172.229 139.347 172.645 142.155Z" fill="#00B28F"/>
<path d="M195.733 133.981C198.895 133.066 202.93 131.464 214.869 127.741C215.618 127.512 216.408 127.928 216.637 128.656C216.866 129.384 216.45 130.07 215.992 130.299C204.864 136.83 200.787 139.493 199.019 140.637C198.77 140.866 198.499 141.074 198.208 141.261C196.336 142.322 193.944 141.656 192.883 139.763C191.823 137.891 192.488 135.499 194.381 134.438C194.818 134.21 195.275 134.064 195.733 133.981Z" fill="#FEB19E"/>
<path d="M114.821 223.171L108.976 235.006L95.9346 236.899L105.378 246.114L103.152 259.114L114.821 252.978L126.511 259.114L124.285 246.114L133.728 236.899L120.666 235.006L114.821 223.171Z" fill="#FFB93E"/>
<path d="M314.085 224.856L308.24 236.691L295.178 238.584L304.621 247.798L302.395 260.819L314.085 254.662L325.754 260.819L323.528 247.798L332.971 238.584L319.909 236.691L314.085 224.856Z" fill="#FFB93E"/>
<path d="M114.884 316.438L118.586 345.891L121.893 375.406C122.039 376.675 123.183 377.59 124.452 377.466C125.616 377.341 126.469 376.384 126.511 375.24L127.634 345.454L127.842 315.669C127.863 312.07 124.972 309.138 121.373 309.117C117.775 309.096 114.842 311.987 114.821 315.586C114.821 315.856 114.842 316.168 114.884 316.438Z" fill="#5F48A8"/>
<path d="M117.795 326.36C122.758 326.36 126.781 322.337 126.781 317.374C126.781 312.412 122.758 308.389 117.795 308.389C112.833 308.389 108.81 312.412 108.81 317.374C108.81 322.337 112.833 326.36 117.795 326.36Z" fill="#5F48A8"/>
<path d="M118.357 283.075L112.782 284.718L110.619 277.355L107.707 265.874L112.803 264.272L118.357 283.075Z" fill="#F89AB5"/>
<path d="M116.09 275.566C114.363 277.417 113.136 277.813 110.578 277.189L109.143 272.322L116.09 275.566Z" fill="#C6839E"/>
<path d="M115.715 275.046L114.779 275.15C111.992 275.483 109.475 273.507 109.142 270.72C108.872 268.64 109.558 266.04 111.929 261.942L109.163 263.357C108.081 263.898 107.457 265.083 107.603 266.29L108.269 271.656C108.601 274.443 111.139 276.419 113.905 276.086L114.841 275.982C116.006 275.837 116.984 275.192 117.587 274.277C117.067 274.693 116.422 274.963 115.715 275.046Z" fill="#E895B1"/>
<path d="M108.251 271.498C109.162 271.376 109.782 270.4 109.637 269.318C109.492 268.236 108.636 267.459 107.725 267.581C106.815 267.703 106.194 268.679 106.339 269.761C106.484 270.842 107.34 271.62 108.251 271.498Z" fill="#F89AB5"/>
<path d="M107.832 264.646C107.832 264.646 108.56 260.694 112.117 260.216C115.674 259.758 116.63 261.88 116.859 263.169C116.859 263.169 113.011 259.55 107.832 264.646Z" fill="#0A1A4E"/>
<path d="M104.13 315.274L102.341 345.122L100.656 375.011C100.594 376.301 101.571 377.382 102.84 377.466C104.005 377.528 105.003 376.738 105.232 375.635L108.394 360.971L109.975 353.65L110.765 349.989C111.035 348.762 111.306 347.555 111.514 346.307L117.005 316.854C117.671 313.318 115.341 309.928 111.805 309.262C108.269 308.597 104.879 310.926 104.213 314.462C104.192 314.712 104.151 315.003 104.13 315.274Z" fill="#7D5EE0"/>
<path d="M123.536 280.309C125.575 280.85 127.156 282.576 127.488 284.406C128.133 288.088 127.176 294.245 126.74 297.968L128.383 316.896C128.05 317.104 126.282 318.414 123.828 319.163C117.525 321.077 111.535 321.326 104.754 318.83C104.276 318.664 103.568 317.978 103.548 317.957L105.253 302.648C105.461 301.358 105.482 300.069 105.336 298.779L103.152 283.325L109.018 280.829C109.455 280.454 109.58 280.163 110.12 280.018L110.952 279.165C111.472 280.704 112.2 281.37 113.864 281.328C115.196 281.286 116.589 280.413 116.776 278.541L118.856 279.56L123.536 280.309Z" fill="#E83F54"/>
<path d="M125.242 379.338H121.789V378.131H125.346V379.234C125.346 379.296 125.304 379.338 125.242 379.338Z" fill="#321C4C"/>
<path d="M131.607 379.338H126.532C126.448 379.338 126.365 379.254 126.365 379.171V378.131L131.607 378.984V379.338V379.338Z" fill="#321C4C"/>
<path d="M126.407 375.261L131.128 377.798C131.544 378.027 131.752 378.422 131.648 378.818L131.607 378.984L122.933 378.755L121.789 378.776V378.11L122.039 375.531C123.245 375.802 125.866 375.698 126.407 375.261Z" fill="#422360"/>
<path d="M127.093 377.279C127.113 377.279 127.134 377.279 127.155 377.258C127.197 377.237 128.112 376.842 128.049 376.01C128.049 375.926 127.966 375.843 127.883 375.864C127.8 375.864 127.717 375.947 127.737 376.03C127.779 376.634 127.051 376.946 127.03 376.946C126.947 376.987 126.905 377.071 126.947 377.154C126.968 377.258 127.03 377.279 127.093 377.279Z" fill="#774DB2"/>
<path d="M128.341 377.736C128.361 377.736 128.382 377.736 128.403 377.715C128.445 377.694 129.36 377.299 129.297 376.467C129.297 376.384 129.214 376.301 129.131 376.322C129.048 376.322 128.965 376.405 128.985 376.488C129.027 377.091 128.299 377.403 128.278 377.403C128.195 377.445 128.153 377.528 128.195 377.611C128.216 377.694 128.278 377.736 128.341 377.736Z" fill="#774DB2"/>
<path d="M105.128 375.739C105.503 378.464 105.731 378.797 105.274 378.797L99.6786 378.755C99.533 378.755 99.4082 378.63 99.429 378.485C99.637 377.32 99.3874 378.422 100.864 375.448C101.863 375.032 103.631 374.637 105.128 375.739Z" fill="#422360"/>
<path d="M105.61 378.8L99.3496 378.765L99.3466 379.305L105.607 379.341L105.61 378.8Z" fill="#321C4C"/>
<path d="M103.838 377.466C103.88 377.466 103.922 377.445 103.963 377.403C104.026 377.341 104.026 377.237 103.942 377.175C102.861 376.239 101.509 377.133 101.488 377.154C101.405 377.195 101.405 377.299 101.446 377.382C101.488 377.466 101.592 377.466 101.675 377.424C101.717 377.382 102.84 376.655 103.714 377.424C103.755 377.445 103.797 377.466 103.838 377.466Z" fill="#774DB2"/>
<path d="M103.921 376.654C103.963 376.654 104.004 376.634 104.046 376.592C104.108 376.53 104.108 376.426 104.025 376.363C102.944 375.427 101.592 376.322 101.571 376.342C101.488 376.384 101.488 376.488 101.529 376.571C101.571 376.654 101.675 376.654 101.758 376.613C101.8 376.571 102.923 375.843 103.796 376.613C103.859 376.634 103.88 376.654 103.921 376.654Z" fill="#774DB2"/>
<path d="M108.893 282.368C108.393 281.952 107.832 281.494 107.312 281.058L105.731 279.706C104.691 278.79 103.651 277.875 102.653 276.939C101.654 276.003 100.677 275.067 99.8031 274.131C99.3663 273.674 98.9503 273.216 98.6383 272.821L98.2847 272.384C98.2639 272.363 98.2639 272.363 98.2847 272.467C98.3055 272.509 98.3055 272.55 98.3055 272.592C98.3055 272.634 98.3263 272.738 98.3471 272.8L98.3679 272.946C98.3679 273.008 98.3679 273.07 98.3679 273.112V273.216V273.341C98.3679 273.424 98.3471 273.507 98.3471 273.611L98.1391 274.443C98.2223 274.131 98.2847 273.819 98.3679 273.445C98.4511 273.091 98.5551 272.738 98.6591 272.384C98.8463 271.656 99.0751 270.928 99.2831 270.2L100.593 265.811C101.467 262.878 102.382 259.966 103.277 257.034C103.505 256.285 103.089 255.474 102.341 255.245C101.717 255.058 101.051 255.307 100.718 255.848C99.0751 258.448 97.4319 261.027 95.7887 263.627L93.3551 267.558C92.9599 268.224 92.5439 268.869 92.1487 269.555C91.9407 269.888 91.7535 270.242 91.5455 270.595C91.3375 270.928 91.1295 271.323 90.9215 271.718C90.8383 271.885 90.7759 272.072 90.7551 272.238L90.7135 272.55C90.6927 272.675 90.6927 272.821 90.6719 272.946V273.154V273.258V273.341C90.6719 273.445 90.6719 273.549 90.6927 273.653C90.6927 273.757 90.7135 273.861 90.7135 273.944C90.7343 274.09 90.7759 274.277 90.7967 274.402C90.8175 274.526 90.8591 274.651 90.9007 274.776C91.0255 275.213 91.1711 275.546 91.2959 275.837C91.5663 276.398 91.7951 276.835 92.0447 277.23C92.5231 278.021 93.0015 278.686 93.4799 279.331C94.4367 280.621 95.3935 281.786 96.3503 282.93C97.3279 284.074 98.3055 285.176 99.2831 286.278L100.781 287.901C101.28 288.442 101.779 288.962 102.32 289.523L102.341 289.544C104.213 291.478 107.312 291.52 109.246 289.648C111.181 287.776 111.222 284.677 109.35 282.742C109.184 282.618 109.038 282.472 108.893 282.368Z" fill="#E83F54"/>
<path d="M101.509 257.47C102.59 258.032 103.817 257.824 104.254 256.992L105.585 254.454C106.022 253.622 105.481 252.499 104.4 251.917C103.381 251.376 102.216 251.584 101.8 252.353L100.385 255.057C99.9901 255.869 100.489 256.95 101.509 257.47Z" fill="#FFA28B"/>
<path d="M102.716 252.894C102.612 252.936 102.508 252.936 102.404 252.915C102.112 252.853 101.925 252.541 101.988 252.25C102.008 252.146 102.612 249.65 105.066 248.859C105.357 248.755 105.669 248.922 105.773 249.213C105.877 249.504 105.711 249.816 105.42 249.92C103.568 250.523 103.09 252.478 103.09 252.499C103.028 252.686 102.882 252.832 102.716 252.894Z" fill="#FFA28B"/>
<path d="M107.166 251.646C107.062 251.688 106.958 251.688 106.854 251.667C104.961 251.251 103.568 252.707 103.547 252.728C103.339 252.957 102.985 252.957 102.756 252.749C102.528 252.541 102.528 252.187 102.736 251.958C102.819 251.875 104.587 250.024 107.104 250.565C107.395 250.627 107.603 250.939 107.52 251.23C107.478 251.438 107.353 251.584 107.166 251.646Z" fill="#FFA28B"/>
<path d="M107.873 253.477C107.728 253.539 107.582 253.518 107.437 253.456C105.689 252.603 103.984 253.685 103.963 253.706C103.713 253.872 103.36 253.81 103.193 253.539C103.027 253.29 103.089 252.936 103.36 252.77C103.443 252.707 105.627 251.334 107.936 252.458C108.206 252.603 108.331 252.936 108.185 253.206C108.102 253.352 107.998 253.435 107.873 253.477Z" fill="#FFA28B"/>
<path d="M107.188 255.536C106.959 255.619 106.688 255.536 106.543 255.328C105.482 253.81 103.88 254.226 103.818 254.226C103.527 254.309 103.215 254.122 103.132 253.83C103.048 253.539 103.215 253.227 103.527 253.144C103.631 253.123 105.96 252.499 107.458 254.683C107.625 254.933 107.562 255.286 107.313 255.453C107.271 255.494 107.229 255.515 107.188 255.536Z" fill="#FFA28B"/>
<path d="M129.443 288.442C129.963 287.901 130.421 287.422 130.899 286.902L132.293 285.363C133.229 284.344 134.123 283.283 135.039 282.202C135.933 281.12 136.827 279.997 137.701 278.77C138.138 278.146 138.575 277.501 139.032 276.731C139.261 276.336 139.49 275.92 139.719 275.358C139.781 275.234 139.843 275.067 139.885 274.901C139.947 274.714 140.01 274.568 140.051 274.339C140.155 273.923 140.28 273.424 140.239 272.571L140.218 272.301C140.218 272.093 140.155 271.864 140.093 271.677C139.885 271.157 139.677 270.741 139.469 270.387C139.261 270.013 139.074 269.701 138.866 269.368C138.45 268.723 138.055 268.12 137.639 267.538C136.807 266.373 135.975 265.25 135.122 264.126C133.437 261.901 131.711 259.758 129.963 257.616C129.464 257.013 128.57 256.909 127.946 257.408C127.447 257.824 127.301 258.49 127.53 259.051V259.072C128.57 261.589 129.568 264.147 130.504 266.685C130.983 267.954 131.419 269.222 131.835 270.47C132.043 271.094 132.231 271.718 132.397 272.322C132.48 272.613 132.543 272.904 132.605 273.174C132.667 273.445 132.688 273.674 132.667 273.798L132.522 272.904C132.501 272.384 132.563 272.218 132.563 272.114C132.584 272.051 132.563 272.051 132.584 272.03C132.584 272.03 132.584 272.01 132.563 272.03C132.522 272.072 132.418 272.238 132.272 272.405C132.002 272.758 131.627 273.174 131.253 273.59C130.463 274.443 129.568 275.317 128.653 276.17C127.738 277.022 126.76 277.875 125.803 278.728L124.327 279.976C123.848 280.392 123.328 280.808 122.85 281.182C120.728 282.867 120.375 285.925 122.059 288.046C123.744 290.168 126.802 290.522 128.923 288.837C129.09 288.712 129.235 288.566 129.36 288.442H129.443Z" fill="#E83F54"/>
<path d="M127.052 250.482C129.021 251.484 129.449 253.535 129.53 254.153C129.608 254.256 129.67 254.371 129.714 254.496L130.671 257.387C130.92 258.261 130.255 259.238 129.173 259.592C128.008 259.987 126.823 259.571 126.532 258.677L125.639 255.958C125.284 256.077 124.911 256.292 124.556 256.659C124.368 256.846 124.077 256.888 123.869 256.763C123.848 256.742 123.807 256.701 123.765 256.68C123.536 256.472 123.536 256.118 123.744 255.89C124.414 255.205 125.131 254.896 125.776 254.782C125.794 254.748 125.814 254.714 125.835 254.681C125.3 254.53 124.659 254.475 123.973 254.683C123.828 254.746 123.661 254.725 123.536 254.642C123.432 254.558 123.328 254.454 123.287 254.309C123.204 253.997 123.37 253.685 123.661 253.602C124.901 253.223 126.004 253.471 126.801 253.82C126.884 253.777 126.971 253.738 127.06 253.702C126.532 253.311 125.782 252.948 124.847 252.998C124.722 252.998 124.618 252.957 124.535 252.915C124.368 252.832 124.264 252.666 124.264 252.458C124.244 252.146 124.472 251.896 124.784 251.875C126.281 251.802 127.4 252.498 128.084 253.104C127.815 252.529 127.351 251.889 126.552 251.48C126.282 251.334 126.157 251.002 126.303 250.731C126.448 250.461 126.781 250.336 127.052 250.482Z" fill="#FFA28B"/>
<path d="M117.38 274.547C118.004 273.757 118.295 272.738 118.17 271.739L117.276 264.438C117.047 262.525 115.3 261.173 113.386 261.402L111.431 261.63C110.287 261.776 109.226 262.358 108.519 263.274C107.812 264.189 107.479 265.354 107.624 266.498L108.269 271.677C108.602 274.443 111.14 276.419 113.906 276.086L114.842 275.982C115.84 275.858 116.756 275.338 117.38 274.547Z" fill="#FFA28B"/>
<path d="M326.794 260.424C325.816 260.715 324.838 260.341 324.61 259.613L323.923 257.325C323.694 256.576 324.318 255.744 325.296 255.453C326.211 255.182 327.126 255.515 327.355 256.222L328.083 258.656C328.291 259.363 327.73 260.154 326.794 260.424Z" fill="#FFA28B"/>
<path d="M326.544 256.493C326.627 256.534 326.711 256.555 326.815 256.555C327.064 256.555 327.272 256.326 327.272 256.077C327.272 255.994 327.168 253.851 325.296 252.811C325.067 252.686 324.797 252.77 324.672 252.998C324.547 253.227 324.631 253.498 324.859 253.622C326.295 254.413 326.357 256.077 326.357 256.098C326.336 256.264 326.419 256.41 326.544 256.493Z" fill="#FFA28B"/>
<path d="M323.091 254.746C323.174 254.787 323.257 254.808 323.341 254.808C324.963 254.766 325.878 256.181 325.878 256.202C326.024 256.41 326.294 256.493 326.523 256.347C326.731 256.202 326.814 255.931 326.669 255.702C326.627 255.619 325.462 253.83 323.32 253.872C323.07 253.872 322.862 254.101 322.862 254.35C322.883 254.538 322.966 254.683 323.091 254.746Z" fill="#FFA28B"/>
<path d="M322.239 256.16C322.343 256.222 322.468 256.243 322.613 256.222C324.173 255.806 325.4 256.95 325.421 256.971C325.608 257.158 325.899 257.137 326.087 256.95C326.274 256.763 326.253 256.472 326.066 256.285C326.003 256.222 324.443 254.746 322.384 255.307C322.135 255.369 321.989 255.64 322.052 255.869C322.072 255.993 322.135 256.097 322.239 256.16Z" fill="#FFA28B"/>
<path d="M322.467 257.928C322.654 258.032 322.883 258.011 323.029 257.866C324.131 256.784 325.379 257.387 325.421 257.408C325.649 257.512 325.92 257.429 326.045 257.2C326.149 256.971 326.065 256.701 325.837 256.576C325.753 256.534 323.965 255.661 322.363 257.2C322.176 257.387 322.176 257.678 322.363 257.866C322.405 257.886 322.425 257.907 322.467 257.928Z" fill="#FFA28B"/>
<path d="M302.104 259.8C303.081 260.07 304.059 259.654 304.246 258.905L304.849 256.597C305.057 255.848 304.413 255.016 303.414 254.766C302.478 254.517 301.584 254.891 301.397 255.598L300.752 258.053C300.565 258.781 301.168 259.55 302.104 259.8Z" fill="#FFA28B"/>
<path d="M302.229 255.848C302.146 255.89 302.062 255.931 301.979 255.931C301.73 255.931 301.521 255.723 301.521 255.453C301.521 255.37 301.563 253.206 303.394 252.125C303.622 252 303.893 252.062 304.038 252.291C304.163 252.52 304.101 252.79 303.872 252.936C302.478 253.768 302.458 255.432 302.458 255.453C302.437 255.619 302.354 255.765 302.229 255.848Z" fill="#FFA28B"/>
<path d="M305.619 254.018C305.557 254.059 305.453 254.101 305.369 254.101C303.747 254.101 302.873 255.557 302.873 255.578C302.749 255.806 302.457 255.869 302.229 255.744C302 255.619 301.937 255.328 302.062 255.099C302.104 255.016 303.206 253.186 305.349 253.165C305.598 253.165 305.806 253.373 305.827 253.622C305.827 253.789 305.744 253.934 305.619 254.018Z" fill="#FFA28B"/>
<path d="M306.514 255.39C306.41 255.453 306.285 255.494 306.16 255.453C304.58 255.078 303.394 256.285 303.394 256.285C303.207 256.472 302.915 256.472 302.728 256.285C302.541 256.098 302.541 255.806 302.728 255.619C302.791 255.557 304.309 254.038 306.389 254.538C306.639 254.6 306.784 254.85 306.743 255.099C306.68 255.224 306.618 255.328 306.514 255.39Z" fill="#FFA28B"/>
<path d="M306.347 257.179C306.18 257.283 305.931 257.283 305.785 257.138C304.662 256.098 303.414 256.722 303.372 256.742C303.144 256.867 302.873 256.784 302.748 256.555C302.624 256.326 302.707 256.056 302.936 255.931C303.019 255.89 304.787 254.954 306.409 256.451C306.596 256.618 306.617 256.93 306.43 257.117C306.409 257.138 306.388 257.158 306.347 257.179Z" fill="#FFA28B"/>
<path d="M318.287 262.67C318.287 262.67 313.586 260.445 310.965 262.92C308.344 265.395 308.386 268.869 308.386 268.869C308.386 268.869 306.826 267.371 305.016 272.093C303.186 276.814 307.159 284.157 315.895 280.579L318.287 262.67Z" fill="#06005E"/>
<path d="M318.286 262.67C318.286 262.67 324.027 264.605 323.05 269.264C323.05 269.264 326.69 269.222 324.963 276.44C323.237 283.658 315.416 281.578 315.416 281.578L318.286 262.67Z" fill="#06005E"/>
<path d="M313.544 313.818L321.905 375.219C322.03 376.134 322.883 376.8 323.819 376.675C324.672 376.55 325.275 375.843 325.275 375.011L325.504 313.048C325.525 309.741 322.841 307.037 319.513 307.016C316.206 306.995 313.502 309.678 313.481 313.006C313.481 313.256 313.502 313.547 313.544 313.818Z" fill="#F89AB5"/>
<path d="M305.12 310.136L302.375 376.072C302.333 377.07 303.103 377.902 304.101 377.944C305.016 377.985 305.807 377.32 305.952 376.446L317.039 311.384C317.6 308.118 315.395 305.019 312.13 304.457C308.864 303.896 305.765 306.101 305.203 309.366C305.162 309.616 305.141 309.886 305.12 310.136Z" fill="#F89AB5"/>
<path d="M302.333 375.427L298.277 378.027C297.924 378.256 297.757 378.672 297.82 379.088L297.861 379.275H305.453C305.723 379.275 305.952 379.067 306.098 378.859C306.264 378.651 306.327 378.402 306.285 378.131L306.098 375.739C305.037 375.989 302.791 375.885 302.333 375.427Z" fill="#422360"/>
<path d="M321.927 375.739L321.219 378.277C321.199 378.381 321.178 378.485 321.178 378.589V379.192C321.178 379.317 321.282 379.421 321.407 379.421L326.523 379.462C326.586 379.462 326.648 379.441 326.69 379.379C326.731 379.337 326.752 379.254 326.752 379.192L326.648 378.401C326.627 378.256 326.586 378.11 326.523 377.965L325.421 375.593C324.506 375.136 323.362 374.657 321.927 375.739Z" fill="#422360"/>
<path d="M317.184 275.379C317.184 275.379 316.685 278.874 317.517 279.518L316.456 290.771L307.491 290.085L311.11 278.811L312.691 277.938L313.128 274.859L317.184 275.379Z" fill="#FEB19E"/>
<path d="M317.496 279.518L316.414 280.454C317.267 278.915 315.915 275.753 315.915 275.753L317.184 275.109C317.059 276.731 316.976 279.102 317.496 279.518Z" fill="#FFA28B"/>
<path d="M313.128 274.88C313.128 274.88 313.69 276.835 317.038 276.877L317.267 274.568L313.128 274.88Z" fill="#FFA28B"/>
<path d="M311.111 272.113C311.443 274.381 312.962 276.024 315.021 275.733C317.205 275.421 319.056 273.174 318.723 270.741L318.141 266.705C317.912 265.104 316.435 264.001 314.834 264.23L312.879 264.501C311.339 264.729 310.258 266.144 310.487 267.683L311.111 272.113Z" fill="#FEB19E"/>
<path d="M319.534 270.866C319.014 271.469 318.182 271.428 317.662 270.804C317.142 270.18 317.142 269.181 317.662 268.578C318.182 267.975 319.014 268.017 319.534 268.641C320.055 269.265 320.055 270.263 319.534 270.866Z" fill="#F89AB5"/>
<path d="M319.618 269.514C319.41 268.682 318.661 268.182 317.954 268.411C317.85 268.432 317.767 268.494 317.684 268.536C317.829 268.39 317.996 268.266 318.204 268.203C318.911 267.974 319.639 268.474 319.868 269.306C320.055 270.034 319.784 270.782 319.244 271.115C319.597 270.72 319.764 270.117 319.618 269.514Z" fill="#E6E6E6"/>
<path d="M317.829 269.951C317.85 270.179 318.037 270.346 318.266 270.325C318.494 270.304 318.661 270.117 318.64 269.888C318.619 269.659 318.432 269.493 318.203 269.514C317.975 269.514 317.808 269.722 317.829 269.951Z" fill="#E6E6E6"/>
<path d="M320.595 274.173C320.595 274.173 315.062 269.929 315.52 266.082L316.747 264.189L321.573 266.664L320.595 274.173Z" fill="#06005E"/>
<path d="M317.205 264.459C317.205 264.459 314.022 267.766 310.216 267.33L311.318 263.606L315.062 261.942L317.205 264.459Z" fill="#06005E"/>
<path d="M296.363 274.922L304.246 282.971C305.515 284.261 307.595 284.282 308.885 283.013C310.174 281.744 310.195 279.664 308.926 278.374C308.781 278.229 308.635 278.104 308.469 278L298.984 271.302L298.693 271.094C297.362 270.158 295.594 270.928 295.531 271.989C295.469 272.779 295.51 274.048 296.363 274.922Z" fill="#FFA28B"/>
<path d="M295.615 271.635L300.898 258.781C301.147 258.178 301.855 257.845 302.5 258.074C303.123 258.302 303.435 259.01 303.269 259.654L299.754 273.008C299.712 273.133 299.671 273.258 299.629 273.362C299.13 274.402 297.903 274.838 296.863 274.36L296.551 274.214C295.656 273.632 295.49 271.947 295.615 271.635Z" fill="#FEB19E"/>
<path d="M332.742 276.045L324.859 284.094C323.59 285.384 321.51 285.405 320.221 284.136C318.931 282.867 318.91 280.787 320.179 279.498C320.325 279.352 320.47 279.227 320.637 279.123L330.121 272.426L330.413 272.218C331.744 271.282 333.512 272.051 333.574 273.112C333.616 273.902 333.595 275.171 332.742 276.045Z" fill="#FFA28B"/>
<path d="M333.47 272.737L328.187 259.883C327.937 259.28 327.23 258.947 326.585 259.176C325.961 259.405 325.649 260.112 325.816 260.757L329.331 274.11C329.373 274.235 329.414 274.36 329.456 274.464C329.955 275.504 331.182 275.941 332.222 275.462L332.534 275.317C333.449 274.734 333.616 273.07 333.47 272.737Z" fill="#FEB19E"/>
<path d="M306.039 286.685L305.661 287.568C305.391 288.192 305.557 289.586 305.765 290.23C305.926 290.721 306.227 291.486 306.56 292.334L306.561 292.336L306.562 292.339L306.563 292.341C307.218 294.007 307.998 295.991 308.095 296.845C308.235 297.984 306.876 302.717 305.994 305.705L305.993 305.71L305.89 306.059C305.821 306.294 305.795 306.526 305.805 306.755C305.283 309.726 303.874 318.192 304.163 321.493C304.517 325.507 303.56 334.243 300.731 336.469C310.362 339.069 318.432 339.381 326.856 336.032C326.856 336.032 328.25 312.674 324.568 307.973L324.538 307.935L324.547 307.931C324.553 307.936 324.362 307.415 324.064 306.597L324.063 306.594L324.062 306.591C323.164 304.128 321.292 298.997 320.824 297.469C320.533 296.533 320.803 295.264 321.157 294.141C321.927 291.853 322.447 289.419 322.717 287.027L322.827 286.037C323.617 285.783 324.324 285.336 324.797 284.718C326.56 282.955 327.189 282.23 327.985 281.312C328.523 280.692 329.136 279.985 330.226 278.811L327.106 274.443C326.122 275.015 325.212 275.48 324.359 275.917C322.307 276.967 320.58 277.851 318.935 279.641L317.287 279.202L317.247 279.165L317.227 279.186L317.226 279.186L317.226 279.187L316.269 280.205L312.421 283.47L312.088 278.25L309.733 278.084C308.212 276.578 306.607 275.756 304.727 274.794C303.873 274.357 302.963 273.892 301.979 273.32L298.859 277.688C299.912 278.83 300.523 279.53 301.051 280.134C301.877 281.082 302.497 281.792 304.288 283.595C304.288 283.595 304.288 283.595 304.288 283.595L306.039 286.685Z" fill="#00A5B9"/>
<path d="M116.859 270.45L115.84 270.824L113.78 271.573L113.281 272.322L109.184 269.93L108.206 271.157L108.268 271.677C108.476 273.445 109.6 274.88 111.097 275.608C111.097 275.608 114.945 278.458 117.899 274.693C118.377 274.069 118.564 273.278 118.419 272.509L118.024 270.429L116.859 270.45Z" fill="#0A1A4E"/>
<defs>
<linearGradient id="paint0_linear" x1="424.053" y1="78.4487" x2="296.833" y2="230.764" gradientUnits="userSpaceOnUse">
<stop offset="0.00682321" stop-color="#00B28F"/>
<stop offset="1" stop-color="#00B28F" stop-opacity="0"/>
</linearGradient>
<linearGradient id="paint1_linear" x1="210.665" y1="222.244" x2="126.62" y2="411.042" gradientUnits="userSpaceOnUse">
<stop offset="0.00682321" stop-color="#00B28F"/>
<stop offset="1" stop-color="#00B28F" stop-opacity="0"/>
</linearGradient>
<linearGradient id="paint2_linear" x1="188.639" y1="123.054" x2="63.8628" y2="256.323" gradientUnits="userSpaceOnUse">
<stop offset="0.00682321" stop-color="#00B28F"/>
<stop offset="1" stop-color="#00B28F" stop-opacity="0"/>
</linearGradient>
<linearGradient id="paint3_linear" x1="482" y1="142.5" x2="284" y2="383.5" gradientUnits="userSpaceOnUse">
<stop offset="0.00682321" stop-color="#00B28F"/>
<stop offset="1" stop-color="#00B28F" stop-opacity="0"/>
</linearGradient>
</defs>
</svg>
