<svg width="538" height="468" viewBox="0 0 538 468" fill="none" xmlns="http://www.w3.org/2000/svg">
<path d="M343.136 467.502H178.562C166.491 467.502 153.4 451.56 155.44 439.519L228.886 60.1334C230.926 48.0921 242.487 38.4251 254.558 38.4251L413.352 34.5244C425.423 34.5244 439.194 48.2617 436.984 60.3029L368.808 445.794C366.768 457.665 355.207 467.502 343.136 467.502Z" fill="url(#paint0_linear)"/>
<path d="M336.335 458.344H173.801C161.9 458.344 153.91 448.677 156.12 436.805L223.446 55.8936C225.486 44.0219 236.877 34.355 248.778 34.355H411.312C423.213 34.355 431.203 44.0219 428.993 55.8936L361.668 436.975C359.627 448.847 348.236 458.344 336.335 458.344Z" fill="#3C2C52" fill-opacity="0.3"/>
<path d="M357.417 49.6187H298.252C297.062 49.6187 296.212 48.6011 296.382 47.414C296.552 46.2268 297.742 45.2092 299.102 45.2092H358.097C359.287 45.2092 360.138 46.2268 359.968 47.414C359.798 48.6011 358.607 49.6187 357.417 49.6187Z" fill="#29294B"/>
<path d="M399.581 33.5071H381.049C375.779 33.5071 370.678 37.5774 369.828 42.6652C368.978 47.7531 363.878 51.8234 358.607 51.8234H272.75C267.479 51.8234 263.739 47.7531 264.759 42.6652C265.609 37.5774 262.039 33.5071 256.768 33.5071H238.237C230.076 33.5071 222.425 39.7821 221.065 47.4139L153.569 429.343C152.209 436.975 157.65 443.25 165.811 443.25H327.325C335.485 443.25 343.136 436.975 344.496 429.343L411.992 47.4139C413.182 39.6125 407.741 33.5071 399.581 33.5071Z" fill="url(#paint1_linear)" fill-opacity="0.5"/>
<path d="M409.442 41.478H390.91C385.64 41.478 380.539 45.5483 379.689 50.6362C378.839 55.7241 373.739 59.7944 368.468 59.7944H282.611C277.34 59.7944 273.6 55.7241 274.62 50.6362C275.47 45.5483 271.9 41.478 266.629 41.478H248.098C239.937 41.478 232.286 47.7531 230.926 55.3849L163.43 437.314C162.07 444.946 167.511 451.221 175.671 451.221H337.185C345.346 451.221 352.997 444.946 354.357 437.314L421.683 55.3849C423.043 47.7531 417.602 41.478 409.442 41.478Z" fill="#200D39" fill-opacity="0.27"/>
<g opacity="0.58">
<path d="M314.403 429.852H95.2543C89.3037 429.852 85.2234 424.934 86.2435 418.998L108.855 290.953C109.876 285.017 115.656 280.099 121.607 280.099H340.756C346.706 280.099 350.786 285.017 349.766 290.953L327.154 418.998C326.134 425.103 320.524 429.852 314.403 429.852Z" fill="url(#paint2_linear)" fill-opacity="0.55"/>
<path d="M109.348 291.04L109.348 291.038C110.328 285.338 115.904 280.599 121.607 280.599H340.756C346.388 280.599 350.242 285.23 349.274 290.868C349.274 290.868 349.274 290.868 349.274 290.869L326.662 418.911L326.661 418.916C325.681 424.781 320.278 429.352 314.403 429.352H95.2543C89.6218 429.352 85.7677 424.721 86.7361 419.083C86.7362 419.083 86.7362 419.083 86.7363 419.083L109.348 291.04Z" stroke="url(#paint3_radial)" stroke-opacity="0.5"/>
</g>
<path d="M300.122 418.998H80.9731C75.0226 418.998 70.9422 414.08 71.9623 408.144L94.5743 280.099C95.5944 274.163 101.375 269.245 107.325 269.245H326.474C332.425 269.245 336.505 274.163 335.485 280.099L312.873 408.144C311.853 414.249 306.243 418.998 300.122 418.998Z" fill="url(#paint4_linear)" fill-opacity="0.65"/>
<path d="M95.0667 280.186L95.0671 280.184C96.0466 274.484 101.623 269.745 107.325 269.745H326.474C332.107 269.745 335.961 274.376 334.992 280.014C334.992 280.014 334.992 280.014 334.992 280.015L312.381 408.057L312.38 408.062C311.4 413.927 305.997 418.498 300.122 418.498H80.9731C75.3406 418.498 71.4866 413.867 72.455 408.229C72.455 408.229 72.455 408.229 72.4551 408.229L95.0667 280.186Z" stroke="url(#paint5_radial)" stroke-opacity="0.5"/>
<path d="M90.664 357.774L87.4337 375.242M96.9546 364.727L90.834 400.003M110.726 330.13L104.945 363.54M119.907 321.48L115.996 343.698M128.747 315.375L125.007 336.066M134.358 326.06L131.298 343.528M140.818 332.843L139.118 342.849M146.599 343.358L143.029 363.71M151.359 359.64L149.319 371.511M157.99 365.575L155.61 379.482M167.851 352.856L163.77 376.769M176.861 345.733L174.651 358.283M185.702 338.27L182.302 357.774M192.333 344.885L189.103 362.353M201.514 336.066L198.283 353.534M210.184 329.96L207.124 347.429M216.985 334.2L211.374 366.423M222.765 344.715L219.705 362.353M234.156 323.855L229.056 352.856M242.147 321.82L239.257 338.779M250.308 319.276L247.588 334.879M259.149 312.661L256.428 327.755M265.949 316.732L260.679 346.75M271.9 326.738L265.779 361.675M281.76 314.357L276.83 341.662M289.241 314.697L285.331 336.575M298.762 303.843L295.872 320.124M305.053 311.813L302.672 325.551M311.003 321.82L309.643 329.282M321.714 304.182L317.294 329.282" stroke="url(#paint6_linear)" stroke-width="0.4283" stroke-miterlimit="10"/>
<path d="M89.9846 360.996L88.1144 372.02M96.1051 370.324L91.5147 396.272M109.366 338.27L105.286 361.335M119.907 321.48L116.677 340.305M128.408 317.41L126.368 328.434M134.018 327.925L132.148 338.949M140.479 335.048L138.949 343.867M146.09 346.241L143.709 360.148M150.85 362.522L150 367.61M157.82 366.762L156.97 371.172M167.681 353.873L163.771 376.769M177.032 344.037L175.162 355.06M184.853 343.358L182.643 355.739M191.993 346.241L190.123 357.265M201.004 338.61L198.964 349.633M208.995 337.083L208.145 340.984M216.135 338.949L213.075 357.095M222.766 344.715L220.896 355.739M233.137 329.621L229.567 349.464M241.467 325.551L239.597 336.405M249.798 321.48L247.928 332.504M258.129 318.258L257.109 323.855M264.249 326.738L261.869 340.306M270.71 333.522L266.97 354.212M279.721 325.72L278.021 335.048M288.561 319.106L287.711 323.516M298.422 305.708L296.892 315.036M304.543 314.697L302.673 325.72M310.153 326.059L309.473 329.96M321.204 307.234L318.484 322.837" stroke="url(#paint7_linear)" stroke-width="3.426" stroke-miterlimit="10"/>
<path d="M450.925 261.613H285.501C279.38 261.613 275.3 256.695 276.32 250.589L296.722 135.095C297.742 128.989 303.693 124.071 309.813 124.071H475.237C481.358 124.071 485.438 128.989 484.418 135.095L464.016 250.589C462.996 256.695 457.046 261.613 450.925 261.613Z" fill="url(#paint8_linear)" fill-opacity="0.55"/>
<path d="M297.214 135.182L297.214 135.182L297.215 135.177C298.194 129.318 303.932 124.571 309.813 124.571H475.237C478.159 124.571 480.564 125.742 482.121 127.613C483.678 129.485 484.413 132.09 483.926 135.009C483.925 135.01 483.925 135.011 483.925 135.012L463.524 250.502L463.523 250.507C462.544 256.367 456.806 261.113 450.925 261.113H285.501C282.58 261.113 280.174 259.943 278.617 258.071C277.06 256.199 276.326 253.594 276.813 250.674C276.813 250.673 276.813 250.673 276.813 250.672L297.214 135.182Z" stroke="url(#paint9_radial)" stroke-opacity="0.5"/>
<path d="M436.644 250.929H271.22C265.099 250.929 261.019 246.01 262.039 239.905L282.441 124.41C283.461 118.305 289.411 113.386 295.532 113.386H460.956C467.077 113.386 471.157 118.305 470.137 124.41L449.735 239.905C448.715 245.841 442.765 250.929 436.644 250.929Z" fill="url(#paint10_linear)" fill-opacity="0.65"/>
<path d="M282.933 124.497L282.933 124.497L282.934 124.493C283.913 118.633 289.651 113.886 295.532 113.886H460.956C463.877 113.886 466.283 115.057 467.84 116.929C469.397 118.8 470.132 121.406 469.644 124.326C469.644 124.327 469.644 124.327 469.644 124.328L449.243 239.818L449.242 239.82C448.263 245.518 442.52 250.429 436.644 250.429H271.22C268.299 250.429 265.893 249.258 264.336 247.386C262.779 245.515 262.045 242.909 262.532 239.99C262.532 239.989 262.532 239.988 262.532 239.987L282.933 124.497Z" stroke="url(#paint11_radial)" stroke-opacity="0.5"/>
<path d="M274.45 222.267C283.801 222.267 288.901 193.096 298.252 193.096C307.603 193.096 310.153 178.511 319.504 178.511C328.855 178.511 324.605 202.085 333.955 202.085C343.306 202.085 345.346 190.383 354.697 190.383C364.048 190.383 361.668 204.12 371.019 204.12C380.369 204.12 387.34 164.435 396.691 164.435C406.042 164.435 403.831 177.324 413.182 177.324C422.533 177.324 426.783 153.411 436.134 153.411C445.485 153.411 443.105 167.148 452.456 167.148" stroke="url(#paint12_linear)" stroke-miterlimit="10" stroke-linecap="round" stroke-linejoin="round"/>
<path d="M242.487 199.202H111.066C104.945 199.202 100.865 194.284 101.885 188.178L116.846 103.889C117.866 97.7838 123.817 92.8655 129.937 92.8655H261.359C267.479 92.8655 271.56 97.7838 270.54 103.889L255.578 188.178C254.388 194.114 248.608 199.202 242.487 199.202Z" fill="url(#paint13_linear)" fill-opacity="0.65"/>
<path d="M117.339 103.977L117.339 103.977L117.339 103.972C118.318 98.112 124.056 93.3655 129.937 93.3655H261.359C264.28 93.3655 266.686 94.5361 268.242 96.4075C269.799 98.2791 270.534 100.884 270.047 103.804C270.047 103.805 270.047 103.806 270.046 103.807L255.088 188.08C255.088 188.082 255.087 188.083 255.087 188.085C253.938 193.802 248.35 198.702 242.487 198.702H111.066C108.145 198.702 105.739 197.531 104.182 195.66C102.625 193.788 101.891 191.183 102.378 188.263C102.378 188.262 102.378 188.261 102.378 188.261L117.339 103.977Z" stroke="url(#paint14_radial)" stroke-opacity="0.5"/>
<path d="M228.206 188.348H96.7846C90.6641 188.348 86.5837 183.43 87.6038 177.324L102.565 93.0352C103.585 86.9297 109.536 82.0115 115.656 82.0115H247.078C253.198 82.0115 257.278 86.9297 256.258 93.0352L241.297 177.324C240.107 183.43 234.326 188.348 228.206 188.348Z" fill="url(#paint15_linear)" fill-opacity="0.65"/>
<path d="M103.057 93.1226L103.057 93.1226L103.058 93.1176C104.037 87.258 109.775 82.5115 115.656 82.5115H247.078C249.999 82.5115 252.405 83.6821 253.961 85.5535C255.518 87.4251 256.253 90.0302 255.766 92.9499C255.766 92.9509 255.765 92.9518 255.765 92.9528L240.806 177.229C240.806 177.23 240.806 177.231 240.806 177.233C239.657 183.112 234.075 187.848 228.206 187.848H96.7846C93.8633 187.848 91.4576 186.677 89.9009 184.806C88.3439 182.934 87.6093 180.329 88.0966 177.409C88.0967 177.408 88.0968 177.407 88.097 177.407L103.057 93.1226Z" stroke="url(#paint16_radial)" stroke-opacity="0.5"/>
<path d="M99.3351 171.558L104.436 143.066M113.956 171.558L122.627 122.375M128.578 171.558L132.658 148.493M143.369 171.558L154.93 105.585M157.99 171.558L166.321 124.241M172.611 171.558L177.712 143.066M187.403 171.558L198.794 107.112M202.024 171.558L210.355 124.241M216.645 171.558L223.786 131.025M231.267 171.558L236.367 143.066" stroke="url(#paint17_linear)" stroke-width="2.0832" stroke-miterlimit="10" stroke-linecap="round" stroke-linejoin="round"/>
<path d="M99.3351 171.558L103.415 148.154M113.956 171.558L121.097 131.194M128.578 171.558L131.978 152.563M143.369 171.558L152.89 117.457M157.99 171.558L164.791 132.721M172.611 171.558L176.862 148.154M187.403 171.558L196.754 118.644M202.024 171.558L208.824 132.721M216.645 171.558L222.596 138.317M231.267 171.558L235.517 148.154" stroke="url(#paint18_linear)" stroke-width="2.0832" stroke-miterlimit="10" stroke-linecap="round" stroke-linejoin="round"/>
<path d="M189.443 59.2856H148.809L155.95 18.9219H196.583L189.443 59.2856Z" fill="#00B28F" fill-opacity="0.9"/>
<path d="M27.4186 443.759H14.3274L16.7076 430.7H29.7988L27.4186 443.759Z" fill="#00B28F" fill-opacity="0.9"/>
<path d="M46.4602 443.759H33.3691L35.7493 430.7H48.8404L46.4602 443.759Z" fill="#00B28F" fill-opacity="0.9"/>
<path d="M65.5019 443.759H52.4107L54.7909 430.7H67.8821L65.5019 443.759Z" fill="#00B28F" fill-opacity="0.9"/>
<path d="M444.635 387.962H413.862L419.303 357.265H450.075L444.635 387.962Z" fill="#00B28F" fill-opacity="0.9"/>
<path d="M458.406 88.965H482.208L488.669 56.9931L497.339 56.9114L480.678 29.7761L454.496 56.9114L464.866 56.9931L458.406 88.965Z" fill="#02A085"/>
<path d="M529.642 270.941H517.401L521 251.607H533.071L529.642 270.941Z" fill="#00B28F" fill-opacity="0.9"/>
<path d="M529.812 235.156L516.041 251.607H537.973L529.812 235.156Z" fill="#00B28F" fill-opacity="0.9"/>
<path d="M46.9703 321.311H29.7988L34.4986 294.006H51.5001L46.9703 321.311Z" fill="#00B28F" fill-opacity="0.9"/>
<path d="M47.3103 270.941L27.7587 294.006H58.7013L47.3103 270.941Z" fill="#00B28F" fill-opacity="0.9"/>
<path d="M491.049 305.878H487.988C487.138 305.878 486.628 305.369 486.628 304.521C486.458 303.164 486.118 301.977 485.778 300.79C485.438 300.112 485.778 299.264 486.458 298.585L489.009 296.38C489.859 295.702 490.029 294.515 489.519 293.836L487.818 291.801C487.308 291.123 486.118 291.123 485.268 291.801L482.718 294.006C482.038 294.515 481.188 294.684 480.508 294.345C479.488 293.667 478.298 293.158 477.108 292.819C476.427 292.649 475.917 291.971 476.087 291.123L476.597 288.07C476.768 287.053 476.087 286.374 475.067 286.374H472.007C470.987 286.374 470.137 287.222 469.967 288.07L469.457 291.123C469.287 291.971 468.607 292.649 467.757 292.819C466.397 293.158 465.037 293.667 463.846 294.345C462.996 294.684 462.146 294.515 461.806 294.006L460.106 291.801C459.596 291.123 458.406 291.123 457.556 291.801L455.006 293.836C454.156 294.515 453.986 295.702 454.496 296.38L456.196 298.585C456.706 299.094 456.706 300.112 456.196 300.79C455.346 301.977 454.666 303.164 453.986 304.521C453.645 305.369 452.795 305.878 452.115 305.878H449.055C448.035 305.878 447.185 306.726 447.015 307.574L446.505 310.626C446.335 311.644 447.015 312.322 448.035 312.322H451.095C451.945 312.322 452.455 312.831 452.455 313.679C452.625 315.036 452.965 316.223 453.305 317.41C453.646 318.089 453.305 318.937 452.625 319.615L449.905 321.65C449.055 322.329 448.885 323.516 449.395 324.194L451.095 326.229C451.605 326.908 452.795 326.908 453.646 326.229L456.196 324.024C456.876 323.516 457.726 323.346 458.406 323.685C459.426 324.364 460.616 324.872 461.806 325.212C462.486 325.381 462.996 326.06 462.826 326.908L462.316 329.96C462.146 330.978 462.826 331.656 463.846 331.656H466.907C467.927 331.656 468.777 330.808 468.947 329.96L469.457 326.908C469.627 326.06 470.307 325.381 471.157 325.212C472.517 324.872 473.877 324.364 475.067 323.685C475.917 323.346 476.767 323.516 477.108 324.024L478.808 326.229C479.318 326.908 480.508 326.908 481.358 326.229L483.908 324.194C484.758 323.516 484.928 322.329 484.418 321.65L482.718 319.445C482.208 318.937 482.208 317.919 482.718 317.241C483.568 316.053 484.248 314.866 484.928 313.51C485.268 312.662 486.118 312.153 486.798 312.153H489.859C490.879 312.153 491.729 311.305 491.899 310.457L492.409 307.404C492.749 306.556 492.069 305.878 491.049 305.878ZM467.587 319.445C461.806 319.445 457.896 314.866 458.916 309.1C459.936 303.334 465.377 298.755 471.157 298.755C476.938 298.755 480.848 303.334 479.828 309.1C478.808 314.866 473.367 319.445 467.587 319.445Z" fill="#00B28F" fill-opacity="0.9"/>
<path d="M449.225 287.053H448.035C447.695 287.053 447.525 286.883 447.525 286.544C447.525 286.035 447.355 285.526 447.185 285.187C447.015 284.848 447.185 284.678 447.525 284.339L448.545 283.491C448.885 283.152 448.885 282.813 448.715 282.473L448.035 281.625C447.865 281.286 447.355 281.286 447.015 281.625L445.995 282.473C445.825 282.643 445.485 282.813 445.145 282.643C444.805 282.473 444.295 282.134 443.785 282.134C443.445 282.134 443.275 281.795 443.445 281.456L443.615 280.269C443.615 279.93 443.445 279.59 443.105 279.59H441.915C441.575 279.59 441.235 279.93 441.065 280.269L440.895 281.456C440.895 281.795 440.554 281.965 440.214 282.134C439.704 282.304 439.194 282.473 438.684 282.643C438.344 282.813 438.004 282.813 437.834 282.473L437.154 281.625C436.984 281.286 436.474 281.286 436.134 281.625L435.284 282.473C434.944 282.813 434.944 283.152 435.114 283.491L435.794 284.339C435.964 284.509 435.964 284.848 435.794 285.187C435.454 285.696 435.284 286.035 434.944 286.544C434.774 286.883 434.604 287.053 434.264 287.053H433.074C432.734 287.053 432.394 287.392 432.224 287.731L432.054 288.918C432.054 289.257 432.224 289.596 432.564 289.596H433.754C434.094 289.596 434.264 289.766 434.264 290.105C434.264 290.614 434.434 291.123 434.604 291.462C434.774 291.801 434.604 291.971 434.264 292.31L433.244 293.158C432.904 293.497 432.904 293.836 433.074 294.176L433.754 295.024C433.924 295.363 434.434 295.363 434.774 295.024L435.624 294.176C435.794 294.006 436.134 293.836 436.474 294.006C436.814 294.176 437.324 294.515 437.834 294.515C438.174 294.515 438.344 294.854 438.174 295.193L438.004 296.38C438.004 296.72 438.174 297.059 438.514 297.059H439.704C440.044 297.059 440.384 296.72 440.555 296.38L440.725 295.193C440.725 294.854 441.065 294.684 441.405 294.515C441.915 294.345 442.425 294.176 442.935 294.006C443.275 293.836 443.615 293.836 443.785 294.176L444.465 295.024C444.635 295.363 445.145 295.363 445.485 295.024L446.335 294.176C446.675 293.836 446.675 293.497 446.505 293.158L445.825 292.31C445.655 292.14 445.655 291.801 445.825 291.462C446.165 290.953 446.335 290.614 446.675 290.105C446.845 289.766 447.015 289.596 447.355 289.596H448.545C448.885 289.596 449.225 289.257 449.395 288.918L449.565 287.731C449.905 287.392 449.565 287.053 449.225 287.053ZM440.555 292.31C438.344 292.31 436.984 290.614 437.324 288.409C437.664 286.205 439.704 284.509 441.915 284.509C444.125 284.509 445.485 286.205 445.145 288.409C444.635 290.444 442.595 292.31 440.555 292.31Z" fill="#00B28F" fill-opacity="0.9"/>
<path d="M441.234 311.644H439.534C439.024 311.644 438.854 311.305 438.684 310.965C438.684 310.287 438.514 309.609 438.174 308.93C438.004 308.591 438.174 308.082 438.514 307.743L439.874 306.556C440.384 306.217 440.384 305.538 440.044 305.199L439.024 304.012C438.684 303.673 438.174 303.673 437.664 304.012L436.304 305.199C435.964 305.538 435.454 305.538 435.114 305.369C434.604 305.03 433.924 304.69 433.244 304.521C432.904 304.351 432.564 304.012 432.734 303.673L433.074 301.977C433.244 301.468 432.734 300.959 432.224 300.959H430.694C430.184 300.959 429.673 301.468 429.503 301.977L429.163 303.673C429.163 304.182 428.653 304.521 428.313 304.521C427.633 304.69 426.783 305.03 426.103 305.369C425.763 305.538 425.253 305.538 424.913 305.199L423.893 304.012C423.553 303.673 423.043 303.673 422.533 304.012L421.173 305.199C420.663 305.538 420.663 306.217 421.003 306.556L422.023 307.743C422.193 308.082 422.363 308.591 422.023 308.93C421.513 309.609 421.173 310.287 420.833 310.965C420.663 311.305 420.153 311.644 419.813 311.644H418.112C417.602 311.644 417.092 312.153 416.922 312.661L416.582 314.188C416.412 314.696 416.922 315.205 417.432 315.205H419.133C419.643 315.205 419.813 315.544 419.983 315.884C419.983 316.562 420.153 317.24 420.493 317.919C420.663 318.258 420.493 318.767 420.153 319.106L418.793 320.293C418.282 320.632 418.282 321.311 418.622 321.65L419.643 322.837C419.983 323.176 420.493 323.176 421.003 322.837L422.363 321.65C422.703 321.311 423.213 321.311 423.553 321.48C424.063 321.819 424.743 322.159 425.423 322.328C425.763 322.498 426.103 322.837 425.933 323.176L425.593 324.872C425.423 325.381 425.933 325.89 426.443 325.89H427.973C428.483 325.89 428.993 325.381 429.163 324.872L429.503 323.176C429.503 322.667 430.013 322.328 430.354 322.328C431.034 322.159 431.884 321.819 432.564 321.48C432.904 321.311 433.414 321.311 433.754 321.65L434.774 322.837C435.114 323.176 435.624 323.176 436.134 322.837L437.494 321.65C438.004 321.311 438.004 320.632 437.664 320.293L436.644 319.106C436.474 318.767 436.304 318.258 436.644 317.919C437.154 317.24 437.494 316.562 437.834 315.884C438.004 315.544 438.514 315.205 438.854 315.205H440.554C441.064 315.205 441.575 314.696 441.745 314.188L442.085 312.661C442.255 312.153 441.915 311.644 441.234 311.644ZM428.653 319.106C425.593 319.106 423.553 316.562 424.063 313.509C424.573 310.457 427.633 307.913 430.694 307.913C433.754 307.913 435.794 310.457 435.284 313.509C434.774 316.562 431.884 319.106 428.653 319.106Z" fill="#00B28F" fill-opacity="0.9"/>
<path d="M110.046 250.25H100.015L102.055 238.379H112.256L110.046 250.25Z" fill="#00B28F" fill-opacity="0.9"/>
<path d="M124.837 250.25H114.636L118.207 230.577H128.238L124.837 250.25Z" fill="#00B28F" fill-opacity="0.9"/>
<path d="M139.458 250.25H129.428L135.208 217.518H145.239L139.458 250.25Z" fill="#00B28F" fill-opacity="0.9"/>
<path d="M154.079 250.25H144.049L151.359 208.869H161.39L154.079 250.25Z" fill="#00B28F" fill-opacity="0.9"/>
<path d="M397.541 13.834H384.45L386.83 0.775146H399.921L397.541 13.834Z" fill="#00B28F" fill-opacity="0.9"/>
<path d="M416.582 13.834H403.491L405.871 0.775146H418.962L416.582 13.834Z" fill="#00B28F" fill-opacity="0.9"/>
<path d="M435.624 13.834H422.533L424.913 0.775146H438.004L435.624 13.834Z" fill="#00B28F" fill-opacity="0.9"/>
<path d="M47.3103 126.106C48.4371 126.106 49.3505 125.195 49.3505 124.071C49.3505 122.947 48.4371 122.036 47.3103 122.036C46.1836 122.036 45.2701 122.947 45.2701 124.071C45.2701 125.195 46.1836 126.106 47.3103 126.106Z" fill="#00B28F" fill-opacity="0.9"/>
<path d="M116.676 48.262C116.676 49.2795 115.826 50.2971 114.636 50.2971C113.616 50.2971 112.596 49.4491 112.596 48.262C112.596 47.2444 113.446 46.2268 114.636 46.2268C115.826 46.2268 116.676 47.2444 116.676 48.262Z" fill="#00B28F" fill-opacity="0.9"/>
<path d="M125.007 446.642C126.134 446.642 127.047 445.731 127.047 444.607C127.047 443.483 126.134 442.572 125.007 442.572C123.88 442.572 122.967 443.483 122.967 444.607C122.967 445.731 123.88 446.642 125.007 446.642Z" fill="#00B28F" fill-opacity="0.9"/>
<path d="M78.0829 222.267C78.0829 223.285 77.2328 224.302 76.0427 224.302C75.0226 224.302 74.0026 223.454 74.0026 222.267C74.0026 221.25 74.8526 220.232 76.0427 220.232C77.2328 220.402 78.0829 221.25 78.0829 222.267Z" fill="#00B28F" fill-opacity="0.9"/>
<path d="M508.73 219.553C509.857 219.553 510.77 218.642 510.77 217.518C510.77 216.394 509.857 215.483 508.73 215.483C507.604 215.483 506.69 216.394 506.69 217.518C506.69 218.642 507.604 219.553 508.73 219.553Z" fill="#00B28F" fill-opacity="0.9"/>
<path d="M514.681 113.217C514.681 114.235 513.831 115.252 512.641 115.252C511.62 115.252 510.6 114.404 510.6 113.217C510.6 112.199 511.45 111.182 512.641 111.182C513.831 111.182 514.681 112.199 514.681 113.217Z" fill="#00B28F" fill-opacity="0.9"/>
<path d="M405.531 431.887C406.658 431.887 407.572 430.976 407.572 429.852C407.572 428.728 406.658 427.817 405.531 427.817C404.405 427.817 403.491 428.728 403.491 429.852C403.491 430.976 404.405 431.887 405.531 431.887Z" fill="#00B28F" fill-opacity="0.9"/>
<path d="M500.739 378.804C501.866 378.804 502.78 377.893 502.78 376.769C502.78 375.645 501.866 374.734 500.739 374.734C499.613 374.734 498.699 375.645 498.699 376.769C498.699 377.893 499.613 378.804 500.739 378.804Z" fill="#00B28F" fill-opacity="0.9"/>
<path d="M291.281 4.50634C291.281 5.52392 290.431 6.54149 289.241 6.54149C288.221 6.54149 287.201 5.69351 287.201 4.50634C287.201 3.48877 288.051 2.47119 289.241 2.47119C290.431 2.64079 291.281 3.48877 291.281 4.50634Z" fill="#00B28F" fill-opacity="0.9"/>
<path d="M4.12667 372.02C4.12667 373.038 3.2766 374.055 2.08649 374.055C1.0664 374.055 0.0463181 373.207 0.0463181 372.02C0.0463181 371.002 0.896388 369.985 2.08649 369.985C3.2766 370.154 4.12667 371.002 4.12667 372.02Z" fill="#00B28F" fill-opacity="0.9"/>
<path d="M534.403 171.558C534.403 174.611 532.022 176.985 528.962 176.985C525.902 176.985 523.522 174.611 523.522 171.558C523.522 168.505 525.902 166.131 528.962 166.131C531.852 166.131 534.403 168.505 534.403 171.558Z" stroke="#00B28F" stroke-width="2" stroke-miterlimit="10"/>
<path d="M475.747 419.337C475.747 422.39 473.367 424.764 470.307 424.764C467.247 424.764 464.866 422.39 464.866 419.337C464.866 416.285 467.247 413.91 470.307 413.91C473.367 413.91 475.747 416.454 475.747 419.337Z" stroke="#00B28F" stroke-width="2" stroke-miterlimit="10"/>
<path d="M245.038 7.38918C245.038 10.4419 242.657 12.8162 239.597 12.8162C236.537 12.8162 234.157 10.4419 234.157 7.38918C234.157 4.33646 236.537 1.96212 239.597 1.96212C242.657 1.79252 245.038 4.33646 245.038 7.38918Z" stroke="#00B28F" stroke-width="2" stroke-miterlimit="10"/>
<path d="M163 49.52L167.492 27.48L174.772 27.4951C177.246 27.5456 179.11 28.0653 180.365 29.0543C181.619 30.0433 182.152 31.4056 181.963 33.1414C181.833 34.2918 181.341 35.2959 180.489 36.1537C179.637 37.0014 178.483 37.6473 177.027 38.0913C178.258 38.4142 179.217 39.0449 179.903 39.9835C180.59 40.9119 180.88 41.9816 180.773 43.1926C180.596 45.11 179.684 46.6439 178.039 47.7943C176.405 48.9448 174.269 49.52 171.629 49.52H163ZM167.332 38.9238L165.486 47.9457L171.7 47.9609C173.57 47.9609 175.139 47.5421 176.405 46.7045C177.684 45.8669 178.424 44.7063 178.625 43.2229C178.779 41.9412 178.435 40.9169 177.595 40.15C176.766 39.383 175.553 38.9793 173.955 38.939L167.332 38.9238ZM167.634 37.3647L173.298 37.3798C175.145 37.3597 176.642 36.961 177.79 36.184C178.95 35.4069 179.613 34.3675 179.779 33.0657C180.075 30.5125 178.388 29.1855 174.719 29.0846L169.339 29.0694L167.634 37.3647Z" fill="#14002E"/>
<path d="M166.954 48.36L168.616 48.5416L167.864 53L166.202 52.8184L166.954 48.36Z" fill="#14002E"/>
<path d="M171.425 24L173.086 24.1887L172.334 28.8214L170.673 28.6327L171.425 24Z" fill="#14002E"/>
<path d="M172.543 48.36L174.204 48.5416L173.452 53L171.791 52.8184L172.543 48.36Z" fill="#14002E"/>
<path d="M177.013 24L178.674 24.1887L177.923 28.8214L176.261 28.6327L177.013 24Z" fill="#14002E"/>
<path fill-rule="evenodd" clip-rule="evenodd" d="M433.628 360.27C433.522 360.285 433.399 360.354 433.327 360.44C433.295 360.478 432.289 361.739 431.093 363.24C429.897 364.742 428.033 367.081 426.951 368.439C424.858 371.065 424.916 370.986 424.926 371.177C424.932 371.306 425.012 371.457 425.118 371.542C425.17 371.584 426.699 372.666 428.517 373.947C430.334 375.228 431.858 376.302 431.902 376.334C431.971 376.383 432.007 376.394 432.137 376.407L432.291 376.423L432.788 376.202C433.062 376.081 434.792 375.321 436.633 374.515C438.629 373.64 440.012 373.023 440.059 372.987C440.217 372.865 440.294 372.64 440.239 372.465C440.227 372.426 439.894 371.764 439.499 370.992C438.318 368.68 435.306 362.782 434.711 361.613C434.405 361.013 434.131 360.491 434.101 360.453C434.002 360.324 433.801 360.246 433.628 360.27ZM432.41 368.46C432.389 368.477 426.891 370.178 426.884 370.17C426.881 370.167 428.009 368.745 429.392 367.011C430.774 365.277 432.156 363.544 432.462 363.159L433.019 362.46L432.723 365.454C432.559 367.101 432.419 368.454 432.41 368.46ZM434.585 363.611C434.874 364.178 435.875 366.14 436.811 367.973C437.746 369.805 438.516 371.315 438.523 371.329C438.538 371.362 438.801 371.504 435.952 369.945L433.442 368.571L433.744 365.568C433.91 363.916 434.049 362.568 434.053 362.573C434.056 362.578 434.296 363.045 434.585 363.611ZM432.04 372.272C431.822 374.435 431.762 374.983 431.744 374.974C431.731 374.968 431.04 374.483 430.209 373.897C429.377 373.311 428.222 372.497 427.642 372.089C427.062 371.681 426.588 371.343 426.589 371.337C426.589 371.328 432.265 369.562 432.299 369.56C432.307 369.559 432.191 370.78 432.04 372.272ZM435.992 371.117C437.909 372.167 438.579 372.542 438.56 372.556C438.547 372.566 438.398 372.634 438.231 372.707C438.064 372.78 436.773 373.346 435.364 373.963C433.954 374.581 432.797 375.085 432.793 375.085C432.788 375.084 432.908 373.864 433.058 372.373C433.322 369.755 433.332 369.663 433.365 369.68C433.383 369.689 434.565 370.336 435.992 371.117ZM425.053 373.186C424.938 373.214 424.826 373.295 424.757 373.401C424.676 373.524 424.651 373.719 424.701 373.839C424.719 373.884 424.988 374.342 425.297 374.857C425.606 375.372 426.072 376.147 426.331 376.579C427.155 377.95 428.91 380.874 429.948 382.603C430.499 383.522 430.963 384.292 430.979 384.313C431.021 384.371 431.17 384.459 431.263 384.481C431.363 384.505 431.531 384.478 431.627 384.422C431.665 384.399 431.835 384.229 432.006 384.042C432.176 383.856 432.879 383.088 433.569 382.336C434.258 381.584 435.389 380.349 436.083 379.592C436.776 378.835 437.77 377.75 438.292 377.181C438.813 376.612 439.39 375.983 439.573 375.782C439.756 375.582 439.923 375.388 439.943 375.351C439.992 375.262 440.011 375.072 439.981 374.975C439.951 374.878 439.852 374.752 439.758 374.692C439.664 374.631 439.497 374.6 439.395 374.624C439.352 374.635 437.672 375.364 435.664 376.244C433.655 377.125 432.003 377.845 431.993 377.844C431.973 377.843 431.322 377.386 427.492 374.685C426.372 373.895 425.423 373.234 425.383 373.215C425.293 373.173 425.157 373.161 425.053 373.186ZM429.222 377.143L431.386 378.669L431.204 380.523C431.104 381.542 431.016 382.375 431.008 382.374C431 382.373 430.974 382.338 430.951 382.296C430.927 382.255 430.621 381.744 430.271 381.161C428.248 377.794 426.884 375.52 426.885 375.513C426.887 375.496 427.066 375.621 429.222 377.143ZM437.416 376.628C437.363 376.688 437.134 376.938 435.831 378.36C435.394 378.837 434.848 379.433 434.619 379.684C432.988 381.466 432.094 382.44 432.068 382.462C432.043 382.483 432.065 382.227 432.226 380.629L432.414 378.772L434.924 377.671C436.305 377.066 437.442 376.57 437.45 376.571C437.459 376.571 437.443 376.597 437.416 376.628Z" fill="#14002E"/>
<defs>
<linearGradient id="paint0_linear" x1="434" y1="39.9999" x2="161.5" y2="468" gradientUnits="userSpaceOnUse">
<stop stop-color="#1B0637"/>
<stop offset="0.0001" stop-color="#1B0536" stop-opacity="0.7"/>
<stop offset="1" stop-color="#17042B" stop-opacity="0.4"/>
</linearGradient>
<linearGradient id="paint1_linear" x1="362.274" y1="499.888" x2="483.096" y2="112.404" gradientUnits="userSpaceOnUse">
<stop stop-color="#8C8CBE" stop-opacity="0"/>
<stop offset="1" stop-color="#9C9CC4" stop-opacity="0.63"/>
</linearGradient>
<linearGradient id="paint2_linear" x1="86.5747" y1="429.941" x2="281.569" y2="267.041" gradientUnits="userSpaceOnUse">
<stop stop-color="#5F5FA2" stop-opacity="0"/>
<stop offset="1" stop-color="#8585FF"/>
</linearGradient>
<radialGradient id="paint3_radial" cx="0" cy="0" r="1" gradientUnits="userSpaceOnUse" gradientTransform="translate(285.781 317.354) rotate(121.462) scale(81.7827 60.9308)">
<stop stop-color="white"/>
<stop offset="1" stop-color="#AC82C0" stop-opacity="0"/>
</radialGradient>
<linearGradient id="paint4_linear" x1="72.1456" y1="430.969" x2="266.627" y2="269.099" gradientUnits="userSpaceOnUse">
<stop stop-color="#5A5AB4" stop-opacity="0"/>
<stop offset="1" stop-color="#8686FF" stop-opacity="0.78"/>
</linearGradient>
<radialGradient id="paint5_radial" cx="0" cy="0" r="1" gradientUnits="userSpaceOnUse" gradientTransform="translate(271.5 306.5) rotate(121.462) scale(81.7827 60.9308)">
<stop stop-color="white"/>
<stop offset="1" stop-color="#AC82C0" stop-opacity="0"/>
</radialGradient>
<linearGradient id="paint6_linear" x1="92.0493" y1="320.074" x2="345.527" y2="335.59" gradientUnits="userSpaceOnUse">
<stop stop-color="#615793"/>
<stop offset="1" stop-color="#8381DC"/>
</linearGradient>
<linearGradient id="paint7_linear" x1="87.443" y1="360.439" x2="322.064" y2="360.439" gradientUnits="userSpaceOnUse">
<stop stop-color="#5843BA"/>
<stop offset="1" stop-color="#E2E3FF"/>
</linearGradient>
<linearGradient id="paint8_linear" x1="465.339" y1="261.244" x2="297.922" y2="98.7377" gradientUnits="userSpaceOnUse">
<stop stop-color="#8484FF" stop-opacity="0"/>
<stop offset="1" stop-color="#7B7BBE"/>
</linearGradient>
<radialGradient id="paint9_radial" cx="0" cy="0" r="1" gradientUnits="userSpaceOnUse" gradientTransform="translate(333 213) rotate(30.4833) scale(81.8077 64.7631)">
<stop stop-color="white"/>
<stop offset="1" stop-color="#AC82C0" stop-opacity="0"/>
</radialGradient>
<linearGradient id="paint10_linear" x1="447.303" y1="250.958" x2="300.495" y2="100.958" gradientUnits="userSpaceOnUse">
<stop stop-color="#7D7DC7" stop-opacity="0"/>
<stop offset="1" stop-color="#8686FF"/>
</linearGradient>
<radialGradient id="paint11_radial" cx="0" cy="0" r="1" gradientUnits="userSpaceOnUse" gradientTransform="translate(310 167) rotate(30.4785) scale(88.0789 69.7277)">
<stop stop-color="white"/>
<stop offset="1" stop-color="#AC82C0" stop-opacity="0"/>
</radialGradient>
<linearGradient id="paint12_linear" x1="273.937" y1="195.023" x2="453.112" y2="195.023" gradientUnits="userSpaceOnUse">
<stop stop-color="#E2E3FF"/>
<stop offset="1" stop-color="#5843BA"/>
</linearGradient>
<linearGradient id="paint13_linear" x1="108.877" y1="146.348" x2="277.606" y2="102.178" gradientUnits="userSpaceOnUse">
<stop stop-color="#5A5AB4" stop-opacity="0"/>
<stop offset="1" stop-color="#9898FF" stop-opacity="0.76"/>
</linearGradient>
<radialGradient id="paint14_radial" cx="0" cy="0" r="1" gradientUnits="userSpaceOnUse" gradientTransform="translate(244.781 140.354) rotate(146.155) scale(51.1713 39.8245)">
<stop stop-color="white"/>
<stop offset="1" stop-color="#AC82C0" stop-opacity="0"/>
</radialGradient>
<linearGradient id="paint15_linear" x1="94.5957" y1="135.494" x2="263.325" y2="91.3241" gradientUnits="userSpaceOnUse">
<stop stop-color="#8E8EFF" stop-opacity="0"/>
<stop offset="1" stop-color="#5A5AB4"/>
</linearGradient>
<radialGradient id="paint16_radial" cx="0" cy="0" r="1" gradientUnits="userSpaceOnUse" gradientTransform="translate(230.5 129.5) rotate(146.155) scale(51.1713 39.8245)">
<stop stop-color="white"/>
<stop offset="1" stop-color="#AC82C0" stop-opacity="0"/>
</radialGradient>
<linearGradient id="paint17_linear" x1="102.035" y1="116.721" x2="250.447" y2="124.466" gradientUnits="userSpaceOnUse">
<stop stop-color="#1D1546"/>
<stop offset="1" stop-color="#5E5CC9"/>
</linearGradient>
<linearGradient id="paint18_linear" x1="98.9428" y1="150.152" x2="236.019" y2="150.152" gradientUnits="userSpaceOnUse">
<stop stop-color="#5843BA"/>
<stop offset="1" stop-color="#E2E3FF"/>
</linearGradient>
</defs>
</svg>
