<svg width="490" height="516" viewBox="0 0 490 516" fill="none" xmlns="http://www.w3.org/2000/svg">
<path opacity="0.1" d="M229.859 401.273C226.047 403.389 226.047 406.917 229.859 409.033L354.368 481.413C358.038 483.529 364.108 483.529 367.92 481.413L397.141 467.727C400.953 465.611 400.953 462.083 397.141 459.967L272.632 387.587C268.962 385.471 262.892 385.471 259.08 387.587L229.859 401.273Z" fill="#14002E"/>
<path opacity="0.53" d="M174 156.426V159.568C174 161.425 176 162.567 177.571 161.71L213.857 140.716C214.571 140.288 215 139.431 215 138.574V135.432C215 133.575 213 132.433 211.429 133.29L175.143 154.284C174.429 154.712 174 155.569 174 156.426Z" fill="#D5EEFF"/>
<path d="M195.455 97.9123V101.029C195.455 102.871 197.438 104.004 198.996 103.154L213.725 94.654C214.434 94.229 214.858 93.379 214.858 92.529V89.4123C214.858 87.5706 212.876 86.4373 211.318 87.2873L196.588 95.7873C195.88 96.354 195.455 97.0623 195.455 97.9123Z" fill="#00A5B9"/>
<path d="M149 140.413V143.529C149 145.371 150.983 146.504 152.541 145.654L213.867 110.237C214.575 109.812 215 108.962 215 108.112V104.996C215 103.154 213.017 102.021 211.459 102.871L150.133 138.288C149.425 138.713 149 139.563 149 140.413Z" fill="#00A5B9"/>
<path d="M158.489 150.471V153.588C158.489 155.429 160.472 156.563 162.03 155.713L213.867 125.821C214.575 125.396 215 124.546 215 123.696V120.579C215 118.737 213.017 117.604 211.459 118.454L159.622 148.346C158.914 148.771 158.489 149.621 158.489 150.471Z" fill="#00A5B9"/>
<path opacity="0.37" d="M478.745 144.751C479.442 145.176 480 146.025 480 146.875V168.122C480 168.83 479.442 169.255 478.745 168.83L452.255 153.249C451.558 152.824 451 151.975 451 151.125V129.878C451 129.17 451.558 128.745 452.255 129.17L478.745 144.751Z" fill="#8ED2FF"/>
<path d="M488.745 182.751C489.442 183.176 490 184.025 490 184.875V206.122C490 206.83 489.442 207.255 488.745 206.83L462.255 191.249C461.558 190.824 461 189.975 461 189.125V167.878C461 167.17 461.558 166.745 462.255 167.17L488.745 182.751Z" fill="#D2EDFE"/>
<path opacity="0.37" d="M215.156 202.23C215.578 202.514 216 203.082 216 203.65V217.432C216 218 215.578 218.142 215.156 217.858L197.844 207.77C197.422 207.486 197 206.918 197 206.35V192.568C197 192 197.422 191.858 197.844 192.142L215.156 202.23Z" fill="#8ED2FF"/>
<path d="M222.156 227.23C222.578 227.514 223 228.082 223 228.65V242.432C223 243 222.578 243.142 222.156 242.858L204.844 232.77C204.422 232.486 204 231.918 204 231.35V217.568C204 217 204.422 216.858 204.844 217.142L222.156 227.23Z" fill="#D2EDFE"/>
<path d="M399.134 86.3459C399.276 86.4877 399.276 86.4876 399.418 86.6294C400.268 87.3383 401.119 88.0473 401.828 88.7562C401.969 88.898 401.969 88.898 402.111 89.0397C402.962 89.7487 403.67 90.5994 404.521 91.4501L404.663 91.5918C405.513 92.4425 406.364 93.435 407.073 94.2857C407.923 95.2782 408.632 96.2707 409.483 97.2632C410.192 98.2556 410.9 99.1063 411.467 100.099C411.893 100.666 412.318 101.375 412.602 101.942C412.885 102.509 413.31 102.934 413.594 103.502C413.736 103.785 413.877 104.069 414.019 104.211C414.586 105.061 415.011 106.054 415.437 106.904C415.437 107.046 415.579 107.046 415.579 107.188C416.146 108.322 416.713 109.457 417.138 110.591C417.138 110.591 417.138 110.733 417.28 110.733C420.398 117.822 422.1 125.194 422.1 132L435 124.485C435 118.389 433.582 112.009 431.172 105.628C431.031 105.203 430.747 104.636 430.605 104.211C430.464 103.927 430.322 103.502 430.18 103.218C430.18 103.218 430.18 103.076 430.038 103.076C430.038 103.076 430.038 102.934 429.897 102.934C429.755 102.509 429.471 101.942 429.329 101.517C429.046 100.95 428.904 100.524 428.621 99.9571C428.621 99.8153 428.479 99.8153 428.479 99.6735C428.479 99.5317 428.337 99.5317 428.337 99.3899C428.195 98.9646 427.912 98.5392 427.77 98.1139C427.487 97.5467 427.203 97.1214 426.92 96.696C426.778 96.4125 426.636 96.1289 426.494 95.9871C426.494 95.8453 426.352 95.8453 426.352 95.7036C426.069 95.2782 425.785 94.8528 425.502 94.4275C425.077 93.8604 424.793 93.1514 424.368 92.5843C424.368 92.4425 424.226 92.4425 424.226 92.3008C423.659 91.4501 423.092 90.5994 422.383 89.7487C421.958 89.1815 421.533 88.6144 421.107 88.0473C420.824 87.6219 420.398 87.1966 419.973 86.7712C419.548 86.3459 419.264 85.9205 418.839 85.4952C418.414 85.0698 418.13 84.6445 417.705 84.2191L417.563 84.0773C417.563 83.9356 417.421 83.9356 417.421 83.9356C417.138 83.652 416.854 83.3684 416.571 83.0849C416.146 82.6595 415.72 82.2342 415.295 81.9506C415.153 81.8088 415.011 81.667 414.87 81.5252C414.728 81.3835 414.728 81.3835 414.586 81.2417C414.444 81.0999 414.161 80.8163 414.019 80.6745C413.594 80.2492 413.169 79.9656 412.743 79.5403C412.602 79.3985 412.318 79.2567 412.176 79.1149C412.034 78.9732 412.034 78.9731 411.893 78.8314C411.751 78.6896 411.609 78.5478 411.467 78.5478C411.042 78.2642 410.617 77.8389 410.192 77.5553C409.908 77.2718 409.624 77.13 409.199 76.8464L409.057 76.7046L408.916 76.5628C408.49 76.2793 408.065 75.9957 407.64 75.7121C407.215 75.4286 406.789 75.145 406.364 75.0032C406.222 75.0032 406.222 74.8614 406.08 74.8614L283.172 3.82815C282.889 3.68637 282.605 3.54458 282.322 3.26101C281.897 2.97745 281.471 2.83566 281.188 2.69388C280.904 2.5521 280.621 2.41031 280.479 2.26853C280.479 2.26853 280.337 2.26853 280.337 2.12675C280.195 2.12675 280.195 1.98496 280.054 1.98496C279.628 1.84318 279.345 1.70139 278.92 1.55961C278.494 1.41783 278.211 1.27605 277.785 1.13427H277.644H277.502C277.218 0.992486 276.935 0.992479 276.651 0.850696C276.226 0.708913 275.801 0.567134 275.517 0.567134C275.375 0.567134 275.092 0.425353 274.95 0.425353C274.808 0.425353 274.808 0.425353 274.667 0.425353C274.525 0.425353 274.383 0.425356 274.241 0.283573C273.816 0.14179 273.391 0.141781 272.966 0.141781C272.682 0.141781 272.398 0.141783 272.257 0C272.115 0 272.115 0 271.973 0C271.831 0 271.831 0 271.69 0C271.264 0 270.839 0 270.272 0C270.13 0 269.847 0 269.705 0C269.563 0 269.421 0 269.28 0C269.138 0 268.996 0 268.854 0C268.287 0 267.72 0.14179 267.153 0.283573C267.011 0.283573 266.87 0.28357 266.87 0.425353C266.303 0.567136 265.736 0.708913 265.169 0.850696C265.169 0.850696 265.027 0.850705 265.027 0.992488C264.885 0.992488 264.885 1.13427 264.743 1.13427C264.034 1.41783 263.467 1.7014 262.9 1.98496L250 9.49947C250.567 9.2159 251.276 8.79055 251.843 8.64876C251.985 8.64876 251.985 8.50698 252.126 8.50698C252.693 8.22342 253.261 8.08163 253.969 7.93985C254.111 7.93985 254.253 7.79807 254.253 7.79807C254.962 7.65628 255.67 7.51451 256.379 7.51451C256.521 7.51451 256.663 7.51451 256.805 7.51451C257.513 7.51451 258.222 7.51451 258.931 7.51451C259.073 7.51451 259.073 7.51451 259.215 7.51451C260.065 7.65629 260.774 7.65628 261.625 7.93985C261.766 7.93985 261.766 7.93985 261.908 7.93985C262.759 8.08163 263.609 8.3652 264.46 8.64876H264.602C265.452 8.93233 266.444 9.35768 267.295 9.78303C267.295 9.78303 267.437 9.78303 267.437 9.92481C268.429 10.3502 269.28 10.9173 270.272 11.3426L393.464 82.5177C394.456 83.0849 395.448 83.652 396.299 84.3609L396.441 84.5027C397.291 85.0698 398.142 85.637 399.134 86.3459Z" fill="url(#paint0_linear)"/>
<path d="M434.86 123.701C434.86 123.276 434.86 122.71 434.86 122.285C434.86 121.86 434.86 121.294 434.72 120.869C434.72 120.444 434.58 119.878 434.58 119.453C434.58 119.028 434.439 118.461 434.439 118.037C434.299 117.612 434.299 117.045 434.159 116.621C434.019 116.054 434.019 115.629 433.879 115.063C433.739 114.496 433.599 114.072 433.599 113.505C433.459 112.939 433.318 112.514 433.178 111.948C433.038 111.381 432.898 110.956 432.758 110.39C432.618 109.823 432.478 109.399 432.338 108.832C432.197 108.407 432.057 107.841 431.777 107.416C431.637 106.991 431.497 106.425 431.217 106L418.465 113.505C418.605 113.93 418.885 114.496 419.025 114.921C419.166 115.346 419.306 115.913 419.586 116.337C419.726 116.904 419.866 117.329 420.006 117.895C420.146 118.461 420.287 118.886 420.427 119.453C420.567 120.019 420.707 120.444 420.847 121.01C420.987 121.577 421.127 122.002 421.127 122.568C421.267 123.135 421.268 123.559 421.408 124.126C421.548 124.551 421.548 125.117 421.688 125.542C421.828 125.967 421.828 126.533 421.828 126.958C421.828 127.383 421.968 127.949 421.968 128.374C421.968 128.799 422.108 129.365 422.108 129.79C422.108 130.215 422.108 130.781 422.108 131.206C422.108 131.631 422.108 132.056 422.108 132.481L421.268 427.591C421.268 428.724 421.267 429.715 421.127 430.706C421.127 430.848 421.127 430.848 421.127 430.99C420.987 431.981 420.847 432.831 420.707 433.68C420.707 433.822 420.707 433.963 420.707 433.963C420.567 434.813 420.287 435.663 420.146 436.371C420.146 436.512 420.006 436.654 420.006 436.795C419.726 437.504 419.446 438.212 419.166 438.92C419.166 439.061 419.166 439.061 419.025 439.203C418.745 439.911 418.325 440.619 417.904 441.327C417.904 441.469 417.764 441.469 417.764 441.61C417.484 442.177 417.064 442.601 416.643 443.026C416.503 443.168 416.363 443.309 416.223 443.451C415.943 443.876 415.522 444.159 415.102 444.442C414.962 444.584 414.822 444.726 414.682 444.867C414.121 445.292 413.561 445.717 413 446L425.752 438.495C426.312 438.212 426.873 437.787 427.433 437.362C427.573 437.22 427.713 437.079 427.853 436.937C428.274 436.654 428.554 436.229 428.975 435.946C429.115 435.804 429.255 435.663 429.395 435.521C429.815 435.096 430.096 434.53 430.516 434.105C430.516 433.963 430.656 433.963 430.656 433.822C431.076 433.255 431.357 432.547 431.777 431.839C431.777 431.698 431.777 431.698 431.917 431.556C432.057 431.131 432.338 430.706 432.478 430.14C432.618 429.857 432.618 429.715 432.758 429.432C432.758 429.29 432.898 429.149 432.898 429.007C432.898 428.865 433.038 428.724 433.038 428.582C433.178 428.157 433.318 427.591 433.459 427.166C433.459 427.025 433.599 426.741 433.599 426.6C433.599 426.458 433.599 426.317 433.599 426.317C433.599 426.175 433.739 426.033 433.739 425.75C433.879 425.325 433.879 424.9 433.879 424.334C433.879 424.051 433.879 423.768 434.019 423.484C434.019 423.343 434.019 423.343 434.019 423.201C434.019 423.06 434.019 422.918 434.019 422.918C434.019 422.493 434.019 422.068 434.159 421.502C434.159 421.077 434.159 420.652 434.159 420.086C434.159 420.086 434.159 420.086 434.159 419.944L435 124.834C434.86 124.551 434.86 124.126 434.86 123.701Z" fill="url(#paint1_linear)"/>
<path d="M393.339 82.0088C409.152 91.2079 422 113.427 422 131.684L421.153 426.619C421.153 444.876 408.164 452.235 392.351 443.036L269.661 371.991C253.848 362.792 241 340.573 241 322.316L241.847 27.3806C241.847 9.12403 254.836 1.76479 270.649 10.9638L393.339 82.0088Z" fill="url(#paint2_linear)"/>
<path d="M348.442 84.5348C350.434 85.6537 352 88.3109 352 90.5486C352 92.7863 350.434 93.6254 348.442 92.5066L316.558 74.4652C314.566 73.3463 313 70.6891 313 68.4514C313 66.2137 314.566 65.3746 316.558 66.4934L348.442 84.5348Z" fill="url(#paint3_linear)"/>
<path d="M331.571 365.346C336.857 368.282 341 375.554 341 381.427C341 387.301 336.714 389.678 331.429 386.741C326.143 383.805 322 376.533 322 370.66C322.143 364.646 326.429 362.269 331.571 365.346Z" fill="url(#paint4_linear)"/>
<path d="M409.173 145.606C410.728 146.596 412 148.717 412 150.556L411.293 396.946C411.293 398.785 410.021 399.492 408.325 398.644L253.827 309.394C252.272 308.404 251 306.283 251 304.444L251.707 58.0536C251.707 56.2149 252.979 55.5077 254.675 56.3563L409.173 145.606Z" fill="#F9FBFC"/>
<path d="M429 231.325C427.923 231.325 427 230.478 427 229.49V174.836C427 173.847 427.923 173 429 173C430.077 173 431 173.847 431 174.836V229.49C431 230.478 430.077 231.325 429 231.325Z" fill="#F9FBFC"/>
<path d="M429 299.395C427.923 299.395 427 298.548 427 297.56V242.906C427 241.917 427.923 241.07 429 241.07C430.077 241.07 431 241.917 431 242.906V297.56C431 298.548 430.077 299.395 429 299.395Z" fill="#F9FBFC"/>
<path d="M429 383C427.923 383 427 382.153 427 381.164V352.778C427 351.79 427.923 350.942 429 350.942C430.077 350.942 431 351.79 431 352.778V381.164C431 382.153 430.077 383 429 383Z" fill="#F9FBFC"/>
<path d="M330.571 163.029C338.493 167.571 344.859 178.645 345 187.872C345 188.014 345 188.014 345 188.156C344.717 188.298 338.351 190.854 330.288 186.311C330.146 186.311 330.146 186.169 330.005 186.169C323.78 182.478 318.546 175.38 316.707 172.54C316.283 171.83 316 171.405 316 171.405C316.141 162.035 322.507 158.344 330.571 163.029Z" fill="white"/>
<path opacity="0.2" d="M395.735 243.087C397.581 244.08 399 246.774 399 248.758V262.653C399 264.779 397.439 265.63 395.735 264.496L268.265 190.913C266.419 189.92 265 187.226 265 185.242V171.347C265 169.22 266.561 168.37 268.265 169.504L395.735 243.087Z" fill="#00A5B9"/>
<path d="M352.148 160.169C352.861 162.571 353.43 165.114 353.715 167.515C353.858 168.928 354 170.341 354 171.754C354 172.177 354 172.601 354 173.025V173.166C354 173.59 354 174.014 353.858 174.297C353.858 174.438 353.858 174.438 353.858 174.579C353.858 175.003 353.715 175.285 353.715 175.709C353.573 176.274 353.573 176.557 353.573 176.839C353.43 177.263 353.43 177.687 353.288 177.97V178.111C353.145 178.393 353.145 178.817 353.003 179.1V179.241C352.861 179.524 352.718 179.806 352.718 180.23C352.576 180.654 352.433 180.936 352.291 181.219C352.148 181.643 352.006 181.925 351.863 182.208C351.863 182.208 351.864 182.349 351.721 182.349C351.579 182.632 351.436 182.914 351.294 183.055C351.294 183.055 351.294 183.197 351.151 183.197C351.009 183.479 350.866 183.762 350.582 183.903C350.439 184.186 350.154 184.327 350.012 184.609C350.012 184.609 350.012 184.609 349.869 184.751C349.727 184.892 349.442 185.175 349.3 185.316L349.157 185.457C349.015 185.598 348.73 185.881 348.588 186.022C348.588 186.022 348.588 186.022 348.445 186.163C348.303 186.305 348.018 186.446 347.733 186.587C347.448 186.729 347.163 186.87 347.021 187.011C347.021 187.011 346.878 187.011 346.878 187.152C346.593 187.294 346.451 187.435 346.166 187.576H346.024C345.739 187.717 345.454 187.859 345.312 187.859C345.169 188 345.027 188 344.884 188C344.742 178.959 338.332 167.939 330.356 163.277C322.38 158.615 315.828 162.43 315.685 171.471C315.685 171.471 315.97 171.895 316.398 172.46C316.255 172.177 315.97 171.895 315.828 171.612C315.401 171.047 315.258 170.765 314.973 170.341L314.831 170.2C314.546 169.776 314.261 169.352 314.119 169.069C314.119 168.928 313.976 168.928 313.976 168.787C313.691 168.363 313.549 167.939 313.264 167.515C312.979 167.092 312.837 166.668 312.552 166.244C312.552 166.103 312.409 166.103 312.409 165.961C312.125 165.538 311.982 165.114 311.697 164.69C311.697 164.549 311.555 164.549 311.555 164.407C311.412 163.984 311.128 163.56 310.985 163.136C310.7 162.571 310.558 162.147 310.273 161.723C310.273 161.582 310.131 161.582 310.131 161.441C309.988 161.017 309.703 160.593 309.561 160.169C309.276 159.604 309.134 159.18 308.991 158.757C308.991 158.757 308.991 158.615 308.849 158.615C308.706 158.191 308.564 157.768 308.421 157.344C308.421 157.203 308.421 157.203 308.279 157.061C307.994 156.214 307.709 155.225 307.424 154.377C307.424 154.236 307.424 154.236 307.282 154.095C307.139 153.671 306.997 153.247 306.997 152.823C306.997 152.682 306.997 152.682 306.997 152.541C306.855 152.117 306.855 151.693 306.712 151.269C306.57 150.704 306.57 150.28 306.427 149.856C306.427 149.715 306.427 149.715 306.427 149.574C306.427 149.15 306.285 148.726 306.285 148.302C306.285 147.737 306.142 147.313 306.142 146.89C306.142 146.748 306.142 146.748 306.142 146.607C306.142 146.183 306.142 145.759 306 145.336C306 145.194 306 145.194 306 145.053C306 144.629 306 144.205 306 143.782C306 142.369 306.142 141.097 306.285 139.826C306.57 137.707 307.139 135.87 307.852 134.316C307.994 134.034 308.137 133.751 308.279 133.328C312.125 126.405 320.386 124.851 329.786 130.219C338.332 135.164 345.739 144.488 350.012 154.518C350.297 155.225 350.582 155.79 350.866 156.496C351.579 158.191 351.864 159.18 352.148 160.169ZM330.641 160.876C335.484 163.701 339.472 161.441 339.614 155.79C339.614 150.139 335.626 143.358 330.783 140.532C325.941 137.707 321.953 139.967 321.81 145.618C321.81 151.269 325.798 158.05 330.641 160.876Z" fill="url(#paint5_linear)"/>
<path d="M331.072 140.23C335.968 143.086 340 149.941 340 155.654C340 161.224 335.968 163.652 330.928 160.796C326.032 157.939 322 151.084 322 145.371C322 139.658 326.032 137.373 331.072 140.23Z" fill="white"/>
<path opacity="0.2" d="M395.735 273.087C397.581 274.08 399 276.774 399 278.758V292.653C399 294.78 397.439 295.63 395.735 294.496L268.265 220.913C266.419 219.92 265 217.368 265 215.242V201.347C265 199.22 266.561 198.37 268.265 199.504L395.735 273.087Z" fill="#00A5B9"/>
<path d="M346.182 294.765C350.589 297.295 354 303.338 354 308.257V311.489C354 316.408 350.446 318.375 346.04 315.986L304.818 292.235C300.411 289.705 297 283.662 297 278.743V275.511C297 270.592 300.554 268.625 304.96 271.014L346.182 294.765Z" fill="url(#paint6_linear)"/>
<path opacity="0.1" d="M256.5 516C282.181 516 303 503.688 303 488.5C303 473.312 282.181 461 256.5 461C230.819 461 210 473.312 210 488.5C210 503.688 230.819 516 256.5 516Z" fill="#14002E"/>
<path d="M304.221 299C304.221 299 307.122 297.179 307.847 296.198C308.572 295.217 309.587 290.033 308.572 289.753C307.557 289.473 306.832 293.256 306.832 293.256C306.832 293.256 306.541 283.589 305.381 282.188C304.221 280.787 300.305 287.652 300.16 288.913C299.87 290.033 299 294.937 299 294.937C299 294.937 300.45 299 304.221 299Z" fill="#FEB19E"/>
<path d="M233.028 327.927C233.028 327.927 225.624 335.235 230.892 343.947C236.018 352.66 271.188 331.019 274.89 327.787C278.592 324.555 303.225 302.914 304.649 300.103C306.073 297.293 302.941 294.623 299.239 295.044C295.536 295.466 280.586 311.205 268.768 318.653C268.768 318.653 240.859 324.836 233.028 327.927Z" fill="#113C7A"/>
<path d="M233.028 327.927C233.028 327.927 225.624 335.235 230.892 343.947C236.018 352.66 271.188 331.019 274.89 327.787C278.592 324.555 303.225 302.914 304.649 300.103C306.073 297.293 302.941 294.623 299.239 295.044C295.536 295.466 280.586 311.205 268.768 318.653C268.768 318.653 240.859 324.836 233.028 327.927Z" fill="url(#paint7_linear)"/>
<path d="M238.219 482.693C238.219 482.693 237.64 487.156 238.364 489.027C239.232 490.611 242.417 491.906 244.733 490.179C247.049 488.595 250.812 484.421 250.812 484.421C250.812 484.421 257.326 480.966 257.905 479.095C258.484 477.223 256.312 475.64 254.431 476.072C252.549 476.504 247.338 479.67 244.878 479.67C242.562 479.814 239.088 480.39 238.219 482.693Z" fill="#113C7A"/>
<path d="M256.417 487.861C256.139 488.135 256 488.548 256 488.96C256 490.196 256 492.944 256.694 494.043C257.666 495.417 260.443 496.928 263.498 495.28C265.997 493.906 273.911 488.135 275.438 486.899C276.41 486.075 276.826 485.113 276.965 484.426C277.104 483.739 276.826 483.052 276.132 482.777C275.021 482.228 273.078 481.678 271.412 482.228C268.774 483.052 265.58 485.8 261.97 485.662C259.471 485.525 257.388 487.036 256.417 487.861Z" fill="#113C7A"/>
<path d="M231 388.304C231 388.304 236.585 480.593 237.143 483.278C237.841 485.963 244.962 487.518 246.358 483.278C247.196 480.593 249.291 395.229 249.291 395.229L231 388.304Z" fill="url(#paint8_linear)"/>
<path d="M268 389.293C267.581 385.477 263.113 384.205 258.925 385.477C250.966 385.053 238.679 385.336 238.121 391.696C237.423 401.023 241.751 407.525 245.94 412.047C249.011 415.439 250.966 421.799 251.943 424.767C252.642 449.217 254.317 483.702 255.294 487.094C256.97 492.465 264.789 492.182 265.208 486.953C266.604 469.569 268 389.293 268 389.293Z" fill="url(#paint9_linear)"/>
<path d="M268.66 392.855C267.672 397.661 254.264 399.923 246.36 398.651C238.456 397.378 229.988 393.562 230.27 384.374C230.27 384.374 231.823 362.465 231.117 358.648C230.553 354.691 229 347.906 229 340.697C229 333.488 233.516 328.117 233.516 328.117C233.516 328.117 237.892 323.028 251.865 325.855C251.865 325.855 263.156 328.258 268.378 336.739C268.378 336.739 271.906 345.927 270.777 365.15C269.507 384.374 268.66 392.855 268.66 392.855Z" fill="url(#paint10_linear)"/>
<path d="M241.002 315.638C241.002 315.638 242.105 322.71 241.002 326.03C240.864 327.617 247.622 333.102 253.689 331.803C257.137 330.937 256.999 329.205 256.999 329.205C256.999 329.205 254.103 324.154 254.517 319.246C254.793 314.195 245.139 314.628 241.002 315.638Z" fill="#FF856A"/>
<path d="M264 301.5C264 310.526 256.667 318 247.5 318C238.333 318 231 310.667 231 301.5C231 292.474 238.333 285 247.5 285C256.667 285 264 292.474 264 301.5Z" fill="#FEB19E"/>
<path d="M263.999 302.005C263.999 302.005 264.141 318.737 260.603 322.026C257.065 325.459 251.404 318.88 242.63 316.735C233.856 314.447 249.847 297 249.847 297L263.999 302.005Z" fill="#FEB19E"/>
<path d="M301.151 327.403C301.151 327.403 299.543 320.742 300.128 320.308C300.713 319.728 302.759 322.625 302.759 322.625C302.759 322.625 303.782 315.818 304.805 315.094C305.682 314.37 309.335 317.991 309.92 319.873C310.505 321.9 307.728 329.72 306.705 329.865C305.536 330.01 301.736 330.589 301.151 327.403Z" fill="#FEB19E"/>
<path d="M263.055 334.467C263.055 334.467 255.635 338.038 258.774 347.181C261.913 356.324 285.455 359.895 288.309 357.038C291.163 354.181 303.433 339.752 307 328.895C307 328.895 305.573 324.609 300.009 326.467C300.009 326.467 286.597 343.324 284.599 345.181C282.459 346.752 266.622 333.752 263.055 334.467Z" fill="#113C7A"/>
<path d="M263.055 334.467C263.055 334.467 255.635 338.038 258.774 347.181C261.913 356.324 285.455 359.895 288.309 357.038C291.163 354.181 303.433 339.752 307 328.895C307 328.895 305.573 324.609 300.009 326.467C300.009 326.467 286.597 343.324 284.599 345.181C282.459 346.752 266.622 333.752 263.055 334.467Z" fill="url(#paint11_linear)"/>
<path d="M233.672 288.873C233.672 288.873 238.787 282.642 247.738 282.075C256.69 281.509 260.953 284.341 264.363 284.058C267.773 283.775 270.899 286.607 269.762 290.856C268.626 295.105 266.068 299.495 260.242 299.495C254.559 299.495 253.138 298.646 253.138 298.646C253.138 298.646 257.685 300.629 258.253 304.594C258.821 308.56 258.821 314.65 258.821 314.65H257.401C257.401 314.65 256.264 308.135 253.99 308.135C251.717 308.135 251.717 315.216 253.706 316.491C255.695 317.624 255.695 317.624 255.695 317.624C255.695 317.624 251.859 324.705 249.728 324.989C247.596 325.272 240.776 320.173 240.776 320.173C240.776 320.173 229.267 314.791 228.13 305.869C226.994 296.946 233.672 288.873 233.672 288.873Z" fill="#14002E"/>
<path opacity="0.1" d="M109.5 470C135.181 470 156 457.688 156 442.5C156 427.312 135.181 415 109.5 415C83.8188 415 63 427.312 63 442.5C63 457.688 83.8188 470 109.5 470Z" fill="#14002E"/>
<path d="M86 366.577C86 366.577 89.0462 386.452 91.6769 397.525C91.6769 397.525 92.2308 415.838 92.6462 422.226C93.2 428.473 94.7231 442.101 94.7231 442.101C94.7231 442.101 96.5231 443.663 98.6 442.669C98.6 442.669 101.092 403.629 101.646 397.241C102.2 390.995 104 362.602 104 362.602C104 362.602 98.0461 357.066 86 366.577Z" fill="#F5B697"/>
<path d="M106 358.408C106 358.408 109.143 378.327 111.857 389.424C111.857 389.424 112.429 407.778 112.857 414.181C113.429 420.441 115 434.099 115 434.099C115 434.099 116.857 435.664 119 434.668C119 434.668 121.571 395.542 122.143 389.14C122.714 382.88 123 354.709 123 354.709C123 354.709 118.429 349.018 106 358.408Z" fill="#F5B697"/>
<path d="M90.4121 339.585C90.4121 339.585 83.0874 347.589 87.3132 374.832C87.5949 378.764 90.1304 388.734 90.1304 388.734C90.1304 388.734 99.7088 390.279 111.259 385.925C122.669 381.572 122.951 379.185 122.951 379.185C122.951 379.185 123.514 345.062 120.838 336.215C118.302 327.368 90.4121 339.585 90.4121 339.585Z" fill="#3A205A"/>
<path d="M118.521 433C118.521 433 118.238 434.957 120.358 436.494C122.478 438.031 126.435 440.826 127 442.504C127 443.761 122.054 442.364 119.793 441.246C117.532 440.128 115.553 437.332 115.553 437.332L115.694 438.451C115.694 438.451 114.846 438.451 114.281 437.752C113.575 437.053 114.422 433.14 114.422 433.14L118.521 433Z" fill="#5167B0"/>
<path d="M99.5208 442C99.5208 442 99.2381 443.957 101.358 445.494C103.478 447.031 107.435 449.826 108 451.504C108 452.761 103.054 451.364 100.793 450.246C98.5315 449.128 96.553 446.332 96.553 446.332L96.6944 447.451C96.6944 447.451 95.8465 447.451 95.2812 446.752C94.5746 446.053 95.4225 442.14 95.4225 442.14L99.5208 442Z" fill="#5167B0"/>
<path d="M118.201 288.018C118.201 288.018 125.034 289.164 129.446 304.071C132.151 313.96 135.994 314.82 140.407 315.68C144.82 316.54 163.467 315.68 164.891 315.68C166.314 315.68 168.165 318.977 166.03 321.27C163.894 323.707 138.272 326 133.147 326C128.165 326 116.635 316.54 111.795 308.657C107.24 301.061 112.08 287.444 118.201 288.018Z" fill="url(#paint12_linear)"/>
<path d="M115.496 251.293C115.496 251.293 122.334 259.911 120.767 269.659C119.342 279.407 110.653 278.842 109.228 284.211C107.804 289.438 113.359 297.067 105.667 302.153C97.9749 307.098 94.4137 305.968 92.277 316.563C90.1402 327.159 82.8754 332.669 70.055 333.941C57.3771 335.071 48.4029 319.813 51.6792 308.652C54.9555 297.491 66.2089 301.023 68.4881 291.981C70.9097 282.939 69.9126 275.734 77.8897 272.202C85.8668 268.67 82.8754 255.39 90.8525 251.152C99.3994 246.772 109.656 244.512 115.496 251.293Z" fill="#113C7A"/>
<path d="M97.519 285.066C97.519 285.066 83.092 295.342 81.6913 298.861C80.2906 302.239 78.1896 312.938 82.9519 318.287C91.0759 327.437 86.1735 342.921 87.294 347.567C88.4146 352.212 99.3399 352.775 106.904 351.227C114.467 349.678 121.611 345.878 121.331 336.868C121.051 328 123.432 315.612 123.852 311.671C124.272 307.589 123.852 297.594 121.891 290.696C121.471 289.289 116.708 287.74 116.708 287.74C116.708 287.74 111.666 284.503 97.519 285.066Z" fill="url(#paint13_linear)"/>
<path d="M110.15 282.729C110.15 282.729 110.15 282.869 110.15 283.15C110.29 284.271 110.85 286.935 110.99 288.056C111.129 289.178 109.87 291 106.933 291C103.995 291 99.0984 289.738 97.4197 286.234C97.5596 285.673 97.2798 279.224 97 276L110.15 282.729Z" fill="#FF856A"/>
<path d="M118.363 262.884C116.786 254.339 110.045 249.639 102.301 251.348C102.301 251.348 93.9823 252.203 90.2535 259.466C86.5246 266.729 91.9745 272.853 95.4165 276.699C96.8507 278.265 97.998 279.547 98.7151 280.259C99.002 280.544 99.1454 280.829 99.4322 281.114L99.5756 281.256C102.014 283.677 104.595 284.959 106.603 285.529C109.902 286.526 113.917 285.956 116.069 283.677C118.363 281.256 119.941 271.287 118.363 262.884Z" fill="#FEB19E"/>
<path d="M118.945 268.228C118.945 268.228 112.92 268.789 109.418 264.719C105.915 260.649 101.011 264.719 96.9478 261.211C96.9478 261.211 98.6292 265.561 96.9478 269.912C95.2665 274.263 94.566 281 94.566 281L87 269.07V258.544L96.6676 249.561L109.418 249L115.583 254.895C115.583 254.754 119.506 263.877 118.945 268.228Z" fill="#113C7A"/>
<path opacity="0.43" d="M85.5692 320L103.925 325.705L121 320.974C120.715 321.67 116.162 335.307 106.344 337.673C99.2293 339.482 90.9763 333.359 86.8498 329.741C86.5652 327.236 86.1383 324.731 85 322.366L85.5692 320Z" fill="#705CBB"/>
<path d="M86.545 303.167C86.545 303.167 76.845 300.794 81.0624 313.918C85.1392 327.041 98.916 336.535 103.836 335.977C108.757 335.418 129 314.197 129 311.544C129 308.892 126.61 307.216 124.361 307.775C121.971 308.333 106.507 324.947 105.102 324.249C103.555 323.691 94.4175 308.612 86.545 303.167Z" fill="url(#paint14_linear)"/>
<path d="M127.082 312.199C127.082 312.199 124.416 311.337 125.118 308.465C125.959 305.45 131.15 303.153 131.991 303.009C132.833 302.866 140.689 304.445 140.969 305.45C141.25 306.455 139.567 306.886 137.603 306.455C135.639 306.024 132.833 305.737 132.833 305.737C132.833 305.737 134.937 308.035 134.797 309.04C134.657 310.045 133.534 312.055 131.851 312.773C130.308 313.634 128.344 311.768 128.344 311.768L127.082 312.199Z" fill="#FEB19E"/>
<path d="M162.052 315.63C162.052 315.63 168.249 310.132 168.662 311.119C169.075 312.105 166.596 314.784 166.596 314.784C166.596 314.784 174.997 311.541 174.997 312.669C175.135 313.797 170.59 317.321 169.351 318.026C168.111 318.872 163.842 320 163.842 320C163.842 320 161.638 316.899 162.052 315.63Z" fill="#FF9D6F"/>
<path opacity="0.57" d="M132.833 267.099C130.703 268.368 129 271.33 129 273.728L129.284 363.571C129.284 369.353 133.4 371.61 138.369 368.789L192.167 337.901C194.297 336.632 196 333.67 196 331.272L195.716 241.429C195.716 235.647 191.6 233.39 186.631 236.211L132.833 267.099Z" fill="#00B28F"/>
<path d="M141.132 299.305C140.566 299.727 140 300.572 140 301.275V306.061C140 306.765 140.566 307.047 141.132 306.765L184.868 281.568C185.434 281.146 186 280.302 186 279.598V274.812C186 274.108 185.434 273.826 184.868 274.108L141.132 299.305Z" fill="white"/>
<path d="M141.132 309.58C140.566 310.003 140 310.847 140 311.551V316.337C140 317.041 140.566 317.322 141.132 317.041L184.868 291.844C185.434 291.422 186 290.577 186 289.873V285.088C186 284.384 185.434 284.102 184.868 284.384L141.132 309.58Z" fill="white"/>
<path d="M158.258 317.322C156.702 318.167 155.569 320.278 155.569 321.968V323.094C155.569 324.783 156.843 325.487 158.258 324.642L172.412 316.478C173.969 315.633 175.102 313.522 175.102 311.833V310.706C175.102 309.017 173.828 308.314 172.412 309.158L158.258 317.322Z" fill="white"/>
<path d="M134.349 87.3972C134.773 89.3776 135.197 90.7922 135.479 91.358L133.501 92.4897C133.218 92.2067 132.936 90.9336 132.512 89.0947C132.088 86.9728 131.24 86.6899 129.544 87.5386L127.848 88.5288V95.7432L126.011 96.8749V80.4657C127 79.7584 128.272 78.7682 129.544 78.0609C131.522 76.9293 132.794 76.6464 133.784 77.0707C134.49 77.3536 134.914 78.3439 134.914 79.617C134.914 81.8803 133.784 84.0022 132.229 85.4168V85.5582C133.36 85.1338 134.066 85.8411 134.349 87.3972ZM129.826 85.6997C131.805 84.568 133.077 82.5876 133.077 80.6072C133.077 78.4853 131.664 78.3439 129.685 79.4755C128.837 80.0413 128.131 80.4657 127.848 80.7486V86.8313L129.826 85.6997Z" fill="#B0ABDD"/>
<path d="M132.37 54.0131C136.327 51.7497 138.871 53.7301 138.871 58.6812C138.871 64.481 135.903 69.2905 132.229 71.4124C128.413 73.6757 125.728 71.6953 125.728 66.7443C125.587 61.3689 128.413 56.2764 132.37 54.0131ZM132.229 69.5734C135.197 67.8759 136.893 63.7737 136.893 59.9543C136.893 56.7008 135.338 54.0131 132.229 55.852C129.12 57.691 127.565 61.7933 127.565 65.4712C127.707 69.0076 129.402 71.2709 132.229 69.5734Z" fill="#B0ABDD"/>
<path d="M165.016 57.5495V59.3885L160.494 61.9347L160.635 76.7878L158.657 77.9195V63.0664L154.275 65.6126V63.7737L165.016 57.5495Z" fill="#B0ABDD"/>
<path d="M154.7 41.4233V58.1153L152.862 59.247L148.199 53.4472C147.209 52.1741 146.22 50.901 145.513 49.4864H145.372C145.513 51.4668 145.513 53.4472 145.513 56.2764V63.3493L143.818 64.3395V47.6474L145.796 46.5158L150.46 52.3156C151.59 53.5887 152.438 54.8618 153.004 56.2764C152.862 54.1545 152.721 52.1741 152.721 49.4864V42.5549L154.7 41.4233Z" fill="#B0ABDD"/>
<path d="M162.472 36.8966V51.7497L168.69 48.2133V50.0522L160.635 54.7203V38.0283L162.472 36.8966Z" fill="#B0ABDD"/>
<path d="M175.191 29.5408L175.333 46.2329L173.354 47.2231V30.6725L175.191 29.5408Z" fill="#B0ABDD"/>
<path d="M192.009 19.9217V36.6137L190.172 37.7454L185.508 31.9456C184.519 30.6725 183.529 29.3994 182.823 27.9848C182.964 29.9652 182.964 31.9456 182.964 34.7748V41.8477L181.127 42.8379V26.1458L183.106 25.0141L187.769 30.8139C188.9 32.0871 189.748 33.3602 190.454 34.7748C190.313 32.6529 190.172 30.6725 190.172 27.9848V21.0533L192.009 19.9217Z" fill="#B0ABDD"/>
<path d="M205.576 12V13.839L199.64 17.2339V22.4679L205.293 19.2144V21.0533L199.64 24.3069V30.2481L206 26.5702V28.4091L197.803 33.2187V16.5267L205.576 12Z" fill="#B0ABDD"/>
<path d="M56.3381 132.522C56.7621 134.644 57.1861 135.917 57.4687 136.483L55.4902 137.615C55.2075 137.332 54.9249 136.059 54.5009 134.22C54.0769 132.098 53.229 131.815 51.5331 132.664L49.8372 133.654V140.868L48 142V125.591C48.9893 124.884 50.2612 123.893 51.5331 123.186C53.5116 122.054 54.7835 121.772 55.7728 122.054C56.4794 122.337 56.9034 123.328 56.9034 124.601C56.9034 126.864 55.7728 128.986 54.2182 130.4V130.542C55.3488 130.118 56.0555 130.966 56.3381 132.522ZM51.8157 130.825C53.7943 129.693 55.0662 127.713 55.0662 125.732C55.0662 123.61 53.6529 123.469 51.6744 124.601C50.8265 125.167 50.1199 125.591 49.8372 125.874V131.956L51.8157 130.825Z" fill="#B0ABDD"/>
<path d="M70.0465 112.435V114.274L64.1109 117.669V123.045L69.7639 119.791V121.489L64.1109 124.742V130.825L70.3292 127.147V128.986L62.2737 133.654L62.1324 116.962L70.0465 112.435Z" fill="#B0ABDD"/>
<path d="M82.3416 105.221C84.0375 104.231 85.3094 103.948 86.0161 103.948L85.5921 105.928C84.8855 105.928 83.8962 106.211 82.3416 107.06C78.8085 109.04 76.5474 113.001 76.5474 117.103C76.5474 121.347 78.8085 122.62 82.2003 120.64C83.4722 119.933 84.3202 119.225 84.7441 118.801V113.85L81.7763 115.547V113.85L86.5814 111.021V119.084C85.7334 119.933 84.0375 121.489 82.059 122.62C79.7978 123.893 78.1019 124.318 76.6887 123.61C75.4168 122.903 74.7102 121.206 74.7102 118.518C74.5688 113.284 77.5366 108.05 82.3416 105.221Z" fill="#B0ABDD"/>
<path d="M93.6476 98.8553L93.7889 115.406L91.8104 116.538V99.8455L93.6476 98.8553Z" fill="#B0ABDD"/>
<path d="M103.823 92.6311C105.377 91.7824 106.367 91.4995 107.073 91.6409L106.508 93.7628C106.084 93.7628 105.095 93.7628 103.823 94.6115C101.844 95.7432 101.138 97.5822 101.138 98.7138C101.138 100.27 101.986 100.553 103.964 100.27C106.367 99.9869 107.639 100.553 107.639 103.099C107.639 105.645 105.943 108.899 102.551 110.879C101.138 111.728 99.5832 112.152 98.8766 112.011L99.3005 109.889C100.148 110.03 101.42 109.748 102.692 109.04C104.671 107.909 105.66 106.07 105.66 104.514C105.66 102.958 104.812 102.533 102.975 102.816C100.572 103.24 99.1592 102.675 99.1592 100.27C99.1592 97.2992 100.996 94.3286 103.823 92.6311Z" fill="#B0ABDD"/>
<path d="M121.771 82.5876V84.4265L117.39 86.9728V101.826L115.553 102.816V87.963L111.03 90.6507V88.8117L121.771 82.5876Z" fill="#B0ABDD"/>
<path d="M146.22 68.4418L151.166 82.3047L149.188 83.4363L147.633 79.0511L142.546 82.0218L140.991 88.1045L139.012 89.2361L143.959 69.7149L146.22 68.4418ZM142.97 80.0414L147.351 77.4951L145.937 73.5343C145.655 72.6855 145.372 71.8368 145.231 70.988C144.948 72.1197 144.807 73.2514 144.524 74.383L142.97 80.0414Z" fill="#B0ABDD"/>
<path d="M171.093 54.1545V70.7051L169.256 71.8368L169.114 55.1447L171.093 54.1545Z" fill="#B0ABDD"/>
<path d="M182.823 47.0816C186.78 44.8183 189.324 46.7987 189.324 51.7497C189.324 57.5495 186.356 62.2176 182.54 64.481C178.725 66.7443 176.039 64.7639 176.039 59.8128C176.039 54.4374 178.866 49.3449 182.823 47.0816ZM182.682 62.642C185.649 60.9445 187.345 56.8422 187.345 53.0229C187.345 49.7693 185.791 47.0816 182.682 48.9206C179.573 50.7595 178.018 54.8618 178.018 58.5397C178.018 62.0762 179.714 64.3395 182.682 62.642Z" fill="#B0ABDD"/>
<path d="M205.152 34.3504V51.0424L203.315 52.1741L198.651 46.3743C197.662 45.1012 196.673 43.8281 195.966 42.4135C196.107 44.3939 196.107 46.3743 196.107 49.2035V56.2764L194.412 57.2666V40.5745L196.39 39.4429L201.054 45.2427C202.184 46.5158 203.032 47.7889 203.739 49.2035C203.598 47.0816 203.456 45.1012 203.456 42.4135V35.482L205.152 34.3504Z" fill="#B0ABDD"/>
<defs>
<linearGradient id="paint0_linear" x1="426.231" y1="136.342" x2="410.194" y2="-15.8321" gradientUnits="userSpaceOnUse">
<stop stop-color="#927DAC"/>
<stop offset="1" stop-color="#4C2C74"/>
</linearGradient>
<linearGradient id="paint1_linear" x1="433.957" y1="457.183" x2="288.292" y2="393.369" gradientUnits="userSpaceOnUse">
<stop offset="0.296875" stop-color="#4C2C74"/>
<stop offset="1" stop-color="#927DAC"/>
</linearGradient>
<linearGradient id="paint2_linear" x1="413.421" y1="461.472" x2="250.3" y2="7.16135" gradientUnits="userSpaceOnUse">
<stop stop-color="#735A94"/>
<stop offset="1" stop-color="#5E3E86"/>
</linearGradient>
<linearGradient id="paint3_linear" x1="332.511" y1="100.651" x2="332.511" y2="123.505" gradientUnits="userSpaceOnUse">
<stop stop-color="#7F5EFF"/>
<stop offset="0.2423" stop-color="#8665FF"/>
<stop offset="0.5952" stop-color="#9978FF"/>
<stop offset="0.94" stop-color="#B391FF"/>
</linearGradient>
<linearGradient id="paint4_linear" x1="331.59" y1="435.578" x2="331.59" y2="339.998" gradientUnits="userSpaceOnUse">
<stop stop-color="#9A79FF"/>
<stop offset="0.94" stop-color="#B391FF"/>
</linearGradient>
<linearGradient id="paint5_linear" x1="309.447" y1="116.216" x2="350.272" y2="200.366" gradientUnits="userSpaceOnUse">
<stop stop-color="#735A94"/>
<stop offset="0.94" stop-color="#A09ADC"/>
</linearGradient>
<linearGradient id="paint6_linear" x1="354" y1="270" x2="294.698" y2="273.111" gradientUnits="userSpaceOnUse">
<stop stop-color="#00B38F"/>
<stop offset="1" stop-color="#00A5B9"/>
</linearGradient>
<linearGradient id="paint7_linear" x1="267" y1="295" x2="267" y2="346" gradientUnits="userSpaceOnUse">
<stop stop-color="#113C7A"/>
<stop offset="1" stop-color="#102849"/>
</linearGradient>
<linearGradient id="paint8_linear" x1="238.022" y1="438.025" x2="267.935" y2="438.025" gradientUnits="userSpaceOnUse">
<stop stop-color="#00A5B9"/>
<stop offset="1" stop-color="#81E7FF"/>
</linearGradient>
<linearGradient id="paint9_linear" x1="238.022" y1="438.025" x2="267.935" y2="438.025" gradientUnits="userSpaceOnUse">
<stop stop-color="#00A5B9"/>
<stop offset="1" stop-color="#81E7FF"/>
</linearGradient>
<linearGradient id="paint10_linear" x1="250" y1="325" x2="250" y2="399" gradientUnits="userSpaceOnUse">
<stop stop-color="#113C7A"/>
<stop offset="1" stop-color="#102849"/>
</linearGradient>
<linearGradient id="paint11_linear" x1="282.5" y1="326" x2="282.5" y2="358" gradientUnits="userSpaceOnUse">
<stop stop-color="#113C7A"/>
<stop offset="1" stop-color="#102849"/>
</linearGradient>
<linearGradient id="paint12_linear" x1="147.116" y1="356.373" x2="127.211" y2="250.941" gradientUnits="userSpaceOnUse">
<stop stop-color="#7F5EFF"/>
<stop offset="0.2423" stop-color="#8665FF"/>
<stop offset="0.5952" stop-color="#9978FF"/>
<stop offset="0.94" stop-color="#B391FF"/>
</linearGradient>
<linearGradient id="paint13_linear" x1="116.695" y1="343.376" x2="77.232" y2="265.339" gradientUnits="userSpaceOnUse">
<stop stop-color="#7F5EFF"/>
<stop offset="0.2423" stop-color="#8665FF"/>
<stop offset="0.5952" stop-color="#9978FF"/>
<stop offset="0.94" stop-color="#B391FF"/>
</linearGradient>
<linearGradient id="paint14_linear" x1="105.092" y1="269.671" x2="104.111" y2="333.394" gradientUnits="userSpaceOnUse">
<stop stop-color="#7F5EFF"/>
<stop offset="0.2423" stop-color="#8665FF"/>
<stop offset="0.5952" stop-color="#9978FF"/>
<stop offset="0.94" stop-color="#B391FF"/>
</linearGradient>
</defs>
</svg>
