<svg width="316" height="340" viewBox="0 0 316 340" fill="none" xmlns="http://www.w3.org/2000/svg">
<g clip-path="url(#clip0)">
<path d="M284.451 312.461H261.065V340H284.451V312.461Z" fill="url(#paint0_linear)"/>
<path d="M261.61 338.993H283.911V312.457H261.61V338.993Z" fill="url(#paint1_linear)"/>
<path d="M55.4759 312.461H32.0892V340H55.4759V312.461Z" fill="url(#paint2_linear)"/>
<path d="M54.9354 312.461H32.6342V338.998H54.9354V312.461Z" fill="url(#paint3_linear)"/>
<path d="M309.077 0H6.92284C3.09946 0 0 3.086 0 6.89277V309.358C0 313.165 3.09946 316.251 6.92284 316.251H309.077C312.901 316.251 316 313.165 316 309.358V6.89277C316 3.086 312.901 0 309.077 0Z" fill="url(#paint4_linear)"/>
<path d="M307.442 1.62347H9.0985C5.27513 1.62347 2.17567 4.70947 2.17567 8.51624V305.564C2.17567 309.371 5.27513 312.457 9.0985 312.457H307.442C311.265 312.457 314.365 309.371 314.365 305.564V8.51624C314.365 4.70947 311.265 1.62347 307.442 1.62347Z" fill="url(#paint5_linear)"/>
<path d="M207.173 320.684C230.679 297.178 230.679 259.068 207.173 235.561C183.667 212.055 145.556 212.055 122.05 235.561C98.5436 259.068 98.5436 297.178 122.05 320.684C145.556 344.19 183.666 344.19 207.173 320.684Z" fill="#E2810E"/>
<path d="M201.967 321.357C225.473 297.851 225.473 259.74 201.967 236.234C178.461 212.728 140.35 212.728 116.844 236.234C93.3379 259.74 93.3379 297.851 116.844 321.357C140.35 344.863 178.461 344.863 201.967 321.357Z" fill="#FFB93E"/>
<path d="M166.355 333.909C151.816 335.751 137.445 331.788 125.892 322.83C114.311 313.845 106.944 300.897 105.103 286.358C103.261 271.82 107.224 257.449 116.181 245.896C125.167 234.315 138.115 226.948 152.653 225.106C167.192 223.265 181.563 227.227 193.116 236.185C204.696 245.17 212.063 258.118 213.905 272.657C215.747 287.196 211.784 301.567 202.827 313.119C193.813 324.7 180.865 332.067 166.355 333.909ZM153.044 228.343C124.832 231.887 104.768 257.728 108.34 285.94C111.884 314.152 137.724 334.216 165.936 330.644C194.148 327.1 214.212 301.26 210.64 273.048C207.096 244.835 181.256 224.799 153.044 228.343Z" fill="#FFA412"/>
<path d="M184.509 263.557C183.564 255.151 176.196 252.471 166.938 251.855L166.759 240.173L159.593 240.313L159.765 251.678C157.881 251.715 155.957 251.79 154.041 251.864L153.86 240.416L146.711 240.555L146.887 252.234C145.337 252.296 143.813 252.353 142.329 252.383L142.32 252.349L132.442 252.53L132.555 260.133C132.555 260.133 137.843 259.929 137.758 260.028C140.659 259.972 141.63 261.626 141.928 263.063L142.132 276.365C142.385 276.361 142.639 276.373 142.89 276.401C142.651 276.406 142.396 276.409 142.124 276.415L142.41 295.058C142.297 295.966 141.782 297.422 139.754 297.466C139.846 297.544 134.545 297.566 134.545 297.566L133.281 306.087L142.596 305.909C144.331 305.877 146.039 305.874 147.715 305.85L147.898 317.655L155.056 317.517L154.877 305.828C156.842 305.83 158.744 305.809 160.601 305.771L160.778 317.407L167.943 317.268L167.764 305.479C179.799 304.558 188.183 301.382 189.059 290.135C189.764 281.079 185.419 277.13 178.556 275.633C182.666 273.458 185.212 269.707 184.509 263.557ZM174.875 289.013C175.016 297.842 159.767 297.135 154.91 297.225L154.671 281.571C159.53 281.487 174.742 279.802 174.875 289.013ZM171.202 266.992C171.324 275.026 158.605 274.335 154.561 274.415L154.341 260.21C158.389 260.139 171.073 258.616 171.202 266.992V266.992Z" fill="#FFA412"/>
<path d="M264 52H52V264H264V52Z" fill="url(#paint6_linear)"/>
<path d="M261.88 53.8805H54.1155V260.742H261.88V53.8805Z" fill="url(#paint7_linear)"/>
<path d="M158 196.058C179.3 196.058 196.567 178.836 196.567 157.591C196.567 136.346 179.3 119.124 158 119.124C136.7 119.124 119.433 136.346 119.433 157.591C119.433 178.836 136.7 196.058 158 196.058Z" fill="url(#paint8_linear)"/>
<path d="M158 194.681C178.727 194.681 195.53 177.951 195.53 157.314C195.53 136.676 178.727 119.946 158 119.946C137.272 119.946 120.469 136.676 120.469 157.314C120.469 177.951 137.272 194.681 158 194.681Z" fill="url(#paint9_linear)"/>
<path d="M140.87 231.771H129.447V243.682H140.87V231.771Z" fill="url(#paint10_linear)"/>
<path d="M156.099 231.771H144.676V243.682H156.099V231.771Z" fill="url(#paint11_linear)"/>
<path d="M171.324 231.771H159.901V243.682H171.324V231.771Z" fill="url(#paint12_linear)"/>
<path d="M186.553 231.771H175.13V243.682H186.553V231.771Z" fill="url(#paint13_linear)"/>
<path d="M140.595 232.313H129.717V243.144H140.595V232.313Z" fill="url(#paint14_linear)"/>
<path d="M155.824 232.313H144.946V243.144H155.824V232.313Z" fill="url(#paint15_linear)"/>
<path d="M171.054 232.313H160.176V243.144H171.054V232.313Z" fill="url(#paint16_linear)"/>
<path d="M186.283 232.313H175.405V243.144H186.283V232.313Z" fill="url(#paint17_linear)"/>
<path d="M175.492 134.801L173.71 133.559L169.344 139.767L171.126 141.01L175.492 134.801Z" fill="#6C63FF"/>
<path d="M180.611 174.727L181.859 172.953L175.623 168.606L174.375 170.38L180.611 174.727Z" fill="#6C63FF"/>
<path d="M140.506 179.824L142.288 181.067L146.654 174.858L144.872 173.616L140.506 179.824Z" fill="#6C63FF"/>
<path d="M135.391 139.898L134.143 141.672L140.379 146.02L141.627 144.245L135.391 139.898Z" fill="#6C63FF"/>
<path d="M175.472 134.737L173.69 133.495L169.324 139.703L171.106 140.946L175.472 134.737Z" fill="#969696"/>
<path d="M180.593 174.665L181.841 172.891L175.605 168.543L174.357 170.318L180.593 174.665Z" fill="#969696"/>
<path d="M140.491 179.759L142.273 181.001L146.64 174.793L144.857 173.55L140.491 179.759Z" fill="#969696"/>
<path d="M135.374 139.834L134.126 141.609L140.362 145.956L141.609 144.181L135.374 139.834Z" fill="#969696"/>
<path d="M158 180.868C171.065 180.868 181.657 170.322 181.657 157.314C181.657 144.305 171.065 133.76 158 133.76C144.935 133.76 134.343 144.305 134.343 157.314C134.343 170.322 144.935 180.868 158 180.868Z" fill="url(#paint18_linear)"/>
<path d="M158 179.518C170.317 179.518 180.301 169.577 180.301 157.314C180.301 145.051 170.317 135.109 158 135.109C145.683 135.109 135.699 145.051 135.699 157.314C135.699 169.577 145.683 179.518 158 179.518Z" fill="url(#paint19_linear)"/>
<path d="M63.0928 137.549H45.6879V94.2815C45.6891 93.8358 45.8678 93.4087 46.1848 93.0939C46.5018 92.7792 46.9313 92.6024 47.379 92.6024H61.4064C61.8549 92.6024 62.285 92.7798 62.6022 93.0956C62.9193 93.4113 63.0975 93.8396 63.0975 94.2862L63.0928 137.549Z" fill="url(#paint20_linear)"/>
<path d="M61.3178 222.568H47.4629C46.9921 222.568 46.5406 222.382 46.2078 222.05C45.8749 221.719 45.6879 221.269 45.6879 220.801V177.621H63.0928V220.791C63.094 221.024 63.049 221.255 62.9604 221.47C62.8717 221.686 62.7412 221.882 62.5762 222.047C62.4113 222.212 62.2152 222.343 61.9993 222.432C61.7833 222.522 61.5517 222.568 61.3178 222.568V222.568Z" fill="url(#paint21_linear)"/>
<path d="M47.7052 93.1405H61.071C61.4627 93.1405 61.8383 93.2954 62.1153 93.5712C62.3922 93.8469 62.5478 94.2209 62.5478 94.6109V136.464H46.2423V94.6248C46.2405 94.4317 46.2769 94.2401 46.3494 94.061C46.4219 93.8819 46.5291 93.7188 46.665 93.581C46.8008 93.4432 46.9626 93.3333 47.1411 93.2577C47.3195 93.1822 47.5112 93.1423 47.7052 93.1405V93.1405Z" fill="#CECECE"/>
<path d="M46.2283 178.164H62.5338V220.991C62.5338 221.121 62.4818 221.246 62.3892 221.338C62.2966 221.431 62.1709 221.482 62.04 221.482H46.7268C46.5958 221.482 46.4702 221.431 46.3776 221.338C46.285 221.246 46.233 221.121 46.233 220.991V178.164H46.2283Z" fill="#CECECE"/>
</g>
<defs>
<linearGradient id="paint0_linear" x1="272.758" y1="340" x2="272.758" y2="312.461" gradientUnits="userSpaceOnUse">
<stop stop-color="#808080" stop-opacity="0.25"/>
<stop offset="0.54" stop-color="#808080" stop-opacity="0.12"/>
<stop offset="1" stop-color="#808080" stop-opacity="0.1"/>
</linearGradient>
<linearGradient id="paint1_linear" x1="272.76" y1="338.993" x2="272.76" y2="312.457" gradientUnits="userSpaceOnUse">
<stop stop-color="#C4C4C4" stop-opacity="0"/>
<stop offset="1" stop-color="#C4C4C4"/>
</linearGradient>
<linearGradient id="paint2_linear" x1="2229.97" y1="312.461" x2="2229.97" y2="18863.3" gradientUnits="userSpaceOnUse">
<stop stop-color="#808080" stop-opacity="0.25"/>
<stop offset="0.54" stop-color="#808080" stop-opacity="0.12"/>
<stop offset="1" stop-color="#808080" stop-opacity="0.1"/>
</linearGradient>
<linearGradient id="paint3_linear" x1="43.7848" y1="312.461" x2="43.7848" y2="338.998" gradientUnits="userSpaceOnUse">
<stop stop-color="#C4C4C4" stop-opacity="0"/>
<stop offset="1" stop-color="#C4C4C4"/>
</linearGradient>
<linearGradient id="paint4_linear" x1="158" y1="0" x2="158" y2="316.251" gradientUnits="userSpaceOnUse">
<stop stop-color="#C4C4C4" stop-opacity="0"/>
<stop offset="1" stop-color="#C4C4C4"/>
</linearGradient>
<linearGradient id="paint5_linear" x1="158.27" y1="1.62347" x2="158.27" y2="312.457" gradientUnits="userSpaceOnUse">
<stop stop-color="#FDFDFD"/>
<stop offset="1" stop-color="#DFDFDF"/>
</linearGradient>
<linearGradient id="paint6_linear" x1="158" y1="52" x2="158" y2="264" gradientUnits="userSpaceOnUse">
<stop stop-color="#C4C4C4" stop-opacity="0"/>
<stop offset="1" stop-color="#C4C4C4"/>
</linearGradient>
<linearGradient id="paint7_linear" x1="157.998" y1="53.8805" x2="157.998" y2="260.742" gradientUnits="userSpaceOnUse">
<stop stop-color="#F9F9F9"/>
<stop offset="1" stop-color="#C9C9C9"/>
</linearGradient>
<linearGradient id="paint8_linear" x1="158" y1="119.124" x2="158" y2="196.058" gradientUnits="userSpaceOnUse">
<stop stop-color="#F3F3F3"/>
<stop offset="1" stop-color="#929292"/>
</linearGradient>
<linearGradient id="paint9_linear" x1="158" y1="119.946" x2="158" y2="194.681" gradientUnits="userSpaceOnUse">
<stop stop-color="#F3F3F3"/>
<stop offset="1" stop-color="#B3B3B3"/>
</linearGradient>
<linearGradient id="paint10_linear" x1="3443.42" y1="6489.64" x2="3443.42" y2="6183.63" gradientUnits="userSpaceOnUse">
<stop stop-color="#808080" stop-opacity="0.25"/>
<stop offset="0.54" stop-color="#808080" stop-opacity="0.12"/>
<stop offset="1" stop-color="#808080" stop-opacity="0.1"/>
</linearGradient>
<linearGradient id="paint11_linear" x1="3832.07" y1="6489.64" x2="3832.07" y2="6183.63" gradientUnits="userSpaceOnUse">
<stop stop-color="#808080" stop-opacity="0.25"/>
<stop offset="0.54" stop-color="#808080" stop-opacity="0.12"/>
<stop offset="1" stop-color="#808080" stop-opacity="0.1"/>
</linearGradient>
<linearGradient id="paint12_linear" x1="4220.72" y1="6489.64" x2="4220.72" y2="6183.63" gradientUnits="userSpaceOnUse">
<stop stop-color="#808080" stop-opacity="0.25"/>
<stop offset="0.54" stop-color="#808080" stop-opacity="0.12"/>
<stop offset="1" stop-color="#808080" stop-opacity="0.1"/>
</linearGradient>
<linearGradient id="paint13_linear" x1="4609.37" y1="6489.64" x2="4609.37" y2="6183.63" gradientUnits="userSpaceOnUse">
<stop stop-color="#808080" stop-opacity="0.25"/>
<stop offset="0.54" stop-color="#808080" stop-opacity="0.12"/>
<stop offset="1" stop-color="#808080" stop-opacity="0.1"/>
</linearGradient>
<linearGradient id="paint14_linear" x1="140.453" y1="237.731" x2="186.184" y2="237.731" gradientUnits="userSpaceOnUse">
<stop stop-color="#00A5B9"/>
<stop offset="1" stop-color="#00EBBD"/>
</linearGradient>
<linearGradient id="paint15_linear" x1="140.453" y1="237.731" x2="186.184" y2="237.731" gradientUnits="userSpaceOnUse">
<stop stop-color="#00A5B9"/>
<stop offset="1" stop-color="#00EBBD"/>
</linearGradient>
<linearGradient id="paint16_linear" x1="140.453" y1="237.731" x2="186.184" y2="237.731" gradientUnits="userSpaceOnUse">
<stop stop-color="#00A5B9"/>
<stop offset="1" stop-color="#00EBBD"/>
</linearGradient>
<linearGradient id="paint17_linear" x1="140.453" y1="237.731" x2="186.184" y2="237.731" gradientUnits="userSpaceOnUse">
<stop stop-color="#00A5B9"/>
<stop offset="1" stop-color="#00EBBD"/>
</linearGradient>
<linearGradient id="paint18_linear" x1="158" y1="133.76" x2="158" y2="180.868" gradientUnits="userSpaceOnUse">
<stop stop-color="#F3F3F3"/>
<stop offset="1" stop-color="#929292"/>
</linearGradient>
<linearGradient id="paint19_linear" x1="158" y1="135.109" x2="158" y2="179.518" gradientUnits="userSpaceOnUse">
<stop stop-color="#C4C4C4" stop-opacity="0"/>
<stop offset="1" stop-color="#C4C4C4"/>
</linearGradient>
<linearGradient id="paint20_linear" x1="6619.55" y1="17196.7" x2="6619.55" y2="12841.3" gradientUnits="userSpaceOnUse">
<stop stop-color="#808080" stop-opacity="0.25"/>
<stop offset="0.54" stop-color="#808080" stop-opacity="0.12"/>
<stop offset="1" stop-color="#808080" stop-opacity="0.1"/>
</linearGradient>
<linearGradient id="paint21_linear" x1="6617.8" y1="25520" x2="6617.8" y2="21164.6" gradientUnits="userSpaceOnUse">
<stop stop-color="#808080" stop-opacity="0.25"/>
<stop offset="0.54" stop-color="#808080" stop-opacity="0.12"/>
<stop offset="1" stop-color="#808080" stop-opacity="0.1"/>
</linearGradient>
<clipPath id="clip0">
<rect width="316" height="340" fill="white"/>
</clipPath>
</defs>
</svg>
