<svg width="445" height="437" viewBox="0 0 445 437" fill="none" xmlns="http://www.w3.org/2000/svg">
<path d="M312.792 381.294C312.792 381.219 313.204 372.735 309.113 370.783L309.413 370.52C311.29 371.159 313.355 373.186 314.18 376.076C314.781 378.216 314.331 378.666 314.331 378.741L312.792 381.294Z" fill="#A9DFE5"/>
<path d="M285.651 359.334C285.651 359.334 287.04 370.258 293.684 373.448C300.329 376.639 309.713 370.896 309.713 370.896C309.713 370.896 308.324 359.972 301.68 356.782C295.036 353.591 285.651 359.334 285.651 359.334Z" fill="#A9DFE5"/>
<path d="M312.116 397.173C312.041 396.76 310.577 386.775 314.33 375.663C317.972 364.965 315.944 355.918 315.944 355.843H318.61C318.685 356.219 318.872 365.115 316.02 377.315C313.467 388.276 318.234 397.21 317.221 397.21H312.116V397.173Z" fill="#A9DFE5"/>
<path d="M317.709 367.705C317.709 367.63 318.985 360.348 322.439 359.522C320.9 359.71 318.948 360.836 317.859 362.863C317.033 364.364 317.334 364.815 317.334 364.89L317.709 367.705Z" fill="#A9DFE5"/>
<path d="M328.707 368.456C323.565 367.405 320.712 360.16 320.712 360.16C320.712 360.16 326.155 354.604 331.298 355.618C336.44 356.669 339.293 363.914 339.293 363.914C339.293 363.914 333.85 369.507 328.707 368.456Z" fill="#A9DFE5"/>
<path d="M288.879 344.844C280.734 332.457 284.15 315.79 296.537 307.607C308.925 299.461 325.592 302.877 333.775 315.264C341.921 327.652 338.505 344.319 326.117 352.465C313.73 360.648 297.063 357.232 288.879 344.844Z" fill="#FFB93E"/>
<path d="M324.991 350.776C319.548 354.379 312.979 355.618 306.597 354.304C300.178 352.99 294.698 349.236 291.094 343.793C287.491 338.35 286.252 331.781 287.566 325.4C288.879 318.981 292.633 313.5 298.076 309.897C303.519 306.293 310.088 305.054 316.47 306.368C322.851 307.682 328.369 311.436 331.973 316.879C335.577 322.322 336.815 328.891 335.502 335.272C334.188 341.654 330.434 347.172 324.991 350.776ZM298.865 311.098C288.279 318.08 285.313 332.382 292.295 342.968C299.277 353.553 313.579 356.519 324.165 349.537C334.751 342.555 337.716 328.253 330.734 317.667C323.752 307.081 309.45 304.116 298.865 311.098Z" fill="#FFA412"/>
<path d="M338.955 394.582L338.43 402.841L336.44 433.397H299.24L297.063 403.254L296.462 394.958L296.425 394.582H338.955Z" fill="#A09ADC"/>
<path d="M338.955 394.582L338.43 402.803C335.614 401.827 327.844 399.5 317.709 399.5C304.908 399.5 297.063 403.254 297.063 403.254L296.462 394.958L338.955 394.582Z" fill="#847EBF"/>
<path d="M340.232 398.937H295.073L294.548 393.681H340.832L340.232 398.937Z" fill="#6A63AD"/>
<path d="M337.003 435.011H298.452L298.001 433.171H337.491L337.003 435.011Z" fill="#6A63AD"/>
<path d="M444.535 437H40.0542C39.8009 437 39.5898 436.708 39.5898 436.357V436.142C39.5898 435.791 39.8009 435.499 40.0542 435.499H444.535C444.789 435.499 445 435.791 445 436.142V436.357C445 436.708 444.789 437 444.535 437Z" fill="#BFB6CF"/>
<path d="M189.066 273.109C189.066 272.884 190.305 247.358 177.993 241.465L178.856 240.639C184.487 242.629 190.756 248.71 193.271 257.306C195.148 263.687 193.721 265.114 193.721 265.339L189.066 273.109Z" fill="#A9DFE6"/>
<path d="M156.859 222.546C156.859 222.546 155.432 235.684 162.339 241.277C169.209 246.87 181.784 242.779 181.784 242.779C181.784 242.779 183.21 229.64 176.303 224.047C169.434 218.454 156.859 222.546 156.859 222.546Z" fill="#A9DFE6"/>
<path d="M186.964 320.97C186.739 319.694 182.272 289.626 193.646 256.105C204.569 223.897 198.526 196.607 198.488 196.344H206.521C206.747 197.508 207.272 224.31 198.713 261.022C191.018 294.056 205.395 320.97 202.355 320.97H186.964Z" fill="#A9DFE6"/>
<path d="M203.856 232.231C203.894 232.043 207.723 210.046 218.083 207.531C213.466 208.131 207.61 211.435 204.307 217.591C201.867 222.17 202.73 223.447 202.693 223.634L203.856 232.231Z" fill="#A9DFE6"/>
<path d="M162.527 173.784C162.527 173.784 151.378 158.056 138.727 153.438C138.727 153.438 143.457 190.338 136.55 190.789C129.643 191.239 134.26 149.272 134.26 149.272C134.26 149.272 101.302 130.953 87.9011 131.479C87.9011 131.479 106.858 168.341 100.026 167.102C93.1939 165.826 71.6847 128.401 71.6847 128.401C71.6847 128.401 37.2624 119.917 30.5056 140.225C23.7112 160.496 32.1197 171.344 37.2248 172.921C42.2924 174.497 75.4009 176.036 74.2748 180.278C73.1487 184.52 50.4382 190.075 38.2008 185.496C38.2008 185.496 49.9502 220.218 68.081 219.58C86.2119 218.905 92.4432 208.094 103.667 207.868C114.891 207.681 122.849 211.134 117.106 213.837C111.362 216.502 92.5558 213.387 83.0962 220.519C73.6367 227.651 66.054 231.968 82.6082 236.36C99.1625 240.752 124.125 235.797 135.987 227.876C136.025 227.839 145.672 227.088 153.292 271.833C156.22 289.101 153.968 314.701 153.968 314.701L160.124 313.763C163.54 263.575 145.409 221.87 145.409 221.87C145.409 221.87 176.115 199.16 162.527 173.784Z" fill="#A9DFE6"/>
<path d="M262.978 240.001C262.978 240.001 225.966 224.46 239.217 196.157C239.217 196.157 250.365 178.439 263.842 172.695C263.842 172.695 260.876 212.974 268.421 213.086C275.966 213.199 268.496 167.966 268.496 167.966C268.496 167.966 303.181 146.193 317.708 145.931C317.708 145.931 299.315 187.035 306.635 185.271C313.955 183.506 335.051 141.614 335.051 141.614C335.051 141.614 371.838 130.39 380.397 151.974C388.955 173.559 380.472 185.796 375.066 187.823C369.661 189.85 333.85 193.416 335.314 197.958C336.778 202.5 361.741 207.193 374.729 201.487C374.729 201.487 364.03 239.851 344.323 240.189C324.615 240.526 317.22 229.152 305.058 229.603C292.896 230.053 284.45 234.295 290.831 236.848C297.25 239.4 317.408 234.933 328.106 242.103C338.805 249.273 347.251 253.515 329.57 259.258C311.89 265.001 279.157 266.39 271.049 253.177C262.978 240.001 262.978 240.001 262.978 240.001Z" fill="#C7EBEF"/>
<path d="M364.03 160.871C364.03 160.871 270.148 203.476 262.978 240.001C262.978 240.001 265.23 255.729 257.535 274.949L258.323 281.893C258.323 281.893 265.869 257.081 271.049 253.177C271.049 253.214 245.786 225.023 364.03 160.871Z" fill="#A9DFE6"/>
<path d="M257.535 274.949C257.535 274.949 245.073 299.461 256.785 326.301L260.538 324.837C260.538 324.837 253.331 294.656 259.45 278.365C265.568 262.073 257.535 274.949 257.535 274.949Z" fill="#A9DFE6"/>
<path d="M121.873 71.5305C137.038 87.6718 129.155 119.729 129.155 119.729C129.155 119.729 96.6476 125.623 81.4822 109.481C66.3169 93.3401 74.1999 61.2826 74.1999 61.2826C74.1999 61.2826 106.67 55.3892 121.873 71.5305Z" fill="#A9DFE6"/>
<path d="M121.873 71.5305C137.038 87.6718 129.155 119.729 129.155 119.729L74.1997 61.2826C74.1997 61.2826 106.67 55.3892 121.873 71.5305Z" fill="#C7EBEF"/>
<path d="M317.521 133.018C309.601 142.177 291.732 139.737 291.732 139.737C291.732 139.737 286.665 122.394 294.585 113.235C302.506 104.076 320.374 106.516 320.374 106.516C320.374 106.516 325.442 123.858 317.521 133.018Z" fill="#A9DFE6"/>
<path d="M223.939 213.724C218.646 215.188 212.49 209.745 212.49 209.745C212.49 209.745 214.967 201.9 220.26 200.436C225.553 198.972 231.709 204.415 231.709 204.415C231.709 204.415 229.269 212.223 223.939 213.724Z" fill="#A9DFE6"/>
<path d="M130.207 41.6128C133.848 50.2465 126.002 61.7706 126.002 61.7706C126.002 61.7706 112.264 59.3307 108.622 50.697C104.981 42.0632 112.827 30.5391 112.827 30.5391C112.827 30.5391 126.603 32.979 130.207 41.6128Z" fill="#A9DFE6"/>
<path d="M260.528 171.76C292.149 140.14 292.149 88.8736 260.528 57.2534C228.908 25.6332 177.642 25.6332 146.021 57.2534C114.401 88.8736 114.401 140.14 146.022 171.76C177.642 203.38 228.908 203.38 260.528 171.76Z" fill="#E2810E"/>
<path d="M253.525 172.665C285.146 141.044 285.146 89.7779 253.525 58.1577C221.905 26.5375 170.639 26.5375 139.019 58.1577C107.398 89.7779 107.398 141.044 139.019 172.665C170.639 204.285 221.905 204.285 253.525 172.665Z" fill="#FFB93E"/>
<path d="M205.62 189.55C186.063 192.027 166.731 186.697 151.19 174.647C135.612 162.56 125.702 145.142 123.224 125.585C120.747 106.028 126.077 86.6958 138.127 71.1551C150.214 55.5769 167.632 45.6669 187.189 43.1894C206.746 40.7119 226.078 46.0422 241.619 58.0919C257.197 70.1791 267.107 87.5967 269.585 107.154C272.062 126.711 266.732 146.043 254.682 161.584C242.558 177.162 225.14 187.072 205.62 189.55ZM187.715 47.5438C149.764 52.3111 122.774 87.0712 127.579 125.022C132.346 162.973 167.106 189.963 205.057 185.158C243.008 180.391 269.998 145.63 265.193 107.68C260.426 69.7287 225.665 42.7764 187.715 47.5438Z" fill="#FFA412"/>
<path d="M267.858 313.162V313.237L266.244 338.013L260.238 430.093H148.225L141.618 339.289L139.779 314.251L139.704 313.162H267.858Z" fill="#A09ADC"/>
<path d="M267.858 313.238L266.244 338.05C257.798 335.122 234.337 328.027 203.781 328.027C165.192 328.027 141.618 339.289 141.618 339.289L139.816 314.251L267.858 313.238Z" fill="#847EBF"/>
<path d="M271.763 326.263H135.65L134.073 310.46H273.489L271.763 326.263Z" fill="#6A63AD"/>
<path d="M261.965 435.011H145.785L144.471 429.493H263.467L261.965 435.011Z" fill="#6A63AD"/>
<path d="M61.0241 383.734C60.9115 383.171 58.922 369.619 64.0271 354.567C68.9446 340.077 66.2044 327.802 66.2044 327.69H69.808C69.8831 328.215 70.1458 340.265 66.3169 356.781C62.8635 371.647 69.32 383.734 67.9311 383.734H61.0241Z" fill="#A9DFE5"/>
<path d="M68.607 343.793C68.6445 343.718 70.3713 333.808 74.9884 332.682C72.9238 332.945 70.2586 334.446 68.7947 337.224C67.7061 339.289 68.0814 339.852 68.0439 339.965L68.607 343.793Z" fill="#A4C8FC"/>
<path d="M60.0107 341.466C60.0107 341.466 55.4686 334.071 49.913 331.631C49.913 331.631 50.964 348.336 47.8484 348.336C44.7327 348.336 47.9985 329.642 47.9985 329.642C47.9985 329.642 33.7341 320.482 27.6905 320.295C27.6905 320.295 35.123 337.412 32.12 336.624C29.0794 335.873 20.5207 318.418 20.5207 318.418C20.5207 318.418 5.31787 313.613 1.67669 322.509C-1.96449 331.406 1.489 336.511 3.74128 337.374C5.95602 338.238 20.7835 339.852 20.1453 341.729C19.5072 343.606 9.14672 345.445 3.81633 343.005C3.81633 343.005 8.0957 358.921 16.2414 359.146C24.3872 359.372 27.5028 354.679 32.5704 354.942C37.6005 355.167 41.0915 356.969 38.4264 358.02C35.7612 359.071 27.4277 357.119 22.9607 360.047C18.4937 362.975 14.9651 364.702 22.285 367.142C29.5674 369.62 40.9414 368.081 46.497 364.89C46.497 364.89 50.8889 364.815 52.9911 385.123C53.8169 392.968 52.0526 404.38 52.0526 404.38L54.8304 404.154C57.7959 381.744 50.8889 362.487 50.8889 362.487C50.8889 362.487 65.3786 353.253 60.0107 341.466Z" fill="#A9DFE5"/>
<path d="M77.6535 335.46C75.251 336.136 72.5107 333.658 72.5107 333.658C72.5107 333.658 73.5994 330.129 76.0018 329.491C78.4042 328.853 81.1445 331.293 81.1445 331.293C81.1445 331.293 80.0184 334.822 77.6535 335.46Z" fill="#A9DFE5"/>
<path d="M105.093 281.63C96.7599 287.073 96.835 301.938 96.835 301.938C96.835 301.938 110.424 307.945 118.757 302.464C127.091 297.021 127.016 282.156 127.016 282.156C127.016 282.156 113.427 276.187 105.093 281.63Z" fill="#A9DFE5"/>
<path d="M105.093 281.63C96.7599 287.073 96.835 301.938 96.835 301.938L127.016 282.156C127.016 282.194 113.427 276.187 105.093 281.63Z" fill="#C7EBEF"/>
<path d="M104.606 267.666C102.091 271.045 104.306 276.938 104.306 276.938C104.306 276.938 110.575 277.314 113.09 273.935C115.605 270.557 113.39 264.663 113.39 264.663C113.39 264.663 107.121 264.288 104.606 267.666Z" fill="#A9DFE5"/>
<path d="M94.0905 316.612C108.31 302.393 108.31 279.338 94.0905 265.119C79.8709 250.899 56.8165 250.899 42.5969 265.119C28.3773 279.338 28.3773 302.393 42.5969 316.612C56.8165 330.832 79.8709 330.832 94.0905 316.612Z" fill="#E2810E"/>
<path d="M67.5725 327.588C87.64 326.278 102.846 308.948 101.536 288.881C100.227 268.813 82.897 253.607 62.8295 254.917C42.762 256.227 27.5559 273.556 28.8657 293.624C30.1754 313.691 47.5051 328.897 67.5725 327.588Z" fill="#FFB93E"/>
<path d="M69.3953 324.611C60.6114 325.7 51.9026 323.335 44.9205 317.892C37.9384 312.449 33.4714 304.641 32.3453 295.82C31.2567 287.036 33.6216 278.327 39.0646 271.345C44.5076 264.363 52.353 259.896 61.1369 258.77C69.9208 257.681 78.6296 260.046 85.6116 265.489C92.5937 270.932 97.0607 278.778 98.1869 287.561C99.313 296.345 96.9106 305.054 91.4676 312.036C86.0246 319.018 78.1791 323.485 69.3953 324.611ZM61.3621 260.722C44.2824 262.861 32.1576 278.515 34.2973 295.557C36.4369 312.637 52.0902 324.762 69.1325 322.622C86.2122 320.482 98.337 304.829 96.1974 287.787C94.0577 270.707 78.4044 258.582 61.3621 260.722Z" fill="#FFA412"/>
<path d="M97.3985 380.205V380.243L96.6853 391.391L93.9826 432.796H43.5691L40.6036 391.954L39.7778 380.693L39.7402 380.205H97.3985Z" fill="#A09ADC"/>
<path d="M97.3987 380.243L96.6854 391.391C92.8941 390.078 82.346 386.887 68.6071 386.887C51.2645 386.887 40.6413 391.954 40.6413 391.954L39.8154 380.693L97.3987 380.243Z" fill="#847EBF"/>
<path d="M99.1627 386.099H37.9383L37.2251 379.004H99.9135L99.1627 386.099Z" fill="#6A63AD"/>
<path d="M94.7333 435.011H42.4805L41.8799 432.533H95.409L94.7333 435.011Z" fill="#6A63AD"/>
<path d="M305.058 222.133C305.058 222.133 299.315 221.007 298.001 222.133C296.687 223.259 290.456 229.603 291.77 231.667C293.121 233.732 299.503 229.941 300.854 229.603C302.205 229.265 305.922 227.801 305.922 227.801L305.058 222.133Z" fill="#FEB19E"/>
<path d="M366.245 425.626L372.401 427.916C372.401 427.916 399.203 390.753 402.507 358.058C403.107 352.202 402.882 346.571 401.643 341.353C401.643 341.353 401.906 339.852 402.357 337.224C402.582 335.985 402.845 334.521 403.145 332.795C404.008 327.802 405.21 320.97 406.598 313.2C409.752 295.294 413.843 272.434 416.996 255.617L415.345 255.091L397.364 249.273L393.648 237.448L380.247 233.92C380.247 233.92 377.244 239.776 374.579 267.404C374.091 271.045 373.64 275.024 373.302 279.378C372.251 292.629 372.176 309.033 374.579 327.802C375.179 332.607 375.967 337.562 376.943 342.667C377.657 346.421 377.769 351.489 377.469 357.345C376.043 384.072 366.245 425.626 366.245 425.626Z" fill="#2B478B"/>
<path d="M373.265 279.378L402.357 337.187C402.582 335.948 402.845 334.484 403.145 332.757C404.008 327.765 405.209 320.933 406.598 313.162C409.752 295.257 413.843 272.396 416.996 255.579L415.345 255.053L397.364 249.235L393.648 237.411L380.247 233.882C380.247 233.882 377.244 239.738 374.578 267.366C374.053 271.007 373.602 275.024 373.265 279.378Z" fill="#233862"/>
<path d="M386.065 241.315L386.741 235.534C398.002 238.537 428.145 227.163 428.145 227.163C428.145 227.163 439.069 236.773 437.642 259.783C436.929 271.007 435.653 318.793 434.339 332.907C433.851 338.012 433.438 341.691 433.25 343.118C433.213 343.568 433.363 343.981 433.588 344.356C435.54 347.697 437.192 351.188 438.505 354.717C451.606 389.665 436.478 432.683 436.478 432.683L432.537 431.107C432.537 431.107 423.941 383.208 416.921 362.074C415.72 358.471 414.594 355.655 413.543 353.966C410.502 349.049 407.687 341.015 405.097 331.481C400.254 313.425 396.35 289.964 393.76 271.871C393.46 271.946 386.065 241.315 386.065 241.315Z" fill="#2B478B"/>
<path d="M305.059 222.133L305.884 227.801C305.884 227.801 306.26 227.801 306.898 227.763C308.963 227.613 313.955 227.351 319.586 226.75C328.069 225.924 338.167 224.423 342.184 221.945C348.302 218.191 358.325 206.78 364.894 195.331C365.082 195.068 365.232 194.768 365.345 194.505C368.761 188.424 371.125 182.418 371.313 177.613C371.463 174.685 371.125 172.132 370.525 169.955C369.737 167.065 368.423 164.775 367.071 163.048C366.884 162.785 366.696 162.485 366.433 162.26C364.181 159.595 362.004 158.468 362.004 158.468C360.878 158.018 359.676 158.543 358.4 159.932V159.97C357.387 161.058 356.26 162.673 355.172 164.737C355.134 164.775 355.097 164.812 355.097 164.887C354.871 165.3 354.646 165.788 354.346 166.276C354.271 166.351 354.196 166.502 354.158 166.614C353.633 167.703 353.145 168.791 352.619 169.993C346.876 182.493 340.757 201.449 335.652 207.118C333.475 209.558 323.415 214.325 315.419 217.853C309.751 220.256 305.059 222.133 305.059 222.133Z" fill="#FEB19E"/>
<path d="M364.481 171.269C368.01 172.92 372.289 174.047 377.469 174.309C396.876 175.36 401.268 158.356 402.056 147.094C399.279 146.081 396.801 146.193 395.412 146.269C394.023 146.344 392.597 146.494 391.433 146.644C389.068 145.405 384.789 139.399 382.349 129.301L381.523 129.677L367.522 136.246C367.522 136.246 369.023 140.788 370.112 145.142C370.975 148.558 371.576 151.862 371.05 152.763C369.961 153.213 369.286 153.476 369.286 153.476C369.136 153.889 366.095 161.659 364.481 171.269Z" fill="#FEB19E"/>
<path d="M359.639 183.994C359.789 184.37 359.939 184.745 360.126 185.158C365.044 195.744 374.128 239.55 374.128 239.55C372.852 247.433 433.326 238.011 433.476 230.842C435.615 223.221 425.931 211.022 420.45 204.903C419.774 204.115 419.136 203.289 418.611 202.425C417.259 200.248 416.396 197.771 416.133 195.181C415.045 185.008 415.457 175.473 415.382 169.692C414.331 168.904 413.28 168.153 412.304 167.477C410.84 166.389 409.526 165.413 408.588 164.399C407.537 163.273 406.861 162.147 406.786 160.871C406.749 159.895 406.749 158.919 406.861 157.905C406.899 157.455 406.974 156.967 407.049 156.516C407.8 151.599 409.864 147.132 409.864 147.132C404.646 145.03 395.412 146.269 395.412 146.269C395.412 146.269 395.412 146.794 395.412 147.62C395.45 150.998 395.412 159.67 394.324 161.321C392.972 163.348 368.197 172.32 366.883 169.542C365.607 166.802 369.136 154.039 369.248 153.551C360.952 156.817 357.987 159.557 357.987 159.557C363.017 162.785 355.772 173.746 359.639 183.994Z" fill="#F99746"/>
<path d="M376.343 92.5893C376.38 91.7635 377.019 82.6793 390.833 82.2289C390.833 82.2289 384.038 83.0547 382.875 86.0202C382.875 86.0202 387.492 82.3415 391.245 83.5052C394.999 84.7064 397.214 91.2755 397.252 93.4527C397.289 95.6299 395.187 102.612 392.784 103.213C391.884 103.438 390.833 103.363 389.894 103.213C390.532 104.189 391.17 105.315 391.734 106.516C397.252 117.815 391.546 128.851 386.891 127.65C383.888 126.862 383.062 131.967 383.062 131.967L354.008 108.468C354.045 108.468 364.706 86.3956 376.343 92.5893Z" fill="#2C3A64"/>
<path d="M367.521 136.283C367.521 136.283 369.023 140.826 370.112 145.18C378.295 142.89 380.772 134.294 381.523 129.677L367.521 136.283Z" fill="#FFA08B"/>
<path d="M365.795 141.088C365.795 141.088 385.352 136.546 382.349 124.422C379.346 112.297 379.834 103.513 367.222 105.878C354.609 108.243 353.333 113.498 353.333 117.777C353.37 122.094 360.615 141.952 365.795 141.088Z" fill="#FEB19E"/>
<path d="M352.244 110.908C354.346 106.516 356.823 106.741 358.363 107.529C367.559 99.0083 376.568 105.99 376.568 105.99C380.022 114.361 387.567 117.815 387.567 117.815C387.567 117.815 384.564 120.893 375.855 120.818C373.19 120.78 370.525 119.579 368.085 117.89C372.777 122.62 378.295 125.51 378.295 125.51C367.372 123.408 360.089 110.795 359.339 109.444C358.4 110.795 356.636 113.723 356.486 116.163C356.298 119.504 357.424 125.961 355.51 126.223C355.51 126.186 349.091 117.515 352.244 110.908Z" fill="#2C3A64"/>
<path d="M358.025 159.519C358.025 159.519 353.295 167.74 352.619 169.842C352.619 169.842 358.738 169.617 361.215 174.309C361.178 174.309 361.778 160.646 358.025 159.519Z" fill="#F99746"/>
<path d="M390.42 224.836C402.357 224.723 412.455 212.335 418.648 202.425C417.297 200.248 416.433 197.771 416.171 195.181C415.082 185.008 415.495 175.473 415.42 169.692C414.369 168.904 413.318 168.153 412.342 167.478C410.878 166.389 409.564 165.413 408.626 164.399C398.828 180.879 374.241 225.023 390.42 224.836Z" fill="#ED7D2B"/>
<path d="M345.337 231.33L346.989 237.298C346.989 237.298 349.053 236.923 352.319 236.322C353.295 236.134 353.858 235.984 353.858 235.984C356.486 235.459 359.601 234.783 363.017 234.032H363.055C368.873 232.643 375.442 230.954 380.923 229.077C384.789 227.726 388.168 226.262 390.458 224.835C390.683 224.685 390.87 224.573 391.096 224.385C396.576 220.406 403.033 208.732 408.1 196.232C408.814 194.505 409.452 192.778 410.09 191.089C412.417 184.82 414.294 178.664 415.42 173.333C416.133 170.143 416.584 167.252 416.697 164.887C416.734 164.061 416.809 163.236 416.734 162.522C416.659 148.971 409.902 147.132 409.902 147.132C409.752 147.094 409.639 147.057 409.452 146.982C408.288 146.794 407.087 147.582 405.811 149.121C404.234 151.036 402.545 154.151 400.818 157.943C398.153 163.949 395.337 171.757 392.747 179.527C391.283 183.769 389.894 188.011 388.506 191.952C387.717 194.317 386.929 196.569 386.178 198.634C384.714 202.538 383.438 205.729 382.274 207.756C381.523 209.07 379.384 210.871 376.531 212.936C371.576 216.54 364.331 220.856 358.025 224.423C355.397 225.924 352.92 227.275 350.893 228.402C347.514 230.166 345.337 231.33 345.337 231.33Z" fill="#FEB19E"/>
<path d="M400.818 157.943C409.789 155.465 416.734 162.485 416.734 162.485C416.621 148.971 409.902 147.132 409.902 147.132C407.162 146.006 404.046 150.698 400.818 157.943Z" fill="#F99746"/>
<path d="M413.656 435.987H444.737C444.737 435.987 445.488 431.257 443.874 427.653C442.335 424.2 439.895 422.623 440.458 418.457C438.468 420.484 435.278 422.773 430.773 422.173C430.21 423.074 427.207 427.841 425.368 429.155C423.341 430.619 414.256 430.093 413.656 435.987Z" fill="#233862"/>
<path d="M346.913 435.987H377.995C377.995 435.987 379.158 431.032 377.131 427.653C375.329 424.65 376.005 422.961 377.356 420.483C375.93 421.047 374.128 421.572 372.139 421.459C370.6 421.384 368.948 420.671 367.521 419.845C366.17 421.384 360.464 427.878 358.662 429.155C356.598 430.619 347.551 430.093 346.913 435.987Z" fill="#233862"/>
<path d="M343.46 259.033L336.065 241.014C335.089 238.649 332.536 237.448 330.134 238.086C327.694 233.469 324.315 229.753 320.486 227.125C316.47 224.347 311.928 222.846 307.498 222.846C305.133 222.846 302.806 223.296 300.554 224.235C290.043 228.552 285.351 241.803 289.217 254.828L288.654 255.054C288.654 255.054 286.852 254.941 283.849 254.941C274.352 254.941 252.73 256.217 237.565 266.728C237.565 266.728 236.627 267.741 236.589 269.28C236.552 269.806 236.664 270.369 236.927 270.97C236.927 270.97 261.289 255.204 283.774 271.42C285.163 272.396 286.515 273.335 287.791 274.198L289.818 279.115C293.159 287.299 302.581 291.24 310.764 287.899L331.372 279.453L335.652 277.689C342.934 274.686 346.463 266.277 343.46 259.033ZM303.482 244.43L295.073 247.884C292.783 248.822 291.582 251.3 292.183 253.627L291.282 254.002C287.866 242.14 292.033 230.166 301.417 226.337C302.731 225.811 304.082 225.436 305.471 225.286C309.788 224.723 314.293 225.887 318.347 228.402C322.176 230.804 325.629 234.408 328.069 238.95L326.83 239.475C325.629 237.411 323.039 236.472 320.749 237.411L312.341 240.864C311.702 239.25 310.126 238.274 308.474 238.274C307.949 238.274 307.423 238.387 306.935 238.574L305.772 239.062C303.632 239.888 302.618 242.291 303.482 244.43Z" fill="#C94C43"/>
<path d="M287.754 274.198C286.44 273.335 285.126 272.434 283.737 271.42C261.214 255.204 236.89 270.97 236.89 270.97C236.627 270.369 236.552 269.768 236.552 269.28C239.968 267.028 252.731 259.558 268.572 262.111C287.115 265.114 290.456 267.704 287.754 274.198Z" fill="#B23B38"/>
<path d="M335.652 277.689L331.372 279.453C337.829 275.925 329.833 261.06 325.179 251.262C320.524 241.465 313.467 245.932 313.467 245.932C311.853 242.628 308.399 242.816 308.399 242.816C308.212 239.663 305.809 239.025 305.809 239.025L306.973 238.537C307.498 238.349 308.024 238.237 308.512 238.237C310.163 238.237 311.703 239.213 312.378 240.827L320.787 237.373C323.077 236.435 325.667 237.373 326.868 239.438L328.107 238.912C325.629 234.37 322.213 230.729 318.384 228.364C314.33 225.849 309.826 224.685 305.509 225.248C306.184 224.685 306.898 223.935 307.573 222.883C312.04 222.846 316.545 224.385 320.562 227.163C324.39 229.79 327.769 233.507 330.209 238.124C332.611 237.448 335.164 238.687 336.14 241.052L343.535 259.07C346.463 266.277 342.934 274.686 335.652 277.689Z" fill="#B23B38"/>
<path d="M326.005 237.11C329.008 238.387 333.212 242.741 339.931 240.113C344.736 238.237 349.841 236.923 352.319 236.322C353.295 236.134 353.858 235.984 353.858 235.984L351.193 228.251C351.193 228.251 351.118 228.289 350.855 228.327C349.128 228.702 340.344 230.579 336.253 229.64C331.635 228.552 323.865 234.107 323.865 234.107C323.865 234.107 323.002 235.909 326.005 237.11Z" fill="#FEB19E"/>
<path d="M241.619 283.995C241.619 281.18 236.552 272.546 236.552 272.546C236.552 272.546 231.484 281.218 231.484 283.995C231.484 286.811 233.774 289.063 236.552 289.063C239.367 289.101 241.619 286.811 241.619 283.995Z" fill="#A9DFE6"/>
<path d="M230.041 90.6352C228.77 79.3277 218.858 75.7229 206.405 74.8939L206.163 59.1802L196.525 59.3679L196.756 74.6558C194.221 74.7059 191.633 74.8065 189.055 74.9068L188.813 59.5067L179.195 59.6941L179.433 75.4036C177.347 75.4874 175.297 75.5646 173.301 75.604L173.289 75.5585L160.002 75.8024L160.153 86.0293C160.153 86.0293 167.267 85.7556 167.152 85.8889C171.055 85.8135 172.36 88.0382 172.762 89.9713L173.036 107.866C173.377 107.859 173.717 107.875 174.056 107.913C173.734 107.92 173.391 107.925 173.025 107.933L173.409 133.01C173.258 134.232 172.566 136.191 169.837 136.25C169.961 136.355 162.83 136.384 162.83 136.384L161.13 147.846L173.659 147.608C175.994 147.565 178.292 147.56 180.546 147.528L180.793 163.407L190.422 163.222L190.18 147.498C192.824 147.501 195.383 147.473 197.881 147.422L198.118 163.075L207.757 162.887L207.516 147.03C223.705 145.79 234.983 141.518 236.162 126.389C237.111 114.207 231.265 108.894 222.034 106.88C227.562 103.954 230.987 98.9088 230.041 90.6352ZM217.082 124.879C217.271 136.756 196.759 135.805 190.225 135.925L189.904 114.868C196.439 114.755 216.903 112.488 217.082 124.879ZM212.141 95.2571C212.304 106.063 195.195 105.134 189.755 105.242L189.459 86.1338C194.904 86.0378 211.967 83.9891 212.141 95.2571V95.2571Z" fill="#FFA412"/>
<path d="M78.0072 281.17C77.4827 276.507 73.3954 275.02 68.2598 274.678L68.1603 268.198L64.1856 268.276L64.2807 274.58C63.2356 274.601 62.1683 274.642 61.1053 274.684L61.0052 268.333L57.039 268.41L57.1369 274.889C56.2771 274.923 55.4314 274.955 54.6083 274.971L54.6033 274.952L49.1239 275.053L49.1862 279.27C49.1862 279.27 52.12 279.157 52.0728 279.212C53.6821 279.181 54.2205 280.099 54.386 280.896L54.4991 288.275C54.6396 288.273 54.7801 288.279 54.9197 288.295C54.7869 288.298 54.6454 288.3 54.4947 288.303L54.653 298.645C54.5904 299.148 54.3051 299.956 53.1798 299.98C53.2309 300.024 50.2904 300.036 50.2904 300.036L49.5891 304.763L54.7562 304.664C55.7188 304.647 56.6665 304.645 57.5962 304.632L57.6979 311.18L61.6686 311.104L61.5691 304.619C62.6595 304.62 63.7145 304.609 64.7446 304.588L64.8427 311.043L68.8175 310.965L68.7181 304.426C75.3943 303.915 80.0453 302.153 80.5314 295.914C80.9225 290.89 78.5118 288.699 74.7049 287.869C76.9847 286.662 78.3972 284.582 78.0072 281.17ZM72.663 295.291C72.7411 300.189 64.282 299.797 61.5876 299.847L61.455 291.163C64.1503 291.116 72.589 290.182 72.663 295.291ZM70.6252 283.076C70.6928 287.532 63.6371 287.149 61.3939 287.193L61.2717 279.313C63.5172 279.274 70.5536 278.429 70.6252 283.076V283.076Z" fill="#FFA412"/>
<path d="M322.371 322.163C321.969 318.588 318.835 317.449 314.898 317.186L314.822 312.219L311.775 312.278L311.848 317.111C311.047 317.127 310.228 317.159 309.413 317.191L309.337 312.322L306.296 312.381L306.371 317.348C305.712 317.374 305.064 317.399 304.433 317.411L304.429 317.397L300.228 317.474L300.276 320.707C300.276 320.707 302.525 320.62 302.489 320.663C303.723 320.639 304.135 321.342 304.262 321.953L304.349 327.61C304.457 327.608 304.564 327.613 304.671 327.625C304.57 327.628 304.461 327.629 304.346 327.632L304.467 335.56C304.419 335.946 304.2 336.565 303.337 336.584C303.377 336.617 301.122 336.626 301.122 336.626L300.585 340.25L304.546 340.175C305.284 340.161 306.01 340.16 306.723 340.15L306.801 345.17L309.845 345.111L309.769 340.14C310.605 340.141 311.414 340.132 312.203 340.116L312.279 345.065L315.326 345.005L315.25 339.992C320.368 339.6 323.933 338.249 324.306 333.466C324.606 329.615 322.758 327.935 319.839 327.299C321.587 326.374 322.67 324.779 322.371 322.163ZM318.274 332.989C318.334 336.744 311.849 336.443 309.783 336.481L309.682 329.824C311.748 329.788 318.217 329.072 318.274 332.989ZM316.712 323.624C316.764 327.041 311.354 326.747 309.635 326.781L309.541 320.74C311.262 320.71 316.657 320.062 316.712 323.624V323.624Z" fill="#FFA412"/>
</svg>
