<svg width="40" height="40" viewBox="0 0 40 40" fill="none" xmlns="http://www.w3.org/2000/svg">
<path d="M19.1523 0.736715V8.84059H15.8493C15.1458 8.84059 14.7484 9.54225 15.1775 10.0267L19.3283 14.7127C19.6676 15.0958 20.3324 15.0958 20.6717 14.7127L24.8225 10.0267C25.2516 9.54225 24.8542 8.84059 24.1507 8.84059H20.8477V0.736716C20.8477 0.329839 20.4682 0 20 0C19.5318 0 19.1523 0.329839 19.1523 0.736715Z" fill="#B0ABDD"/>
<path fill-rule="evenodd" clip-rule="evenodd" d="M14.1859 11H10.0588C8.37647 11 7 12.3765 7 14.0588V33.9412C7 35.6235 8.37647 37 10.0588 37H30.7059C31.5471 37 32.2353 36.3118 32.2353 35.4706V31.6471H27.4176C24.8176 31.6471 22.6765 29.5059 22.6765 26.9059C22.6765 24.3059 24.8176 22.2412 27.4176 22.2412H32.2353V17.8824C32.2353 17.0412 31.5471 16.3529 30.7059 16.3529H11.9706C11.3588 16.3529 10.8235 15.8176 10.8235 15.2059C10.8235 14.5941 11.3588 14.0588 11.9706 14.0588H17.1296L14.213 11.032C14.2037 11.0214 14.1946 11.0108 14.1859 11ZM22.8704 14.0588L25.787 11.032C25.7963 11.0214 25.8054 11.0108 25.8141 11H28.4118C29.2529 11 29.9412 11.6882 29.9412 12.5294V14.0588H22.8704ZM27.4176 24.1529H32.6176C32.8471 24.1529 33 24.3059 33 24.6118V29.4294C33 29.6588 32.8471 29.8118 32.6176 29.8118H27.4176C25.8118 29.8118 24.5882 28.5118 24.5882 26.9824C24.5882 25.3765 25.8882 24.1529 27.4176 24.1529ZM26.8824 26.9059C26.8824 27.5176 27.4176 28.0529 28.0294 28.0529C28.6412 28.0529 29.1765 27.5176 29.1765 26.9059C29.1765 26.2941 28.6412 25.7588 28.0294 25.7588C27.4176 25.7588 26.8824 26.2941 26.8824 26.9059Z" fill="#B0ABDD"/>
</svg>
