<svg width="40" height="40" viewBox="0 0 40 40" fill="none" xmlns="http://www.w3.org/2000/svg">
<path d="M26.8 11.7714V15.8857C26.8 16.6057 26.2 17.2229 25.5 17.2229C24.8 17.2229 24.2 16.6057 24.2 15.8857V11.7714H15.7V24.1143C15.7 24.8343 15.1 25.4514 14.4 25.4514C13.7 25.4514 13.1 24.8343 13.1 24.1143V11.7714H8.79999V35.9429C8.79999 37.0743 9.69999 38 10.8 38H28.8C29.9 38 30.8 37.0743 30.8 35.9429V11.7714H26.8ZM14.5 33.8857C13.1 33.8857 12 32.7543 12 31.3143C12 29.8743 13.1 28.7429 14.5 28.7429C15.9 28.7429 17 29.8743 17 31.3143C17 32.7543 15.9 33.8857 14.5 33.8857ZM26.8 32.3429C26.8 33.0629 26.2 33.68 25.5 33.68C24.8 33.68 24.2 33.0629 24.2 32.3429V29.2571C24.2 28.5371 24.8 27.92 25.5 27.92C26.2 27.92 26.8 28.5371 26.8 29.2571V32.3429ZM26.8 24.1143C26.8 24.8343 26.2 25.4514 25.5 25.4514C24.8 25.4514 24.2 24.8343 24.2 24.1143V21.0286C24.2 20.3086 24.8 19.6914 25.5 19.6914C26.2 19.6914 26.8 20.3086 26.8 21.0286V24.1143Z" fill="#B0ABDD"/>
<path d="M35 2H5C2.8 2 1 3.85143 1 6.11429V13.3143C1 15.5771 2.8 17.4286 5 17.4286H5.5C5.8 17.4286 6 17.2229 6 16.9143V9.71429C6 9.40571 6.2 9.2 6.5 9.2H33.5C33.8 9.2 34 9.40571 34 9.71429V16.9143C34 17.2229 34.2 17.4286 34.5 17.4286H35C37.2 17.4286 39 15.5771 39 13.3143V6.11429C39 3.85143 37.2 2 35 2Z" fill="#B0ABDD"/>
</svg>
