<svg width="40" height="40" viewBox="0 0 40 40" fill="none" xmlns="http://www.w3.org/2000/svg">
<path fill-rule="evenodd" clip-rule="evenodd" d="M26.2848 0.206932C26.138 0.334892 25.9951 0.439629 25.9672 0.439629C25.9394 0.439629 25.7782 0.560437 25.6089 0.708007C25.4396 0.855653 25.2655 0.976769 25.222 0.977153C25.1785 0.977615 25.1018 1.03237 25.0515 1.09888C25.0011 1.1654 24.8353 1.29521 24.6829 1.38726C24.5305 1.4793 24.3549 1.58996 24.2926 1.6331C23.7684 1.99668 23.5748 2.11964 23.2826 2.27482C22.8821 2.48745 22.9 2.52959 23.5439 2.89194C24.03 3.16547 24.1798 3.41078 24.0141 3.66208C23.9695 3.72952 23.8941 3.87125 23.8465 3.97699C23.7988 4.08272 23.7355 4.20384 23.7056 4.24613C23.5726 4.43461 23.2999 4.87917 23.2015 5.06818C23.0949 5.27274 22.6307 5.97444 22.1264 6.69329C21.9833 6.89731 21.6433 7.34716 21.3709 7.69298C21.0985 8.0388 20.8413 8.38922 20.7996 8.47158C20.6976 8.67244 18.1099 11.5131 18.0289 11.5131C17.9939 11.5131 17.7178 11.7594 17.4153 12.0604C17.1129 12.3614 16.8037 12.6469 16.7282 12.6948C16.5845 12.7861 16.0101 13.2689 15.5923 13.6498C15.4573 13.7728 15.2523 13.937 15.1366 14.0148C15.0209 14.0924 14.7115 14.3141 14.4488 14.5072C14.1862 14.7003 13.865 14.9286 13.735 15.0146C13.6051 15.1006 13.4415 15.2253 13.3714 15.2917C13.3013 15.3581 13.1493 15.4652 13.0336 15.5297C12.4655 15.8466 12.155 16.0335 12.0727 16.1082C11.8243 16.3337 8.12929 18.3571 7.96575 18.3571C7.92467 18.3571 7.68661 18.4609 7.43671 18.5878C7.1868 18.7147 6.92435 18.8196 6.85348 18.821C6.78261 18.8223 6.66337 18.8742 6.58857 18.9363C6.51371 18.9984 6.39243 19.0492 6.31897 19.0492C6.19216 19.0492 6.11133 19.0864 5.59224 19.3839C5.47062 19.4536 5.29712 19.5118 5.20669 19.5133C5.11627 19.5148 4.96338 19.5655 4.86699 19.6259C4.7706 19.6864 4.57734 19.7371 4.43742 19.7386C4.29757 19.7401 4.14391 19.7932 4.09589 19.8566C4.04787 19.9201 3.93263 19.972 3.83968 19.972C3.7468 19.972 3.56755 20.0194 3.4413 20.0772C3.16553 20.2036 2.37172 20.4266 2.02346 20.4755C1.88551 20.4949 1.71383 20.5453 1.64198 20.5874C1.5702 20.6296 1.39796 20.6641 1.25923 20.6641C0.945748 20.6641 0.880275 20.8139 1.0366 21.1735C1.10614 21.3334 1.1517 21.6328 1.1517 21.9292C1.1517 22.4806 1.20596 22.5435 1.5498 22.3905C1.67233 22.336 1.9528 22.2667 2.17313 22.2365C2.39338 22.2063 2.6559 22.1345 2.75643 22.077C2.85695 22.0194 3.04222 21.9721 3.16805 21.9718C3.29388 21.9716 3.45161 21.9392 3.51855 21.9C3.68679 21.8014 4.28397 21.6096 4.62164 21.5457C4.77586 21.5166 4.97193 21.4447 5.05731 21.386C5.14269 21.3273 5.28549 21.2793 5.37465 21.2793C5.46382 21.2793 5.59904 21.2321 5.67503 21.1745C5.75109 21.1169 5.90797 21.0516 6.02364 21.0295C6.28027 20.9804 6.58717 20.8574 7.16297 20.573C7.40404 20.4539 7.6604 20.3565 7.73267 20.3565C7.80494 20.3565 7.90336 20.3046 7.95138 20.2411C7.9994 20.1777 8.10574 20.1247 8.18776 20.1233C8.26985 20.122 8.3982 20.0701 8.473 20.008C8.54786 19.9459 8.67804 19.8951 8.76237 19.8951C8.84663 19.8951 8.95486 19.8432 9.00288 19.7797C9.0509 19.7163 9.1353 19.6644 9.19054 19.6644C9.28489 19.6644 12.1023 18.1414 12.6598 17.7891C12.8011 17.6997 13.0535 17.5451 13.2206 17.4453C13.3876 17.3457 13.66 17.164 13.8257 17.0416C13.9915 16.9193 14.1542 16.8191 14.1872 16.8191C14.2202 16.8191 14.4878 16.6374 14.782 16.4154C15.076 16.1934 15.3708 15.9759 15.4369 15.932C15.8175 15.6799 16.2309 15.3607 16.5118 15.1021C16.6877 14.9403 16.8956 14.7672 16.9739 14.7176C17.2447 14.546 17.8479 14.0092 18.5439 13.3202C18.9284 12.9396 19.3601 12.5356 19.5031 12.4226C20.1085 11.944 22.5916 8.99388 23.4291 7.75827C23.6105 7.49058 23.8867 7.09263 24.0429 6.87393C24.1991 6.65515 24.3464 6.41999 24.3703 6.35132C24.3941 6.28265 24.5581 5.99497 24.7347 5.71206C24.9113 5.42915 25.0557 5.17261 25.0557 5.14193C25.0557 5.11132 25.1491 4.96637 25.2632 4.81995C25.3773 4.67354 25.4719 4.50936 25.4735 4.45522C25.4798 4.23591 25.712 4.2872 26.2479 4.62625C26.5582 4.82257 26.8396 4.96452 26.8733 4.94161C26.9412 4.89562 26.9167 2.66716 26.845 2.36211C26.8201 2.25637 26.778 1.68816 26.7514 1.0995C26.7219 0.447165 26.6735 0.0183757 26.6274 0.00161166C26.5858 -0.0134606 26.4317 0.0788951 26.2848 0.206932ZM27.3129 9.2984C27.2484 9.36923 27.2291 11.6887 27.2299 19.2761C27.2305 24.7131 27.2581 29.2084 27.2912 29.2658C27.3576 29.3807 27.6633 29.3374 28.035 29.1604C28.2243 29.0703 29.4058 28.8911 30.0328 28.8575C30.1678 28.8501 30.4097 28.8378 30.5704 28.8298L30.8627 28.8154L30.7959 28.5501C30.7558 28.3904 30.737 26.1954 30.749 23.0326L30.7689 17.7804L30.9276 17.5004C31.4391 16.598 32.8506 16.0045 34.7295 15.902L35.5357 15.8579L35.5539 12.6371C35.5671 10.3232 35.5499 9.38661 35.4928 9.31117C35.3833 9.16637 27.4446 9.15399 27.3129 9.2984ZM34.0636 16.8241C33.1127 16.9942 32.4357 17.1798 32.276 17.3141C32.2182 17.3627 32.0799 17.4526 31.9686 17.5138C31.6854 17.6698 31.5621 17.9099 31.588 18.2551C31.6071 18.5105 31.6549 18.5822 31.9493 18.7981C32.5678 19.2515 34.0192 19.5891 35.3314 19.5847C36.5079 19.5808 37.9089 19.2883 38.5314 18.9166C38.8587 18.7212 39.1458 18.3436 39.1458 18.1085C39.1458 17.6715 38.2112 17.1213 37.148 16.9324C36.9937 16.905 36.7256 16.8531 36.5521 16.817C36.1591 16.7352 34.5343 16.7399 34.0636 16.8241ZM21.1827 18.3385L17.1345 18.3583V26.7013V35.0442H21.2706H25.4069L25.389 26.6878C25.3773 21.1866 25.3472 18.3293 25.3011 18.325C25.2625 18.3215 23.4092 18.3276 21.1827 18.3385ZM31.575 20.2711C31.575 20.7647 31.6014 20.9108 31.7203 21.0766C31.8002 21.1881 31.9003 21.2793 31.9426 21.2793C31.985 21.2793 32.0694 21.3253 32.1303 21.3816C32.2742 21.5147 32.7413 21.6906 33.3976 21.8589C34.2031 22.0656 36.4929 22.0514 37.38 21.8344C37.7391 21.7466 38.0703 21.6425 38.1161 21.6029C38.1619 21.5635 38.2799 21.5102 38.3782 21.4845C38.4765 21.4588 38.6894 21.3037 38.8514 21.1397L39.1458 20.8415V20.253C39.1458 19.6034 39.1295 19.5858 38.7347 19.8077C38.2466 20.0821 37.9182 20.2182 37.5693 20.2908C36.5964 20.4931 36.2177 20.5225 35.0099 20.4896C33.6296 20.4519 32.796 20.2974 32.1844 19.9658C31.5316 19.6118 31.575 19.59 31.575 20.2711ZM38.8654 22.2454C38.2299 22.5953 37.7845 22.7477 37.0428 22.8695C35.8946 23.0578 34.865 23.0798 33.9637 22.9352C33.5174 22.8636 33.0487 22.7558 32.9221 22.6958C32.7955 22.6357 32.6288 22.5866 32.5517 22.5866C32.4746 22.5866 32.2559 22.5 32.0657 22.3943C31.8755 22.2886 31.6873 22.2021 31.6474 22.2021C31.5541 22.2021 31.5511 23.2398 31.644 23.4301C31.7396 23.6262 32.3568 24.0301 32.7149 24.131C33.8236 24.4434 33.9468 24.4598 35.2202 24.465C36.9408 24.4719 37.7142 24.326 38.5256 23.8416C38.988 23.5655 39.1458 23.2695 39.1458 22.6781C39.1458 22.4213 39.1222 22.1971 39.0932 22.1801C39.0643 22.163 38.9618 22.1925 38.8654 22.2454ZM6.9472 24.2521C6.9212 24.2806 6.89989 26.7015 6.89989 29.6318C6.89989 34.1687 6.91475 34.9688 6.99999 35.0211C7.05509 35.055 8.93222 35.0734 11.1714 35.0622L15.2427 35.0417L15.2247 29.6408L15.2067 24.2399L11.1006 24.2201C8.84221 24.2091 6.97321 24.2236 6.9472 24.2521ZM38.8249 24.7313C38.5482 24.9158 37.8319 25.1664 37.148 25.3179C36.7546 25.405 36.1975 25.4428 35.2828 25.4445C33.6777 25.4474 33.1753 25.3419 31.6626 24.6844C31.597 24.6559 31.575 24.8006 31.575 25.263C31.575 25.8579 31.5827 25.8866 31.792 26.0799C32.4434 26.6811 33.6185 26.9746 35.3604 26.971C36.7684 26.968 37.6984 26.7869 38.421 26.3749C39.0076 26.0404 39.1458 25.8116 39.1458 25.1746C39.1458 24.8981 39.1199 24.6544 39.0882 24.6329C39.0566 24.6115 38.9381 24.6557 38.8249 24.7313ZM38.61 27.439C38.0204 27.7347 37.4497 27.8836 36.3769 28.0214C35.6124 28.1196 35.3105 28.1237 34.5036 28.0464C33.9746 27.9957 33.4226 27.9208 33.2769 27.8799C33.1312 27.8389 32.9017 27.7759 32.7667 27.7397C32.4766 27.6619 32.0914 27.5023 31.8776 27.3712C31.6026 27.2027 31.575 27.2503 31.575 27.8921V28.5068L31.8443 28.7209C32.7023 29.4027 34.382 29.703 36.3332 29.5235C37.3196 29.4327 37.69 29.3332 38.4097 28.9654C38.9703 28.6789 39.1458 28.3911 39.1458 27.7578C39.1458 27.4986 39.1222 27.2722 39.0932 27.2547C39.0643 27.2372 38.8468 27.3202 38.61 27.439ZM38.6551 29.8926C38.0123 30.2433 36.933 30.4907 35.7109 30.5675L34.8347 30.6225V31.3091C34.8347 31.9837 34.8378 31.9965 35.0172 32.0491C35.1176 32.0786 35.5592 32.0753 35.9986 32.0418C37.183 31.9515 38.0921 31.7045 38.6425 31.3233C39.0498 31.0413 39.1458 30.8274 39.1458 30.2023C39.1458 29.9047 39.1222 29.666 39.0932 29.6717C39.0643 29.6775 38.8671 29.7769 38.6551 29.8926ZM29.2343 29.8286C27.6218 30.0046 26.5132 30.6001 26.6279 31.2288C26.7162 31.7134 27.2308 32.0585 28.3002 32.35C28.8283 32.4939 29.1127 32.5178 30.2981 32.5181C32.0491 32.5184 33.1317 32.2955 33.7446 31.8084C34.239 31.4155 34.2871 31.0676 33.9023 30.6683C33.6554 30.412 33.2765 30.2376 32.3812 29.9676C31.8095 29.7953 30.1936 29.7239 29.2343 29.8286ZM38.6762 32.4715C38.3993 32.6396 38.1056 32.7386 37.183 32.9749C36.9709 33.0292 36.3558 33.0931 35.8161 33.117L34.8347 33.1602V33.8907V34.6213L35.8161 34.6162C36.8119 34.6111 37.2776 34.5274 38.0592 34.2127C38.654 33.9732 38.8192 33.862 38.9884 33.5863C39.1249 33.3638 39.1482 33.2392 39.1311 32.8234C39.1199 32.5501 39.0792 32.3189 39.0406 32.3096C39.0021 32.3003 38.8381 32.3731 38.6762 32.4715ZM26.6449 32.7113C26.6191 32.7397 26.5979 32.9947 26.5979 33.278C26.5979 33.8857 26.7029 34.0761 27.212 34.3924C27.9442 34.8473 29.2729 35.0851 30.7056 35.0178C32.206 34.9472 32.712 34.8401 33.4677 34.4336C34.0085 34.1426 34.1687 33.8577 34.1687 33.1873C34.1687 32.8974 34.1442 32.6603 34.1142 32.6603C34.0842 32.6603 33.9975 32.7059 33.9215 32.7617C33.7786 32.8664 33.4177 33.0152 32.7905 33.2282C31.8807 33.5371 30.1612 33.6313 28.8762 33.4425C28.3093 33.3592 27.1113 32.9612 26.8396 32.7659C26.7583 32.7076 26.6708 32.683 26.6449 32.7113ZM38.7953 34.8796C38.3 35.269 36.9067 35.5724 35.1151 35.6809L34.8347 35.6979L34.8146 36.4L34.7946 37.1022L35.095 37.1514C35.2602 37.1785 35.6794 37.1659 36.0264 37.1234C37.7631 36.911 38.5648 36.6357 38.9646 36.1145C39.1343 35.8933 39.1497 35.8207 39.1311 35.329C39.1199 35.0311 39.0792 34.7771 39.0406 34.7646C39.0021 34.7521 38.8917 34.8038 38.7953 34.8796ZM26.6129 35.8229C26.6508 36.5411 26.6888 36.5956 27.4041 36.9595C28.2026 37.3658 28.793 37.4662 30.3833 37.4664C31.5432 37.4665 31.915 37.4397 32.3111 37.3273C33.1954 37.0763 33.7279 36.82 33.9556 36.5355C34.1494 36.2934 34.1687 36.2207 34.1687 35.7336C34.1687 35.4142 34.1393 35.198 34.0958 35.198C34.0557 35.198 33.9059 35.2611 33.7628 35.3384C33.6198 35.4155 33.3135 35.5341 33.0822 35.6017C32.8508 35.6693 32.5221 35.7651 32.3518 35.8144C31.8621 35.9562 30.4983 36.0301 29.5421 35.9668C28.6165 35.9056 27.5407 35.644 27.0236 35.3547C26.5864 35.11 26.5759 35.1219 26.6129 35.8229ZM33.9527 37.6884C33.7733 37.8679 32.8651 38.1845 32.276 38.2728C32.064 38.3047 31.6381 38.3737 31.3297 38.4264C30.1331 38.6306 28.1361 38.3546 27.1046 37.8423C26.9013 37.7414 26.7008 37.6588 26.6591 37.6588C26.6087 37.6588 26.5918 37.8683 26.6089 38.282C26.633 38.8657 26.648 38.9171 26.8441 39.0914C27.4998 39.6742 28.8213 40.0068 30.4534 39.9999C31.4424 39.9957 32.2661 39.8756 32.8368 39.6525C33.5677 39.3666 33.7065 39.29 33.9274 39.0493C34.1583 38.7979 34.1687 38.7626 34.1687 38.2272C34.1687 37.6436 34.1197 37.5213 33.9527 37.6884Z" fill="#B0ABDD"/>
</svg>
