<svg width="40" height="40" viewBox="0 0 40 40" fill="none" xmlns="http://www.w3.org/2000/svg">
<path d="M27.2727 16.1429C30.2909 16.1429 32.7091 13.6543 32.7091 10.5714C32.7091 7.48857 30.2909 5 27.2727 5C24.2545 5 21.8182 7.48857 21.8182 10.5714C21.8182 13.6543 24.2545 16.1429 27.2727 16.1429ZM12.7273 16.1429C15.7455 16.1429 18.1636 13.6543 18.1636 10.5714C18.1636 7.48857 15.7455 5 12.7273 5C9.70909 5 7.27273 7.48857 7.27273 10.5714C7.27273 13.6543 9.70909 16.1429 12.7273 16.1429ZM12.7273 19.8571C8.49091 19.8571 0 22.03 0 26.3571V31.1429C0 32.1643 0.818182 33 1.81818 33H23.6364C24.6364 33 25.4545 32.1643 25.4545 31.1429V26.3571C25.4545 22.03 16.9636 19.8571 12.7273 19.8571ZM27.2727 19.8571C26.7455 19.8571 26.1455 19.8943 25.5091 19.95C25.5455 19.9686 25.5636 20.0057 25.5818 20.0243C27.6545 21.5657 29.0909 23.6271 29.0909 26.3571V31.1429C29.0909 31.7929 28.9636 32.4243 28.7636 33H38.1818C39.1818 33 40 32.1643 40 31.1429V26.3571C40 22.03 31.5091 19.8571 27.2727 19.8571Z" fill="#B0ABDD"/>
</svg>
