<svg width="40" height="40" viewBox="0 0 40 40" fill="none" xmlns="http://www.w3.org/2000/svg">
<path d="M17.5227 28.4886L14.2134 31.7979C12.5561 33.4552 9.85949 33.4557 8.20138 31.7979C6.54436 30.1406 6.54491 27.4441 8.2022 25.7868L14.847 19.142C16.3826 17.6064 18.8112 17.493 20.4775 18.8034C20.6093 18.9069 20.7365 19.0198 20.8582 19.1415C21.5962 19.8792 22.7404 19.8913 23.463 19.1684L25.5455 17.0859C25.2033 16.5666 24.8078 16.0821 24.3626 15.6368C23.735 15.0095 23.039 14.4912 22.2974 14.0834C19.3959 12.483 15.8075 12.5629 12.9738 14.3229C12.3852 14.6885 11.8285 15.1265 11.3177 15.6377L4.69756 22.2577C1.10091 25.8543 1.10091 31.7062 4.69701 35.3025C8.29394 38.8992 14.1455 38.8992 17.7425 35.3025L23.6979 29.3471C21.6176 29.6224 19.4764 29.3367 17.5227 28.4886Z" fill="#B0ABDD"/>
<path d="M35.3025 4.6972C31.7061 1.10084 25.8545 1.10084 22.2576 4.69775L16.3027 10.6526C18.383 10.3771 20.5242 10.6627 22.4779 11.5112L25.7875 8.20154C27.4448 6.54426 30.1409 6.54426 31.7981 8.20154C33.456 9.85937 33.456 12.5554 31.7987 14.2127L25.1531 20.8583C23.6345 22.3768 21.2243 22.4818 19.5599 21.1777C19.4237 21.0719 19.2935 20.9563 19.1685 20.8313C18.4429 20.1057 17.2627 20.1063 16.537 20.8319L14.4546 22.9143C14.7971 23.4326 15.1931 23.9177 15.6375 24.3621C16.2695 24.994 16.9715 25.5148 17.7183 25.9249C20.6357 27.5264 24.2423 27.4327 27.0779 25.645C27.6475 25.286 28.1867 24.8584 28.6821 24.3626L35.3025 17.7426C38.8992 14.1457 38.8992 8.2941 35.3025 4.6972Z" fill="#B0ABDD"/>
</svg>
