<svg width="40" height="40" viewBox="0 0 40 40" fill="none" xmlns="http://www.w3.org/2000/svg">
<path d="M29.7 17.7H36V12C36 10.9 35.1 10 34 10H9.5C8.7 10 8 9.3 8 8.5C8 7.7 8.7 7 9.5 7H33V5C33 3.9 32.1 3 31 3H7C4.8 3 3 4.8 3 7V33C3 35.2 4.8 37 7 37H34C35.1 37 36 36.1 36 35V30H29.7C26.3 30 23.5 27.2 23.5 23.8C23.5 20.4 26.3 17.7 29.7 17.7Z" fill="#B0ABDD"/>
<path d="M36.5 20.2H29.7C27.7 20.2 26 21.8 26 23.9C26 25.9 27.6 27.6 29.7 27.6H36.5C36.8 27.6 37 27.4 37 27.1V20.8C37 20.4 36.8 20.2 36.5 20.2ZM30.5 25.3C29.7 25.3 29 24.6 29 23.8C29 23 29.7 22.3 30.5 22.3C31.3 22.3 32 23 32 23.8C32 24.6 31.3 25.3 30.5 25.3Z" fill="#B0ABDD"/>
</svg>
