<svg width="40" height="40" viewBox="0 0 40 40" fill="none" xmlns="http://www.w3.org/2000/svg">
<g clip-path="url(#clip0)">
<path d="M26.1818 18.551C28.7473 18.551 30.8027 16.418 30.8027 13.7755C30.8027 11.1331 28.7473 9 26.1818 9C23.6164 9 21.5455 11.1331 21.5455 13.7755C21.5455 16.418 23.6164 18.551 26.1818 18.551ZM13.8182 18.551C16.3836 18.551 18.4391 16.418 18.4391 13.7755C18.4391 11.1331 16.3836 9 13.8182 9C11.2527 9 9.18182 11.1331 9.18182 13.7755C9.18182 16.418 11.2527 18.551 13.8182 18.551ZM13.8182 21.7347C10.2173 21.7347 3 23.5971 3 27.3061V31.4082C3 32.2837 3.69545 33 4.54545 33H23.0909C23.9409 33 24.6364 32.2837 24.6364 31.4082V27.3061C24.6364 23.5971 17.4191 21.7347 13.8182 21.7347ZM26.1818 21.7347C25.7336 21.7347 25.2236 21.7665 24.6827 21.8143C24.7136 21.8302 24.7291 21.862 24.7445 21.878C26.5064 23.1992 27.7273 24.9661 27.7273 27.3061V31.4082C27.7273 31.9653 27.6191 32.5065 27.4491 33H35.4545C36.3045 33 37 32.2837 37 31.4082V27.3061C37 23.5971 29.7827 21.7347 26.1818 21.7347Z" fill="#B0ABDD"/>
<path d="M6.5 15.2633L6.5 7.15941L9.15073 7.15941C9.85419 7.15941 10.2516 6.45775 9.82246 5.97331L5.67173 1.28732C5.33239 0.904226 4.66761 0.904226 4.32827 1.28732L0.177539 5.97331C-0.251568 6.45775 0.145807 7.15941 0.849267 7.15941L3.5 7.15941L3.5 15.2633C3.5 15.6702 4.53182 16 5 16C5.46818 16 6.5 15.6702 6.5 15.2633Z" fill="#B0ABDD"/>
<path d="M36.5 15.2633L36.5 7.15941L39.1507 7.15941C39.8542 7.15941 40.2516 6.45775 39.8225 5.97331L35.6717 1.28732C35.3324 0.904226 34.6676 0.904226 34.3283 1.28732L30.1775 5.97331C29.7484 6.45775 30.1458 7.15941 30.8493 7.15941L33.5 7.15941L33.5 15.2633C33.5 15.6702 34.5318 16 35 16C35.4682 16 36.5 15.6702 36.5 15.2633Z" fill="#B0ABDD"/>
</g>
<defs>
<clipPath id="clip0">
<rect width="40" height="40" fill="white"/>
</clipPath>
</defs>
</svg>
