<svg width="40" height="40" viewBox="0 0 40 40" fill="none" xmlns="http://www.w3.org/2000/svg">
<path d="M33.3333 25.8333C31.25 25.8333 29.25 25.5 27.3833 24.8833C26.8 24.7 26.15 24.8333 25.6833 25.2833L22.0167 28.95C17.3 26.55 13.4333 22.7 11.0333 17.9833L14.7 14.3C15.1667 13.85 15.3 13.2 15.1167 12.6167C14.5 10.75 14.1667 8.75 14.1667 6.66667C14.1667 5.75 13.4167 5 12.5 5H6.66667C5.75 5 5 5.75 5 6.66667C5 22.3167 17.6833 35 33.3333 35C34.25 35 35 34.25 35 33.3333V27.5C35 26.5833 34.25 25.8333 33.3333 25.8333ZM20 5V21.6667L25 16.6667H35V5H20Z" fill="#B0ABDD"/>
</svg>
