<svg width="40" height="40" viewBox="0 0 40 40" fill="none" xmlns="http://www.w3.org/2000/svg">
<path d="M31.666 23.3334V10.0001C31.666 8.16675 30.166 6.66675 28.3327 6.66675H4.99935C3.16602 6.66675 1.66602 8.16675 1.66602 10.0001V23.3334C1.66602 25.1667 3.16602 26.6667 4.99935 26.6667H28.3327C30.166 26.6667 31.666 25.1667 31.666 23.3334ZM16.666 21.6667C13.8993 21.6667 11.666 19.4334 11.666 16.6667C11.666 13.9001 13.8993 11.6667 16.666 11.6667C19.4327 11.6667 21.666 13.9001 21.666 16.6667C21.666 19.4334 19.4327 21.6667 16.666 21.6667ZM38.3327 11.6667V30.0001C38.3327 31.8334 36.8327 33.3334 34.9993 33.3334H6.66602V30.0001H34.9993V11.6667H38.3327Z" fill="#B0ABDD"/>
</svg>
