<svg width="40" height="40" viewBox="0 0 40 40" fill="none" xmlns="http://www.w3.org/2000/svg">
<g clip-path="url(#clip0)">
<path fill-rule="evenodd" clip-rule="evenodd" d="M33.9415 3.63471L30.3108 7.26942V5.02037V2.77147L29.7249 2.86845C29.4027 2.92178 28.6645 2.9662 28.0844 2.96714L27.0297 2.96886V7.97406V12.9793H32.0294H37.0292V11.3369V9.6946H34.8821H32.735L36.3676 6.05551L40.0002 2.41657L38.7861 1.20829L37.5721 0L33.9415 3.63471ZM7.5777 11.5173C5.15034 11.8936 2.17363 13.0321 1.34274 13.9016L0.8887 14.3768L2.35831 15.0863C4.51896 16.1296 6.46729 16.5877 9.18292 16.6914C12.779 16.8287 15.3084 16.3431 18.0929 14.9806L19.39 14.346L19.0317 13.9643C18.4763 13.3723 16.333 12.3913 14.6086 11.9397C13.2949 11.5956 12.6482 11.5237 10.5463 11.4875C9.17136 11.4639 7.8355 11.4772 7.5777 11.5173ZM0 18.5962V20.3028L0.482473 20.7092C2.1241 22.092 5.19346 23.1495 8.4739 23.4623C12.3724 23.8343 17.0619 22.7248 19.6459 20.8194L20.3084 20.3308L20.21 18.6494C20.1559 17.7245 20.1034 16.9557 20.0936 16.9409C20.0836 16.9262 19.5836 17.1494 18.9825 17.437C16.3075 18.7171 13.6349 19.2833 10.2338 19.2905C6.62978 19.2982 3.71307 18.6825 1.10244 17.3632C0.586998 17.1028 0.127961 16.8896 0.0826515 16.8896C0.0371853 16.8896 0 17.6575 0 18.5962ZM26.2485 19.8203C24.1472 19.9313 21.5421 20.526 19.8958 21.2707C18.858 21.7401 17.6135 22.7835 17.2484 23.4905L17.0217 23.9294L17.9799 24.5494C21.7161 26.9669 28.0659 27.5947 32.8085 26.0156C34.175 25.5606 36.2534 24.5106 36.6448 24.0776C36.9054 23.7894 36.8996 23.7492 36.5108 23.1609C35.9974 22.3845 35.341 21.8826 34.0442 21.2751C32.1048 20.3665 28.5318 19.6997 26.2485 19.8203ZM0 25.4011V27.187L0.926823 27.8064C4.18258 29.983 9.07402 30.7913 13.7883 29.932L15.1554 29.6828V27.6116V25.5406L14.0226 25.7768C12.2071 26.1554 7.65848 26.1071 5.76952 25.6889C3.88181 25.2711 2.55923 24.8272 1.18118 24.149C0.584811 23.8554 0.0751522 23.6153 0.048435 23.6153C0.021874 23.6153 0 24.4189 0 25.4011ZM16.8741 28.7029V30.4696L17.3818 30.9007C18.1554 31.5573 20.5924 32.6548 22.2992 33.1152C23.7027 33.4937 24.0805 33.5278 26.9516 33.5348C29.7483 33.5419 30.2158 33.5045 31.4045 33.1799C33.3811 32.64 35.0358 31.9605 36.0898 31.2559L37.0292 30.628V28.8421C37.0292 27.86 37.0037 27.0564 36.9726 27.0564C36.9417 27.0564 36.3022 27.3445 35.5516 27.6966C30.4477 30.0909 22.9939 30.0141 18.0265 27.5159L16.8741 26.9362V28.7029ZM0 31.2041C0 31.6812 0.108744 32.3333 0.241705 32.6531C0.849952 34.1162 2.78531 35.3117 5.79717 36.0846C7.22366 36.4508 7.73535 36.5026 9.99944 36.5104C11.9967 36.5173 12.8679 36.4525 13.8664 36.2229L15.1554 35.9267V34.1301V32.3334L14.5695 32.4357C12.6421 32.7718 11.1038 32.8726 9.14011 32.7911C6.00294 32.6611 3.32919 32.0114 0.898387 30.7885L0 30.3365V31.2041ZM16.8741 34.5409C16.8741 36.0074 17.4629 37.0422 18.8016 37.9284C21.0665 39.4278 25.5989 40.317 28.8265 39.895C33.0436 39.3437 36.0642 37.9361 36.815 36.1724C37.0376 35.6492 37.1174 33.7106 36.912 33.8164C34.9641 34.819 33.4222 35.3642 31.1701 35.8469C28.9445 36.3241 24.9722 36.3193 22.6965 35.8367C20.9129 35.4585 19.2742 34.9064 17.9332 34.2318C17.4415 33.9845 17.002 33.7821 16.9567 33.7821C16.9112 33.7821 16.8741 34.1235 16.8741 34.5409Z" fill="#B0ABDD"/>
</g>
<defs>
<clipPath id="clip0">
<rect width="40" height="40" fill="white"/>
</clipPath>
</defs>
</svg>
