<svg width="40" height="40" viewBox="0 0 40 40" fill="none" xmlns="http://www.w3.org/2000/svg">
<path d="M35 35.6H6.5C5.7 35.6 5 36.3 5 37.1C5 37.9 5.7 38.6 6.5 38.6H35C35.8 38.6 36.5 37.9 36.5 37.1C36.5 36.3 35.8 35.6 35 35.6Z" fill="#B0ABDD"/>
<path d="M35 1H6C4.9 1 4 1.9 4 3V5.10001C2.9 5.30001 2 6.3 2 7.5V12.5C2 13.7 2.9 14.7 4 14.9V20C2.9 20.2 2 21.2 2 22.4V26.4C2 27.6 2.9 28.6 4 28.8V30.9C4 32 4.9 32.9 6 32.9H35C36.1 32.9 37 32 37 30.9V2.9C37 1.9 36.1 1 35 1ZM12.3 17.2V22.5C12.3 23.2 11.7 23.8 11 23.8C10.3 23.8 9.7 23.2 9.7 22.5V17.2C8.7 16.7 7.89999 15.7 7.89999 14.5C7.89999 12.8 9.19999 11.5 10.9 11.5C12.6 11.5 13.9 12.8 13.9 14.5C14 15.7 13.3 16.7 12.3 17.2ZM32.5 18.2H30.9C30.8 18.8 30.5 19.3 30.2 19.8L31.4 21C31.9 21.5 31.9 22.3 31.4 22.8C31.2 23 30.8 23.2 30.5 23.2C30.2 23.2 29.9 23.1 29.6 22.8L28.4 21.6C27.9 21.9 27.3 22.1 26.8 22.3V23.9C26.8 24.6 26.2 25.2 25.5 25.2C24.8 25.2 24.2 24.6 24.2 23.9V22.3C23.6 22.2 23.1 21.9 22.6 21.6L21.4 22.8C21.2 23 20.8 23.2 20.5 23.2C20.2 23.2 19.9 23.1 19.6 22.8C19.1 22.3 19.1 21.5 19.6 21L20.8 19.8C20.5 19.3 20.3 18.7 20.1 18.2H18.5C17.8 18.2 17.2 17.6 17.2 16.9C17.2 16.2 17.8 15.6 18.5 15.6H20.1C20.2 15 20.5 14.5 20.8 14L19.6 12.8C19.1 12.3 19.1 11.5 19.6 11C20.1 10.5 20.9 10.5 21.4 11L22.6 12.2C23.1 11.9 23.7 11.7 24.2 11.5V9.9C24.2 9.2 24.8 8.60001 25.5 8.60001C26.2 8.60001 26.8 9.2 26.8 9.9V11.5C27.4 11.6 27.9 11.9 28.4 12.2L29.6 11C30.1 10.5 30.9 10.5 31.4 11C31.9 11.5 31.9 12.3 31.4 12.8L30.2 14C30.5 14.5 30.7 15.1 30.9 15.6H32.5C33.2 15.6 33.8 16.2 33.8 16.9C33.7 17.7 33.2 18.2 32.5 18.2ZM25.5 14.5C24.1 14.5 23 15.6 23 17C23 18.4 24.1 19.5 25.5 19.5C26.9 19.5 28 18.4 28 17C28 15.6 26.9 14.5 25.5 14.5Z" fill="#B0ABDD"/>
</svg>
