<svg width="40" height="40" viewBox="0 0 40 40" fill="none" xmlns="http://www.w3.org/2000/svg">
<path d="M32.375 24.9177H7.625C4.52337 24.9177 2 27.4035 2 30.4589C2 33.5143 4.52337 36 7.625 36H32.375C35.4766 36 38 33.5143 38 30.4589C38 27.4035 35.4766 24.9177 32.375 24.9177ZM9.45312 32.1905C8.48232 32.1905 7.69531 31.4152 7.69531 30.4589C7.69531 29.5025 8.48232 28.7273 9.45312 28.7273C10.4239 28.7273 11.2109 29.5025 11.2109 30.4589C11.2109 31.4152 10.4239 32.1905 9.45312 32.1905ZM16.4844 32.1905C15.5136 32.1905 14.7266 31.4152 14.7266 30.4589C14.7266 29.5025 15.5136 28.7273 16.4844 28.7273C17.4552 28.7273 18.2422 29.5025 18.2422 30.4589C18.2422 31.4152 17.4552 32.1905 16.4844 32.1905ZM23.5156 32.1905C22.5448 32.1905 21.7578 31.4152 21.7578 30.4589C21.7578 29.5025 22.5448 28.7273 23.5156 28.7273C24.4864 28.7273 25.2734 29.5025 25.2734 30.4589C25.2734 31.4152 24.4864 32.1905 23.5156 32.1905ZM30.5469 32.1905C29.5761 32.1905 28.7891 31.4152 28.7891 30.4589C28.7891 29.5025 29.5761 28.7273 30.5469 28.7273C31.5177 28.7273 32.3047 29.5025 32.3047 30.4589C32.3047 31.4152 31.5177 32.1905 30.5469 32.1905Z" fill="#B0ABDD"/>
<path d="M26.6797 11.0649H25.2734V9.19481C25.2734 6.33039 22.9078 4 20 4C17.0922 4 14.7266 6.33039 14.7266 9.19481V11.0649H13.3203C12.7378 11.0649 12.2656 11.5301 12.2656 12.1039V20.3463C12.2656 20.9201 12.7378 21.3853 13.3203 21.3853H26.6797C27.2622 21.3853 27.7344 20.9201 27.7344 20.3463V12.1039C27.7344 11.5301 27.2622 11.0649 26.6797 11.0649ZM21.0547 16.5457V16.9524C21.0547 17.5262 20.5825 17.9913 20 17.9913C19.4175 17.9913 18.9453 17.5262 18.9453 16.9524V16.5457C18.536 16.4029 18.2422 16.0193 18.2422 15.5671C18.2422 14.9933 18.7144 14.5281 19.2969 14.5281H20.7031C21.2856 14.5281 21.7578 14.9933 21.7578 15.5671C21.7578 16.0193 21.464 16.4029 21.0547 16.5457ZM23.1641 11.0649H16.8359V9.19481C16.8359 7.47616 18.2553 6.07792 20 6.07792C21.7447 6.07792 23.1641 7.47616 23.1641 9.19481V11.0649Z" fill="#B0ABDD"/>
</svg>
