<svg width="74" height="118" viewBox="0 0 74 118" fill="none" xmlns="http://www.w3.org/2000/svg">
<path d="M46.4731 48.5883L47.7358 49.6675C47.7358 49.6675 51.1951 48.3669 51.9843 52.6838C51.9843 52.6838 52.1947 54.524 51.0767 54.5378C49.9718 54.5378 50.419 54.3303 48.8538 54.3856C47.2755 54.441 45.9733 53.5555 45.7497 52.2133L45 51.0788L46.4731 48.5883Z" fill="#EA8E50"/>
<path d="M46.0539 51.154C47.0784 50.0662 46.9985 49.2638 46.9985 49.2638C46.9985 49.2638 35.1706 39.3642 33.9732 38.5619C33.1616 38.018 24.4469 30.1173 20.3757 25.3171C18.3533 22.9374 15.852 23.8621 12.9915 24.6916L10.6366 25.3851C7.78933 26.2146 7.05754 30.2805 9.38588 32.2659C15.9585 37.8276 26.895 44.0965 28.9439 45.4019C34.0264 48.6655 43.9651 52.5546 43.9651 52.5546C43.9651 52.5546 45.1758 52.0923 46.0539 51.154Z" fill="#1E3D70"/>
<path d="M59.9342 110.067C59.9342 110.067 62.9264 112.2 67.4978 111.068C67.4978 111.068 71.1827 110.265 72 112.015C72 112.015 66.3342 114.753 64.9074 115.49C63.8268 116.056 62.7047 116.938 61.9013 117.636C61.264 118.175 60.2944 118.11 59.7541 117.478C59.5047 117.188 59.2139 116.846 58.9091 116.438C58.0364 115.319 56 111.686 56 111.686L59.9342 110.067Z" fill="#3A205A"/>
<path d="M26.6146 34.3441C25.0966 23.4952 32.9629 13.4916 44.1844 12.0005C55.4059 10.5094 65.7334 18.0955 67.2514 28.9444C68.7694 39.7934 60.9032 49.797 49.6816 51.288C38.4601 52.7791 28.1326 45.1931 26.6146 34.3441Z" fill="#E2810E"/>
<path d="M30.1364 45.9796C22.0614 38.1105 22.0614 25.3521 30.1364 17.4829C38.2115 9.61377 51.3038 9.61377 59.3788 17.4829C67.4539 25.3521 67.4539 38.1105 59.3788 45.9796C51.3038 53.8488 38.2115 53.8488 30.1364 45.9796Z" fill="#FFB93E"/>
<path d="M58.5834 44.2089C62.0732 40.7484 64 36.1389 64 31.2355C64 26.332 62.0732 21.7225 58.5834 18.262C55.0936 14.8015 50.445 12.8909 45.5 12.8909C40.555 12.8909 35.9064 14.8015 32.4166 18.262C28.9268 21.7225 27 26.332 27 31.2355C27 36.1389 28.9268 40.7484 32.4166 44.2089C35.9064 47.6694 40.555 49.58 45.5 49.58C50.445 49.58 55.0936 47.6694 58.5834 44.2089ZM62.9086 31.2355C62.9086 40.7484 55.1071 48.4978 45.5 48.4978C35.9064 48.4978 28.0914 40.7618 28.0914 31.2355C28.0914 21.7225 35.8929 13.9732 45.5 13.9732C55.0936 13.9732 62.9086 21.7091 62.9086 31.2355Z" fill="#FFA412"/>
<path d="M62 108.678C62 108.678 60.2271 112.703 56.1263 111.959C56.1263 111.959 47.7489 105.171 42.0105 98.1313C40.1429 95.8466 38.5594 93.5222 37.6256 91.4102C33.8226 82.7631 23.5368 69.8523 17 63.3171L33.3489 57.5126C33.3489 57.5126 38.5865 67.8466 45.5564 80.5449C50.5639 89.6835 56.4917 100.057 62 108.678Z" fill="#735A94"/>
<path d="M45 80.5657L41.5232 98.168C39.6919 95.8813 38.1393 93.5547 37.2237 91.4409C33.4948 82.786 23.4095 69.8634 17 63.3224L33.0303 57.5126C33.0436 57.4993 38.1791 67.8559 45 80.5657Z" fill="#664C87"/>
<path d="M31.906 111.924C31.906 111.924 31.7292 115.328 35.7148 115.778C35.7148 115.778 37.9864 115.792 38 117.958L26.4241 118C26.4241 118 26.084 117.128 26.0024 115.257C25.9344 113.823 27.3491 110.067 27.3491 110.067L31.906 111.924Z" fill="#3A205A"/>
<path d="M27.6984 57.2246C27.6984 57.2246 34.8967 65.0703 39.4726 79.2217C41.9612 86.9214 34.9101 106.263 33.5453 112.981C33.5453 112.981 28.8223 113.379 25.5844 112.144C25.5844 112.144 25.3436 98.2585 27.2301 87.5586C28.2871 81.5714 17.7439 74.7479 13.1412 63.9286C10.0104 56.5608 13.8236 56.6936 18.5065 56.521L27.6984 57.2246Z" fill="#735A94"/>
<path d="M19 22.7376C15.0658 25.0172 7 22.913 7 22.913C7 22.913 10.2763 19.0686 8.78949 12.8907L11.8816 14.4959L15.2106 16.2225C15.2106 16.2225 15.4211 17.3151 15.5789 19.271C15.6184 19.7701 15.6448 20.3366 15.6711 20.9571C17.6842 21.6045 19 22.7376 19 22.7376Z" fill="#FFB07B"/>
<path d="M34 57.7997C34 58.5119 33.1812 58.8478 33.0202 58.8747C31.3961 59.1703 26.8728 60.9306 22.7925 61.3337C19.3564 61.6965 16.1753 61.3472 12.6721 60.6484C12.2024 60.5544 11.1151 60.2587 11.048 59.8153C10.9541 59.3316 -2.45471 32.4435 7.96092 20.9008C8.20252 20.6321 10.2695 21.1158 12.1486 21.5593C13.8801 21.9758 15.4774 21.7474 16.9001 21.1696L18.6584 22.0968C20.8194 23.3061 24.9266 27.6061 25.4098 30.9654C25.6514 32.6854 26.6312 33.9485 26.9131 35.4535C27.0204 36.0178 27.1278 36.5553 27.2352 37.0928C27.45 38.1409 27.6647 39.1218 27.8929 40.0624C28.5103 42.6155 29.1546 44.8058 29.7854 46.7005C30.4566 48.7161 31.1276 50.3823 31.7182 51.7932C32.4833 53.6073 33.141 54.9644 33.5437 56.0125C33.8389 56.765 34 57.3294 34 57.7997Z" fill="#D2E3FC"/>
<path d="M53.7191 26.9155C53.3889 23.996 50.8452 23.0619 47.6505 22.8435L47.5831 18.7869L45.1108 18.832L45.1754 22.7787C44.5253 22.7908 43.8614 22.8158 43.2002 22.8408L43.1326 18.8652L40.6656 18.9102L40.732 22.9657C40.1972 22.9866 39.6712 23.0058 39.1592 23.0153L39.1561 23.0036L35.7479 23.0619L35.7902 25.702C35.7902 25.702 37.615 25.6338 37.5857 25.6682C38.5866 25.6501 38.9223 26.2249 39.026 26.7241L39.1025 31.3436C39.1899 31.3421 39.2773 31.3463 39.3641 31.3563C39.2816 31.3579 39.1936 31.359 39.0998 31.3609L39.207 37.8349C39.1685 38.1502 38.9917 38.6557 38.2918 38.6699C38.3236 38.6971 36.4946 38.7022 36.4946 38.7022L36.0623 41.6606L39.2763 41.6033C39.8751 41.5931 40.4645 41.5927 41.0428 41.5853L41.1116 45.6846L43.5814 45.6402L43.514 41.5809C44.1923 41.5825 44.8485 41.576 45.4893 41.5638L45.5557 45.6048L48.028 45.5597L47.9607 41.4659C52.113 41.1515 55.0045 40.0526 55.3017 36.1474C55.5407 33.0029 54.0393 31.6294 51.6707 31.1064C53.0877 30.3529 53.9645 29.0516 53.7191 26.9155ZM50.4068 35.751C50.4595 38.8172 45.1975 38.5644 43.5215 38.5933L43.4317 33.1573C45.1082 33.1303 50.3565 32.5522 50.4068 35.751ZM49.1289 28.1024C49.1748 30.892 44.7856 30.6462 43.3903 30.6721L43.3077 25.7393C44.7044 25.7164 49.0804 25.1934 49.1289 28.1024Z" fill="#FFA412"/>
<path d="M34 55.5294C14.6951 46.7052 8 29.7479 8 29.7479C8 29.7479 23.6904 35.3694 27.5514 36.8312C27.7704 37.8678 27.9895 38.8379 28.2222 39.7682C28.852 42.2932 29.5092 44.4593 30.1527 46.3332C30.8373 48.3266 31.5219 49.9744 32.1243 51.3698C32.9184 53.1639 33.5756 54.5062 34 55.5294Z" fill="#A4C8FC"/>
<path d="M44.8545 50.6745L46.4835 51.2779C46.4835 51.2779 49.7415 48.9584 51.771 52.7259C51.771 52.7259 52.5054 54.375 51.3438 54.7236C50.1821 55.0856 50.6094 54.7504 48.967 55.2867C47.3381 55.8364 45.7225 55.4342 45.1082 54.2677L44 53.4499L44.8545 50.6745Z" fill="#FFB07B"/>
<path d="M46.0995 52.8731C46.7135 51.3017 47 50.5959 47 50.5959C47 50.5959 34.4348 40.5944 33.1523 39.7421C32.2792 39.1562 23.6022 32.8171 19.3592 27.8896C17.2582 25.4392 13.9429 24.3205 10.7505 24.9731L8.11737 25.5191C4.93854 26.1716 3.90166 30.1003 6.37105 32.1778C13.329 37.9976 25.062 44.7495 27.2449 46.1612C32.6748 49.6503 44.6943 54.5378 44.6943 54.5378C44.6943 54.5378 45.622 54.1117 46.0995 52.8731Z" fill="#D2E3FC"/>
<path d="M16 18.8285C11.7654 19.0653 9 15.6657 9 15.6657C9 15.6657 10.9156 14.6347 11.9671 13.8823L15.6111 15.6657C15.5967 15.6657 15.8416 16.7943 16 18.8285Z" fill="#EA8E50"/>
<path d="M17.6603 14.8272C17.6603 14.8272 11.8002 19.0311 9.23807 15.3396C6.67593 11.6481 4.19263 9.70377 7.83218 6.86618C11.4717 4.02858 13.1798 4.9219 14.3361 5.94659C15.4792 6.98441 19.1187 13.6449 17.6603 14.8272Z" fill="#FFB07B"/>
<path d="M14.9803 2.45936C14.7592 1.01583 14.2617 0 14.2617 0C14.2617 0 13.8747 1.55047 10.945 1.33661C8.01527 1.12275 3.37194 1.6173 1.82416 4.83852C1.72743 5.03902 1.64452 5.25288 1.56161 5.46673C1.28522 4.74496 1.21612 3.67567 1.21612 3.67567C0.663342 5.06575 1.21612 6.80334 1.21612 6.80334C1.2023 6.85681 1.20227 6.91027 1.18845 6.95037C0.538939 7.48501 9.53674e-07 9.11567 9.53674e-07 9.11567C0.193473 8.66123 0.67714 8.35381 1.09172 8.18005C1.0779 10.6929 2.1282 13.1522 3.98001 13.874C6.68862 14.9433 6.66096 14.128 9.38339 15.8655C9.38339 15.8655 10.1158 14.9967 9.61832 14.4086C9.12082 13.8205 7.24139 12.9651 8.29167 12.1097C9.34195 11.2542 9.72889 12.2166 10.1158 11.6285C10.5028 11.0404 8.56806 9.32953 11.0556 7.7256C13.5431 6.12167 15.2014 3.9029 14.9803 2.45936Z" fill="#3A205A"/>
</svg>
