<svg width="198" height="55" viewBox="0 0 198 55" fill="none" xmlns="http://www.w3.org/2000/svg">
<path d="M61.0901 50.0813V52.8726C61.0901 53.0984 61.0095 53.3082 60.8645 53.4695C60.7194 53.647 60.51 53.7922 60.2682 53.8729C60.1877 53.9052 60.1071 53.9213 60.0265 53.9213C59.9459 53.9374 59.8815 53.9374 59.8009 53.9374H6.9293C6.25249 53.9374 5.68848 53.4857 5.65625 52.921C5.65625 52.9048 5.65625 52.8887 5.65625 52.8726V50.0813C5.65625 50.0652 5.65625 50.049 5.65625 50.0329C5.68848 49.4682 6.25249 49.0164 6.9293 49.0164H59.817C59.8976 49.0164 59.9621 49.0164 60.0426 49.0325C60.1232 49.0487 60.2038 49.0648 60.2844 49.081C60.5261 49.1616 60.7356 49.3068 60.8806 49.4843C61.0095 49.6618 61.0901 49.8715 61.0901 50.0813Z" fill="#FFB93E"/>
<path d="M35.1296 53.9542H6.80032C6.18797 53.9542 5.68842 53.5025 5.65619 52.9378C5.65619 52.9216 5.65619 52.9055 5.65619 52.8894V50.0981C5.65619 50.082 5.65619 50.0658 5.65619 50.0497C5.68842 49.485 6.18797 49.0332 6.80032 49.0332H31.6489C32.0517 50.4692 32.9702 52.486 35.1296 53.9542Z" fill="#FFA412"/>
<path d="M54.6605 49.0163H54.0643V53.9535H54.6605V49.0163Z" fill="#FFA412"/>
<path d="M52.6299 49.0163H52.0337V53.9535H52.6299V49.0163Z" fill="#FFA412"/>
<path d="M50.1806 49.0163H49.5843V53.9535H50.1806V49.0163Z" fill="#FFA412"/>
<path d="M46.4421 49.0163H45.8458V53.9535H46.4421V49.0163Z" fill="#FFA412"/>
<path d="M42.4939 49.0163H41.8976V53.9535H42.4939V49.0163Z" fill="#FFA412"/>
<path d="M36.4189 49.0163H35.8227V53.9535H36.4189V49.0163Z" fill="#FFA412"/>
<path d="M30.7466 49.0163H30.1504V53.9535H30.7466V49.0163Z" fill="#FFA412"/>
<path d="M25.6866 49.0164H25.0904V53.9535H25.6866V49.0164Z" fill="#FFA412"/>
<path d="M56.5942 49.0163H55.9979V53.9535H56.5942V49.0163Z" fill="#FFA412"/>
<path d="M57.8672 49.0163H57.271V53.9535H57.8672V49.0163Z" fill="#FFA412"/>
<path d="M59.108 49.0163H58.5117V53.9535H59.108V49.0163Z" fill="#FFA412"/>
<path d="M60.0426 49.0324V53.9373C59.9621 53.9535 59.8976 53.9535 59.817 53.9535H59.4464V49.0163H59.817C59.8976 49.0163 59.9621 49.0163 60.0426 49.0324Z" fill="#FFA412"/>
<path d="M60.8807 49.4843V53.4695C60.7357 53.647 60.5262 53.7922 60.2845 53.8729V49.0809C60.5262 49.1616 60.7357 49.3068 60.8807 49.4843Z" fill="#FFA412"/>
<path d="M55.4499 45.1445V47.9358C55.4499 48.1616 55.3693 48.3714 55.2243 48.5327C55.0792 48.7102 54.8698 48.8554 54.628 48.9361C54.5475 48.9684 54.4669 48.9845 54.3863 48.9845C54.3058 49.0006 54.2413 49.0006 54.1607 49.0006H1.27299C0.596179 49.0006 0.0321679 48.5489 -6.10352e-05 47.9841C-6.10352e-05 47.968 -6.10352e-05 47.9519 -6.10352e-05 47.9358V45.1445C-6.10352e-05 45.1283 -6.10352e-05 45.1122 -6.10352e-05 45.0961C0.0321679 44.5314 0.596179 44.0796 1.27299 44.0796H54.1607C54.193 44.0796 54.2252 44.0796 54.2574 44.0796C54.2735 44.0796 54.2896 44.0796 54.3058 44.0796C54.3219 44.0796 54.338 44.0796 54.3541 44.0796C54.3702 44.0796 54.3702 44.0796 54.3863 44.0796C54.4669 44.0957 54.5475 44.1119 54.628 44.128C54.6442 44.128 54.6442 44.128 54.6603 44.1441C54.6764 44.1441 54.6764 44.1441 54.6925 44.1603C54.7086 44.1764 54.7409 44.1764 54.757 44.1925C54.7731 44.1925 54.7892 44.2087 54.7892 44.2087C54.8053 44.2087 54.8053 44.2248 54.8214 44.2248C54.8375 44.2409 54.8698 44.2409 54.8859 44.2571C54.902 44.2732 54.9342 44.2893 54.9503 44.3055C54.9665 44.3216 54.9826 44.3216 54.9987 44.3377C55.0148 44.3377 55.0148 44.3539 55.0309 44.37C55.0631 44.4023 55.0954 44.4184 55.1276 44.4507C55.1437 44.4668 55.1437 44.4668 55.1598 44.483C55.1759 44.4991 55.1759 44.4991 55.1921 44.5152C55.2082 44.5313 55.2243 44.5475 55.2404 44.5636C55.3693 44.725 55.4499 44.9186 55.4499 45.1445Z" fill="#FFB93E"/>
<path d="M29.4733 49.0171H1.14406C0.531713 49.0171 0.0321679 48.5653 -6.10352e-05 48.0006C-6.10352e-05 47.9845 -6.10352e-05 47.9683 -6.10352e-05 47.9522V45.1609C-6.10352e-05 45.1448 -6.10352e-05 45.1287 -6.10352e-05 45.1125C0.0321679 44.5478 0.531713 44.0961 1.14406 44.0961H25.9926C26.0087 44.1445 26.0087 44.1767 26.0248 44.2252C26.4438 45.6289 27.3784 47.5811 29.4733 49.0171Z" fill="#FFA412"/>
<path d="M49.0041 44.0632H48.4079V49.0004H49.0041V44.0632Z" fill="#FFA412"/>
<path d="M46.9735 44.0632H46.3773V49.0004H46.9735V44.0632Z" fill="#FFA412"/>
<path d="M44.5243 44.0632H43.9281V49.0004H44.5243V44.0632Z" fill="#FFA412"/>
<path d="M40.7856 44.0632H40.1894V49.0004H40.7856V44.0632Z" fill="#FFA412"/>
<path d="M36.8377 44.0632H36.2414V49.0004H36.8377V44.0632Z" fill="#FFA412"/>
<path d="M30.7785 44.0632H30.1823V49.0004H30.7785V44.0632Z" fill="#FFA412"/>
<path d="M25.0901 44.0632H24.4939V49.0004H25.0901V44.0632Z" fill="#FFA412"/>
<path d="M20.0301 44.0634H19.4339V49.0006H20.0301V44.0634Z" fill="#FFA412"/>
<path d="M50.9377 44.0632H50.3415V49.0004H50.9377V44.0632Z" fill="#FFA412"/>
<path d="M52.2108 44.0632H51.6146V49.0004H52.2108V44.0632Z" fill="#FFA412"/>
<path d="M53.4515 44.0632H52.8553V49.0004H53.4515V44.0632Z" fill="#FFA412"/>
<path d="M54.3862 44.0794V48.9842C54.3056 49.0004 54.2412 49.0004 54.1606 49.0004H53.79V44.0632H54.1606C54.2412 44.0632 54.3217 44.0794 54.3862 44.0794Z" fill="#FFA412"/>
<path d="M55.2243 44.5473V48.5325C55.0793 48.71 54.8698 48.8552 54.6281 48.9359V44.144C54.8698 44.2247 55.0793 44.3699 55.2243 44.5473Z" fill="#FFA412"/>
<path d="M58.1736 40.32V43.1113C58.1736 43.3372 58.093 43.5469 57.9479 43.7083C57.8029 43.8857 57.5934 44.0309 57.3517 44.1116C57.2711 44.1439 57.1906 44.16 57.11 44.16C57.0294 44.1762 56.965 44.1762 56.8844 44.1762H4.01273C3.80325 44.1762 3.59376 44.1278 3.4165 44.0471C3.04586 43.8857 2.77191 43.5631 2.73969 43.192C2.73969 43.1758 2.73969 43.1597 2.73969 43.1435C2.73969 43.1274 2.73969 43.1113 2.73969 43.0952V40.3039C2.73969 40.2878 2.73969 40.2716 2.73969 40.2555C2.77191 39.6908 3.33593 39.239 4.01273 39.239H56.9005C56.9811 39.239 57.0455 39.239 57.1261 39.2551C57.2067 39.2713 57.2873 39.2874 57.3678 39.3036C57.6095 39.3842 57.819 39.5294 57.9641 39.7069C58.093 39.9005 58.1736 40.1103 58.1736 40.32Z" fill="#FFB93E"/>
<path d="M32.213 44.1927H3.88369C3.69031 44.1927 3.51306 44.1443 3.35191 44.0637C3.01351 43.9023 2.77179 43.5796 2.73956 43.2085C2.73956 43.1924 2.73956 43.1763 2.73956 43.1601C2.73956 43.144 2.73956 43.1278 2.73956 43.1117V40.3204C2.73956 40.3043 2.73956 40.2882 2.73956 40.272C2.77179 39.7073 3.27134 39.2556 3.88369 39.2556H28.7323C29.119 40.6754 30.0053 42.6115 32.0357 44.0798C32.0841 44.1121 32.1485 44.1443 32.213 44.1927Z" fill="#FFA412"/>
<path d="M51.7275 39.2554H51.1313V44.1925H51.7275V39.2554Z" fill="#FFA412"/>
<path d="M49.6971 39.2554H49.1009V44.1925H49.6971V39.2554Z" fill="#FFA412"/>
<path d="M47.2638 39.2554H46.6676V44.1925H47.2638V39.2554Z" fill="#FFA412"/>
<path d="M43.5253 39.2554H42.9291V44.1925H43.5253V39.2554Z" fill="#FFA412"/>
<path d="M39.5611 39.2554H38.9648V44.1925H39.5611V39.2554Z" fill="#FFA412"/>
<path d="M33.5022 39.2554H32.9059V44.1925H33.5022V39.2554Z" fill="#FFA412"/>
<path d="M27.8296 39.2554H27.2334V44.1925H27.8296V39.2554Z" fill="#FFA412"/>
<path d="M22.7537 39.2555H22.1574V44.1927H22.7537V39.2555Z" fill="#FFA412"/>
<path d="M53.6774 39.2554H53.0812V44.1925H53.6774V39.2554Z" fill="#FFA412"/>
<path d="M54.9505 39.2554H54.3542V44.1925H54.9505V39.2554Z" fill="#FFA412"/>
<path d="M56.1912 39.2554H55.595V44.1925H56.1912V39.2554Z" fill="#FFA412"/>
<path d="M57.1259 39.2715V44.1764C57.0453 44.1925 56.9809 44.1925 56.9003 44.1925H56.5297V39.2554H56.9003C56.9647 39.2554 57.0453 39.2554 57.1259 39.2715Z" fill="#FFA412"/>
<path d="M57.9479 39.7234V43.7086C57.8029 43.886 57.5934 44.0313 57.3517 44.1119V39.32C57.5934 39.4007 57.8029 39.5459 57.9479 39.7234Z" fill="#FFA412"/>
<path d="M59.4465 35.3832V38.1745C59.4465 38.4004 59.3659 38.6101 59.2209 38.7715C59.0758 38.949 58.8664 39.0942 58.6246 39.1748C58.5441 39.2071 58.4635 39.2232 58.3829 39.2232C58.3024 39.2394 58.2379 39.2394 58.1573 39.2394H5.28564C4.60883 39.2394 4.04483 38.7876 4.0126 38.2229C4.0126 38.2068 4.0126 38.1906 4.0126 38.1745V35.3832C4.0126 35.3671 4.0126 35.351 4.0126 35.3348C4.04483 34.8185 4.52827 34.3829 5.14062 34.3184C5.18896 34.3184 5.2373 34.3184 5.28564 34.3184H58.1734C58.254 34.3184 58.3185 34.3184 58.399 34.3345C58.4796 34.3506 58.5602 34.3668 58.6408 34.3829C58.8825 34.4636 59.092 34.6088 59.237 34.7863C59.3659 34.9476 59.4465 35.1573 59.4465 35.3832Z" fill="#FFB93E"/>
<path d="M33.4697 39.2556H5.14047C4.52812 39.2556 4.02857 38.8039 3.99634 38.2392C3.99634 38.223 3.99634 38.2069 3.99634 38.1907V35.3995C3.99634 35.3833 3.99634 35.3672 3.99634 35.3511C4.02857 34.8348 4.46366 34.3991 4.99544 34.3346C5.04378 34.3346 5.09212 34.3346 5.12435 34.3346H29.9729C30.3919 35.7706 31.3265 37.7712 33.4697 39.2556Z" fill="#FFA412"/>
<path d="M53.0005 34.3021H52.4043V39.2393H53.0005V34.3021Z" fill="#FFA412"/>
<path d="M50.9703 34.3021H50.3741V39.2393H50.9703V34.3021Z" fill="#FFA412"/>
<path d="M48.5207 34.3021H47.9245V39.2393H48.5207V34.3021Z" fill="#FFA412"/>
<path d="M44.7822 34.3021H44.186V39.2393H44.7822V34.3021Z" fill="#FFA412"/>
<path d="M40.8343 34.3021H40.238V39.2393H40.8343V34.3021Z" fill="#FFA412"/>
<path d="M34.7752 34.3021H34.1789V39.2393H34.7752V34.3021Z" fill="#FFA412"/>
<path d="M29.1028 34.3021H28.5066V39.2393H29.1028V34.3021Z" fill="#FFA412"/>
<path d="M24.0268 34.3022H23.4305V39.2393H24.0268V34.3022Z" fill="#FFA412"/>
<path d="M54.9343 34.3021H54.3381V39.2393H54.9343V34.3021Z" fill="#FFA412"/>
<path d="M56.2235 34.3021H55.6272V39.2393H56.2235V34.3021Z" fill="#FFA412"/>
<path d="M57.4482 34.3021H56.8519V39.2393H57.4482V34.3021Z" fill="#FFA412"/>
<path d="M58.3828 34.3183V39.2231C58.3023 39.2393 58.2378 39.2393 58.1572 39.2393H57.7866V34.3021H58.1572C58.2378 34.3021 58.3184 34.3183 58.3828 34.3183Z" fill="#FFA412"/>
<path d="M59.2207 34.7862V38.7714C59.0756 38.9489 58.8662 39.0941 58.6245 39.1748V34.3829C58.8662 34.4635 59.0756 34.5926 59.2207 34.7862Z" fill="#FFA412"/>
<path d="M123.546 50.446V53.2373C123.546 53.4631 123.466 53.6729 123.321 53.8342C123.176 54.0117 122.966 54.1569 122.725 54.2376C122.644 54.2699 122.563 54.286 122.483 54.286C122.451 54.286 122.435 54.286 122.402 54.3021C122.386 54.3021 122.37 54.3021 122.354 54.3021C122.338 54.3021 122.322 54.3021 122.306 54.3021C122.29 54.3021 122.257 54.3021 122.241 54.3021H69.3856C68.7088 54.3021 68.1448 53.8504 68.1126 53.2857C68.1126 53.2695 68.1126 53.2534 68.1126 53.2373V50.446C68.1126 50.4298 68.1126 50.4137 68.1126 50.3976C68.1126 50.3814 68.1126 50.3653 68.1126 50.3492C68.1609 49.8974 68.5638 49.5102 69.0794 49.4134C69.0956 49.4134 69.1117 49.4134 69.1117 49.4134C69.2084 49.3972 69.2889 49.3811 69.3856 49.3811H122.273C122.306 49.3811 122.354 49.3811 122.386 49.3811C122.402 49.3811 122.418 49.3811 122.435 49.3811C122.451 49.3811 122.467 49.3811 122.499 49.3972C122.58 49.4134 122.66 49.4295 122.741 49.4456C122.982 49.5263 123.192 49.6715 123.337 49.849C123.466 50.0104 123.546 50.2201 123.546 50.446Z" fill="#FFB93E"/>
<path d="M97.586 54.3183H69.2567C68.6444 54.3183 68.1448 53.8665 68.1126 53.3018C68.1126 53.2856 68.1126 53.2695 68.1126 53.2534V50.4621C68.1126 50.446 68.1126 50.4299 68.1126 50.4137C68.1126 50.3976 68.1126 50.3814 68.1126 50.3653C68.1609 49.8974 68.5316 49.5102 68.9989 49.4134C69.015 49.4134 69.0311 49.4134 69.0472 49.3972C69.1117 49.3811 69.1761 49.3811 69.2567 49.3811H94.1052C94.1052 49.3972 94.1052 49.3972 94.1213 49.4134C94.5242 50.8493 95.4427 52.85 97.586 54.3183C97.5698 54.3021 97.586 54.3183 97.586 54.3183Z" fill="#FFA412"/>
<path d="M117.117 49.365H116.52V54.3021H117.117V49.365Z" fill="#FFA412"/>
<path d="M115.086 49.365H114.49V54.3021H115.086V49.365Z" fill="#FFA412"/>
<path d="M112.637 49.365H112.041V54.3021H112.637V49.365Z" fill="#FFA412"/>
<path d="M108.898 49.365H108.302V54.3021H108.898V49.365Z" fill="#FFA412"/>
<path d="M104.95 49.365H104.354V54.3021H104.95V49.365Z" fill="#FFA412"/>
<path d="M98.875 49.365H98.2787V54.3021H98.875V49.365Z" fill="#FFA412"/>
<path d="M93.2029 49.365H92.6066V54.3021H93.2029V49.365Z" fill="#FFA412"/>
<path d="M88.143 49.3649H87.5468V54.302H88.143V49.3649Z" fill="#FFA412"/>
<path d="M119.05 49.365H118.454V54.3021H119.05V49.365Z" fill="#FFA412"/>
<path d="M120.324 49.365H119.727V54.3021H120.324V49.365Z" fill="#FFA412"/>
<path d="M121.564 49.365H120.968V54.3021H121.564V49.365Z" fill="#FFA412"/>
<path d="M122.499 49.3811V54.286C122.419 54.3021 122.354 54.3021 122.274 54.3021H121.903V49.365H122.274C122.354 49.365 122.419 49.3811 122.499 49.3811Z" fill="#FFA412"/>
<path d="M123.337 49.8489V53.8341C123.192 54.0115 122.982 54.1567 122.741 54.2374V49.4455C122.982 49.5262 123.192 49.6714 123.337 49.8489Z" fill="#FFA412"/>
<path d="M190.546 50.4459V53.2371C190.546 53.463 190.466 53.6728 190.321 53.8341C190.176 54.0116 189.966 54.1568 189.725 54.2375C189.644 54.2697 189.563 54.2859 189.483 54.2859C189.451 54.2859 189.435 54.2859 189.402 54.302C189.386 54.302 189.37 54.302 189.354 54.302C189.338 54.302 189.322 54.302 189.306 54.302C189.29 54.302 189.257 54.302 189.241 54.302H136.386C135.709 54.302 135.145 53.8502 135.113 53.2855C135.113 53.2694 135.113 53.2533 135.113 53.2371V50.4459C135.113 50.4297 135.113 50.4136 135.113 50.3974C135.113 50.3813 135.113 50.3652 135.113 50.3491C135.161 49.8973 135.564 49.51 136.079 49.4132C136.096 49.4132 136.112 49.4132 136.112 49.4132C136.208 49.3971 136.289 49.381 136.386 49.381H189.273C189.306 49.381 189.354 49.381 189.386 49.381C189.402 49.381 189.418 49.381 189.435 49.381C189.451 49.381 189.467 49.381 189.499 49.3971C189.58 49.4132 189.66 49.4294 189.741 49.4455C189.982 49.5262 190.192 49.6714 190.337 49.8489C190.466 50.0102 190.546 50.22 190.546 50.4459Z" fill="#FFB93E"/>
<path d="M164.586 54.3181H136.257C135.644 54.3181 135.145 53.8664 135.113 53.3017C135.113 53.2855 135.113 53.2694 135.113 53.2533V50.462C135.113 50.4459 135.113 50.4297 135.113 50.4136C135.113 50.3975 135.113 50.3813 135.113 50.3652C135.161 49.8973 135.532 49.51 135.999 49.4132C136.015 49.4132 136.031 49.4132 136.047 49.3971C136.112 49.381 136.176 49.381 136.257 49.381H161.105C161.105 49.3971 161.105 49.3971 161.121 49.4132C161.524 50.8492 162.443 52.8499 164.586 54.3181C164.57 54.302 164.586 54.3181 164.586 54.3181Z" fill="#FFA412"/>
<path d="M184.117 49.3649H183.52V54.302H184.117V49.3649Z" fill="#FFA412"/>
<path d="M182.086 49.3649H181.49V54.302H182.086V49.3649Z" fill="#FFA412"/>
<path d="M179.637 49.3649H179.041V54.302H179.637V49.3649Z" fill="#FFA412"/>
<path d="M175.898 49.3649H175.302V54.302H175.898V49.3649Z" fill="#FFA412"/>
<path d="M171.95 49.3649H171.354V54.302H171.95V49.3649Z" fill="#FFA412"/>
<path d="M165.875 49.3649H165.279V54.302H165.875V49.3649Z" fill="#FFA412"/>
<path d="M160.203 49.3649H159.607V54.302H160.203V49.3649Z" fill="#FFA412"/>
<path d="M155.143 49.3647H154.547V54.3019H155.143V49.3647Z" fill="#FFA412"/>
<path d="M186.05 49.3649H185.454V54.302H186.05V49.3649Z" fill="#FFA412"/>
<path d="M187.324 49.3649H186.727V54.302H187.324V49.3649Z" fill="#FFA412"/>
<path d="M188.564 49.3649H187.968V54.302H188.564V49.3649Z" fill="#FFA412"/>
<path d="M189.499 49.381V54.2859C189.419 54.302 189.354 54.302 189.274 54.302H188.903V49.3649H189.274C189.354 49.3649 189.419 49.381 189.499 49.381Z" fill="#FFA412"/>
<path d="M190.337 49.8487V53.8339C190.192 54.0114 189.982 54.1566 189.741 54.2373V49.4454C189.982 49.526 190.192 49.6713 190.337 49.8487Z" fill="#FFA412"/>
<path d="M190.547 16.446V19.2373C190.547 19.4631 190.466 19.6729 190.321 19.8342C190.176 20.0117 189.967 20.1569 189.725 20.2376C189.644 20.2699 189.564 20.286 189.483 20.286C189.451 20.286 189.435 20.286 189.402 20.3021C189.386 20.3021 189.37 20.3021 189.354 20.3021C189.338 20.3021 189.322 20.3021 189.306 20.3021C189.29 20.3021 189.257 20.3021 189.241 20.3021H136.386C135.709 20.3021 135.145 19.8504 135.113 19.2857C135.113 19.2695 135.113 19.2534 135.113 19.2373V16.446C135.113 16.4298 135.113 16.4137 135.113 16.3976C135.113 16.3814 135.113 16.3653 135.113 16.3492C135.161 15.8974 135.564 15.5102 136.08 15.4134C136.096 15.4134 136.112 15.4134 136.112 15.4134C136.209 15.3972 136.289 15.3811 136.386 15.3811H189.274C189.306 15.3811 189.354 15.3811 189.386 15.3811C189.403 15.3811 189.419 15.3811 189.435 15.3811C189.451 15.3811 189.467 15.3811 189.499 15.3972C189.58 15.4134 189.66 15.4295 189.741 15.4456C189.983 15.5263 190.192 15.6715 190.337 15.849C190.466 16.0104 190.547 16.2201 190.547 16.446Z" fill="#FFB93E"/>
<path d="M164.586 20.3183H136.257C135.645 20.3183 135.145 19.8665 135.113 19.3018C135.113 19.2856 135.113 19.2695 135.113 19.2534V16.4621C135.113 16.446 135.113 16.4299 135.113 16.4137C135.113 16.3976 135.113 16.3814 135.113 16.3653C135.161 15.8974 135.532 15.5102 135.999 15.4134C136.015 15.4134 136.031 15.4134 136.047 15.3972C136.112 15.3811 136.176 15.3811 136.257 15.3811H161.105C161.105 15.3972 161.105 15.3972 161.122 15.4134C161.524 16.8493 162.443 18.85 164.586 20.3183C164.57 20.3021 164.586 20.3183 164.586 20.3183Z" fill="#FFA412"/>
<path d="M184.117 15.365H183.521V20.3021H184.117V15.365Z" fill="#FFA412"/>
<path d="M182.087 15.365H181.49V20.3021H182.087V15.365Z" fill="#FFA412"/>
<path d="M179.637 15.365H179.041V20.3021H179.637V15.365Z" fill="#FFA412"/>
<path d="M175.898 15.365H175.302V20.3021H175.898V15.365Z" fill="#FFA412"/>
<path d="M171.951 15.365H171.354V20.3021H171.951V15.365Z" fill="#FFA412"/>
<path d="M165.875 15.365H165.279V20.3021H165.875V15.365Z" fill="#FFA412"/>
<path d="M160.203 15.365H159.607V20.3021H160.203V15.365Z" fill="#FFA412"/>
<path d="M155.143 15.3649H154.547V20.302H155.143V15.3649Z" fill="#FFA412"/>
<path d="M186.051 15.365H185.454V20.3021H186.051V15.365Z" fill="#FFA412"/>
<path d="M187.324 15.365H186.728V20.3021H187.324V15.365Z" fill="#FFA412"/>
<path d="M188.565 15.365H187.968V20.3021H188.565V15.365Z" fill="#FFA412"/>
<path d="M189.499 15.3811V20.286C189.419 20.3021 189.354 20.3021 189.274 20.3021H188.903V15.365H189.274C189.354 15.365 189.419 15.3811 189.499 15.3811Z" fill="#FFA412"/>
<path d="M190.337 15.8489V19.8341C190.192 20.0115 189.983 20.1567 189.741 20.2374V15.4455C189.983 15.5262 190.192 15.6714 190.337 15.8489Z" fill="#FFA412"/>
<path d="M123.45 45.5427V48.3339C123.45 48.5598 123.369 48.7695 123.224 48.9309C123.079 49.1084 122.87 49.2536 122.628 49.3343C122.564 49.3504 122.515 49.3665 122.451 49.3827C122.435 49.3827 122.419 49.3827 122.403 49.3988C122.322 49.4149 122.257 49.4149 122.177 49.4149H69.2731C69.2247 49.4149 69.1603 49.4149 69.1119 49.3988C69.0958 49.3988 69.0636 49.3988 69.0475 49.3827C68.4674 49.302 68.0323 48.8825 68 48.3823C68 48.3662 68 48.3501 68 48.3339V45.5427C68 45.5265 68 45.5104 68 45.4943C68.0323 44.9296 68.5963 44.4778 69.2731 44.4778H122.161C122.193 44.4778 122.225 44.4778 122.257 44.4778C122.274 44.4778 122.29 44.4778 122.306 44.4778C122.322 44.4778 122.338 44.4778 122.354 44.4778C122.37 44.4778 122.37 44.4778 122.386 44.4778C122.467 44.4939 122.548 44.5101 122.628 44.5262C122.644 44.5262 122.644 44.5262 122.66 44.5423C122.676 44.5423 122.676 44.5423 122.693 44.5585C122.709 44.5746 122.741 44.5746 122.757 44.5907C122.773 44.6069 122.805 44.6069 122.822 44.623C122.838 44.6391 122.87 44.6391 122.886 44.6553C122.902 44.6714 122.934 44.6875 122.95 44.7037C122.967 44.7198 122.983 44.7198 122.999 44.7359C123.015 44.7359 123.015 44.7521 123.031 44.7682C123.063 44.8005 123.095 44.8166 123.128 44.8489C123.144 44.865 123.144 44.865 123.16 44.8811C123.176 44.8973 123.176 44.8973 123.192 44.9134C123.208 44.9295 123.224 44.9457 123.24 44.9618C123.369 45.107 123.45 45.3168 123.45 45.5427Z" fill="#FFB93E"/>
<path d="M97.4733 49.4138H69.1441C69.1279 49.4138 69.0957 49.4138 69.0796 49.4138C69.0474 49.4138 69.0313 49.4138 68.999 49.4138C68.4511 49.3492 68.0322 48.9297 67.9999 48.3973C67.9999 48.3812 67.9999 48.365 67.9999 48.3489V45.5576C67.9999 45.5415 67.9999 45.5254 67.9999 45.5092C68.0322 44.9445 68.5317 44.4927 69.1441 44.4927H93.9926C94.0087 44.5411 94.0087 44.5734 94.0248 44.6218C94.4438 46.0578 95.3623 47.9778 97.425 49.4138C97.4411 49.3815 97.4572 49.3976 97.4733 49.4138Z" fill="#FFA412"/>
<path d="M117.004 44.46H116.408V49.3971H117.004V44.46Z" fill="#FFA412"/>
<path d="M114.973 44.46H114.377V49.3971H114.973V44.46Z" fill="#FFA412"/>
<path d="M112.524 44.46H111.928V49.3971H112.524V44.46Z" fill="#FFA412"/>
<path d="M108.786 44.46H108.189V49.3971H108.786V44.46Z" fill="#FFA412"/>
<path d="M104.838 44.46H104.241V49.3971H104.838V44.46Z" fill="#FFA412"/>
<path d="M98.7785 44.46H98.1823V49.3971H98.7785V44.46Z" fill="#FFA412"/>
<path d="M93.0901 44.46H92.4939V49.3971H93.0901V44.46Z" fill="#FFA412"/>
<path d="M88.0301 44.4602H87.4339V49.3973H88.0301V44.4602Z" fill="#FFA412"/>
<path d="M118.938 44.46H118.341V49.3971H118.938V44.46Z" fill="#FFA412"/>
<path d="M120.211 44.46H119.615V49.3971H120.211V44.46Z" fill="#FFA412"/>
<path d="M121.452 44.46H120.855V49.3971H121.452V44.46Z" fill="#FFA412"/>
<path d="M122.386 44.4761V49.381C122.306 49.3971 122.241 49.3971 122.161 49.3971H121.79V44.46H122.161C122.241 44.46 122.322 44.4761 122.386 44.4761Z" fill="#FFA412"/>
<path d="M123.224 44.9441V48.9293C123.079 49.1067 122.87 49.252 122.628 49.3326V44.5407C122.87 44.6214 123.079 44.7505 123.224 44.9441Z" fill="#FFA412"/>
<path d="M190.45 45.5425V48.3338C190.45 48.5597 190.369 48.7694 190.224 48.9308C190.079 49.1082 189.87 49.2535 189.628 49.3341C189.564 49.3503 189.515 49.3664 189.451 49.3825C189.435 49.3825 189.419 49.3825 189.403 49.3987C189.322 49.4148 189.257 49.4148 189.177 49.4148H136.273C136.225 49.4148 136.16 49.4148 136.112 49.3987C136.096 49.3987 136.064 49.3987 136.047 49.3825C135.467 49.3019 135.032 48.8824 135 48.3822C135 48.3661 135 48.3499 135 48.3338V45.5425C135 45.5264 135 45.5103 135 45.4941C135.032 44.9294 135.596 44.4777 136.273 44.4777H189.161C189.193 44.4777 189.225 44.4777 189.257 44.4777C189.274 44.4777 189.29 44.4777 189.306 44.4777C189.322 44.4777 189.338 44.4777 189.354 44.4777C189.37 44.4777 189.37 44.4777 189.386 44.4777C189.467 44.4938 189.548 44.5099 189.628 44.5261C189.644 44.5261 189.644 44.5261 189.66 44.5422C189.676 44.5422 189.676 44.5422 189.693 44.5583C189.709 44.5745 189.741 44.5745 189.757 44.5906C189.773 44.6067 189.805 44.6067 189.822 44.6229C189.838 44.639 189.87 44.639 189.886 44.6551C189.902 44.6713 189.934 44.6874 189.95 44.7035C189.967 44.7197 189.983 44.7197 189.999 44.7358C190.015 44.7358 190.015 44.752 190.031 44.7681C190.063 44.8004 190.095 44.8165 190.128 44.8488C190.144 44.8649 190.144 44.8649 190.16 44.881C190.176 44.8972 190.176 44.8971 190.192 44.9133C190.208 44.9294 190.224 44.9456 190.24 44.9617C190.369 45.1069 190.45 45.3166 190.45 45.5425Z" fill="#FFB93E"/>
<path d="M164.473 49.4136H136.144C136.128 49.4136 136.096 49.4136 136.08 49.4136C136.047 49.4136 136.031 49.4136 135.999 49.4136C135.451 49.3491 135.032 48.9296 135 48.3972C135 48.381 135 48.3649 135 48.3488V45.5575C135 45.5414 135 45.5252 135 45.5091C135.032 44.9444 135.532 44.4926 136.144 44.4926H160.993C161.009 44.541 161.009 44.5733 161.025 44.6217C161.444 46.0577 162.362 47.9777 164.425 49.4136C164.441 49.3814 164.457 49.3975 164.473 49.4136Z" fill="#FFA412"/>
<path d="M184.004 44.4598H183.408V49.397H184.004V44.4598Z" fill="#FFA412"/>
<path d="M181.973 44.4598H181.377V49.397H181.973V44.4598Z" fill="#FFA412"/>
<path d="M179.524 44.4598H178.928V49.397H179.524V44.4598Z" fill="#FFA412"/>
<path d="M175.786 44.4598H175.189V49.397H175.786V44.4598Z" fill="#FFA412"/>
<path d="M171.838 44.4598H171.241V49.397H171.838V44.4598Z" fill="#FFA412"/>
<path d="M165.779 44.4598H165.182V49.397H165.779V44.4598Z" fill="#FFA412"/>
<path d="M160.09 44.4598H159.494V49.397H160.09V44.4598Z" fill="#FFA412"/>
<path d="M155.03 44.4601H154.434V49.3972H155.03V44.4601Z" fill="#FFA412"/>
<path d="M185.938 44.4598H185.341V49.397H185.938V44.4598Z" fill="#FFA412"/>
<path d="M187.211 44.4598H186.615V49.397H187.211V44.4598Z" fill="#FFA412"/>
<path d="M188.452 44.4598H187.855V49.397H188.452V44.4598Z" fill="#FFA412"/>
<path d="M189.386 44.476V49.3809C189.306 49.397 189.241 49.397 189.161 49.397H188.79V44.4598H189.161C189.241 44.4598 189.322 44.476 189.386 44.476Z" fill="#FFA412"/>
<path d="M190.224 44.9439V48.9291C190.079 49.1066 189.87 49.2518 189.628 49.3325V44.5406C189.87 44.6213 190.079 44.7503 190.224 44.9439Z" fill="#FFA412"/>
<path d="M190.45 11.5427V14.3339C190.45 14.5598 190.37 14.7695 190.225 14.9309C190.079 15.1084 189.87 15.2536 189.628 15.3343C189.564 15.3504 189.515 15.3665 189.451 15.3827C189.435 15.3827 189.419 15.3827 189.403 15.3988C189.322 15.4149 189.258 15.4149 189.177 15.4149H136.273C136.225 15.4149 136.16 15.4149 136.112 15.3988C136.096 15.3988 136.064 15.3988 136.048 15.3827C135.468 15.302 135.032 14.8825 135 14.3823C135 14.3662 135 14.3501 135 14.3339V11.5427C135 11.5265 135 11.5104 135 11.4943C135.032 10.9296 135.596 10.4778 136.273 10.4778H189.161C189.193 10.4778 189.225 10.4778 189.258 10.4778C189.274 10.4778 189.29 10.4778 189.306 10.4778C189.322 10.4778 189.338 10.4778 189.354 10.4778C189.37 10.4778 189.37 10.4778 189.387 10.4778C189.467 10.4939 189.548 10.5101 189.628 10.5262C189.644 10.5262 189.644 10.5262 189.661 10.5423C189.677 10.5423 189.677 10.5423 189.693 10.5585C189.709 10.5746 189.741 10.5746 189.757 10.5907C189.773 10.6069 189.806 10.6069 189.822 10.623C189.838 10.6391 189.87 10.6391 189.886 10.6553C189.902 10.6714 189.934 10.6875 189.951 10.7037C189.967 10.7198 189.983 10.7198 189.999 10.7359C190.015 10.7359 190.015 10.7521 190.031 10.7682C190.063 10.8005 190.096 10.8166 190.128 10.8489C190.144 10.865 190.144 10.865 190.16 10.8811C190.176 10.8973 190.176 10.8973 190.192 10.9134C190.208 10.9295 190.225 10.9457 190.241 10.9618C190.37 11.107 190.45 11.3168 190.45 11.5427Z" fill="#FFB93E"/>
<path d="M164.473 15.4138H136.144C136.128 15.4138 136.096 15.4138 136.08 15.4138C136.048 15.4138 136.031 15.4138 135.999 15.4138C135.451 15.3492 135.032 14.9297 135 14.3973C135 14.3812 135 14.365 135 14.3489V11.5576C135 11.5415 135 11.5254 135 11.5092C135.032 10.9445 135.532 10.4927 136.144 10.4927H160.993C161.009 10.5411 161.009 10.5734 161.025 10.6218C161.444 12.0578 162.362 13.9778 164.425 15.4138C164.441 15.3815 164.457 15.3976 164.473 15.4138Z" fill="#FFA412"/>
<path d="M184.004 10.46H183.408V15.3971H184.004V10.46Z" fill="#FFA412"/>
<path d="M181.974 10.46H181.377V15.3971H181.974V10.46Z" fill="#FFA412"/>
<path d="M179.524 10.46H178.928V15.3971H179.524V10.46Z" fill="#FFA412"/>
<path d="M175.786 10.46H175.19V15.3971H175.786V10.46Z" fill="#FFA412"/>
<path d="M171.838 10.46H171.242V15.3971H171.838V10.46Z" fill="#FFA412"/>
<path d="M165.779 10.46H165.182V15.3971H165.779V10.46Z" fill="#FFA412"/>
<path d="M160.09 10.46H159.494V15.3971H160.09V10.46Z" fill="#FFA412"/>
<path d="M155.03 10.4602H154.434V15.3973H155.03V10.4602Z" fill="#FFA412"/>
<path d="M185.938 10.46H185.342V15.3971H185.938V10.46Z" fill="#FFA412"/>
<path d="M187.211 10.46H186.615V15.3971H187.211V10.46Z" fill="#FFA412"/>
<path d="M188.452 10.46H187.855V15.3971H188.452V10.46Z" fill="#FFA412"/>
<path d="M189.386 10.4761V15.381C189.306 15.3971 189.241 15.3971 189.161 15.3971H188.79V10.46H189.161C189.241 10.46 189.322 10.4761 189.386 10.4761Z" fill="#FFA412"/>
<path d="M190.224 10.9441V14.9293C190.079 15.1067 189.87 15.252 189.628 15.3326V10.5407C189.87 10.6214 190.079 10.7505 190.224 10.9441Z" fill="#FFA412"/>
<path d="M126.173 40.7165V43.5078C126.173 43.7337 126.093 43.9434 125.948 44.1048C125.803 44.2822 125.593 44.4274 125.352 44.5081C125.271 44.5404 125.191 44.5565 125.11 44.5565C125.029 44.5727 124.965 44.5727 124.884 44.5727H72.0127C71.8032 44.5727 71.5937 44.5243 71.4164 44.4436C71.0458 44.2823 70.7719 43.9596 70.7396 43.5885C70.7396 43.5723 70.7396 43.5562 70.7396 43.54C70.7396 43.5239 70.7396 43.5078 70.7396 43.4917V40.7004C70.7396 40.6842 70.7396 40.6681 70.7396 40.652C70.7719 40.0873 71.3359 39.6355 72.0127 39.6355H124.9C124.981 39.6355 125.045 39.6355 125.126 39.6516C125.207 39.6678 125.287 39.6839 125.368 39.7C125.609 39.7807 125.819 39.9259 125.964 40.1034C126.093 40.2809 126.173 40.4906 126.173 40.7165Z" fill="#FFB93E"/>
<path d="M100.213 44.589H71.8836C71.6903 44.589 71.513 44.5406 71.3519 44.4599C71.0134 44.2986 70.7717 43.9759 70.7395 43.6048C70.7395 43.5887 70.7395 43.5725 70.7395 43.5564C70.7395 43.5403 70.7395 43.5241 70.7395 43.508V40.7167C70.7395 40.7006 70.7395 40.6845 70.7395 40.6683C70.7717 40.1036 71.2713 39.6519 71.8836 39.6519H96.7322C97.1189 41.0717 98.0052 43.0078 100.036 44.4761C100.084 44.5083 100.148 44.5406 100.213 44.589Z" fill="#FFA412"/>
<path d="M119.727 39.6357H119.131V44.5729H119.727V39.6357Z" fill="#FFA412"/>
<path d="M117.697 39.6357H117.101V44.5729H117.697V39.6357Z" fill="#FFA412"/>
<path d="M115.264 39.6357H114.668V44.5729H115.264V39.6357Z" fill="#FFA412"/>
<path d="M111.525 39.6357H110.929V44.5729H111.525V39.6357Z" fill="#FFA412"/>
<path d="M107.561 39.6357H106.965V44.5729H107.561V39.6357Z" fill="#FFA412"/>
<path d="M101.502 39.6357H100.906V44.5729H101.502V39.6357Z" fill="#FFA412"/>
<path d="M95.8296 39.6357H95.2333V44.5729H95.8296V39.6357Z" fill="#FFA412"/>
<path d="M90.7536 39.6356H90.1574V44.5728H90.7536V39.6356Z" fill="#FFA412"/>
<path d="M121.677 39.6357H121.081V44.5729H121.677V39.6357Z" fill="#FFA412"/>
<path d="M122.95 39.6357H122.354V44.5729H122.95V39.6357Z" fill="#FFA412"/>
<path d="M124.191 39.6357H123.595V44.5729H124.191V39.6357Z" fill="#FFA412"/>
<path d="M125.126 39.6519V44.5568C125.045 44.5729 124.981 44.5729 124.9 44.5729H124.53V39.6357H124.9C124.965 39.6357 125.045 39.6519 125.126 39.6519Z" fill="#FFA412"/>
<path d="M125.948 40.1199V44.105C125.803 44.2825 125.593 44.4277 125.352 44.5084V39.7165C125.593 39.7972 125.803 39.9424 125.948 40.1199Z" fill="#FFA412"/>
<path d="M193.173 40.7164V43.5077C193.173 43.7335 193.093 43.9433 192.948 44.1046C192.803 44.2821 192.593 44.4273 192.352 44.508C192.271 44.5403 192.191 44.5564 192.11 44.5564C192.029 44.5725 191.965 44.5725 191.884 44.5725H139.013C138.803 44.5725 138.594 44.5241 138.416 44.4435C138.046 44.2821 137.772 43.9594 137.74 43.5883C137.74 43.5722 137.74 43.5561 137.74 43.5399C137.74 43.5238 137.74 43.5077 137.74 43.4915V40.7003C137.74 40.6841 137.74 40.668 137.74 40.6519C137.772 40.0872 138.336 39.6354 139.013 39.6354H191.9C191.981 39.6354 192.045 39.6354 192.126 39.6515C192.207 39.6676 192.287 39.6838 192.368 39.6999C192.609 39.7806 192.819 39.9258 192.964 40.1033C193.093 40.2808 193.173 40.4905 193.173 40.7164Z" fill="#FFB93E"/>
<path d="M167.213 44.5889H138.884C138.69 44.5889 138.513 44.5405 138.352 44.4598C138.013 44.2985 137.772 43.9758 137.74 43.6047C137.74 43.5885 137.74 43.5724 137.74 43.5563C137.74 43.5402 137.74 43.524 137.74 43.5079V40.7166C137.74 40.7005 137.74 40.6843 137.74 40.6682C137.772 40.1035 138.271 39.6517 138.884 39.6517H163.732C164.119 41.0716 165.005 43.0077 167.036 44.4759C167.084 44.5082 167.148 44.5405 167.213 44.5889Z" fill="#FFA412"/>
<path d="M186.727 39.6356H186.131V44.5728H186.727V39.6356Z" fill="#FFA412"/>
<path d="M184.697 39.6356H184.101V44.5728H184.697V39.6356Z" fill="#FFA412"/>
<path d="M182.264 39.6356H181.668V44.5728H182.264V39.6356Z" fill="#FFA412"/>
<path d="M178.525 39.6356H177.929V44.5728H178.525V39.6356Z" fill="#FFA412"/>
<path d="M174.561 39.6356H173.965V44.5728H174.561V39.6356Z" fill="#FFA412"/>
<path d="M168.502 39.6356H167.906V44.5728H168.502V39.6356Z" fill="#FFA412"/>
<path d="M162.83 39.6356H162.233V44.5728H162.83V39.6356Z" fill="#FFA412"/>
<path d="M157.754 39.6355H157.157V44.5727H157.754V39.6355Z" fill="#FFA412"/>
<path d="M188.677 39.6356H188.081V44.5728H188.677V39.6356Z" fill="#FFA412"/>
<path d="M189.95 39.6356H189.354V44.5728H189.95V39.6356Z" fill="#FFA412"/>
<path d="M191.191 39.6356H190.595V44.5728H191.191V39.6356Z" fill="#FFA412"/>
<path d="M192.126 39.6518V44.5567C192.045 44.5728 191.981 44.5728 191.9 44.5728H191.53V39.6356H191.9C191.965 39.6356 192.045 39.6518 192.126 39.6518Z" fill="#FFA412"/>
<path d="M192.948 40.1197V44.1049C192.803 44.2824 192.593 44.4276 192.352 44.5083V39.7164C192.593 39.797 192.803 39.9423 192.948 40.1197Z" fill="#FFA412"/>
<path d="M193.174 6.7165V9.50779C193.174 9.73367 193.093 9.94341 192.948 10.1048C192.803 10.2822 192.594 10.4274 192.352 10.5081C192.271 10.5404 192.191 10.5565 192.11 10.5565C192.03 10.5727 191.965 10.5727 191.884 10.5727H139.013C138.803 10.5727 138.594 10.5243 138.417 10.4436C138.046 10.2823 137.772 9.95955 137.74 9.58846C137.74 9.57232 137.74 9.55618 137.74 9.54005C137.74 9.52391 137.74 9.50779 137.74 9.49165V6.70037C137.74 6.68424 137.74 6.66812 137.74 6.65198C137.772 6.08727 138.336 5.6355 139.013 5.6355H191.901C191.981 5.6355 192.046 5.63549 192.126 5.65163C192.207 5.66776 192.287 5.68391 192.368 5.70004C192.61 5.78071 192.819 5.92592 192.964 6.1034C193.093 6.28088 193.174 6.49062 193.174 6.7165Z" fill="#FFB93E"/>
<path d="M167.213 10.589H138.884C138.69 10.589 138.513 10.5406 138.352 10.4599C138.014 10.2986 137.772 9.97589 137.74 9.6048C137.74 9.58867 137.74 9.57254 137.74 9.55641C137.74 9.54027 137.74 9.52413 137.74 9.508V6.71673C137.74 6.70059 137.74 6.68447 137.74 6.66833C137.772 6.10363 138.271 5.65186 138.884 5.65186H163.732C164.119 7.07169 165.005 9.00783 167.036 10.4761C167.084 10.5083 167.149 10.5406 167.213 10.589Z" fill="#FFA412"/>
<path d="M186.728 5.63574H186.131V10.5729H186.728V5.63574Z" fill="#FFA412"/>
<path d="M184.697 5.63574H184.101V10.5729H184.697V5.63574Z" fill="#FFA412"/>
<path d="M182.264 5.63574H181.668V10.5729H182.264V5.63574Z" fill="#FFA412"/>
<path d="M178.525 5.63574H177.929V10.5729H178.525V5.63574Z" fill="#FFA412"/>
<path d="M174.561 5.63574H173.965V10.5729H174.561V5.63574Z" fill="#FFA412"/>
<path d="M168.502 5.63574H167.906V10.5729H168.502V5.63574Z" fill="#FFA412"/>
<path d="M162.83 5.63574H162.233V10.5729H162.83V5.63574Z" fill="#FFA412"/>
<path d="M157.754 5.63562H157.158V10.5728H157.754V5.63562Z" fill="#FFA412"/>
<path d="M188.677 5.63574H188.081V10.5729H188.677V5.63574Z" fill="#FFA412"/>
<path d="M189.951 5.63574H189.354V10.5729H189.951V5.63574Z" fill="#FFA412"/>
<path d="M191.191 5.63574H190.595V10.5729H191.191V5.63574Z" fill="#FFA412"/>
<path d="M192.126 5.65187V10.5568C192.045 10.5729 191.981 10.5729 191.9 10.5729H191.53V5.63574H191.9C191.965 5.63574 192.045 5.65187 192.126 5.65187Z" fill="#FFA412"/>
<path d="M192.948 6.11985V10.105C192.803 10.2825 192.593 10.4277 192.352 10.5084V5.71649C192.593 5.79716 192.803 5.94237 192.948 6.11985Z" fill="#FFA412"/>
<path d="M130.492 35.7806V38.5718C130.492 38.7977 130.411 39.0075 130.266 39.1688C130.121 39.3463 129.912 39.4915 129.67 39.5722C129.59 39.6044 129.509 39.6206 129.428 39.6206C129.348 39.6367 129.283 39.6367 129.203 39.6367H76.3312C75.6543 39.6367 75.0903 39.1849 75.0581 38.6202C75.0581 38.6041 75.0581 38.588 75.0581 38.5718V35.7806C75.0581 35.7644 75.0581 35.7483 75.0581 35.7322C75.0903 35.2159 75.5738 34.7802 76.1861 34.7157C76.2345 34.7157 76.2828 34.7157 76.3312 34.7157H129.219C129.3 34.7157 129.364 34.7157 129.445 34.7318C129.525 34.748 129.606 34.7641 129.686 34.7802C129.928 34.8609 130.137 35.0061 130.283 35.1836C130.411 35.3449 130.492 35.5547 130.492 35.7806Z" fill="#FFB93E"/>
<path d="M104.532 39.6367H76.2022C75.5899 39.6367 75.0903 39.1849 75.0581 38.6202C75.0581 38.6041 75.0581 38.588 75.0581 38.5718V35.7806C75.0581 35.7644 75.0581 35.7483 75.0581 35.7322C75.0903 35.2159 75.5254 34.7802 76.0572 34.7157C76.1056 34.7157 76.1539 34.7157 76.1861 34.7157H101.035C101.454 36.1678 102.372 38.1685 104.532 39.6367Z" fill="#FFA412"/>
<path d="M124.062 34.6985H123.466V39.6356H124.062V34.6985Z" fill="#FFA412"/>
<path d="M122.016 34.6985H121.419V39.6356H122.016V34.6985Z" fill="#FFA412"/>
<path d="M119.582 34.6985H118.986V39.6356H119.582V34.6985Z" fill="#FFA412"/>
<path d="M115.844 34.6985H115.247V39.6356H115.844V34.6985Z" fill="#FFA412"/>
<path d="M111.896 34.6985H111.299V39.6356H111.896V34.6985Z" fill="#FFA412"/>
<path d="M105.821 34.6985H105.224V39.6356H105.821V34.6985Z" fill="#FFA412"/>
<path d="M100.148 34.6985H99.552V39.6356H100.148V34.6985Z" fill="#FFA412"/>
<path d="M95.0882 34.6985H94.492V39.6356H95.0882V34.6985Z" fill="#FFA412"/>
<path d="M125.996 34.6985H125.4V39.6356H125.996V34.6985Z" fill="#FFA412"/>
<path d="M127.269 34.6985H126.673V39.6356H127.269V34.6985Z" fill="#FFA412"/>
<path d="M128.51 34.6985H127.914V39.6356H128.51V34.6985Z" fill="#FFA412"/>
<path d="M129.444 34.7146V39.6195C129.364 39.6356 129.299 39.6356 129.219 39.6356H128.848V34.6985H129.219C129.299 34.6985 129.364 34.6985 129.444 34.7146Z" fill="#FFA412"/>
<path d="M130.282 35.1665V39.1518C130.137 39.3292 129.928 39.4744 129.686 39.5551V34.7632C129.928 34.8439 130.137 34.9891 130.282 35.1665Z" fill="#FFA412"/>
<path d="M197.492 35.7804V38.5717C197.492 38.7976 197.411 39.0073 197.266 39.1687C197.121 39.3462 196.912 39.4914 196.67 39.5721C196.59 39.6043 196.509 39.6205 196.428 39.6205C196.348 39.6366 196.283 39.6366 196.203 39.6366H143.331C142.654 39.6366 142.09 39.1848 142.058 38.6201C142.058 38.604 142.058 38.5879 142.058 38.5717V35.7804C142.058 35.7643 142.058 35.7482 142.058 35.7321C142.09 35.2158 142.574 34.7801 143.186 34.7156C143.234 34.7156 143.283 34.7156 143.331 34.7156H196.219C196.3 34.7156 196.364 34.7156 196.445 34.7317C196.525 34.7478 196.606 34.764 196.686 34.7801C196.928 34.8608 197.137 35.006 197.283 35.1835C197.411 35.3448 197.492 35.5546 197.492 35.7804Z" fill="#FFB93E"/>
<path d="M171.532 39.6366H143.202C142.59 39.6366 142.09 39.1848 142.058 38.6201C142.058 38.604 142.058 38.5879 142.058 38.5717V35.7804C142.058 35.7643 142.058 35.7482 142.058 35.7321C142.09 35.2158 142.525 34.7801 143.057 34.7156C143.106 34.7156 143.154 34.7156 143.186 34.7156H168.035C168.454 36.1677 169.372 38.1684 171.532 39.6366Z" fill="#FFA412"/>
<path d="M191.062 34.6984H190.466V39.6355H191.062V34.6984Z" fill="#FFA412"/>
<path d="M189.016 34.6984H188.419V39.6355H189.016V34.6984Z" fill="#FFA412"/>
<path d="M186.582 34.6984H185.986V39.6355H186.582V34.6984Z" fill="#FFA412"/>
<path d="M182.844 34.6984H182.247V39.6355H182.844V34.6984Z" fill="#FFA412"/>
<path d="M178.896 34.6984H178.299V39.6355H178.896V34.6984Z" fill="#FFA412"/>
<path d="M172.821 34.6984H172.224V39.6355H172.821V34.6984Z" fill="#FFA412"/>
<path d="M167.148 34.6984H166.552V39.6355H167.148V34.6984Z" fill="#FFA412"/>
<path d="M162.088 34.6984H161.492V39.6355H162.088V34.6984Z" fill="#FFA412"/>
<path d="M192.996 34.6984H192.4V39.6355H192.996V34.6984Z" fill="#FFA412"/>
<path d="M194.269 34.6984H193.673V39.6355H194.269V34.6984Z" fill="#FFA412"/>
<path d="M195.51 34.6984H194.914V39.6355H195.51V34.6984Z" fill="#FFA412"/>
<path d="M196.444 34.7145V39.6194C196.364 39.6355 196.299 39.6355 196.219 39.6355H195.848V34.6984H196.219C196.299 34.6984 196.364 34.6984 196.444 34.7145Z" fill="#FFA412"/>
<path d="M197.282 35.1664V39.1516C197.137 39.3291 196.928 39.4743 196.686 39.555V34.7631C196.928 34.8437 197.137 34.9889 197.282 35.1664Z" fill="#FFA412"/>
<path d="M197.492 1.78057V4.57184C197.492 4.79773 197.412 5.00747 197.267 5.16881C197.122 5.34629 196.912 5.4915 196.67 5.57217C196.59 5.60444 196.509 5.62059 196.429 5.62059C196.348 5.63672 196.284 5.63672 196.203 5.63672H143.331C142.654 5.63672 142.09 5.18494 142.058 4.62024C142.058 4.6041 142.058 4.58798 142.058 4.57184V1.78057C142.058 1.76444 142.058 1.74831 142.058 1.73218C142.09 1.21588 142.574 0.780236 143.186 0.715698C143.235 0.715698 143.283 0.715698 143.331 0.715698H196.219C196.3 0.715698 196.364 0.715694 196.445 0.731829C196.525 0.747963 196.606 0.764106 196.686 0.78024C196.928 0.860913 197.138 1.00612 197.283 1.1836C197.412 1.34495 197.492 1.55469 197.492 1.78057Z" fill="#FFB93E"/>
<path d="M171.532 5.63672H143.202C142.59 5.63672 142.09 5.18494 142.058 4.62024C142.058 4.6041 142.058 4.58798 142.058 4.57184V1.78057C142.058 1.76444 142.058 1.74831 142.058 1.73218C142.09 1.21588 142.526 0.780236 143.057 0.715698C143.106 0.715698 143.154 0.715698 143.186 0.715698H168.035C168.454 2.1678 169.372 4.16848 171.532 5.63672Z" fill="#FFA412"/>
<path d="M191.062 0.698486H190.466V5.63563H191.062V0.698486Z" fill="#FFA412"/>
<path d="M189.016 0.698486H188.42V5.63563H189.016V0.698486Z" fill="#FFA412"/>
<path d="M186.583 0.698486H185.986V5.63563H186.583V0.698486Z" fill="#FFA412"/>
<path d="M182.844 0.698486H182.248V5.63563H182.844V0.698486Z" fill="#FFA412"/>
<path d="M178.896 0.698486H178.299V5.63563H178.896V0.698486Z" fill="#FFA412"/>
<path d="M172.821 0.698486H172.224V5.63563H172.821V0.698486Z" fill="#FFA412"/>
<path d="M167.148 0.698486H166.552V5.63563H167.148V0.698486Z" fill="#FFA412"/>
<path d="M162.088 0.698486H161.492V5.63563H162.088V0.698486Z" fill="#FFA412"/>
<path d="M192.996 0.698486H192.4V5.63563H192.996V0.698486Z" fill="#FFA412"/>
<path d="M194.269 0.698486H193.673V5.63563H194.269V0.698486Z" fill="#FFA412"/>
<path d="M195.51 0.698486H194.914V5.63563H195.51V0.698486Z" fill="#FFA412"/>
<path d="M196.445 0.714617V5.6195C196.364 5.63563 196.3 5.63563 196.219 5.63563H195.848V0.698486H196.219C196.3 0.698486 196.364 0.698482 196.445 0.714617Z" fill="#FFA412"/>
<path d="M197.283 1.16655V5.15176C197.137 5.32924 196.928 5.47445 196.686 5.55512V0.763184C196.928 0.843856 197.137 0.989066 197.283 1.16655Z" fill="#FFA412"/>
<path d="M123.546 30.8439V33.6351C123.546 33.861 123.466 34.0708 123.321 34.2321C123.176 34.4096 122.966 34.5548 122.725 34.6355C122.644 34.6677 122.563 34.6839 122.483 34.6839C122.451 34.6839 122.434 34.6839 122.402 34.7C122.386 34.7 122.37 34.7 122.338 34.7C122.322 34.7 122.322 34.7 122.306 34.7C122.289 34.7 122.257 34.7 122.241 34.7H69.3855C68.7087 34.7 68.1447 34.2482 68.1125 33.6835C68.1125 33.6674 68.1125 33.6513 68.1125 33.6351V30.8439C68.1125 30.8277 68.1125 30.8116 68.1125 30.7955C68.1447 30.2307 68.7087 29.779 69.3855 29.779H122.273C122.289 29.779 122.322 29.779 122.338 29.779C122.386 29.779 122.451 29.779 122.499 29.7951C122.579 29.8113 122.66 29.8274 122.741 29.8435C122.773 29.8597 122.821 29.8758 122.853 29.8919C122.87 29.9081 122.902 29.9081 122.918 29.9242C122.934 29.9403 122.966 29.9403 122.982 29.9565C122.982 29.9565 122.982 29.9565 122.998 29.9565C123.015 29.9726 123.031 29.9726 123.063 29.9887C123.111 30.021 123.143 30.0533 123.192 30.0856C123.208 30.1017 123.224 30.1017 123.224 30.1178L123.24 30.1339C123.256 30.1501 123.272 30.1662 123.272 30.1662C123.289 30.1824 123.305 30.1985 123.321 30.2307C123.466 30.4082 123.546 30.618 123.546 30.8439Z" fill="#FFB93E"/>
<path d="M97.5858 34.7H69.2566C68.6442 34.7 68.1447 34.2482 68.1125 33.6835C68.1125 33.6674 68.1125 33.6513 68.1125 33.6351V30.8439C68.1125 30.8277 68.1125 30.8116 68.1125 30.7955C68.1447 30.2307 68.6442 29.779 69.2566 29.779H94.1051C94.1212 29.8113 94.1212 29.8597 94.1373 29.8919C94.5563 31.3279 95.4748 33.264 97.5858 34.7C97.5697 34.7 97.5858 34.7 97.5858 34.7Z" fill="#FFA412"/>
<path d="M117.117 29.762H116.52V34.6991H117.117V29.762Z" fill="#FFA412"/>
<path d="M115.086 29.762H114.49V34.6991H115.086V29.762Z" fill="#FFA412"/>
<path d="M112.637 29.762H112.041V34.6991H112.637V29.762Z" fill="#FFA412"/>
<path d="M108.898 29.762H108.302V34.6991H108.898V29.762Z" fill="#FFA412"/>
<path d="M104.95 29.762H104.354V34.6991H104.95V29.762Z" fill="#FFA412"/>
<path d="M98.875 29.762H98.2787V34.6991H98.875V29.762Z" fill="#FFA412"/>
<path d="M93.2029 29.762H92.6066V34.6991H93.2029V29.762Z" fill="#FFA412"/>
<path d="M88.143 29.7621H87.5468V34.6992H88.143V29.7621Z" fill="#FFA412"/>
<path d="M119.05 29.762H118.454V34.6991H119.05V29.762Z" fill="#FFA412"/>
<path d="M120.324 29.762H119.727V34.6991H120.324V29.762Z" fill="#FFA412"/>
<path d="M121.564 29.762H120.968V34.6991H121.564V29.762Z" fill="#FFA412"/>
<path d="M122.499 29.7781V34.683C122.419 34.6991 122.354 34.6991 122.274 34.6991H121.903V29.762H122.274C122.354 29.762 122.419 29.7781 122.499 29.7781Z" fill="#FFA412"/>
<path d="M123.337 30.246V34.2312C123.192 34.4087 122.982 34.5539 122.741 34.6346V29.8427C122.982 29.9233 123.192 30.0524 123.337 30.246Z" fill="#FFA412"/>
<path d="M190.546 30.8439V33.6351C190.546 33.861 190.466 34.0708 190.321 34.2321C190.176 34.4096 189.966 34.5548 189.724 34.6355C189.644 34.6677 189.563 34.6839 189.483 34.6839C189.45 34.6839 189.434 34.6839 189.402 34.7C189.386 34.7 189.37 34.7 189.338 34.7C189.322 34.7 189.322 34.7 189.305 34.7C189.289 34.7 189.257 34.7 189.241 34.7H136.385C135.709 34.7 135.145 34.2482 135.112 33.6835C135.112 33.6674 135.112 33.6513 135.112 33.6351V30.8439C135.112 30.8277 135.112 30.8116 135.112 30.7955C135.145 30.2307 135.709 29.779 136.385 29.779H189.273C189.289 29.779 189.322 29.779 189.338 29.779C189.386 29.779 189.45 29.779 189.499 29.7951C189.579 29.8113 189.66 29.8274 189.741 29.8435C189.773 29.8597 189.821 29.8758 189.853 29.8919C189.869 29.9081 189.902 29.9081 189.918 29.9242C189.934 29.9403 189.966 29.9403 189.982 29.9565C189.982 29.9565 189.982 29.9565 189.998 29.9565C190.014 29.9726 190.031 29.9726 190.063 29.9887C190.111 30.021 190.143 30.0533 190.192 30.0856C190.208 30.1017 190.224 30.1017 190.224 30.1178L190.24 30.1339C190.256 30.1501 190.272 30.1662 190.272 30.1662C190.288 30.1824 190.305 30.1985 190.321 30.2307C190.466 30.4082 190.546 30.618 190.546 30.8439Z" fill="#FFB93E"/>
<path d="M164.586 34.7H136.256C135.644 34.7 135.145 34.2482 135.112 33.6835C135.112 33.6674 135.112 33.6513 135.112 33.6351V30.8439C135.112 30.8277 135.112 30.8116 135.112 30.7955C135.145 30.2307 135.644 29.779 136.256 29.779H161.105C161.121 29.8113 161.121 29.8597 161.137 29.8919C161.556 31.3279 162.475 33.264 164.586 34.7C164.57 34.7 164.586 34.7 164.586 34.7Z" fill="#FFA412"/>
<path d="M184.117 29.762H183.52V34.6991H184.117V29.762Z" fill="#FFA412"/>
<path d="M182.086 29.762H181.49V34.6991H182.086V29.762Z" fill="#FFA412"/>
<path d="M179.637 29.762H179.041V34.6991H179.637V29.762Z" fill="#FFA412"/>
<path d="M175.898 29.762H175.302V34.6991H175.898V29.762Z" fill="#FFA412"/>
<path d="M171.95 29.762H171.354V34.6991H171.95V29.762Z" fill="#FFA412"/>
<path d="M165.875 29.762H165.279V34.6991H165.875V29.762Z" fill="#FFA412"/>
<path d="M160.203 29.762H159.607V34.6991H160.203V29.762Z" fill="#FFA412"/>
<path d="M155.143 29.7621H154.547V34.6992H155.143V29.7621Z" fill="#FFA412"/>
<path d="M186.05 29.762H185.454V34.6991H186.05V29.762Z" fill="#FFA412"/>
<path d="M187.324 29.762H186.727V34.6991H187.324V29.762Z" fill="#FFA412"/>
<path d="M188.564 29.762H187.968V34.6991H188.564V29.762Z" fill="#FFA412"/>
<path d="M189.499 29.7781V34.683C189.418 34.6991 189.354 34.6991 189.273 34.6991H188.903V29.762H189.273C189.354 29.762 189.418 29.7781 189.499 29.7781Z" fill="#FFA412"/>
<path d="M190.337 30.246V34.2312C190.192 34.4087 189.982 34.5539 189.741 34.6346V29.8427C189.982 29.9233 190.192 30.0524 190.337 30.246Z" fill="#FFA412"/>
<path d="M127.446 26.0184V28.8097C127.446 29.0355 127.366 29.2453 127.221 29.4066C127.076 29.5841 126.866 29.7293 126.625 29.81C126.544 29.8423 126.463 29.8584 126.383 29.8584C126.302 29.8745 126.238 29.8745 126.157 29.8745H73.2856C73.0761 29.8745 72.8828 29.8261 72.7216 29.7616C72.3349 29.6002 72.0609 29.2775 72.0126 28.9065C72.0126 28.8903 72.0126 28.8742 72.0126 28.858C72.0126 28.8419 72.0126 28.8258 72.0126 28.8097V26.0184C72.0126 26.0022 72.0126 25.9861 72.0126 25.97C72.0448 25.4537 72.5282 25.018 73.1406 24.9535C73.1889 24.9535 73.2373 24.9535 73.2856 24.9535H126.173C126.254 24.9535 126.318 24.9535 126.399 24.9696C126.48 24.9858 126.56 25.0019 126.641 25.018C126.882 25.0987 127.092 25.2439 127.237 25.4214C127.366 25.5827 127.446 25.7925 127.446 26.0184Z" fill="#FFB93E"/>
<path d="M101.47 29.8745H73.1404C72.9632 29.8745 72.7859 29.8261 72.6248 29.7616C72.2864 29.6002 72.0285 29.2775 71.9963 28.9065C71.9963 28.8903 71.9963 28.8742 71.9963 28.858C71.9963 28.8419 71.9963 28.8258 71.9963 28.8097V26.0184C71.9963 26.0022 71.9963 25.9861 71.9963 25.97C72.0285 25.4537 72.4636 25.018 72.9954 24.9535C73.0438 24.9535 73.0921 24.9535 73.1243 24.9535H97.9729C98.3596 26.3733 99.2459 28.3095 101.292 29.7777C101.357 29.81 101.421 29.8423 101.47 29.8745Z" fill="#FFA412"/>
<path d="M121 24.9371H120.404V29.8743H121V24.9371Z" fill="#FFA412"/>
<path d="M118.97 24.9371H118.374V29.8743H118.97V24.9371Z" fill="#FFA412"/>
<path d="M116.521 24.9371H115.924V29.8743H116.521V24.9371Z" fill="#FFA412"/>
<path d="M112.782 24.9371H112.186V29.8743H112.782V24.9371Z" fill="#FFA412"/>
<path d="M108.834 24.9371H108.238V29.8743H108.834V24.9371Z" fill="#FFA412"/>
<path d="M102.775 24.9371H102.179V29.8743H102.775V24.9371Z" fill="#FFA412"/>
<path d="M97.1028 24.9371H96.5066V29.8743H97.1028V24.9371Z" fill="#FFA412"/>
<path d="M92.0267 24.9372H91.4305V29.8744H92.0267V24.9372Z" fill="#FFA412"/>
<path d="M122.934 24.9371H122.338V29.8743H122.934V24.9371Z" fill="#FFA412"/>
<path d="M124.223 24.9371H123.627V29.8743H124.223V24.9371Z" fill="#FFA412"/>
<path d="M125.448 24.9371H124.852V29.8743H125.448V24.9371Z" fill="#FFA412"/>
<path d="M126.383 24.9533V29.8582C126.302 29.8743 126.238 29.8743 126.157 29.8743H125.787V24.9371H126.157C126.238 24.9371 126.318 24.9371 126.383 24.9533Z" fill="#FFA412"/>
<path d="M127.221 25.405V29.3902C127.076 29.5677 126.866 29.7129 126.624 29.7936V25.0016C126.866 25.0823 127.076 25.2275 127.221 25.405Z" fill="#FFA412"/>
<path d="M194.446 26.0182V28.8095C194.446 29.0354 194.366 29.2452 194.221 29.4065C194.076 29.584 193.866 29.7292 193.625 29.8099C193.544 29.8421 193.463 29.8583 193.383 29.8583C193.302 29.8744 193.238 29.8744 193.157 29.8744H140.286C140.076 29.8744 139.883 29.826 139.722 29.7615C139.335 29.6001 139.061 29.2774 139.013 28.9063C139.013 28.8902 139.013 28.8741 139.013 28.8579C139.013 28.8418 139.013 28.8257 139.013 28.8095V26.0182C139.013 26.0021 139.013 25.986 139.013 25.9699C139.045 25.4535 139.528 25.0179 140.141 24.9534C140.189 24.9534 140.237 24.9534 140.286 24.9534H193.173C193.254 24.9534 193.318 24.9534 193.399 24.9695C193.48 24.9856 193.56 25.0018 193.641 25.0179C193.882 25.0986 194.092 25.2438 194.237 25.4213C194.366 25.5826 194.446 25.7924 194.446 26.0182Z" fill="#FFB93E"/>
<path d="M168.47 29.8744H140.14C139.963 29.8744 139.786 29.826 139.625 29.7615C139.286 29.6001 139.029 29.2774 138.996 28.9063C138.996 28.8902 138.996 28.8741 138.996 28.8579C138.996 28.8418 138.996 28.8257 138.996 28.8095V26.0182C138.996 26.0021 138.996 25.986 138.996 25.9699C139.029 25.4535 139.464 25.0179 139.995 24.9534C140.044 24.9534 140.092 24.9534 140.124 24.9534H164.973C165.36 26.3732 166.246 28.3094 168.292 29.7776C168.357 29.8099 168.421 29.8421 168.47 29.8744Z" fill="#FFA412"/>
<path d="M188 24.937H187.404V29.8742H188V24.937Z" fill="#FFA412"/>
<path d="M185.97 24.937H185.374V29.8742H185.97V24.937Z" fill="#FFA412"/>
<path d="M183.521 24.937H182.924V29.8742H183.521V24.937Z" fill="#FFA412"/>
<path d="M179.782 24.937H179.186V29.8742H179.782V24.937Z" fill="#FFA412"/>
<path d="M175.834 24.937H175.238V29.8742H175.834V24.937Z" fill="#FFA412"/>
<path d="M169.775 24.937H169.179V29.8742H169.775V24.937Z" fill="#FFA412"/>
<path d="M164.103 24.937H163.507V29.8742H164.103V24.937Z" fill="#FFA412"/>
<path d="M159.027 24.9371H158.43V29.8742H159.027V24.9371Z" fill="#FFA412"/>
<path d="M189.934 24.937H189.338V29.8742H189.934V24.937Z" fill="#FFA412"/>
<path d="M191.223 24.937H190.627V29.8742H191.223V24.937Z" fill="#FFA412"/>
<path d="M192.448 24.937H191.852V29.8742H192.448V24.937Z" fill="#FFA412"/>
<path d="M193.383 24.9531V29.858C193.302 29.8742 193.238 29.8742 193.157 29.8742H192.787V24.937H193.157C193.238 24.937 193.318 24.937 193.383 24.9531Z" fill="#FFA412"/>
<path d="M194.221 25.4049V29.3901C194.076 29.5676 193.866 29.7128 193.624 29.7935V25.0015C193.866 25.0822 194.076 25.2274 194.221 25.4049Z" fill="#FFA412"/>
<path d="M129.09 21.0814V23.8726C129.09 24.0985 129.009 24.3082 128.864 24.4696C128.719 24.6471 128.51 24.7923 128.268 24.873C128.188 24.9052 128.107 24.9214 128.026 24.9214C127.994 24.9214 127.978 24.9214 127.946 24.9375C127.93 24.9375 127.914 24.9375 127.898 24.9375C127.881 24.9375 127.865 24.9375 127.849 24.9375C127.833 24.9375 127.801 24.9375 127.785 24.9375H74.9292C74.2524 24.9375 73.6884 24.4857 73.6562 23.921C73.6562 23.9049 73.6562 23.8888 73.6562 23.8726V21.0814C73.6562 21.0652 73.6562 21.0491 73.6562 21.0329C73.6884 20.4682 74.2524 20.0165 74.9292 20.0165H127.817C127.898 20.0165 127.962 20.0165 128.043 20.0326C128.123 20.0487 128.204 20.0649 128.284 20.081C128.526 20.1617 128.736 20.3069 128.881 20.4844C129.009 20.6457 129.09 20.8555 129.09 21.0814Z" fill="#FFB93E"/>
<path d="M103.13 24.9375H74.8003C74.188 24.9375 73.6884 24.4857 73.6562 23.921C73.6562 23.9049 73.6562 23.8888 73.6562 23.8726V21.0814C73.6562 21.0652 73.6562 21.0491 73.6562 21.0329C73.6884 20.4682 74.188 20.0165 74.8003 20.0165H99.6489C100.052 21.4524 100.97 23.4531 103.13 24.9375C103.113 24.9375 103.13 24.9375 103.13 24.9375Z" fill="#FFA412"/>
<path d="M122.661 20H122.064V24.9372H122.661V20Z" fill="#FFA412"/>
<path d="M120.63 20H120.034V24.9372H120.63V20Z" fill="#FFA412"/>
<path d="M118.181 20H117.584V24.9372H118.181V20Z" fill="#FFA412"/>
<path d="M114.442 20H113.846V24.9372H114.442V20Z" fill="#FFA412"/>
<path d="M110.494 20H109.898V24.9372H110.494V20Z" fill="#FFA412"/>
<path d="M104.419 20H103.823V24.9372H104.419V20Z" fill="#FFA412"/>
<path d="M98.7466 20H98.1504V24.9372H98.7466V20Z" fill="#FFA412"/>
<path d="M93.6866 20H93.0904V24.9372H93.6866V20Z" fill="#FFA412"/>
<path d="M124.594 20H123.998V24.9372H124.594V20Z" fill="#FFA412"/>
<path d="M125.867 20H125.271V24.9372H125.867V20Z" fill="#FFA412"/>
<path d="M127.108 20H126.512V24.9372H127.108V20Z" fill="#FFA412"/>
<path d="M128.043 20.0161V24.921C127.962 24.9372 127.898 24.9372 127.817 24.9372H127.446V20H127.817C127.898 20 127.962 20 128.043 20.0161Z" fill="#FFA412"/>
<path d="M128.881 20.4681V24.4533C128.736 24.6308 128.526 24.776 128.284 24.8567V20.0647C128.526 20.1454 128.736 20.2906 128.881 20.4681Z" fill="#FFA412"/>
<path d="M196.09 21.0812V23.8725C196.09 24.0984 196.009 24.3081 195.864 24.4695C195.719 24.647 195.51 24.7922 195.268 24.8728C195.188 24.9051 195.107 24.9212 195.026 24.9212C194.994 24.9212 194.978 24.9212 194.946 24.9374C194.93 24.9374 194.914 24.9374 194.898 24.9374C194.881 24.9374 194.865 24.9374 194.849 24.9374C194.833 24.9374 194.801 24.9374 194.785 24.9374H141.929C141.252 24.9374 140.688 24.4856 140.656 23.9209C140.656 23.9048 140.656 23.8886 140.656 23.8725V21.0812C140.656 21.0651 140.656 21.049 140.656 21.0328C140.688 20.4681 141.252 20.0164 141.929 20.0164H194.817C194.898 20.0164 194.962 20.0164 195.043 20.0325C195.123 20.0486 195.204 20.0648 195.284 20.0809C195.526 20.1616 195.736 20.3068 195.881 20.4843C196.009 20.6456 196.09 20.8553 196.09 21.0812Z" fill="#FFB93E"/>
<path d="M170.13 24.9374H141.8C141.188 24.9374 140.688 24.4856 140.656 23.9209C140.656 23.9048 140.656 23.8886 140.656 23.8725V21.0812C140.656 21.0651 140.656 21.049 140.656 21.0328C140.688 20.4681 141.188 20.0164 141.8 20.0164H166.649C167.052 21.4523 167.97 23.453 170.13 24.9374C170.113 24.9374 170.13 24.9374 170.13 24.9374Z" fill="#FFA412"/>
<path d="M189.661 19.9999H189.064V24.937H189.661V19.9999Z" fill="#FFA412"/>
<path d="M187.63 19.9999H187.034V24.937H187.63V19.9999Z" fill="#FFA412"/>
<path d="M185.181 19.9999H184.584V24.937H185.181V19.9999Z" fill="#FFA412"/>
<path d="M181.442 19.9999H180.846V24.937H181.442V19.9999Z" fill="#FFA412"/>
<path d="M177.494 19.9999H176.898V24.937H177.494V19.9999Z" fill="#FFA412"/>
<path d="M171.419 19.9999H170.823V24.937H171.419V19.9999Z" fill="#FFA412"/>
<path d="M165.747 19.9999H165.15V24.937H165.747V19.9999Z" fill="#FFA412"/>
<path d="M160.687 19.9999H160.09V24.937H160.687V19.9999Z" fill="#FFA412"/>
<path d="M191.594 19.9999H190.998V24.937H191.594V19.9999Z" fill="#FFA412"/>
<path d="M192.867 19.9999H192.271V24.937H192.867V19.9999Z" fill="#FFA412"/>
<path d="M194.108 19.9999H193.512V24.937H194.108V19.9999Z" fill="#FFA412"/>
<path d="M195.043 20.016V24.9209C194.962 24.937 194.898 24.937 194.817 24.937H194.446V19.9999H194.817C194.898 19.9999 194.962 19.9999 195.043 20.016Z" fill="#FFA412"/>
<path d="M195.881 20.4679V24.4532C195.736 24.6306 195.526 24.7759 195.284 24.8565V20.0646C195.526 20.1452 195.736 20.2905 195.881 20.4679Z" fill="#FFA412"/>
</svg>
