<svg width="80" height="80" viewBox="0 0 80 80" fill="none" xmlns="http://www.w3.org/2000/svg">
<path d="M52 55.3331V46H28V55.3331L39.9998 66L52 55.3331Z" fill="#E6AF78"/>
<path d="M71.7293 60.7682L54.596 56.6889C54.3373 56.6273 54.0992 56.5227 53.8768 56.3961L39.9995 64.5877L26.6635 56C26.318 56.329 25.8899 56.5733 25.4033 56.6892L8.26998 60.7685C5.76791 61.3642 4 63.6232 4 66.2243V77.1976C4 78.7451 5.23982 80 6.76935 80H73.2306C74.7598 80 76 78.7454 76 77.1976V66.2243C75.9993 63.6229 74.2311 61.3638 71.7293 60.7682Z" fill="#A0D2F0"/>
<path d="M28 46V56.6151C43.1169 62.4858 52 47.7924 52 47.7924V46H28Z" fill="#D29B6E"/>
<path d="M22 16L23.2068 42.0185C23.3197 44.4493 24.5354 46.703 26.5213 48.1629L32.2464 52.3715C33.6844 53.4287 35.4336 54 37.2308 54H42.7692C44.5667 54 46.3159 53.4284 47.7536 52.3715L53.4787 48.1629C55.4646 46.703 56.6806 44.4489 56.7932 42.0185L58 16H22Z" fill="#F0C087"/>
<path d="M36.0035 21.4285C41.6048 21.4285 50.007 20.0716 52 16H22L23.2202 42.0185C23.3344 44.4493 24.5639 46.703 26.5723 48.1629L32.3625 52.3715C33.8169 53.4287 35.586 54 37.4036 54H40.2044C37.4036 54 31.8022 48.5715 31.8022 41.7855C31.8022 38.4668 31.8022 29.5714 31.8022 25.4997C31.8022 24.1429 33.2027 21.4285 36.0035 21.4285Z" fill="#E6AF78"/>
<path d="M66.2113 71.5653L74.8513 64C75.5753 64.8937 76 66.0179 76 67.2218V77.4006C76 78.8359 74.8061 80 73.3332 80H64V76.3996C64 74.5554 64.8036 72.798 66.2113 71.5653Z" fill="#B4E1FA"/>
<path d="M13.7887 71.5653L5.14872 64C4.42471 64.8937 4 66.0179 4 67.2218V77.4006C4 78.8359 5.19391 80 6.66682 80H16V76.3996C16 74.5554 15.1964 72.798 13.7887 71.5653Z" fill="#B4E1FA"/>
<path d="M43 79H37L37.7503 67H42.25L43 79Z" fill="#80ABC6"/>
<path d="M27.8129 54.3646L40 66.0455C40 66.0455 36.587 67.8801 32.3749 71.5787C31.5062 72.3417 30.1918 72.0324 29.7258 70.9409L24 57.5262L25.8115 54.6328C26.2627 53.912 27.2087 53.7854 27.8129 54.3646Z" fill="#B4E1FA"/>
<path d="M52.1871 54.3646L40 66.0455C40 66.0455 43.413 67.8801 47.6251 71.5787C48.4938 72.3417 49.8082 72.0324 50.2742 70.9409L56 57.5262L54.1885 54.6328C53.7376 53.912 52.7916 53.7854 52.1871 54.3646Z" fill="#B4E1FA"/>
<path d="M48 6.85913L49.3275 16.0215C55.3859 17.2051 56.2589 26.4928 56.3848 29.1458C56.4077 29.627 56.5649 30.0924 56.8323 30.4972L59.144 34C59.144 34 58.3527 28.2087 61.9756 24.3194C61.9752 24.3194 63.2189 1.32729 48 6.85913Z" fill="#785550"/>
<path d="M61.9091 31.8582L60.2743 38.634C60.0805 39.4367 59.3845 40 58.5861 40C57.7085 40 56.9684 39.3229 56.8593 38.4203L56.0236 31.4901C55.8 29.6368 57.1945 28 58.9964 28H59.0024C60.9518 27.9996 62.3818 29.8983 61.9091 31.8582Z" fill="#F0C087"/>
<path d="M18.0909 31.8582L19.7257 38.634C19.9195 39.4367 20.6155 40 21.4139 40C22.2915 40 23.0316 39.3229 23.1407 38.4203L23.9764 31.4901C24.2 29.6368 22.8055 28 21.0036 28H20.9976C19.0482 27.9996 17.6182 29.8983 18.0909 31.8582Z" fill="#E6AF78"/>
<path d="M23.6727 3.66336L25.744 5.09454C16.3794 12.0887 18.1296 24.0847 18.1296 24.0847C20.9303 26.9178 20.9303 34 20.9303 34L23.7311 31.1669C23.7311 31.1669 22.6502 22.983 27.9323 19.835C32.8333 16.9135 37.1218 18.4187 41.4977 18.4187C53.2253 18.4187 56.5075 13.9478 55.9387 8.50343C55.6443 5.68594 51.3861 -0.182124 40.5355 0.00434082C36.1558 0.0794832 27.9323 1.42092 23.6727 3.66336Z" fill="#694B4B"/>
<path d="M22.7628 15.7062C22.7628 15.7062 21.3036 9.96024 25.5955 4C16.4105 10.7751 18.1271 22.3953 18.1271 22.3953C20.8742 25.1397 20.8742 32 20.8742 32L23.6212 29.2556C23.6212 29.2556 22.5611 21.3281 27.7415 18.2787C32.5486 15.4487 36.7549 16.9068 41.0469 16.9068C42.9176 16.9068 44.5479 16.7815 46 16.5671C37.1415 16.864 31.9195 10.1607 22.7628 15.7062Z" fill="#5A4146"/>
<path d="M43 63H37V63.7702C37 65.5542 38.3014 67 39.9066 67H40.0928C41.6983 67 42.9994 65.5539 42.9994 63.7702V63H43Z" fill="#80ABC6"/>
</svg>
