<svg width="80" height="80" viewBox="0 0 80 80" fill="none" xmlns="http://www.w3.org/2000/svg">
<path d="M23.9794 65.484V61.3114C23.9794 60.4834 23.6439 59.713 23.0827 59.1405L18.8206 62.4579C18.0674 63.0517 17.6289 63.9508 17.6289 64.9015V67.5699H21.8626C23.0317 67.5703 23.9794 66.6362 23.9794 65.484Z" fill="#E4EAF6"/>
<path d="M13.7122 65.4841H10.9604C9.96673 65.4841 9.16113 66.2781 9.16113 67.2574V67.5704H15.5114V67.2574C15.5114 66.2779 14.7059 65.4841 13.7122 65.4841Z" fill="#E4EAF6"/>
<path d="M58.4194 39.309L59.3573 43.006C59.4685 43.444 59.8678 43.7514 60.3261 43.7514C60.8296 43.7514 61.2542 43.3819 61.3168 42.8895L61.7963 39.1082C61.9246 38.0969 61.1245 37.2039 60.0905 37.2039H60.087C58.969 37.2037 58.1481 38.2396 58.4194 39.309Z" fill="#E6AF78"/>
<path d="M40.235 0.100464C11.7554 0.100464 14.9133 34.2339 15.0434 58.969C15.0483 59.9031 15.5447 60.7455 16.3566 61.2277C19.5125 63.1027 28.1794 67.4864 40.235 67.4864C52.2905 67.4864 60.9574 63.1027 64.1133 61.2277C64.925 60.7453 65.4216 59.9031 65.4265 58.969C65.5566 34.2337 68.7146 0.100464 40.235 0.100464Z" fill="#694B4B"/>
<path d="M38.3999 0.170654C11.9131 1.63417 14.9162 34.7841 15.0435 58.9688C15.0483 59.9029 15.5448 60.7453 16.3567 61.2275C19.5126 63.1025 28.1795 67.4862 40.235 67.4862L47.4321 17.8334" fill="#5A4146"/>
<path d="M40.236 0.100464C24.0425 0.100464 22.918 19.3853 22.918 19.3853C32.2516 17.8337 37.9868 21.7127 47.4331 17.8337L40.236 67.4866C52.2915 67.4866 60.9584 63.1029 64.1143 61.2279C64.926 60.7455 65.4226 59.9033 65.4275 58.9692C65.5577 34.2337 68.7156 0.100464 40.236 0.100464Z" fill="#694B4B"/>
<path d="M65.4276 58.9693C65.5393 37.7146 67.8672 9.54091 50.4558 2.02734C50.1521 3.58232 49.6022 7.92302 51.0315 10.7405C54.6302 17.8338 58.2286 17.8338 61.8271 23.1538C65.4255 42.6603 54.9512 63.3642 51.4724 66.1825C57.6362 64.7377 62.0547 62.4515 64.1141 61.228C64.9261 60.7455 65.4227 59.9033 65.4276 58.9693Z" fill="#785550"/>
<path d="M67.502 64.3491L51.4468 57.7559C50.1059 57.2054 49.2324 55.9139 49.2324 54.482V50.1965H31.2397V54.482C31.2397 55.9137 30.3662 57.2052 29.0253 57.7559L12.9701 64.3491C10.9588 65.175 9.64844 67.1121 9.64844 69.2599V76.3531C9.64844 78.3117 11.2596 79.8999 13.2469 79.8999H67.225C69.2123 79.8999 70.8235 78.3119 70.8235 76.3531V69.2599C70.8237 67.1119 69.5133 65.175 67.502 64.3491Z" fill="#E6AF78"/>
<path d="M67.502 64.3492L51.9787 57.9745L40.2361 62.9693L28.4934 57.9745L12.9701 64.3492C10.9588 65.1751 9.64844 67.1122 9.64844 69.2599V76.3532C9.64844 78.3118 11.2596 79.8999 13.2469 79.8999H67.225C69.2123 79.8999 70.8235 78.312 70.8235 76.3532V69.2599C70.8237 67.112 69.5133 65.1751 67.502 64.3492Z" fill="#B4E1FA"/>
<path d="M49.2322 50.1965H31.2396V54.482C31.2396 55.9137 30.3661 57.2052 29.0251 57.7559L26.5176 58.7859C45.7064 63.6078 49.2322 50.1965 49.2322 50.1965Z" fill="#D29B6E"/>
<path d="M18.418 71.209L11.196 65.5473C10.2285 66.5225 9.64844 67.8413 9.64844 69.2596V76.3529C9.64844 78.3115 11.2596 79.8994 13.2469 79.8994H20.444V75.3632C20.4436 73.7471 19.6983 72.2186 18.418 71.209Z" fill="#A0D2F0"/>
<path d="M70.8231 76.353V69.2597C70.8231 67.8523 70.2526 66.5425 69.2986 65.5695L62.0531 71.2091C60.7728 72.2187 60.0273 73.7471 60.0273 75.3632V79.8995H67.2244C69.2119 79.8997 70.8231 78.3118 70.8231 76.353Z" fill="#A0D2F0"/>
<path d="M40.2357 76.353C39.2421 76.353 38.4365 75.559 38.4365 74.5797V62.9733H42.035V74.5799C42.035 75.5592 41.2294 76.353 40.2357 76.353Z" fill="#A0D2F0"/>
<path d="M40.236 62.9692L29.9379 55.357C29.2769 54.8683 28.3349 55.0273 27.8766 55.7049L25.8418 58.7132L32.1554 67.4245C32.6353 68.0868 33.5812 68.216 34.2259 67.7077L40.236 62.9692Z" fill="#A0D2F0"/>
<path d="M40.2354 62.9692L50.5335 55.357C51.1945 54.8683 52.1365 55.0273 52.5948 55.7049L54.6296 58.7132L48.316 67.4245C47.8361 68.0868 46.8902 68.216 46.2455 67.7077L40.2354 62.9692Z" fill="#A0D2F0"/>
<path d="M49.2317 16.0603C40.2354 24.9268 22.5801 17.8336 22.5801 32.0201L23.6975 42.4701C23.9129 44.8076 25.2881 46.8888 27.3698 48.0285L37.6143 53.6378C39.2446 54.5304 41.2268 54.5304 42.8571 53.6378L53.1016 48.0285C55.1833 46.8884 56.5583 44.8074 56.7739 42.4701L58.0637 30.0591C58.1554 29.1771 58.175 28.2896 58.1446 27.4042C57.471 22.8903 51.0309 19.6068 49.2317 16.0603Z" fill="#F0C087"/>
<path d="M22.5801 32.0201L23.6975 42.4701C23.9129 44.8076 25.2881 46.8888 27.3698 48.0285L37.6143 53.6378C38.7456 54.2571 40.0429 54.4177 41.2778 54.1775C41.2778 54.1775 36.1126 52.6349 33.0387 44.4333C32.0971 41.9208 30.7896 28.6213 31.9141 26.9958C34.137 23.7827 46.5333 23.449 50.1962 17.4886C50.0151 17.2673 49.848 17.0458 49.6955 16.8237C49.683 16.8058 49.6684 16.7877 49.6561 16.7698C49.497 16.5343 49.3527 16.2979 49.2321 16.0603C40.2354 24.9268 22.5801 17.8336 22.5801 32.0201Z" fill="#E6AF78"/>
<path d="M54.6291 76.353H47.432C46.4384 76.353 45.6328 77.147 45.6328 78.1263V79.8996H56.4284V78.1263C56.4284 77.147 55.6228 76.353 54.6291 76.353Z" fill="#A0D2F0"/>
</svg>
