<svg width="20" height="20" viewBox="0 0 20 20" fill="none" xmlns="http://www.w3.org/2000/svg">
<path d="M15.3231 12.2611C15.6541 12.3999 15.796 12.8626 15.796 13.094C15.8433 13.4641 15.7487 13.6492 15.6068 13.6492C15.465 13.6492 15.2758 13.5104 15.0866 13.1865C14.8974 12.8626 14.8029 12.5387 14.8974 12.3537C15.0393 12.2611 15.1812 12.2149 15.3231 12.2611Z" fill="#3A205A"/>
<path d="M13.3841 13.6955C13.5732 13.6955 13.8097 13.788 14.0462 13.9731C14.4245 14.2969 14.5664 14.6671 14.3772 14.9447C14.2826 15.0835 14.0462 15.176 13.857 15.176C13.6205 15.176 13.3841 15.0835 13.2422 14.9447C12.8638 14.6208 12.7692 14.1581 13.0057 13.8805C13.053 13.788 13.1949 13.6955 13.3841 13.6955Z" fill="#3A205A"/>
<path d="M8.89117 17.3507C3.97265 17.3507 0 13.4641 0 8.69847C0 3.93282 3.97265 0 8.89117 0C13.8097 0 17.7823 3.88655 17.7823 8.69847C17.7823 10.3179 17.3094 11.8447 16.5527 13.1402C16.5054 13.1865 16.4581 13.1865 16.4581 13.094C16.1271 10.9656 14.8029 9.80891 12.9111 9.43876C12.7219 9.39249 12.7219 9.29996 12.9584 9.29996C13.5732 9.25369 14.3772 9.25369 14.8501 9.34623C14.8974 9.11488 14.8974 8.88354 14.8974 8.69847C14.8974 5.55221 12.249 2.96118 9.03305 2.96118C5.8171 2.96118 3.16866 5.55221 3.16866 8.69847C3.16866 11.8447 5.8171 14.4358 9.03305 14.4358H9.31681C9.22223 13.9268 9.17493 13.4178 9.22223 12.8626C9.22223 12.4925 9.31681 12.4462 9.45869 12.7238C10.2627 14.1119 11.445 15.3149 13.7151 15.8238C15.5596 16.2402 17.404 16.7029 19.4376 19.1551C19.6268 19.3865 19.343 19.6178 19.1539 19.4327C17.1202 17.6745 15.2758 17.0731 13.5732 17.0731C11.445 17.1193 10.1681 17.3507 8.89117 17.3507Z" fill="#3A205A"/>
</svg>
