<svg width="40" height="40" viewBox="0 0 40 40" fill="none" xmlns="http://www.w3.org/2000/svg">
<path d="M28.66 14.2261C27.7376 13.0275 26.6455 11.9669 25.4261 11.0759C22.786 9.1349 19.5202 8 16 8C7.17826 8 0 15.1806 0 24.0053C0 32.83 7.17826 40 16 40C19.0113 40 21.8423 39.1621 24.2492 37.6984C25.5533 36.9135 26.7303 35.9377 27.7588 34.8346C30.3883 31.9814 32 28.1737 32 24.0053C32 20.3248 30.7488 16.9307 28.66 14.2261Z" fill="#463864" fill-opacity="0.19"/>
<path d="M33 40H26.3875L24 37.7721C25.3533 37.0123 26.5746 36.0678 27.6418 35L33 40Z" fill="url(#paint0_linear)"/>
<path d="M28.66 14.2261C27.7376 13.0275 26.6455 11.9669 25.4261 11.0759C22.7859 9.1349 19.5202 8 16 8C7.17826 8 0 15.1806 0 24.0053C0 32.83 7.17826 40 16 40C19.0113 40 21.8423 39.1621 24.2492 37.6984C25.5533 36.9135 26.7303 35.9377 27.7588 34.8346C30.3883 31.9814 32 28.1737 32 24.0053C32 20.3248 30.7488 16.9307 28.66 14.2261ZM20.9304 34.3785C19.4354 35.0892 17.7601 35.4922 16 35.4922C9.66998 35.4922 4.5169 30.3374 4.5169 24.0053C4.5169 17.6732 9.66998 12.5184 16 12.5184C18.2054 12.5184 20.273 13.1442 22.0225 14.2261C23.3161 15.0215 24.44 16.0822 25.3307 17.3126C26.6879 19.2005 27.4937 21.5128 27.4937 24.0053C27.4937 26.9327 26.391 29.6162 24.5779 31.642C23.56 32.7769 22.3194 33.7103 20.9304 34.3785Z" fill="url(#paint1_linear)"/>
<path d="M24.9328 31.2709L17.8186 24.5115L34.0036 9.89474L35 7.99996H34.0036L30.5 7.49988L11 24.3873L21.4448 34C22.8396 33.3864 23.865 32.3788 24.9328 31.2709Z" fill="url(#paint2_linear)"/>
<path d="M36.0001 5.00004L36.0001 14L27 4.99993L36.0001 5.00004Z" fill="#00A6B3"/>
<defs>
<linearGradient id="paint0_linear" x1="30.5659" y1="40.5065" x2="26.5224" y2="36.2056" gradientUnits="userSpaceOnUse">
<stop stop-color="#00A6B3"/>
<stop offset="1" stop-color="#00555B"/>
</linearGradient>
<linearGradient id="paint1_linear" x1="32.4103" y1="23.7975" x2="-2.67305e-07" y2="23.7975" gradientUnits="userSpaceOnUse">
<stop stop-color="#6A64C3"/>
<stop offset="1" stop-color="#6A64C3" stop-opacity="0"/>
</linearGradient>
<linearGradient id="paint2_linear" x1="22.8396" y1="23.3375" x2="27.6217" y2="29.4485" gradientUnits="userSpaceOnUse">
<stop stop-color="#00A6B3"/>
<stop offset="1" stop-color="#00555B"/>
</linearGradient>
</defs>
</svg>
