<svg width="109" height="364" viewBox="0 0 109 364" fill="none" xmlns="http://www.w3.org/2000/svg">
<g filter="url(#filter0_d)">
<path d="M15 5H33C40.732 5 47 11.268 47 19V325C47 332.732 40.732 339 33 339H15V5Z" fill="url(#paint0_linear)" fill-opacity="0.55"/>
</g>
<g filter="url(#filter1_d)">
<path d="M47 50H60C67.1797 50 73 55.8203 73 63V281C73 288.18 67.1797 294 60 294H47V50Z" fill="url(#paint1_linear)" fill-opacity="0.35"/>
</g>
<g filter="url(#filter2_d)">
<path d="M73 79H82C88.6274 79 94 84.3726 94 91V253C94 259.627 88.6274 265 82 265H73V79Z" fill="url(#paint2_linear)" fill-opacity="0.15"/>
</g>
<defs>
<filter id="filter0_d" x="0" y="0" width="62" height="364" filterUnits="userSpaceOnUse" color-interpolation-filters="sRGB">
<feFlood flood-opacity="0" result="BackgroundImageFix"/>
<feColorMatrix in="SourceAlpha" type="matrix" values="0 0 0 0 0 0 0 0 0 0 0 0 0 0 0 0 0 0 127 0"/>
<feOffset dy="10"/>
<feGaussianBlur stdDeviation="7.5"/>
<feColorMatrix type="matrix" values="0 0 0 0 0.452136 0 0 0 0 0.352326 0 0 0 0 0.579167 0 0 0 0.1 0"/>
<feBlend mode="normal" in2="BackgroundImageFix" result="effect1_dropShadow"/>
<feBlend mode="normal" in="SourceGraphic" in2="effect1_dropShadow" result="shape"/>
</filter>
<filter id="filter1_d" x="32" y="45" width="56" height="274" filterUnits="userSpaceOnUse" color-interpolation-filters="sRGB">
<feFlood flood-opacity="0" result="BackgroundImageFix"/>
<feColorMatrix in="SourceAlpha" type="matrix" values="0 0 0 0 0 0 0 0 0 0 0 0 0 0 0 0 0 0 127 0"/>
<feOffset dy="10"/>
<feGaussianBlur stdDeviation="7.5"/>
<feColorMatrix type="matrix" values="0 0 0 0 0.452136 0 0 0 0 0.352326 0 0 0 0 0.579167 0 0 0 0.1 0"/>
<feBlend mode="normal" in2="BackgroundImageFix" result="effect1_dropShadow"/>
<feBlend mode="normal" in="SourceGraphic" in2="effect1_dropShadow" result="shape"/>
</filter>
<filter id="filter2_d" x="58" y="74" width="51" height="216" filterUnits="userSpaceOnUse" color-interpolation-filters="sRGB">
<feFlood flood-opacity="0" result="BackgroundImageFix"/>
<feColorMatrix in="SourceAlpha" type="matrix" values="0 0 0 0 0 0 0 0 0 0 0 0 0 0 0 0 0 0 127 0"/>
<feOffset dy="10"/>
<feGaussianBlur stdDeviation="7.5"/>
<feColorMatrix type="matrix" values="0 0 0 0 0.452136 0 0 0 0 0.352326 0 0 0 0 0.579167 0 0 0 0.1 0"/>
<feBlend mode="normal" in2="BackgroundImageFix" result="effect1_dropShadow"/>
<feBlend mode="normal" in="SourceGraphic" in2="effect1_dropShadow" result="shape"/>
</filter>
<linearGradient id="paint0_linear" x1="15" y1="339" x2="54.5241" y2="338.107" gradientUnits="userSpaceOnUse">
<stop stop-color="#3A205A"/>
<stop offset="1" stop-color="#735A94"/>
</linearGradient>
<linearGradient id="paint1_linear" x1="47" y1="294" x2="79.1094" y2="293.193" gradientUnits="userSpaceOnUse">
<stop stop-color="#3A205A"/>
<stop offset="1" stop-color="#735A94"/>
</linearGradient>
<linearGradient id="paint2_linear" x1="73" y1="180.665" x2="117.333" y2="180.076" gradientUnits="userSpaceOnUse">
<stop stop-color="#240D41"/>
<stop offset="1" stop-color="#735A94" stop-opacity="0.82"/>
</linearGradient>
</defs>
</svg>
