<svg width="24" height="24" viewBox="0 0 24 24" fill="none" xmlns="http://www.w3.org/2000/svg">
<path d="M10.5138 17.0931L8.52822 19.0787C7.53385 20.0731 5.91589 20.0734 4.92102 19.0787C3.92681 18.0843 3.92714 16.4664 4.92151 15.472L8.9084 11.4852C9.82977 10.5638 11.2869 10.4957 12.2867 11.282C12.3658 11.3441 12.4421 11.4118 12.5151 11.4848C12.9579 11.9275 13.6444 11.9347 14.078 11.501L15.3275 10.2515C15.1222 9.93988 14.8849 9.64919 14.6177 9.38205C14.2412 9.00566 13.8236 8.6947 13.3786 8.44998C11.6377 7.48973 9.48469 7.53768 7.7845 8.59368C7.43134 8.81302 7.0973 9.07587 6.79079 9.38255L2.81873 13.3546C0.660739 15.5126 0.660739 19.0237 2.8184 21.1815C4.97656 23.3394 8.48752 23.3394 10.6457 21.1815L14.2189 17.6082C12.9708 17.7734 11.686 17.602 10.5138 17.0931Z" fill="#B0ABDD"/>
<path d="M21.1817 2.81827C19.0239 0.660457 15.5129 0.660457 13.3548 2.8186L9.78184 6.3915C11.03 6.22621 12.3147 6.39759 13.4869 6.90664L15.4727 4.92087C16.4671 3.92651 18.0847 3.92651 19.0791 4.92087C20.0738 5.91557 20.0738 7.53319 19.0794 8.52756L15.092 12.5149C14.1809 13.4261 12.7348 13.489 11.7361 12.7066C11.6544 12.6431 11.5763 12.5737 11.5013 12.4988C11.0659 12.0634 10.3578 12.0637 9.92241 12.4991L8.67293 13.7486C8.87843 14.0595 9.11607 14.3505 9.3827 14.6172C9.7619 14.9964 10.1831 15.3088 10.6312 15.5549C12.3816 16.5158 14.5456 16.4596 16.2469 15.3869C16.5887 15.1716 16.9122 14.915 17.2095 14.6175L21.1817 10.6455C23.3397 8.48735 23.3397 4.97641 21.1817 2.81827Z" fill="#B0ABDD"/>
</svg>
