<svg width="24" height="24" viewBox="0 0 24 24" fill="none" xmlns="http://www.w3.org/2000/svg">
<path d="M20.2913 9.97764H18.5458V7.65413C18.5458 4.0953 15.6096 1.19995 12.0004 1.19995C8.39123 1.19995 5.45494 4.0953 5.45494 7.65413V9.97764H3.70948C2.98651 9.97764 2.40039 10.5556 2.40039 11.2685V21.5091C2.40039 22.222 2.98651 22.7999 3.70948 22.7999H20.2913C21.0143 22.7999 21.6004 22.222 21.6004 21.5091V11.2685C21.6004 10.5556 21.0143 9.97764 20.2913 9.97764ZM13.3095 16.7871V17.2924C13.3095 18.0053 12.7234 18.5832 12.0004 18.5832C11.2774 18.5832 10.6913 18.0053 10.6913 17.2924V16.7871C10.1832 16.6097 9.81857 16.133 9.81857 15.5713C9.81857 14.8584 10.4047 14.2804 11.1277 14.2804H12.8731C13.5961 14.2804 14.1822 14.8584 14.1822 15.5713C14.1822 16.133 13.8176 16.6097 13.3095 16.7871ZM15.9277 9.97764H8.07312V7.65413C8.07312 5.51883 9.83489 3.78162 12.0004 3.78162C14.1659 3.78162 15.9277 5.51883 15.9277 7.65413V9.97764Z" fill="#B0ABDD"/>
</svg>
