<svg width="24" height="24" viewBox="0 0 24 24" fill="none" xmlns="http://www.w3.org/2000/svg">
<path fill-rule="evenodd" clip-rule="evenodd" d="M2.46348 4.11354C1.26485 4.71951 0.590627 5.73238 0.5997 6.91336C0.605921 7.74038 1.4432 9.78386 2.06169 10.4817C2.43549 10.9034 2.50884 10.8499 3.09053 9.7325C3.98924 8.0067 4.98671 6.74207 6.10006 5.91822C7.19992 5.10443 7.13849 4.97365 5.2449 4.09633C3.8109 3.43185 3.81194 3.43185 2.46348 4.11354ZM18.7543 4.09633C16.8607 4.97365 16.7993 5.10443 17.8992 5.91822C19.0125 6.74207 20.01 8.0067 20.9087 9.7325C21.4904 10.8499 21.5637 10.9034 21.9375 10.4817C22.556 9.78386 23.3933 7.74038 23.3995 6.91336C23.4086 5.72047 22.7287 4.70733 21.516 4.10771C20.1518 3.43344 20.185 3.43344 18.7543 4.09633ZM7.03273 12.1453C5.75374 13.0329 4.91102 14.8395 5.15546 16.17C5.52407 18.1762 7.48558 19.2801 8.62096 18.1206C10.1732 16.5354 11.0029 12.8958 10.0371 11.9091C9.43775 11.2973 8.10356 11.4022 7.03273 12.1453ZM13.9839 11.9774C12.7259 13.3969 14.6504 18.641 16.4294 18.641C18.5278 18.641 19.7331 15.7711 18.5011 13.708C17.3374 11.7588 14.9786 10.855 13.9839 11.9774ZM9.55259 14.26C10.0687 15.0645 9.84006 15.9243 9.00667 16.3122C7.67222 16.933 6.44171 15.0891 7.48169 14.027C8.09422 13.4017 9.07252 13.5118 9.55259 14.26ZM16.6137 13.9288C17.312 14.642 16.7202 16.5232 15.7974 16.5232C15.103 16.5232 14.3326 15.6869 14.3326 14.9329C14.3326 13.8022 15.8399 13.1386 16.6137 13.9288ZM8.29149 14.6859C8.19765 15.0521 8.03253 15.181 7.82542 15.0505C7.59886 14.9072 7.55583 14.9835 7.67844 15.3102C7.77409 15.5643 7.85212 15.8222 7.85212 15.8831C7.85212 15.9439 8.14736 15.9937 8.5082 15.9937C9.24878 15.9937 9.62102 15.3398 9.23582 14.7161C8.84052 14.0762 8.45065 14.0638 8.29149 14.6859ZM14.9881 14.4993C14.2714 15.0346 14.5835 15.8613 15.5027 15.8613C16.101 15.8613 16.2951 15.73 16.3573 15.2837C16.4649 14.512 15.6196 14.0278 14.9881 14.4993ZM16.0649 15.2493C15.9822 15.4603 15.9208 15.3975 15.9084 15.0891C15.8972 14.8101 15.9584 14.6539 16.0445 14.7418C16.1305 14.8297 16.1398 15.0581 16.0649 15.2493ZM10.7974 18.8465C10.8995 19.0156 10.7639 19.0678 10.4446 18.9826C9.63217 18.7655 9.83306 19.3839 10.7683 19.979C11.3433 20.3446 11.8573 20.4674 12.3877 20.3658C13.2325 20.2035 14.2875 19.301 13.9886 18.9958C13.6778 18.6781 10.6086 18.5346 10.7974 18.8465Z" fill="#B0ABDD"/>
</svg>
