<svg width="24" height="24" viewBox="0 0 24 24" fill="none" xmlns="http://www.w3.org/2000/svg">
<path fill-rule="evenodd" clip-rule="evenodd" d="M11.3737 1.22904C10.2034 1.31116 8.98937 1.55743 8.21595 1.86945C8.16125 1.89154 7.98223 1.96172 7.81813 2.02539C7.65403 2.08911 7.50858 2.15283 7.4949 2.167C7.48122 2.18123 7.38053 2.23724 7.27112 2.29146C6.7731 2.53847 5.83757 3.11542 5.40688 3.44122C4.87454 3.84393 3.90863 4.8005 3.50409 5.32556C3.14819 5.78756 2.42679 6.94807 2.35981 7.16643C2.33052 7.26194 2.2879 7.34008 2.26513 7.34008C2.24235 7.34008 2.22375 7.37176 2.22375 7.41056C2.22375 7.44931 2.20699 7.48846 2.18646 7.49761C2.14185 7.51746 1.92539 8.03715 1.92539 8.12445C1.92539 8.15812 1.90549 8.18568 1.88118 8.18568C1.85691 8.18568 1.8218 8.26675 1.8032 8.36589C1.78461 8.46502 1.75059 8.58251 1.72757 8.62703C1.70454 8.67155 1.62627 8.97656 1.55367 9.30485C1.48102 9.63314 1.40076 9.98009 1.3752 10.0758C1.34969 10.1716 1.29404 10.6508 1.25157 11.1408C1.18131 11.9512 1.18151 12.1076 1.25376 12.8734C1.33959 13.7832 1.34964 13.8455 1.5484 14.7018C1.70425 15.3731 1.79923 15.667 2.02245 16.1691C2.24394 16.6673 2.65842 17.4522 2.82755 17.6939C2.87837 17.7665 2.91994 17.8426 2.91994 17.8629C2.91994 17.8832 2.99478 17.9916 3.08628 18.1039C3.17773 18.2162 3.28201 18.3639 3.31801 18.4323C3.42632 18.6382 3.85602 19.1203 4.4705 19.7255C5.24253 20.4859 5.51573 20.6988 6.45469 21.2719C7.00802 21.6097 7.90769 22.0628 8.02674 22.0637C8.04877 22.0639 8.12271 22.0929 8.19109 22.1283C8.35962 22.2153 8.73864 22.3236 9.50888 22.5049C10.4054 22.716 10.8205 22.7688 11.7964 22.7956C12.7014 22.8205 13.5534 22.7387 14.233 22.5617C14.4245 22.5119 14.7154 22.4445 14.8795 22.412C15.7032 22.2488 16.6715 21.8165 17.8528 21.0843C19.1292 20.2931 20.464 18.9464 21.1534 17.7541C21.2583 17.5728 21.38 17.3651 21.424 17.2926C21.6518 16.9172 22.027 16.143 22.1401 15.8152C22.343 15.2273 22.6435 13.9381 22.7358 13.2593C22.8589 12.3549 22.7944 10.6114 22.6144 9.97636C22.5873 9.8806 22.5192 9.60081 22.4631 9.35459C22.3299 8.76989 22.2023 8.3163 22.1622 8.28516C22.1446 8.27148 22.1139 8.19393 22.094 8.11281C22.056 7.95766 21.9018 7.58331 21.8065 7.41469C21.7756 7.35997 21.6951 7.20528 21.6275 7.07088C21.1115 6.04358 20.4478 5.16157 19.4907 4.23126C18.7817 3.54205 18.6709 3.45082 18.0621 3.05414C16.8644 2.2739 15.818 1.79972 14.78 1.56693C14.5339 1.51172 14.2094 1.43452 14.059 1.39547C13.9085 1.35637 13.4722 1.30131 13.0893 1.27311C12.7064 1.2449 12.3036 1.21362 12.1942 1.20357C12.0848 1.19357 11.7155 1.20501 11.3737 1.22904ZM7.43682 8.13589C7.71942 8.16135 8.02152 8.20537 8.10814 8.23368C8.19482 8.26193 8.35733 8.30744 8.46932 8.3347C8.91349 8.44294 9.53493 8.99536 9.74384 9.46775C9.86801 9.74859 9.91277 10.3596 9.83613 10.7283C9.76791 11.0567 9.47223 11.5383 9.20211 11.761C9.00135 11.9265 8.645 12.1139 8.28875 12.2412C8.09173 12.3117 6.77196 12.4344 6.38846 12.4179L6.2517 12.4121V13.6752C6.2517 14.6832 6.26662 14.9722 6.32545 15.1061C6.4714 15.4379 6.55778 15.4922 7.01726 15.541C7.34348 15.5758 7.46367 15.6768 7.36491 15.8334C7.31439 15.9135 7.15397 15.9215 5.34228 15.9334C3.40877 15.9462 3.37401 15.9447 3.34283 15.8464C3.32537 15.7913 3.32527 15.7016 3.34263 15.6468C3.36844 15.5655 3.41787 15.5474 3.6134 15.5474C3.89127 15.5474 4.14862 15.4521 4.28845 15.2976C4.38443 15.1915 4.38691 15.1081 4.38691 12.023C4.38691 9.03605 4.38179 8.84957 4.29581 8.72293C4.19506 8.5744 3.97959 8.48731 3.59679 8.44045C3.32075 8.40668 3.24949 8.31083 3.3934 8.16683C3.46476 8.0955 3.67317 8.08639 5.19852 8.08789C6.14703 8.08878 7.15426 8.11037 7.43682 8.13589ZM13.6824 8.35977C13.9613 8.95612 14.1728 9.42682 14.3419 9.82713C14.546 10.3103 14.6569 10.5698 14.7511 10.7841C14.808 10.9138 14.8546 11.0452 14.8546 11.0763C14.8546 11.1376 15.1024 11.7073 15.4038 12.3391C15.5082 12.5579 15.6088 12.7986 15.6273 12.8738C15.6459 12.949 15.6754 13.0105 15.6929 13.0104C15.7105 13.0103 15.768 12.904 15.8206 12.7741C15.8733 12.6443 15.9908 12.3757 16.0817 12.1772C16.1726 11.9787 16.247 11.7873 16.247 11.7519C16.247 11.7164 16.2666 11.6662 16.2906 11.6402C16.3146 11.6142 16.3798 11.4586 16.4355 11.2945C16.558 10.9335 16.7036 10.5615 16.837 10.2686C16.8915 10.1489 16.9973 9.89428 17.0722 9.70278C17.147 9.51128 17.2605 9.25611 17.3243 9.13578C17.3882 9.01546 17.4405 8.89578 17.4405 8.86987C17.4405 8.84395 17.5191 8.65702 17.6152 8.45448L17.7899 8.08619L19.3184 8.08694C20.159 8.08739 20.8766 8.10659 20.913 8.12967C20.9505 8.15349 20.972 8.23373 20.9627 8.31545C20.9474 8.44901 20.933 8.45811 20.7597 8.44299C20.5149 8.42165 20.2336 8.51481 20.0636 8.67354L19.9269 8.80117V11.9985V15.1958L20.1003 15.3693C20.2595 15.5287 20.3011 15.544 20.61 15.5575L20.9463 15.5722V15.7463V15.9204H18.9074H16.8686L16.8532 15.7339L16.8377 15.5474H17.1407C17.5227 15.5474 17.7536 15.4536 17.8303 15.2675C17.874 15.1616 17.8859 14.3641 17.8762 12.1898C17.8632 9.26396 17.8628 9.25586 17.7705 9.50382C17.5497 10.0966 17.4431 10.3663 17.3284 10.623C17.2612 10.7735 17.1638 11.0028 17.112 11.1326C17.0602 11.2625 17.001 11.3688 16.9805 11.3689C16.9599 11.369 16.9432 11.4061 16.9432 11.4514C16.9432 11.4966 16.8894 11.6477 16.8236 11.7871C16.618 12.2229 16.4652 12.5784 16.3726 12.8365C16.3235 12.9733 16.2456 13.1747 16.1994 13.2841C16.1532 13.3936 16.0748 13.5838 16.0251 13.7069C15.9755 13.83 15.8833 14.0427 15.8204 14.1795C15.7575 14.3163 15.691 14.4817 15.6726 14.5472C15.6541 14.6126 15.555 14.8476 15.4523 15.0694C15.3496 15.2912 15.2191 15.579 15.1623 15.709C15.1032 15.8445 15.0263 15.9453 14.9822 15.9453C14.9161 15.9453 14.7093 15.5723 14.5549 15.1743C14.5336 15.1196 14.4492 14.9293 14.3674 14.7515C14.2855 14.5737 14.1578 14.2827 14.0835 14.1049C14.0092 13.927 13.9127 13.7144 13.8691 13.6323C13.8254 13.5503 13.7878 13.4719 13.7854 13.4582C13.7702 13.3681 13.6354 13.0184 13.5842 12.936C13.5502 12.8812 13.5065 12.7805 13.4872 12.7121C13.4479 12.5734 13.2776 12.1677 13.0383 11.6427C12.7428 10.9945 12.7163 10.9313 12.7163 10.8766C12.7163 10.8465 12.6939 10.822 12.6666 10.822C12.6392 10.822 12.6169 10.7891 12.6169 10.7489C12.6169 10.7087 12.575 10.5912 12.5239 10.4877C12.4347 10.3072 12.2112 9.77306 12.0498 9.35459C11.9795 9.17219 11.974 9.39996 11.9842 12.0904L11.9953 15.0251L12.1146 15.1924C12.2546 15.3888 12.4949 15.5053 12.8406 15.5442C13.0624 15.5692 13.0909 15.5862 13.1042 15.7009C13.1318 15.9383 13.073 15.948 11.6908 15.9337L10.404 15.9204L10.3886 15.7339C10.3735 15.5518 10.3771 15.5474 10.5427 15.5474C10.7686 15.5474 11.024 15.458 11.1667 15.329C11.4244 15.0962 11.4227 15.121 11.4102 11.8748C11.3994 9.0851 11.3919 8.84743 11.3108 8.72805C11.1955 8.55829 11.0142 8.47945 10.665 8.44707C10.3943 8.42195 10.3791 8.41349 10.3791 8.28655C10.3791 8.21284 10.394 8.13758 10.4123 8.11937C10.4305 8.10112 11.145 8.08619 11.9999 8.08619H13.5545L13.6824 8.35977ZM6.2517 10.2997V11.9163H6.52227C6.67111 11.9163 6.80488 11.8968 6.8196 11.8729C6.83432 11.8491 6.91333 11.8162 6.99514 11.7999C7.07699 11.7835 7.23622 11.7118 7.34905 11.6406C7.80605 11.352 8.01083 10.4208 7.7966 9.60539C7.69819 9.23089 7.51216 8.93179 7.37764 8.93179C7.35069 8.93179 7.29335 8.90076 7.25019 8.8628C7.1564 8.78033 6.72233 8.68309 6.44818 8.68309H6.2517V10.2997Z" fill="#B0ABDD"/>
</svg>
