<svg width="24" height="24" viewBox="0 0 24 24" fill="none" xmlns="http://www.w3.org/2000/svg">
<path d="M21.5576 13.1786C21.6219 12.6643 21.6861 12.2144 21.6861 11.7C21.6861 6.55723 17.5075 2.31433 12.3004 2.31433C11.7861 2.31433 11.3361 2.37862 10.8218 2.44291C9.98615 1.99291 9.0861 1.80005 8.18614 1.80005C4.97185 1.80005 2.40039 4.3715 2.40039 7.5858C2.40039 8.48575 2.5932 9.38581 3.04323 10.2215C2.97893 10.7358 2.91472 11.1857 2.91472 11.7C2.91472 16.8429 7.09327 21.0857 12.3004 21.0857C12.8147 21.0857 13.2647 21.0215 13.779 20.9572C14.6146 21.3429 15.5147 21.6 16.4146 21.6C19.6289 21.6 22.2004 19.0286 22.2004 15.8143C22.2004 14.9143 21.9433 14.0143 21.5576 13.1786ZM16.2218 15.1072C16.0289 15.4929 15.7718 15.8143 15.3861 16.0715C15.0004 16.3286 14.6146 16.5214 14.1004 16.65C13.5861 16.7787 13.0075 16.8429 12.3647 16.8429C11.0147 16.8429 9.92185 16.5214 9.1504 15.9429C8.70037 15.5572 8.31465 15.1072 8.12184 14.5286C7.86472 14.0143 8.31465 13.3715 8.95749 13.3715H9.1504C9.53612 13.3715 9.92185 13.6287 10.0504 13.9501C10.179 14.2715 10.3718 14.5286 10.629 14.7214C11.0147 15.0429 11.5932 15.1715 12.3004 15.1715C12.9432 15.1715 13.4576 15.0429 13.8433 14.85C14.229 14.6572 14.4218 14.2715 14.4218 13.8858C14.4218 13.6929 14.3575 13.5644 14.2932 13.4358C14.229 13.3071 14.0361 13.1786 13.9075 13.1143C13.7147 12.9857 13.5219 12.9215 13.2003 12.8572C12.9432 12.7929 12.6218 12.6643 12.2361 12.6L11.8504 12.4715C11.4004 12.3429 10.8861 12.2144 10.5004 12.0858C10.0504 11.9572 9.66463 11.7644 9.34321 11.5714C9.02179 11.3786 8.76468 11.1215 8.57186 10.7358C8.37895 10.4144 8.31465 9.96434 8.31465 9.45001C8.31465 8.93578 8.44326 8.48575 8.63607 8.10003C8.82898 7.71431 9.1504 7.39289 9.47182 7.20007C9.85754 6.94286 10.2433 6.75005 10.7575 6.68575C11.2075 6.55723 11.7219 6.49293 12.3004 6.49293C12.9432 6.49293 13.4576 6.55723 13.9718 6.68575C14.4861 6.81435 14.8718 7.00717 15.2576 7.32859C15.6433 7.5858 15.9004 7.90722 16.0932 8.35715C16.4146 8.93578 15.9647 9.70723 15.2576 9.70723H15.0647C14.6789 9.70723 14.3575 9.51432 14.1647 9.1929C14.0361 9.00008 13.9075 8.80717 13.7147 8.61436C13.3933 8.35715 12.8789 8.22864 12.3004 8.22864C11.7219 8.22864 11.2718 8.35715 10.9504 8.55006C10.629 8.74287 10.5004 9.06429 10.5004 9.38581C10.5004 9.57862 10.5647 9.70722 10.629 9.83574C10.6933 9.96434 10.8218 10.0929 11.0147 10.1572C11.2075 10.2215 11.4004 10.3501 11.6576 10.4144C11.9147 10.4786 12.2361 10.5429 12.6218 10.6715C13.0075 10.7358 13.329 10.8643 13.7147 10.9286C14.0361 10.9929 14.3575 11.1215 14.6789 11.1857C15.0004 11.3143 15.2576 11.4429 15.5147 11.5714C15.7718 11.7 15.9647 11.8929 16.1575 12.0858C16.3504 12.2786 16.4789 12.5358 16.5432 12.7929C16.6719 13.05 16.6719 13.4358 16.6719 13.8215C16.5432 14.2715 16.4146 14.7214 16.2218 15.1072Z" fill="#B0ABDD"/>
</svg>
