<svg width="24" height="24" viewBox="0 0 24 24" fill="none" xmlns="http://www.w3.org/2000/svg">
<path d="M11.9996 11.9999C14.6509 11.9999 16.7996 9.85115 16.7996 7.1999C16.7996 4.54865 14.6509 2.3999 11.9996 2.3999C9.34836 2.3999 7.19961 4.54865 7.19961 7.1999C7.19961 9.85115 9.34836 11.9999 11.9996 11.9999ZM15.3596 13.1999H14.7334C13.9009 13.5824 12.9746 13.7999 11.9996 13.7999C11.0246 13.7999 10.1021 13.5824 9.26586 13.1999H8.63961C5.85711 13.1999 3.59961 15.4574 3.59961 18.2399V19.7999C3.59961 20.7937 4.40586 21.5999 5.39961 21.5999H18.5996C19.5934 21.5999 20.3996 20.7937 20.3996 19.7999V18.2399C20.3996 15.4574 18.1421 13.1999 15.3596 13.1999Z" fill="#B0ABDD"/>
</svg>
