<svg width="24" height="24" viewBox="0 0 24 24" fill="none" xmlns="http://www.w3.org/2000/svg">
<path d="M22.0042 16.7671C22.0042 16.6849 21.9206 16.6849 21.9206 16.6027C21.5864 15.9452 20.8344 15.1233 19.8318 14.2191C19.3304 13.8082 19.0798 13.4794 18.9127 13.3151C18.662 12.9863 18.6621 12.7397 18.7456 12.4109C18.8291 12.1643 19.1633 11.7534 19.7482 11.0137C20.0824 10.6027 20.2496 10.3561 20.5001 10.1096C21.7535 8.46575 22.3383 7.39726 22.1713 6.90415L22.0877 6.82189C22.0042 6.73972 21.9206 6.65755 21.7535 6.65755C21.5863 6.57538 21.3358 6.57538 21.0851 6.65755H17.9101C17.8264 6.65755 17.8265 6.65755 17.6594 6.65755C17.5758 6.65755 17.4922 6.65755 17.4922 6.65755H17.4087H17.3252L17.2416 6.73972C17.158 6.82189 17.158 6.82189 17.158 6.90415C16.8238 7.80821 16.406 8.54792 15.9883 9.36991C15.7376 9.78085 15.487 10.1918 15.2363 10.5206C14.9856 10.8493 14.8185 11.0958 14.6514 11.2603C14.4843 11.4246 14.3171 11.5068 14.2336 11.6712C14.1501 11.7534 13.983 11.8356 13.983 11.7534C13.8994 11.7534 13.8159 11.7534 13.8159 11.6712C13.7323 11.5891 13.6488 11.5068 13.5652 11.4246C13.4816 11.3425 13.4816 11.1781 13.3981 11.0137C13.3981 10.8493 13.3981 10.6849 13.3981 10.6027C13.3981 10.5206 13.3981 10.274 13.3981 10.1096C13.3981 9.86302 13.3981 9.69858 13.3981 9.61641C13.3981 9.36991 13.3981 9.04113 13.3981 8.71236C13.3981 8.38359 13.3981 8.13698 13.3981 7.97264C13.3981 7.80821 13.3981 7.5617 13.3981 7.39726C13.3981 7.15066 13.3981 6.98632 13.3981 6.90415C13.3981 6.82189 13.3146 6.65755 13.3146 6.57538C13.231 6.49321 13.1474 6.41094 13.0639 6.32877C12.9803 6.24661 12.8132 6.24661 12.7297 6.16444C12.3119 6.08217 11.8106 6 11.2257 6C9.8889 6 8.96976 6.08217 8.63553 6.24661C8.46847 6.32877 8.30131 6.41094 8.21778 6.57538C8.05062 6.73972 8.05062 6.82189 8.13425 6.82189C8.552 6.90415 8.88623 7.06849 9.05329 7.3151L9.13682 7.47943C9.22045 7.5617 9.22045 7.72604 9.30398 7.97264C9.38751 8.21915 9.38751 8.46575 9.38751 8.79453C9.38751 9.28764 9.38751 9.78085 9.38751 10.1096C9.38751 10.5206 9.30398 10.7671 9.30398 11.0137C9.30398 11.2603 9.22045 11.4246 9.13682 11.5069C9.05329 11.6712 9.05329 11.7534 8.96976 11.7534C8.96976 11.7534 8.96976 11.8356 8.88623 11.8356C8.8026 11.8356 8.71907 11.9178 8.552 11.9178C8.46847 11.9178 8.30131 11.8356 8.21778 11.7534C8.05062 11.6712 7.88355 11.5069 7.80002 11.3425C7.63286 11.1781 7.4658 10.9315 7.29864 10.6027C7.13157 10.274 6.88088 9.94519 6.71382 9.45208L6.54666 9.1233C6.46313 8.95887 6.29606 8.63009 6.1289 8.21915C5.96184 7.80821 5.79468 7.47943 5.62762 7.06849C5.54398 6.90415 5.46045 6.82189 5.37692 6.73972H5.29339C5.29339 6.73972 5.20986 6.65755 5.12623 6.65755C5.0427 6.65755 4.95917 6.57538 4.87564 6.57538H1.86766C1.53344 6.57538 1.36633 6.65755 1.28278 6.73972L1.19922 6.82189C1.19922 6.82189 1.19922 6.90415 1.19922 6.98632C1.19922 7.06849 1.19923 7.15066 1.28278 7.3151C1.70056 8.30142 2.20184 9.28764 2.70323 10.274C3.20451 11.1781 3.7058 12 4.04002 12.5754C4.45788 13.1507 4.792 13.726 5.20986 14.2191C5.62762 14.7123 5.87821 15.041 5.96184 15.2055C6.1289 15.3698 6.21243 15.452 6.29596 15.5342L6.54666 15.7808C6.71382 15.9452 6.96441 16.1918 7.29864 16.4383C7.63286 16.6849 8.05062 16.9315 8.46837 17.178C8.88623 17.4246 9.38751 17.5891 9.8888 17.7534C10.4737 17.9177 10.975 18 11.4764 17.9177H12.7297C12.9803 17.9177 13.1474 17.8356 13.3146 17.6712L13.3981 17.589C13.3981 17.5068 13.4816 17.5068 13.4816 17.4246C13.4816 17.3425 13.4816 17.2603 13.4816 17.0958C13.4816 16.7671 13.4816 16.5206 13.5652 16.274C13.6488 16.0274 13.6488 15.863 13.7323 15.6986C13.8159 15.5342 13.8994 15.4521 13.983 15.3698C14.0666 15.2876 14.1501 15.2055 14.1501 15.2055H14.2336C14.4008 15.1233 14.6514 15.2055 14.8185 15.3698C15.0692 15.5342 15.3198 15.7808 15.487 16.0274C15.654 16.274 15.9047 16.5206 16.239 16.8492C16.5732 17.178 16.8238 17.4246 16.9909 17.5068L17.2416 17.6712C17.4087 17.7534 17.5759 17.8356 17.8265 17.9177C18.0771 18 18.2442 18 18.4114 18L21.2522 17.9177C21.5028 17.9177 21.7535 17.8356 21.9206 17.7534C22.0877 17.6712 22.1713 17.589 22.1713 17.4246C22.1713 17.3425 22.1713 17.178 22.1713 17.0958C22.0042 16.9315 22.0042 16.8492 22.0042 16.7671Z" fill="#B0ABDD"/>
</svg>
