<svg width="24" height="24" viewBox="0 0 24 24" fill="none" xmlns="http://www.w3.org/2000/svg">
<path d="M2.13745 12.2638L6.55162 13.9148L8.27242 19.4683C8.34721 19.8436 8.7961 19.9186 9.09533 19.6934L11.5643 17.6672C11.7887 17.4421 12.1628 17.4421 12.462 17.6672L16.8762 20.8942C17.1755 21.1193 17.6244 20.9693 17.6992 20.594L20.9912 4.83425C21.0659 4.45899 20.6918 4.08372 20.3178 4.23385L2.13745 11.2882C1.68856 11.4383 1.68856 12.1137 2.13745 12.2638ZM8.04797 13.0893L16.7266 7.76106C16.8762 7.68595 17.0259 7.91109 16.8762 7.9862L9.76868 14.6654C9.54423 14.8905 9.31978 15.1907 9.31978 15.5659L9.09533 17.367C9.09533 17.5922 8.72132 17.6672 8.64644 17.367L7.74865 14.065C7.5242 13.6897 7.67386 13.2394 8.04797 13.0893Z" fill="#B0ABDD"/>
</svg>
