<svg width="24" height="24" viewBox="0 0 24 24" fill="none" xmlns="http://www.w3.org/2000/svg">
<path fill-rule="evenodd" clip-rule="evenodd" d="M9.98876 1.31799C5.75336 2.23359 2.4921 5.43016 1.49716 9.64063C1.09991 11.321 1.09991 12.7311 1.49716 14.4114C2.35643 18.0482 4.82509 20.8724 8.34114 22.2411C9.5673 22.7186 10.1011 22.8 12.0058 22.8C13.9106 22.8 14.4443 22.7186 15.6705 22.2411C19.1865 20.8724 21.6552 18.0482 22.5145 14.4114C23.1026 11.9226 22.7797 9.45759 21.5456 7.01859C19.8275 3.62289 16.3888 1.40527 12.55 1.218C11.6083 1.17203 10.4559 1.21694 9.98876 1.31799ZM12.9574 6.22798C12.8284 7.16477 12.8543 7.25946 13.2388 7.25946C13.5532 7.25946 13.7103 7.05503 13.8494 6.46503C14.0025 5.8153 14.1416 5.65832 14.6136 5.60366C15.2592 5.52867 15.3354 5.80513 14.9951 6.98936C14.8078 7.64058 14.8373 7.69057 15.6851 8.15431C17.3069 9.04152 17.6309 10.7494 16.3837 11.8385C15.886 12.2733 15.8826 12.2966 16.268 12.6258C17.1485 13.378 16.9714 15.1842 15.9206 16.1698C15.4535 16.6079 15.1599 16.6867 13.9963 16.6867H12.6235L12.3956 17.587C12.2094 18.3226 12.0774 18.4874 11.6746 18.4874C11.0054 18.4874 10.8833 18.2118 11.1406 17.2815C11.3041 16.6913 11.2935 16.4522 11.0984 16.3286C10.6554 16.0477 10.5775 16.1272 10.3293 17.1104C10.0947 18.0404 9.86604 18.2067 9.18215 17.9448C8.93904 17.8518 8.91123 17.6559 9.05348 17.0445C9.31549 15.9191 9.29022 15.7336 8.87407 15.7321C8.66982 15.7315 8.15026 15.6334 7.71946 15.5141C6.96445 15.3048 6.94449 15.2747 7.15638 14.6678C7.34153 14.1384 7.48931 14.0386 8.09039 14.0386C8.89169 14.0386 8.82587 14.1831 9.66199 10.5878C10.2202 8.18714 10.2147 8.11511 9.44755 7.82615C8.89764 7.61918 8.82035 7.50245 8.93416 7.05058C9.11718 6.32288 9.10614 6.3267 10.2038 6.60252C11.2323 6.86098 11.5812 6.78619 11.5812 6.30742C11.5812 6.14705 11.6697 5.78331 11.7782 5.49901C11.9364 5.08358 12.0856 5.00308 12.5375 5.0893C13.0787 5.19247 13.0944 5.23484 12.9574 6.22798ZM12.1487 9.35315C12.0814 9.68914 11.9655 10.2065 11.8909 10.5026C11.7642 11.0064 11.8168 11.0503 12.709 11.1837C13.8713 11.3577 14.4893 11.1852 14.6632 10.6382C14.8802 9.95628 14.5552 9.35696 13.797 9.04089C12.6869 8.578 12.2891 8.65342 12.1487 9.35315ZM11.1882 13.4405C11.0485 14.0437 11.0096 14.6123 11.1013 14.7038C11.1933 14.7955 11.8047 14.9334 12.4602 15.0103C13.5006 15.1323 13.7095 15.0927 14.1029 14.7002C14.3509 14.4527 14.5537 14.168 14.5537 14.0672C14.5537 13.6153 13.6148 12.7626 12.8986 12.5641C11.5682 12.1955 11.4638 12.2491 11.1882 13.4405Z" fill="#B0ABDD"/>
</svg>
