<svg width="304" height="24" viewBox="0 0 304 24" fill="none" xmlns="http://www.w3.org/2000/svg">
<path d="M10.5452 3.06628C10.837 2.12935 12.163 2.12935 12.4548 3.06628L13.8631 7.5891C13.9933 8.00707 14.3801 8.2918 14.8179 8.2918L19.4629 8.2918C20.4213 8.2918 20.8307 9.50968 20.067 10.0887L16.2369 12.9924C15.9013 13.2469 15.7611 13.6844 15.8863 14.0866L17.3318 18.7288C17.621 19.6577 16.5481 20.4107 15.7729 19.823L12.1041 17.0416C11.7469 16.7708 11.2531 16.7708 10.8959 17.0416L7.22712 19.823C6.45188 20.4107 5.37897 19.6577 5.66819 18.7288L7.11371 14.0866C7.23894 13.6844 7.09873 13.2469 6.76306 12.9924L2.93299 10.0887C2.16927 9.50968 2.57874 8.2918 3.53713 8.2918L8.18211 8.2918C8.61987 8.2918 9.00675 8.00707 9.1369 7.5891L10.5452 3.06628Z" fill="#FFB93E"/>
<path d="M38.5452 3.06628C38.837 2.12935 40.163 2.12935 40.4548 3.06628L41.8631 7.5891C41.9933 8.00707 42.3801 8.2918 42.8179 8.2918L47.4629 8.2918C48.4213 8.2918 48.8307 9.50968 48.067 10.0887L44.2369 12.9924C43.9013 13.2469 43.7611 13.6844 43.8863 14.0866L45.3318 18.7288C45.621 19.6577 44.5481 20.4107 43.7729 19.823L40.1041 17.0416C39.7469 16.7708 39.2531 16.7708 38.8959 17.0416L35.2271 19.823C34.4519 20.4107 33.379 19.6577 33.6682 18.7288L35.1137 14.0866C35.2389 13.6844 35.0987 13.2469 34.7631 12.9924L30.933 10.0887C30.1693 9.50968 30.5787 8.2918 31.5371 8.2918L36.1821 8.2918C36.6199 8.2918 37.0067 8.00707 37.1369 7.5891L38.5452 3.06628Z" fill="#FFB93E"/>
<path d="M66.5452 3.06628C66.837 2.12935 68.163 2.12935 68.4548 3.06628L69.8631 7.5891C69.9933 8.00707 70.3801 8.2918 70.8179 8.2918L75.4629 8.2918C76.4213 8.2918 76.8307 9.50968 76.067 10.0887L72.2369 12.9924C71.9013 13.2469 71.7611 13.6844 71.8863 14.0866L73.3318 18.7288C73.621 19.6577 72.5481 20.4107 71.7729 19.823L68.1041 17.0416C67.7469 16.7708 67.2531 16.7708 66.8959 17.0416L63.2271 19.823C62.4519 20.4107 61.379 19.6577 61.6682 18.7288L63.1137 14.0866C63.2389 13.6844 63.0987 13.2469 62.7631 12.9924L58.933 10.0887C58.1693 9.50968 58.5787 8.2918 59.5371 8.2918L64.1821 8.2918C64.6199 8.2918 65.0067 8.00707 65.1369 7.5891L66.5452 3.06628Z" fill="#FFB93E"/>
<path d="M94.5452 3.06628C94.837 2.12935 96.163 2.12935 96.4548 3.06628L97.8631 7.5891C97.9933 8.00707 98.3801 8.2918 98.8179 8.2918L103.463 8.2918C104.421 8.2918 104.831 9.50968 104.067 10.0887L100.237 12.9924C99.9013 13.2469 99.7611 13.6844 99.8863 14.0866L101.332 18.7288C101.621 19.6577 100.548 20.4107 99.7729 19.823L96.1041 17.0416C95.7469 16.7708 95.2531 16.7708 94.8959 17.0416L91.2271 19.823C90.4519 20.4107 89.379 19.6577 89.6682 18.7288L91.1137 14.0866C91.2389 13.6844 91.0987 13.2469 90.7631 12.9924L86.933 10.0887C86.1693 9.50968 86.5787 8.2918 87.5371 8.2918L92.1821 8.2918C92.6199 8.2918 93.0067 8.00707 93.1369 7.5891L94.5452 3.06628Z" fill="#FFB93E"/>
<path d="M122.545 3.06628C122.837 2.12935 124.163 2.12935 124.455 3.06628L125.863 7.5891C125.993 8.00707 126.38 8.2918 126.818 8.2918L131.463 8.2918C132.421 8.2918 132.831 9.50968 132.067 10.0887L128.237 12.9924C127.901 13.2469 127.761 13.6844 127.886 14.0866L129.332 18.7288C129.621 19.6577 128.548 20.4107 127.773 19.823L124.104 17.0416C123.747 16.7708 123.253 16.7708 122.896 17.0416L119.227 19.823C118.452 20.4107 117.379 19.6577 117.668 18.7288L119.114 14.0866C119.239 13.6844 119.099 13.2469 118.763 12.9924L114.933 10.0887C114.169 9.50968 114.579 8.2918 115.537 8.2918L120.182 8.2918C120.62 8.2918 121.007 8.00707 121.137 7.5891L122.545 3.06628Z" fill="#FFB93E"/>
<path d="M151.049 2.92705C151.348 2.00574 152.652 2.00574 152.951 2.92705L154.47 7.60081C154.604 8.01284 154.987 8.2918 155.421 8.2918L160.335 8.2918C161.304 8.2918 161.706 9.53141 160.923 10.1008L156.947 12.9894C156.597 13.244 156.45 13.6954 156.584 14.1074L158.102 18.7812C158.402 19.7025 157.347 20.4686 156.564 19.8992L152.588 17.0106C152.237 16.756 151.763 16.756 151.412 17.0106L147.436 19.8992C146.653 20.4686 145.598 19.7025 145.898 18.7812L147.416 14.1074C147.55 13.6954 147.403 13.244 147.053 12.9894L143.077 10.1008C142.294 9.53141 142.696 8.2918 143.665 8.2918L148.579 8.2918C149.013 8.2918 149.396 8.01284 149.53 7.60081L151.049 2.92705Z" fill="#FFB93E"/>
<path d="M179.545 3.06628C179.837 2.12935 181.163 2.12935 181.455 3.06628L182.863 7.5891C182.993 8.00707 183.38 8.2918 183.818 8.2918L188.463 8.2918C189.421 8.2918 189.831 9.50968 189.067 10.0887L185.237 12.9924C184.901 13.2469 184.761 13.6844 184.886 14.0866L186.332 18.7288C186.621 19.6577 185.548 20.4107 184.773 19.823L181.104 17.0416C180.747 16.7708 180.253 16.7708 179.896 17.0416L176.227 19.823C175.452 20.4107 174.379 19.6577 174.668 18.7288L176.114 14.0866C176.239 13.6844 176.099 13.2469 175.763 12.9924L171.933 10.0887C171.169 9.50968 171.579 8.2918 172.537 8.2918L177.182 8.2918C177.62 8.2918 178.007 8.00707 178.137 7.5891L179.545 3.06628Z" fill="#FFB93E"/>
<path d="M207.545 3.06628C207.837 2.12935 209.163 2.12935 209.455 3.06628L210.863 7.5891C210.993 8.00707 211.38 8.2918 211.818 8.2918L216.463 8.2918C217.421 8.2918 217.831 9.50968 217.067 10.0887L213.237 12.9924C212.901 13.2469 212.761 13.6844 212.886 14.0866L214.332 18.7288C214.621 19.6577 213.548 20.4107 212.773 19.823L209.104 17.0416C208.747 16.7708 208.253 16.7708 207.896 17.0416L204.227 19.823C203.452 20.4107 202.379 19.6577 202.668 18.7288L204.114 14.0866C204.239 13.6844 204.099 13.2469 203.763 12.9924L199.933 10.0887C199.169 9.50968 199.579 8.2918 200.537 8.2918L205.182 8.2918C205.62 8.2918 206.007 8.00707 206.137 7.5891L207.545 3.06628Z" fill="#B0ABDD" fill-opacity="0.4"/>
<path d="M235.545 3.06628C235.837 2.12935 237.163 2.12935 237.455 3.06628L238.863 7.5891C238.993 8.00707 239.38 8.2918 239.818 8.2918L244.463 8.2918C245.421 8.2918 245.831 9.50968 245.067 10.0887L241.237 12.9924C240.901 13.2469 240.761 13.6844 240.886 14.0866L242.332 18.7288C242.621 19.6577 241.548 20.4107 240.773 19.823L237.104 17.0416C236.747 16.7708 236.253 16.7708 235.896 17.0416L232.227 19.823C231.452 20.4107 230.379 19.6577 230.668 18.7288L232.114 14.0866C232.239 13.6844 232.099 13.2469 231.763 12.9924L227.933 10.0887C227.169 9.50968 227.579 8.2918 228.537 8.2918L233.182 8.2918C233.62 8.2918 234.007 8.00707 234.137 7.5891L235.545 3.06628Z" fill="#B0ABDD" fill-opacity="0.4"/>
<path d="M263.545 3.06628C263.837 2.12935 265.163 2.12935 265.455 3.06628L266.863 7.5891C266.993 8.00707 267.38 8.2918 267.818 8.2918L272.463 8.2918C273.421 8.2918 273.831 9.50968 273.067 10.0887L269.237 12.9924C268.901 13.2469 268.761 13.6844 268.886 14.0866L270.332 18.7288C270.621 19.6577 269.548 20.4107 268.773 19.823L265.104 17.0416C264.747 16.7708 264.253 16.7708 263.896 17.0416L260.227 19.823C259.452 20.4107 258.379 19.6577 258.668 18.7288L260.114 14.0866C260.239 13.6844 260.099 13.2469 259.763 12.9924L255.933 10.0887C255.169 9.50968 255.579 8.2918 256.537 8.2918L261.182 8.2918C261.62 8.2918 262.007 8.00707 262.137 7.5891L263.545 3.06628Z" fill="#B0ABDD" fill-opacity="0.4"/>
<path d="M291.545 3.06628C291.837 2.12935 293.163 2.12935 293.455 3.06628L294.863 7.5891C294.993 8.00707 295.38 8.2918 295.818 8.2918L300.463 8.2918C301.421 8.2918 301.831 9.50968 301.067 10.0887L297.237 12.9924C296.901 13.2469 296.761 13.6844 296.886 14.0866L298.332 18.7288C298.621 19.6577 297.548 20.4107 296.773 19.823L293.104 17.0416C292.747 16.7708 292.253 16.7708 291.896 17.0416L288.227 19.823C287.452 20.4107 286.379 19.6577 286.668 18.7288L288.114 14.0866C288.239 13.6844 288.099 13.2469 287.763 12.9924L283.933 10.0887C283.169 9.50968 283.579 8.2918 284.537 8.2918L289.182 8.2918C289.62 8.2918 290.007 8.00707 290.137 7.5891L291.545 3.06628Z" fill="#B0ABDD" fill-opacity="0.4"/>
</svg>
