<svg width="40" height="40" viewBox="0 0 40 40" fill="none" xmlns="http://www.w3.org/2000/svg">
<path d="M22.1666 0H16.8556C14.5827 0 12.7402 1.8425 12.7402 4.11523V8.08469L13.4814 8.68422H22.6127V1.15523L22.1666 0Z" fill="#365E7D"/>
<path d="M25.4695 2.39203H25.4093C25.0758 2.39203 24.8054 2.12164 24.8054 1.78813C24.8054 0.800547 24.0048 0 23.0172 0H22.166V8.6843H26.3581L27.2577 8.08477V4.18008C27.2577 3.19258 26.4571 2.39203 25.4695 2.39203V2.39203Z" fill="#2B4D66"/>
<path d="M29.901 26.9509C29.901 25.0052 28.6403 23.2839 26.7853 22.6966L21.302 20.9606L21.2984 19.473L20.0015 19.4275L14.0091 19.638L8.52584 21.3741C6.67084 21.9613 5.41016 23.6827 5.41016 25.6284V32.3434C5.41016 33.2485 6.14394 33.9823 7.04921 33.9823H29.901V26.9509Z" fill="#4A80AA"/>
<path d="M31.474 21.3738L25.9907 19.6378L20.8945 19.4587L20.899 21.291L26.3823 23.027C28.2373 23.6143 29.498 25.3357 29.498 27.2813V33.9821H32.9507C33.8559 33.9821 34.5897 33.2483 34.5897 32.3432V25.6282C34.5897 23.6824 33.329 21.9611 31.474 21.3738V21.3738Z" fill="#365E7D"/>
<path d="M25.9911 19.6379L20.0012 19.4274L14.0089 19.6379C13.7557 24.0487 18.4605 30.9937 20.2599 33.9818C22.0593 30.9937 26.2442 24.0487 25.9911 19.6379V19.6379Z" fill="#E4F6FF"/>
<path d="M22.8099 31.7869L20.9506 24.7632H19.0527L17.4775 31.8484L20.2603 33.9819L22.8099 31.7869Z" fill="#CBE2FF"/>
<path d="M23.3558 19.3093V15.0715H16.6416V19.3093C16.6416 21.1633 19.9987 23.1847 19.9987 23.1847C19.9987 23.1847 23.3558 21.1633 23.3558 19.3093V19.3093Z" fill="#FFDDCE"/>
<path d="M22.6127 11.1463V5.04632C20.7564 5.5639 18.7843 5.51945 16.9479 4.91281L16.9457 4.91202C16.0958 4.63124 15.2201 5.26413 15.2201 6.15921V6.84038C15.2201 7.52757 14.6631 8.0846 13.9758 8.0846H12.7402V10.1192C12.7402 10.6391 13.1617 11.0606 13.6816 11.0606C13.8456 11.0606 13.9791 11.1891 13.9894 11.3528C14.1595 14.0494 16.103 16.2645 18.6673 16.8435C20.9497 15.9455 22.5735 13.7387 22.6127 11.1463V11.1463Z" fill="#FFDDCE"/>
<path d="M26.0225 8.08469C25.3353 8.08469 24.7782 7.52766 24.7782 6.84047V6.15953C24.7782 5.26445 23.9024 4.63156 23.0525 4.91242C22.7603 5.00899 22.4645 5.08961 22.1664 5.15766V11.0606C22.1269 13.6729 20.4247 15.8805 18.0713 16.6749C18.6766 16.8794 19.3245 16.9914 19.999 16.9914C23.1964 16.9914 25.8103 14.5 26.0088 11.3528C26.0191 11.1891 26.1527 11.0606 26.3167 11.0606C26.8366 11.0606 27.258 10.6391 27.258 10.1192V8.08461H26.0225V8.08469Z" fill="#FFCBBE"/>
<path d="M19.9987 21.9008L18.211 23.4469C17.7696 23.8286 17.0971 23.7564 16.747 23.2894L14.0088 19.6379L14.9969 18.7771C15.4805 18.3558 16.2043 18.3677 16.6737 18.8048L19.9987 21.9008Z" fill="#F4FBFF"/>
<path d="M20.001 21.9008L21.7886 23.4469C22.2301 23.8286 22.9025 23.7564 23.2526 23.2894L25.9908 19.6379L25.0028 18.7771C24.5191 18.3558 23.7954 18.3677 23.3259 18.8048L20.001 21.9008Z" fill="#F4FBFF"/>
<path d="M14.0089 19.6379L13.5719 19.7192C12.6074 19.8985 11.7665 20.498 11.3051 21.3637C11.102 21.7447 10.9531 22.1691 10.9531 22.5949C10.9531 23.2361 11.9451 24.03 12.5469 24.4526C12.7534 24.5976 12.7856 24.9157 12.611 25.1044C12.2705 25.4726 11.8468 26.099 11.975 26.8456C12.3458 29.004 16.2266 32.1851 18.645 33.9819H20.2599C18.4605 30.9937 13.7558 24.0487 14.0089 19.6379V19.6379Z" fill="#365E7D"/>
<path d="M21.8741 33.9819C24.2927 32.185 28.1734 29.004 28.5441 26.8455C28.6723 26.099 28.2486 25.4726 27.9081 25.1044C27.7336 24.9156 27.7656 24.5976 27.9722 24.4525C28.574 24.0299 29.566 23.236 29.566 22.5948C29.566 22.2605 29.4742 21.9271 29.3365 21.6148C28.8894 20.6011 27.9271 19.9091 26.83 19.7554L25.991 19.6379C26.2441 24.0487 22.0592 30.9937 20.2598 33.9819H21.8741Z" fill="#365E7D"/>
<path d="M18.0166 23.5781L19.0522 24.7631H20.9501L21.9627 23.5681L20.0011 21.9009L18.0166 23.5781Z" fill="#BED8FB"/>
<path d="M33.6172 39.9999C34.4599 39.9999 35.143 39.3168 35.143 38.4742V30.7704C35.143 29.9278 34.4599 29.2446 33.6172 29.2446H1.52585C0.683155 29.2446 0 29.9278 0 30.7704V38.4742C0 39.3168 0.683155 39.9999 1.52585 39.9999H33.6172Z" fill="#E28086"/>
<path d="M38.4745 29.2446H33.3828C34.2255 29.2446 34.9087 29.9278 34.9087 30.7704V38.4742C34.9087 39.3168 34.2255 39.9999 33.3828 39.9999H38.4745C39.3172 39.9999 40.0004 39.3168 40.0004 38.4742V30.7704C40.0004 29.9278 39.3172 29.2446 38.4745 29.2446V29.2446Z" fill="#DD636E"/>
<path d="M5.07846 36.2663L4.37202 36.7419C4.07021 36.9451 3.6791 36.6609 3.77911 36.3111L4.01302 35.4923C4.05662 35.3396 4.00341 35.1758 3.87841 35.0779L3.20791 34.553C2.92141 34.3288 3.07079 33.8691 3.4344 33.856L4.28538 33.8255C4.44406 33.8198 4.58344 33.7185 4.63782 33.5694L4.92986 32.7695C5.05463 32.4277 5.53801 32.4277 5.66278 32.7695L5.95483 33.5694C6.00928 33.7185 6.14866 33.8198 6.30726 33.8255L7.15824 33.856C7.52185 33.8691 7.67123 34.3288 7.38473 34.553L6.71424 35.0779C6.58923 35.1757 6.53595 35.3396 6.57962 35.4922L6.81354 36.311C6.91346 36.6609 6.52243 36.9449 6.22054 36.7418L5.51418 36.2663C5.38246 36.1777 5.21019 36.1777 5.07846 36.2663V36.2663Z" fill="#F4FBFF"/>
<path d="M12.43 36.2663L11.7236 36.7419C11.4218 36.9451 11.0307 36.6609 11.1307 36.3111L11.3646 35.4923C11.4082 35.3396 11.355 35.1758 11.23 35.0779L10.5595 34.553C10.273 34.3288 10.4224 33.8691 10.786 33.856L11.6369 33.8255C11.7956 33.8198 11.935 33.7185 11.9894 33.5694L12.2814 32.7695C12.4062 32.4277 12.8896 32.4277 13.0143 32.7695L13.3064 33.5694C13.3608 33.7185 13.5002 33.8198 13.6588 33.8255L14.5098 33.856C14.8734 33.8691 15.0228 34.3288 14.7363 34.553L14.0658 35.0779C13.9408 35.1757 13.8876 35.3396 13.9312 35.4922L14.1651 36.311C14.265 36.6609 13.874 36.9449 13.5721 36.7418L12.8657 36.2663C12.734 36.1777 12.5617 36.1777 12.43 36.2663V36.2663Z" fill="#F4FBFF"/>
<path d="M19.7826 36.2663L19.0762 36.7418C18.7744 36.945 18.3833 36.6609 18.4832 36.311L18.7171 35.4922C18.7607 35.3395 18.7075 35.1757 18.5825 35.0779L17.912 34.553C17.6255 34.3288 17.7749 33.8691 18.1385 33.856L18.9895 33.8255C19.1482 33.8198 19.2875 33.7185 19.3419 33.5694L19.634 32.7695C19.7587 32.4277 20.2421 32.4277 20.3669 32.7695L20.6589 33.5694C20.7134 33.7185 20.8528 33.8198 21.0114 33.8255L21.8623 33.856C22.2259 33.8691 22.3753 34.3288 22.0888 34.553L21.4183 35.0779C21.2933 35.1757 21.24 35.3396 21.2837 35.4922L21.5176 36.311C21.6176 36.6609 21.2265 36.9449 20.9246 36.7418L20.2183 36.2663C20.0866 36.1777 19.9142 36.1777 19.7826 36.2663V36.2663Z" fill="#F4FBFF"/>
<path d="M27.1341 36.2662L26.4278 36.7418C26.126 36.945 25.7348 36.6609 25.8348 36.311L26.0687 35.4922C26.1123 35.3395 26.0591 35.1757 25.9341 35.0779L25.2636 34.553C24.9771 34.3287 25.1265 33.8691 25.4901 33.856L26.341 33.8255C26.4997 33.8198 26.6391 33.7185 26.6935 33.5694L26.9855 32.7695C27.1103 32.4277 27.5937 32.4277 27.7184 32.7695L28.0105 33.5694C28.0649 33.7185 28.2043 33.8198 28.3629 33.8255L29.2139 33.856C29.5775 33.8691 29.7269 34.3287 29.4404 34.553L28.7699 35.0779C28.6449 35.1758 28.5916 35.3396 28.6353 35.4923L28.8692 36.3111C28.9691 36.6609 28.5781 36.945 28.2763 36.7419L27.5698 36.2663C27.4381 36.1777 27.2658 36.1777 27.1341 36.2662V36.2662Z" fill="#F4FBFF"/>
<path d="M34.4857 36.2662L33.7793 36.7418C33.4775 36.945 33.0864 36.6609 33.1863 36.311L33.4202 35.4922C33.4638 35.3395 33.4106 35.1757 33.2856 35.0779L32.6151 34.553C32.3286 34.3287 32.478 33.8691 32.8416 33.856L33.6926 33.8255C33.8513 33.8198 33.9907 33.7185 34.045 33.5694L34.3371 32.7695C34.4619 32.4277 34.9452 32.4277 35.07 32.7695L35.3621 33.5694C35.4165 33.7185 35.5559 33.8198 35.7145 33.8255L36.5655 33.856C36.9291 33.8691 37.0785 34.3287 36.792 34.553L36.1215 35.0779C35.9965 35.1758 35.9432 35.3396 35.9868 35.4923L36.2208 36.3111C36.3207 36.6609 35.9297 36.945 35.6278 36.7419L34.9214 36.2663C34.7897 36.1777 34.6174 36.1777 34.4857 36.2662V36.2662Z" fill="#F4FBFF"/>
</svg>
