<svg width="40" height="40" viewBox="0 0 40 40" fill="none" xmlns="http://www.w3.org/2000/svg">
<g clip-path="url(#clip0)">
<path d="M32.7102 36.4322V15.8323C32.7102 14.9131 31.9653 14.1679 31.0461 14.1675H4.42363C3.50418 14.1675 2.75879 14.9129 2.75879 15.8323V36.4322H32.7102Z" fill="#F4FBFF"/>
<path d="M35.5769 14.1675H30.4824C31.4019 14.1675 32.1473 14.9129 32.1473 15.8323V36.4322H37.2417V15.8323C37.2417 14.9129 36.4963 14.1675 35.5769 14.1675Z" fill="#E4F6FF"/>
<path d="M32.7101 17.3855H7.08172C6.47133 17.3855 5.97656 17.8803 5.97656 18.4907V35.4135H32.7101V17.3855Z" fill="#CBE2FF"/>
<path d="M34.023 35.4133V18.4904C34.023 17.88 33.5283 17.3853 32.9179 17.3853H32.1465V35.4132H34.023V35.4133Z" fill="#BED8FB"/>
<path d="M35.1982 37.3729V35.4133H1.0077C0.456055 35.4133 0.00878906 35.8605 0.00878906 36.4122C0.00878906 38.3936 1.61504 39.9999 3.59652 39.9999H32.572C34.0225 39.9994 35.1982 38.8235 35.1982 37.3729V37.3729Z" fill="#D8E2F1"/>
<path d="M38.9921 35.4133H34.8965V37.3729C34.8965 38.8238 33.7204 39.9999 32.2695 39.9999H36.4033C38.3847 39.9999 39.991 38.3936 39.991 36.4122C39.991 35.8605 39.5438 35.4133 38.9921 35.4133Z" fill="#B9CBEA"/>
<path d="M13.9082 35.4133C13.9082 36.6799 14.9349 37.7066 16.2015 37.7066H23.7987C25.0652 37.7066 26.0919 36.6799 26.0919 35.4133H13.9082Z" fill="#B9CBEA"/>
<path d="M16.3734 5.04102H12.3327C10.3368 5.04102 8.71875 6.65906 8.71875 8.655V12.1409L9.44273 12.6674H16.688V5.57289L16.3734 5.04102Z" fill="#EFC984"/>
<path d="M24.3045 23.8836L19.1386 22.3669H11.0514L5.88363 23.8837C4.03121 24.4274 2.75879 26.127 2.75879 28.0576V35.4135H27.429V28.0573C27.429 26.1269 26.1568 24.4273 24.3045 23.8836V23.8836Z" fill="#4A80AA"/>
<path d="M24.3048 23.8836L19.1389 22.3669H15.1172L15.1538 24.4124L19.2104 25.6666C21.0626 26.2104 22.3349 27.9099 22.3349 29.8404V35.4134H27.4294V28.0573C27.4294 26.1269 26.1571 24.4273 24.3048 23.8836V23.8836Z" fill="#407093"/>
<path d="M15.882 27.3687H14.3056L12.8818 35.4012L12.8883 35.4133H17.3087L15.882 27.3687Z" fill="#DD636E"/>
<path d="M17.9314 22.7057V18.1436H12.2549V22.7057C12.2549 24.2732 15.0932 24.4125 15.0932 24.4125C15.0932 24.4125 17.9314 24.2732 17.9314 22.7057V22.7057Z" fill="#FFDDCE"/>
<path d="M23.9294 35.4135V32.8956C23.9294 32.5623 23.6593 32.2922 23.326 32.2922C22.9927 32.2922 22.7227 32.5623 22.7227 32.8956V35.4135H23.9294Z" fill="#365E7D"/>
<path d="M19.8972 7.14164H19.8443C19.5514 7.14164 19.314 6.90422 19.314 6.61133C19.314 5.74406 18.6109 5.04102 17.7437 5.04102H16.373V12.6674H20.7435L21.4675 12.1409V8.71195C21.4675 7.84469 20.7645 7.14164 19.8972 7.14164V7.14164Z" fill="#EABC6B"/>
<path d="M11.1483 22.0644L10.34 22.4273C9.87855 22.6345 9.76714 23.2393 10.1246 23.5973L12.3632 25.8394C12.6471 26.1158 13.0942 26.1329 13.3983 25.8788L15.1537 24.4125L12.1609 22.1761C11.8687 21.9578 11.481 21.915 11.1483 22.0644V22.0644Z" fill="#365E7D"/>
<path d="M18.0233 22.1902L15.1533 24.4126L16.8032 25.8233C17.1055 26.0817 17.5546 26.0687 17.8414 25.7932L20.0811 23.612C20.4472 23.2555 20.3378 22.6421 19.871 22.4341L19.047 22.0669C18.7091 21.9164 18.3158 21.9638 18.0233 22.1902V22.1902Z" fill="#365E7D"/>
<path d="M15.1534 24.4124L13.4248 25.856L14.3056 27.3687H15.882L16.7628 25.7903L15.1534 24.4124Z" fill="#E28086"/>
<path d="M33.3943 0H28.2456C27.268 0 26.4756 0.792422 26.4756 1.77V6.27641C26.4756 7.12805 27.0771 7.83891 27.8783 8.00797C27.9132 8.01531 27.9389 8.02641 27.9664 8.04641L28.2288 8.2207H31.0175L31.2035 8.04641H33.3943C34.3719 8.04641 35.1643 7.25398 35.1643 6.27641V1.77C35.1643 0.792422 34.3718 0 33.3943 0V0Z" fill="#E28086"/>
<path d="M28.0782 8.25897V10.5506C28.0782 10.8288 28.4145 10.9681 28.6112 10.7714L31.2607 8.12193C31.3091 8.07357 31.3747 8.04639 31.4431 8.04639H27.9668C28.0349 8.09326 28.0782 8.17232 28.0782 8.25897V8.25897Z" fill="#DD636E"/>
<path d="M38.0202 0H32.9258C33.9034 0 34.6958 0.792422 34.6958 1.77V6.27641C34.6958 7.25398 33.9034 8.04641 32.9258 8.04641H38.0202C38.9978 8.04641 39.7902 7.25398 39.7902 6.27641V1.77C39.7902 0.792422 38.9977 0 38.0202 0V0Z" fill="#DD636E"/>
<path d="M7.46355 35.4135V32.8956C7.46355 32.5623 7.19348 32.2922 6.8602 32.2922C6.52691 32.2922 6.25684 32.5623 6.25684 32.8956V35.4135H7.46355Z" fill="#365E7D"/>
<path d="M16.6871 15.3146V9.63655C15.2676 9.90616 13.7964 9.81248 12.4129 9.35545L12.4108 9.35475C11.6645 9.10819 10.8955 9.66397 10.8955 10.45V11.0482C10.8955 11.6516 10.4063 12.1408 9.80285 12.1408H8.71777V13.9276C8.71777 14.3842 9.08793 14.7544 9.54449 14.7544C9.68856 14.7544 9.80574 14.8672 9.81481 15.011C9.96785 17.4379 11.7564 19.4208 14.0913 19.8681C15.6265 18.925 16.6579 17.2418 16.6871 15.3146V15.3146Z" fill="#FFDDCE"/>
<path d="M20.3822 12.1408C19.7788 12.1408 19.2896 11.6516 19.2896 11.0482V10.4502C19.2896 9.66412 18.5205 9.10834 17.7742 9.35506C17.315 9.50678 16.8461 9.6174 16.3729 9.68912V15.2371C16.3434 17.1838 15.2622 18.8745 13.6729 19.7685C14.1248 19.8943 14.6007 19.9628 15.0928 19.9628C17.9005 19.9628 20.196 17.7748 20.3703 15.0111C20.3793 14.8673 20.4966 14.7544 20.6406 14.7544C21.0972 14.7544 21.4673 14.3843 21.4673 13.9277V12.1409H20.3822V12.1408Z" fill="#FFCBBE"/>
</g>
<defs>
<clipPath id="clip0">
<rect width="40" height="40" fill="white"/>
</clipPath>
</defs>
</svg>
