<svg width="40" height="40" viewBox="0 0 40 40" fill="none" xmlns="http://www.w3.org/2000/svg">
<path d="M13.3333 10.6666L6.66667 -4.1008e-05H20L13.3333 10.6666Z" fill="#93CBDA"/>
<path d="M20.0003 40L13.3337 10.6667H26.667L20.0003 40Z" fill="#BDECFA"/>
<path d="M26.6663 10.6666L19.9997 -4.1008e-05H33.333L26.6663 10.6666Z" fill="#93CBDA"/>
<path d="M6.66634 0L-0.000325918 10.6667H13.333L6.66634 0Z" fill="#A3E3F3"/>
<path d="M20.0003 0L13.3337 10.6667H26.667L20.0003 0Z" fill="#A3E3F3"/>
<path d="M33.3333 0L26.6667 10.6667H40L33.3333 0Z" fill="#A3E3F3"/>
<path d="M13.3333 10.6666H0L20 40L13.3333 10.6666Z" fill="#D7F0FB"/>
<path d="M26.6667 10.6666H40L20 40L26.6667 10.6666Z" fill="#D7F0FB"/>
</svg>
