<svg width="40" height="40" viewBox="0 0 40 40" fill="none" xmlns="http://www.w3.org/2000/svg">
<g clip-path="url(#clip0)">
<path d="M23.5075 21.3555C23.1791 21.3555 22.8575 21.2429 22.5987 21.0315C22.265 20.7587 22.0713 20.3504 22.0713 19.9194V4.89459C22.0713 4.10146 22.7143 3.4585 23.5074 3.4585H37.5774C38.3322 3.4585 39.0301 3.80084 39.492 4.39787C39.954 4.99482 40.1104 5.75631 39.921 6.48701L38.2617 12.8886C37.3808 16.2865 34.72 18.9331 31.3175 19.7956C31.2954 19.8012 31.2731 19.8063 31.2507 19.8108L23.7935 21.3268C23.6986 21.3461 23.6028 21.3555 23.5075 21.3555V21.3555ZM24.9436 6.33068V18.162L30.6434 17.0033C33.0144 16.3902 34.8665 14.5401 35.4815 12.1679L36.9945 6.33076H24.9436V6.33068Z" fill="#B9CBEA"/>
<path d="M16.4922 21.3555C16.3969 21.3555 16.3012 21.3461 16.2061 21.3268L8.74894 19.8108C8.7266 19.8063 8.70433 19.8012 8.68223 19.7956C5.27965 18.933 2.61879 16.2865 1.73808 12.8885L0.0787099 6.48701C-0.110743 5.75639 0.0455068 4.9949 0.507538 4.39795C0.969491 3.80092 1.66738 3.4585 2.42223 3.4585H16.4922C17.2853 3.4585 17.9283 4.10146 17.9283 4.89459V19.9194C17.9283 20.3504 17.7347 20.7587 17.4009 21.0315C17.1423 21.2429 16.8206 21.3555 16.4922 21.3555V21.3555ZM9.35637 17.0033L15.0562 18.162V6.33068H3.00535L4.5184 12.1678C5.13324 14.5401 6.98535 16.3901 9.35637 17.0033Z" fill="#B9CBEA"/>
<path d="M24.9176 32.3085C21.1904 31.0782 18.5925 27.246 18.4547 22.8364C18.605 22.1396 18.6836 21.4192 18.6836 20.6845V15.8104H17.6361V20.6845C17.6361 25.229 14.6293 29.2253 10.2627 30.4846V33.4377H25.8222V32.6072L24.9176 32.3085Z" fill="#CDD8EB"/>
<path d="M28.8329 30.2237C25.0021 29.119 22.3643 25.6131 22.3643 21.6261V15.8104H17.6361V20.6845C17.6361 21.4192 17.5575 22.1396 17.4072 22.8364C17.545 27.246 20.1428 31.0782 23.87 32.3085L24.7748 32.6072V33.4377H29.7377V30.4846L28.8329 30.2237Z" fill="#B9CBEA"/>
<path d="M26.92 30.4529H8.56742C7.85172 30.4529 7.27148 31.033 7.27148 31.7488V38.2558H28.2159V31.7488C28.2159 31.033 27.6357 30.4529 26.92 30.4529Z" fill="#D8E2F1"/>
<path d="M31.4322 30.4529H26.2471C26.9628 30.4529 27.543 31.0331 27.543 31.7488V38.2558H32.7282V31.7488C32.7281 31.0331 32.1479 30.4529 31.4322 30.4529Z" fill="#CDD8EB"/>
<path d="M26.5154 9.07837V1.80603H9.21484V8.82673C9.21484 14.5865 12.333 19.8949 17.3637 22.6996C17.7379 22.9083 18.1308 23.0692 18.5337 23.1826C23.4746 20.216 26.5154 14.8672 26.5154 9.07837Z" fill="#D8E2F1"/>
<path d="M25.5889 1.80603V8.82673C25.5889 14.5865 22.4708 19.8949 17.44 22.6996C17.4274 22.7066 17.4149 22.7135 17.4023 22.7204C19.0338 23.6131 21.0107 23.6062 22.6369 22.6996C27.6676 19.8949 30.7858 14.5865 30.7858 8.82673V1.80603H25.5889Z" fill="#CDD8EB"/>
<path d="M30.8029 39.3301V38.5187C30.8029 37.7254 30.16 37.0822 29.3668 37.0818H6.10785C5.31426 37.0818 4.6709 37.7251 4.6709 38.5187C4.6709 39.3123 5.31426 39.9557 6.10785 39.9557H30.1303L30.8029 39.3301Z" fill="#CDD8EB"/>
<path d="M33.8927 37.0817H28.6934C29.487 37.0817 30.1303 37.725 30.1303 38.5186V39.9556H33.8927C34.6863 39.9556 35.3297 39.3122 35.3297 38.5186C35.3297 37.725 34.6863 37.0817 33.8927 37.0817Z" fill="#B9CBEA"/>
<path d="M29.3533 1.75146V0.605449L28.2396 0.0444336H8.27043C7.3277 0.0444336 6.56348 0.808652 6.56348 1.75139C6.56348 2.69412 7.3277 3.45834 8.27043 3.45834H27.6464C28.589 3.4585 29.3533 2.6942 29.3533 1.75146Z" fill="#CDD8EB"/>
<path d="M31.73 0.0445557H28.2402V1.75151C28.2402 2.69424 27.4759 3.45846 26.5332 3.45846H31.7301C32.6728 3.45846 33.437 2.69424 33.437 1.75151C33.437 0.808774 32.6727 0.0445557 31.73 0.0445557V0.0445557Z" fill="#B9CBEA"/>
<path d="M27.5437 34.522H12.4572C12.1195 34.522 11.8457 34.2483 11.8457 33.9106C11.8457 33.5728 12.1195 33.2991 12.4572 33.2991H27.5437C27.8815 33.2991 28.1552 33.5728 28.1552 33.9106C28.1552 34.2483 27.8815 34.522 27.5437 34.522Z" fill="#F4FBFF"/>
<path d="M20.4668 7.64428L21.3687 10.115C21.4381 10.3051 21.6158 10.4342 21.8181 10.4415L24.4466 10.5358C24.9101 10.5524 25.1006 11.1385 24.7354 11.4244L22.6643 13.0456C22.5049 13.1704 22.437 13.3793 22.4926 13.5738L23.2152 16.1028C23.3426 16.5488 22.8441 16.911 22.4593 16.652L20.2773 15.1834C20.1094 15.0703 19.8898 15.0703 19.7219 15.1834L17.54 16.652C17.1552 16.911 16.6566 16.5488 16.784 16.1028L17.5066 13.5738C17.5622 13.3792 17.4943 13.1703 17.335 13.0456L15.2639 11.4244C14.8986 11.1384 15.089 10.5524 15.5526 10.5358L18.1811 10.4415C18.3834 10.4342 18.5611 10.3051 18.6305 10.115L19.5325 7.64428C19.6915 7.20858 20.3077 7.20858 20.4668 7.64428V7.64428Z" fill="#F4FBFF"/>
</g>
<defs>
<clipPath id="clip0">
<rect width="40" height="40" fill="white"/>
</clipPath>
</defs>
</svg>
