<svg width="60" height="60" viewBox="0 0 60 60" fill="none" xmlns="http://www.w3.org/2000/svg">
<path d="M41.6344 43.5668L35.4178 36.7722V28.5067H24.5782V36.7748L18.4307 43.5668H41.6344Z" fill="#FFDDCE"/>
<path d="M40.5042 43.4446L34.9311 41.8084L30.0003 47.4624L21.475 37.6857L12.4125 40.3456C8.8752 41.3839 6.44531 44.6293 6.44531 48.3159V57.0605C6.44531 58.6839 7.76145 59.9999 9.38496 59.9999H13.3718L14.0903 59.4872H14.464L15.1825 59.9999H44.814L45.8687 59.2473H46.7434V51.7789C46.7435 47.9241 44.2029 44.5305 40.5042 43.4446V43.4446Z" fill="#407093"/>
<path d="M47.5895 40.3452L38.528 37.6849L34.3154 42.5153L39.9448 44.168C43.4818 45.2064 45.9114 48.4518 45.9114 52.138V59.2473H46.6257V59.9999H50.6166C52.2401 59.9999 53.5561 58.6838 53.5561 57.0604V48.3154C53.5561 44.629 51.1266 41.3836 47.5895 40.3452V40.3452Z" fill="#365E7D"/>
<path d="M15.1829 59.9999V55.1918C15.1829 54.6917 14.7775 54.2864 14.2775 54.2864C13.7774 54.2864 13.3721 54.6917 13.3721 55.1918V59.9999H15.1829Z" fill="#365E7D"/>
<path d="M46.6252 59.9999V55.1918C46.6252 54.6917 46.2199 54.2864 45.7198 54.2864C45.2198 54.2864 44.8145 54.6917 44.8145 55.1918V59.9999H46.6252Z" fill="#365E7D"/>
<path d="M13.6667 17.7169L12.7385 16.6934H10.7545L9.82628 17.7169L8.60296 24.897C8.48753 25.5746 9.0096 26.1933 9.69714 26.1933H13.7957C14.4832 26.1933 15.0053 25.5746 14.8898 24.897L13.6667 17.7169Z" fill="#E4F6FF"/>
<path d="M12.6516 15.9715V6.89233C12.6516 6.39229 12.2462 5.98694 11.7462 5.98694C11.2462 5.98694 10.8408 6.39229 10.8408 6.89233V15.9715H12.6516Z" fill="#407093"/>
<path d="M35.0163 6.16492H34.8166H25.1795H24.9798C21.3514 6.16492 18.4102 9.10621 18.4102 12.7346V12.838V19.0714L19.4966 20.0286H41.5859V12.838V12.7346C41.586 9.10632 38.6446 6.16492 35.0163 6.16492V6.16492Z" fill="#EFC984"/>
<path d="M35.0161 6.16492H34.8164H33.9658V20.0286H40.5827L41.5856 19.0714V12.838V12.7346C41.5857 9.10632 38.6443 6.16492 35.0161 6.16492V6.16492Z" fill="#EABC6B"/>
<path d="M30 33.2902C30.1092 33.2902 30.2178 33.2883 30.3261 33.2846C32.9182 31.6384 34.6788 28.8002 34.8357 25.5401V14.0654H22.3708V17.0851C22.3708 18.1821 21.4815 19.0713 20.3846 19.0713H18.4121V22.3194C18.4121 23.1493 19.0849 23.8222 19.9149 23.8222C20.1767 23.8222 20.3899 24.0274 20.4063 24.2888C20.7232 29.3128 24.896 33.2902 30 33.2902Z" fill="#FFDDCE"/>
<path d="M39.615 19.0713C38.518 19.0713 37.6288 18.1821 37.6288 17.0851V14.0654H33.9658V25.2448C33.7996 28.6985 31.8121 31.673 28.9434 33.2307C29.2905 33.2687 29.6424 33.2902 29.9996 33.2902C35.1036 33.2902 39.2764 29.3128 39.5932 24.2888C39.6098 24.0274 39.8228 23.8222 40.0846 23.8222C40.9145 23.8222 41.5874 23.1495 41.5874 22.3194V19.0713H39.615Z" fill="#FFCBBE"/>
<path d="M34.8359 10.2097V7.97165C33.7332 7.96298 32.8417 7.0672 32.8417 5.96235V1.94024L31.9957 0.584736L30.309 0.048252C30.1068 -0.016084 29.8896 -0.016084 29.6874 0.048252L11.3251 5.88876C10.3008 6.21454 10.4042 7.69649 11.4638 7.87696L29.9983 11.0336L34.8359 10.2097Z" fill="#407093"/>
<path d="M34.8352 8.00632L32.1646 7.67597C30.7253 7.49796 29.2696 7.49796 27.8304 7.67609L17.667 8.93375V13.4628C17.667 13.9536 18.0648 14.3514 18.5556 14.3514H34.8352V8.00632Z" fill="#4A80AA"/>
<path d="M48.6708 5.88862L31.9951 0.584595V5.8987C31.9951 6.99042 32.876 7.87565 33.9656 7.8842V10.3578L48.532 7.87694C49.5917 7.69624 49.6951 6.2144 48.6708 5.88862V5.88862Z" fill="#365E7D"/>
<path d="M33.9658 7.89856V14.3513H41.4434C41.9342 14.3513 42.3321 13.9534 42.3321 13.4626V8.93344L33.9658 7.89856Z" fill="#407093"/>
<path d="M13.6665 17.7171H9.82617V15.1962C9.82617 14.6605 10.2604 14.2263 10.796 14.2263H12.6966C13.2322 14.2263 13.6664 14.6605 13.6664 15.1962V17.7171H13.6665Z" fill="#FFE07D"/>
<path d="M35.4188 33.7463C35.4188 37.2629 34.398 40.7039 32.4803 43.6515L30.001 47.4624L43.8338 39.2427L35.4188 33.7463Z" fill="#4A80AA"/>
<path d="M24.583 33.7463C24.583 37.2629 25.6038 40.7039 27.5214 43.6515L30.0008 47.4624L16.168 39.2427L24.583 33.7463Z" fill="#4A80AA"/>
<path d="M34.6176 39.0717C33.195 39.3849 31.636 39.5586 30.0002 39.5586C28.3645 39.5586 26.8055 39.3849 25.3828 39.0717C25.8768 40.682 26.5927 42.2249 27.5208 43.6516L30.0002 47.4625L32.4796 43.6516C33.4078 42.2249 34.1237 40.682 34.6176 39.0717Z" fill="#F4FBFF"/>
</svg>
