<svg width="40" height="40" viewBox="0 0 40 40" fill="none" xmlns="http://www.w3.org/2000/svg">
<path d="M26.207 28.2763V23.4491H13.7939V28.2763L20.0005 33.7933L26.207 28.2763Z" fill="#E6AF78"/>
<path d="M35.8038 30.5345L27.2703 28.5266C27.1414 28.4963 27.0229 28.4448 26.912 28.3824L20.0004 32.4142L13.3583 28.1874C13.1863 28.3493 12.9729 28.4696 12.7305 28.5267L4.19702 30.5346C2.95093 30.8278 2.07031 31.9396 2.07031 33.2197V38.6208C2.07031 39.3825 2.68781 40 3.44952 40H36.5511C37.3128 40 37.9303 39.3825 37.9303 38.6208V33.2197C37.9304 31.9395 37.0498 30.8276 35.8038 30.5345Z" fill="#E7EDF5"/>
<path d="M13.7939 23.4491V28.5422C21.6125 31.3592 26.207 24.309 26.207 24.309V23.449H13.7939V23.4491Z" fill="#D29B6E"/>
<path d="M11.0352 7.58801L11.6361 20.8089C11.6922 22.0439 12.2978 23.1893 13.2869 23.9311L16.1383 26.0697C16.8545 26.6068 17.7256 26.8973 18.6209 26.8973H21.3794C22.2747 26.8973 23.1458 26.6069 23.862 26.0697L26.7134 23.9311C27.7025 23.1892 28.3081 22.044 28.3642 20.8089L28.9651 7.58801C28.9651 7.58801 11.0352 7.58801 11.0352 7.58801Z" fill="#F0C087"/>
<path d="M17.9314 10.3464C20.6899 10.3464 24.8275 9.65678 25.8089 7.58789H11.0352L11.6361 20.8087C11.6922 22.0438 12.2978 23.1891 13.2869 23.931L16.1383 26.0696C16.8546 26.6067 17.7257 26.8972 18.621 26.8972H20.0002C18.621 26.8972 15.8625 24.1387 15.8625 20.6906C15.8625 19.0042 15.8625 14.4841 15.8625 12.4152C15.8625 11.7256 16.5521 10.3464 17.9314 10.3464Z" fill="#E6AF78"/>
<path d="M7.13294 35.5243L2.66429 31.5101C2.28984 31.9843 2.07031 32.5809 2.07031 33.2197V38.6207C2.07031 39.3825 2.68781 40 3.44952 40H8.27684V38.0895C8.27676 37.1108 7.8609 36.1782 7.13294 35.5243Z" fill="#D8E2F1"/>
<path d="M32.8675 35.5243L37.3362 31.5101C37.7106 31.9843 37.9302 32.5809 37.9302 33.2197V38.6207C37.9302 39.3825 37.3127 40 36.5509 40H31.7236V38.0895C31.7236 37.1108 32.1395 36.1782 32.8675 35.5243Z" fill="#D8E2F1"/>
<path d="M21.7245 39.9998H18.2764L18.7074 33.7932H21.2935L21.7245 39.9998Z" fill="#5B5D6E"/>
<path d="M21.7245 32.4141H18.2764V33.7119C18.2764 34.1378 18.6215 34.483 19.0474 34.483H20.9534C21.3793 34.483 21.7244 34.1378 21.7244 33.7119V32.4141H21.7245Z" fill="#515262"/>
<path d="M13.6966 26.741L19.9999 32.4141C19.9999 32.4141 18.2346 33.3052 16.0562 35.1014C15.6069 35.4719 14.9271 35.3218 14.6861 34.7915L11.7246 28.2764L12.6615 26.8712C12.8946 26.5212 13.384 26.4598 13.6966 26.741Z" fill="#D8E2F1"/>
<path d="M26.3034 26.741L20 32.4141C20 32.4141 21.7653 33.3052 23.9437 35.1014C24.3931 35.4719 25.0729 35.3218 25.3139 34.7915L28.2753 28.2764L27.3385 26.8712C27.1053 26.5212 26.6159 26.4598 26.3034 26.741Z" fill="#D8E2F1"/>
<path d="M24.1807 3.01924L24.8271 7.58797C27.7783 8.1782 28.2036 12.8096 28.2649 14.1324C28.276 14.3725 28.3526 14.6043 28.4828 14.8062L29.6088 16.5529C29.6088 16.5529 29.2234 13.6651 30.988 11.7256C30.9881 11.7256 31.5941 0.260744 24.1807 3.01924Z" fill="#785550"/>
<path d="M30.3004 16.259L29.5219 19.3731C29.4296 19.7422 29.0981 20.0011 28.7175 20.0011C28.2993 20.0011 27.9467 19.6897 27.8948 19.2748L27.4966 16.0897C27.39 15.2371 28.0547 14.4841 28.9139 14.4841H28.9146C29.8439 14.4842 30.5258 15.3574 30.3004 16.259Z" fill="#F0C087"/>
<path d="M11.696 1.78371L12.716 2.48051C8.10421 5.88549 8.96616 11.7257 8.96616 11.7257C10.3454 13.1049 10.3454 16.553 10.3454 16.553L11.7246 15.1738C11.7246 15.1738 11.1923 11.1896 13.7934 9.65687C16.207 8.23453 18.319 8.96726 20.4741 8.96726C26.2496 8.96726 27.8659 6.79064 27.5857 4.13995C27.4407 2.76839 25.3437 -0.0886199 20 0.00223891C17.8434 0.0388793 13.7935 0.691844 11.696 1.78371Z" fill="#694B4B"/>
<path d="M11.2936 8.36384C11.2936 8.36384 10.5609 5.47604 12.716 2.48059C8.10421 5.88557 8.96616 11.7258 8.96616 11.7258C10.3454 13.105 10.3454 16.5531 10.3454 16.5531L11.7246 15.1739C11.7246 15.1739 11.1923 11.1897 13.7934 9.65696C16.2071 8.23462 18.319 8.96735 20.4741 8.96735C21.4134 8.96735 22.2319 8.90446 22.9609 8.79665C18.5131 8.94571 15.8912 5.57659 11.2936 8.36384Z" fill="#5A4146"/>
<path d="M9.6996 16.259L10.4781 19.3731C10.5704 19.7422 10.9019 20.0011 11.2825 20.0011C11.7007 20.0011 12.0533 19.6897 12.1052 19.2748L12.5034 16.0897C12.61 15.2371 11.9453 14.4841 11.0861 14.4841H11.0855C10.1561 14.4842 9.47421 15.3574 9.6996 16.259Z" fill="#E6AF78"/>
<path d="M28.9652 38.6206H24.1378C23.757 38.6206 23.4482 38.9294 23.4482 39.3102V39.9998H29.6548V39.3102C29.6548 38.9294 29.3459 38.6206 28.9652 38.6206Z" fill="#D8E2F1"/>
</svg>
