<svg width="40" height="40" viewBox="0 0 40 40" fill="none" xmlns="http://www.w3.org/2000/svg">
<path d="M20.002 37.7604L27.9261 35.7593C32.4491 32.0036 35.3301 26.3386 35.3301 20C35.3301 10.2232 28.4777 2.04683 19.3135 0.0115967C8.5857 0.373394 0 9.18402 0 20C0 25.5556 2.26562 30.5817 5.92281 34.2059L20.002 37.7604Z" fill="#CBE2FF"/>
<path d="M34.9156 20C34.9156 26.5559 31.7608 32.3743 26.8871 36.0218L34.077 34.2061C37.7344 30.5819 40.0004 25.5558 40.0004 20C40.0004 8.9543 31.0461 0 20.0004 0C19.1392 0 18.2906 0.0545312 17.458 0.160156C27.3032 1.40922 34.9156 9.81562 34.9156 20Z" fill="#BED8FB"/>
<path d="M24.971 7.57438C24.971 6.5529 24.1429 5.72485 23.1214 5.72485H16.7479C14.397 5.72485 12.4912 7.63063 12.4912 9.98149V14.7075H27.5075V10.0485C27.5075 9.02704 26.6795 8.19899 25.658 8.19899H25.5957C25.2507 8.19899 24.971 7.91938 24.971 7.57438V7.57438Z" fill="#365E7D"/>
<path d="M25.6582 8.19895H25.5959C25.2509 8.19895 24.9712 7.91926 24.9712 7.57426C24.9712 6.55278 24.1432 5.72473 23.1217 5.72473H22.4229V14.7074H27.5077V10.0484C27.5078 9.02708 26.6796 8.19895 25.6582 8.19895V8.19895Z" fill="#2B4D66"/>
<path d="M33.2071 29.0902C32.7181 28.6072 32.1132 28.2337 31.4266 28.0164L25.9664 26.2876L20.0017 26.078L14.0345 26.2876L8.57426 28.0164C6.72707 28.6012 5.47168 30.3154 5.47168 32.253V33.7447C8.97082 37.4422 13.8663 39.8047 19.3141 39.9885C25.4179 38.6328 30.4961 34.5528 33.2071 29.0902V29.0902Z" fill="#4A80AA"/>
<path d="M34.5294 33.7447V32.253C34.5294 30.883 33.9012 29.6252 32.8805 28.7988C29.9812 34.7071 24.2538 38.976 17.4629 39.8392C18.2826 39.943 19.1174 39.9984 19.9649 39.9999C20.7792 39.9987 21.5827 39.9515 22.373 39.8607C27.1411 39.2973 31.3953 37.0565 34.5294 33.7447Z" fill="#407093"/>
<path d="M20.4531 39.7006C21.6632 37.2982 24.8142 30.4766 23.9157 26.2155L20.0015 24.6921L16.0837 26.2156C15.1575 30.6082 18.5345 37.7216 19.6526 39.9101C19.9215 39.8456 20.1884 39.7757 20.4531 39.7006V39.7006Z" fill="#E4F6FF"/>
<path d="M22.5162 37.796L20.9292 31.5525H19.0724L17.4893 37.779L19.4469 39.9584C19.9439 39.8446 20.4339 39.7126 20.9164 39.5634L22.5162 37.796Z" fill="#E28086"/>
<path d="M19.4767 39.9926C19.6388 39.9968 19.8012 39.9997 19.9643 40C20.1529 39.9997 20.341 39.9964 20.5285 39.9912L21.5368 38.8772C20.7432 39.1556 19.9267 39.3855 19.0908 39.5631L19.4767 39.9926Z" fill="#DD636E"/>
<path d="M23.3422 25.6392V22.1184H16.6562V25.6392C16.6562 27.4854 19.9992 29.5022 19.9992 29.5022C19.9992 29.5022 23.3422 27.4854 23.3422 25.6392Z" fill="#FFDDCE"/>
<path d="M27.5075 14.0873H26.2295C25.5187 14.0873 24.9425 13.5111 24.9425 12.8003V12.096C24.9425 11.1702 24.0367 10.5156 23.1576 10.8061C21.1074 11.4838 18.8936 11.4839 16.8433 10.8066L16.8409 10.8058C15.9618 10.5154 15.0561 11.17 15.0561 12.0958V12.8004C15.0561 13.5112 14.48 14.0874 13.7692 14.0874H12.4912V16.1919C12.4912 16.7296 12.9271 17.1656 13.465 17.1656C13.6346 17.1656 13.7727 17.2985 13.7834 17.4679C13.9887 20.7232 16.6924 23.3003 19.9994 23.3003C23.3064 23.3003 26.0101 20.7232 26.2154 17.4679C26.2261 17.2986 26.3642 17.1656 26.5339 17.1656C27.0716 17.1656 27.5076 16.7297 27.5076 16.1919V14.0873H27.5075Z" fill="#FFDDCE"/>
<path d="M26.2297 14.0873C25.5189 14.0873 24.9427 13.5111 24.9427 12.8003V12.096C24.9427 11.1702 24.0368 10.5156 23.1578 10.8061C22.915 10.8863 22.6697 10.9563 22.4229 11.0176V17.9685C22.3886 20.2301 21.1494 22.1984 19.3193 23.2621C19.5429 23.2864 19.7696 23.3001 19.9995 23.3001C23.3065 23.3001 26.0102 20.7231 26.2155 17.4678C26.2262 17.2985 26.3643 17.1655 26.5339 17.1655C27.0717 17.1655 27.5077 16.7296 27.5077 16.1917V14.0872H26.2297V14.0873Z" fill="#FFCBBE"/>
<path d="M16.6559 24.6921L14.0342 26.8224L16.7836 30.2218C17.118 30.5475 17.6444 30.5675 18.0027 30.2682L20.0703 28.5411L16.6559 24.6921Z" fill="#F4FBFF"/>
<path d="M23.3431 24.6921L20.0703 28.5411L22.0136 30.2027C22.3696 30.5071 22.8985 30.4917 23.2363 30.1673L25.966 26.8224L23.3431 24.6921Z" fill="#F4FBFF"/>
<path d="M16.6558 24.6921L12.8076 26.5827C12.5147 26.7266 12.397 27.083 12.5466 27.3731L13.3005 28.8348C13.4959 29.2135 13.4238 29.6751 13.1222 29.9762C12.967 30.1311 12.7989 30.2989 12.6532 30.4444C12.3924 30.7047 12.2987 31.0893 12.4136 31.4395C13.3238 34.2142 17.7046 38.4573 19.3625 39.9925C19.474 39.9954 19.5857 39.9975 19.6976 39.9987C18.4954 37.6602 14.235 28.7757 16.6558 24.6921V24.6921Z" fill="#365E7D"/>
<path d="M26.8771 29.9761C26.5755 29.675 26.5034 29.2135 26.6988 28.8347L27.4527 27.373C27.6023 27.0829 27.4847 26.7265 27.1917 26.5826L23.3436 24.6921C25.7637 28.7746 21.5063 37.6553 20.3027 39.9968C20.4159 39.9949 20.5287 39.9921 20.6414 39.9883C22.3027 38.4496 26.6764 34.2117 27.5858 31.4396C27.7006 31.0894 27.607 30.7048 27.3462 30.4445C27.2005 30.2989 27.0323 30.131 26.8771 29.9761V29.9761Z" fill="#365E7D"/>
<path d="M20.0701 28.5411L18.0342 30.2415L19.0715 31.5525H20.9283L21.9657 30.1641L20.0701 28.5411Z" fill="#DD636E"/>
</svg>
