<svg width="40" height="40" viewBox="0 0 40 40" fill="none" xmlns="http://www.w3.org/2000/svg">
<g clip-path="url(#clip0)">
<path d="M5.25195 5.05212H34.7466V38.3112H5.25195V5.05212Z" fill="#DBD8DD"/>
<path d="M11.6953 0H28.3036V38.3108H11.6953V0Z" fill="#EEEFEE"/>
<path d="M6.58203 6.56738H10.3709V11.0386H6.58203V6.56738Z" fill="#69B0EE"/>
<path d="M6.58203 13.0078H10.3709V17.479H6.58203V13.0078Z" fill="#69B0EE"/>
<path d="M6.58203 19.4478H10.3709V23.9189H6.58203V19.4478Z" fill="#69B0EE"/>
<path d="M6.58203 25.8883H10.3709V30.3595H6.58203V25.8883Z" fill="#69B0EE"/>
<path d="M6.58203 32.3284H10.3709V36.7996H6.58203V32.3284Z" fill="#69B0EE"/>
<path d="M29.4805 6.56738H33.2693V11.0386H29.4805V6.56738Z" fill="#69B0EE"/>
<path d="M29.4805 13.0078H33.2693V17.479H29.4805V13.0078Z" fill="#69B0EE"/>
<path d="M29.4805 19.4478H33.2693V23.9189H29.4805V19.4478Z" fill="#69B0EE"/>
<path d="M29.4805 25.8883H33.2693V30.3595H29.4805V25.8883Z" fill="#69B0EE"/>
<path d="M29.4805 32.3284H33.2693V36.7996H29.4805V32.3284Z" fill="#69B0EE"/>
<path d="M13.3984 1.89661H26.5999V4.36297H13.3984V1.89661Z" fill="#69B0EE"/>
<path d="M13.3975 6.33362H26.6024V8.79998H13.3975V6.33362Z" fill="#69B0EE"/>
<path d="M13.3975 10.7732H26.6024V13.2396H13.3975V10.7732Z" fill="#69B0EE"/>
<path d="M13.3975 15.2126H26.6024V17.679H13.3975V15.2126Z" fill="#69B0EE"/>
<path d="M13.3975 19.6522H26.6024V22.1186H13.3975V19.6522Z" fill="#69B0EE"/>
<path d="M13.3975 24.0918H26.6024V26.5582H13.3975V24.0918Z" fill="#69B0EE"/>
<path d="M14.1055 28.5127H25.8942V38.3108H14.1055V28.5127Z" fill="#575B6D"/>
<path opacity="0.5" d="M30.2201 36.7996H30.0781L31.6742 32.3284H31.8167L30.2201 36.7996Z" fill="#EEEFEE"/>
<path opacity="0.5" d="M31.2721 36.7996H30.4453L32.0414 32.3284H32.8682L31.2721 36.7996Z" fill="#EEEFEE"/>
<path opacity="0.5" d="M30.2201 30.3591H30.0781L31.6742 25.8884H31.8167L30.2201 30.3591Z" fill="#EEEFEE"/>
<path opacity="0.5" d="M31.2721 30.3591H30.4453L32.0414 25.8884H32.8682L31.2721 30.3591Z" fill="#EEEFEE"/>
<path opacity="0.5" d="M30.2201 23.9191H30.0781L31.6742 19.4479H31.8167L30.2201 23.9191Z" fill="#EEEFEE"/>
<path opacity="0.5" d="M31.2721 23.9191H30.4453L32.0414 19.4479H32.8682L31.2721 23.9191Z" fill="#EEEFEE"/>
<path opacity="0.5" d="M30.2201 17.4791H30.0781L31.6742 13.0079H31.8167L30.2201 17.4791Z" fill="#EEEFEE"/>
<path opacity="0.5" d="M31.2721 17.4791H30.4453L32.0414 13.0079H32.8682L31.2721 17.4791Z" fill="#EEEFEE"/>
<path opacity="0.5" d="M30.2201 11.0387H30.0781L31.6742 6.56738H31.8167L30.2201 11.0387Z" fill="#EEEFEE"/>
<path opacity="0.5" d="M31.2721 11.0387H30.4453L32.0414 6.56738H32.8682L31.2721 11.0387Z" fill="#EEEFEE"/>
<path opacity="0.5" d="M20.1671 1.89661L18.73 4.36297H18.2832L19.7119 1.89661H20.1671Z" fill="#EEEFEE"/>
<path opacity="0.5" d="M23.3593 1.89661L21.9309 4.36297H19.6797L21.1085 1.89661H23.3593Z" fill="#EEEFEE"/>
<path opacity="0.5" d="M20.1671 6.33423L18.73 8.8001H18.2832L19.7119 6.33423H20.1671Z" fill="#EEEFEE"/>
<path opacity="0.5" d="M23.3593 6.33423L21.9309 8.8001H19.6797L21.1085 6.33423H23.3593Z" fill="#EEEFEE"/>
<path opacity="0.5" d="M20.1671 10.7712L18.73 13.2376H18.2832L19.7119 10.7712H20.1671Z" fill="#EEEFEE"/>
<path opacity="0.5" d="M23.3593 10.7712L21.9309 13.2376H19.6797L21.1085 10.7712H23.3593Z" fill="#EEEFEE"/>
<path opacity="0.5" d="M20.1671 15.2084L18.73 17.6747H18.2832L19.7119 15.2084H20.1671Z" fill="#EEEFEE"/>
<path opacity="0.5" d="M23.3593 15.2084L21.9309 17.6747H19.6797L21.1085 15.2084H23.3593Z" fill="#EEEFEE"/>
<path opacity="0.5" d="M20.1671 19.6459L18.73 22.1117H18.2832L19.7119 19.6459H20.1671Z" fill="#EEEFEE"/>
<path opacity="0.5" d="M23.3593 19.6459L21.9309 22.1117H19.6797L21.1085 19.6459H23.3593Z" fill="#EEEFEE"/>
<path opacity="0.5" d="M20.1671 24.083L18.73 26.5493H18.2832L19.7119 24.083H20.1671Z" fill="#EEEFEE"/>
<path opacity="0.5" d="M23.3593 24.083L21.9309 26.5493H19.6797L21.1085 24.083H23.3593Z" fill="#EEEFEE"/>
<path opacity="0.5" d="M7.22399 36.7996H7.08203L8.67813 32.3284H8.8205L7.22399 36.7996Z" fill="#EEEFEE"/>
<path opacity="0.5" d="M8.27611 36.7996H7.44922L9.04532 32.3284H9.87221L8.27611 36.7996Z" fill="#EEEFEE"/>
<path opacity="0.5" d="M7.22399 30.3591H7.08203L8.67813 25.8884H8.8205L7.22399 30.3591Z" fill="#EEEFEE"/>
<path opacity="0.5" d="M8.27611 30.3591H7.44922L9.04532 25.8884H9.87221L8.27611 30.3591Z" fill="#EEEFEE"/>
<path opacity="0.5" d="M7.22399 23.9191H7.08203L8.67813 19.4479H8.8205L7.22399 23.9191Z" fill="#EEEFEE"/>
<path opacity="0.5" d="M8.27611 23.9191H7.44922L9.04532 19.4479H9.87221L8.27611 23.9191Z" fill="#EEEFEE"/>
<path opacity="0.5" d="M7.22399 17.4791H7.08203L8.67813 13.0079H8.8205L7.22399 17.4791Z" fill="#EEEFEE"/>
<path opacity="0.5" d="M8.27611 17.4791H7.44922L9.04532 13.0079H9.87221L8.27611 17.4791Z" fill="#EEEFEE"/>
<path opacity="0.5" d="M7.22399 11.0387H7.08203L8.67813 6.56738H8.8205L7.22399 11.0387Z" fill="#EEEFEE"/>
<path opacity="0.5" d="M8.27611 11.0387H7.44922L9.04532 6.56738H9.87221L8.27611 11.0387Z" fill="#EEEFEE"/>
<path d="M3.50195 37.941H36.4971V40.0001H3.50195V37.941Z" fill="#BBBBCD"/>
<path d="M19.3838 28.1239H20.616V37.9278H19.3838V28.1239Z" fill="#EEEFEE"/>
</g>
<defs>
<clipPath id="clip0">
<rect width="40" height="40" fill="white"/>
</clipPath>
</defs>
</svg>
