<svg width="60" height="60" viewBox="0 0 60 60" fill="none" xmlns="http://www.w3.org/2000/svg">
<g opacity="0.5" clip-path="url(#clip0)">
<path d="M49.0648 54.6483V23.7485C49.0648 22.3697 47.9474 21.2519 46.5687 21.2512H6.63496C5.25578 21.2512 4.1377 22.3693 4.1377 23.7485V54.6483H49.0648Z" fill="#F4FBFF"/>
<path d="M53.3653 21.2512H45.7236C47.1028 21.2512 48.2209 22.3693 48.2209 23.7485V54.6483H55.8626V23.7485C55.8626 22.3693 54.7445 21.2512 53.3653 21.2512Z" fill="#E4F6FF"/>
<path d="M49.0651 26.0781H10.6226C9.70699 26.0781 8.96484 26.8203 8.96484 27.7359V53.1201H49.0651V26.0781Z" fill="#CBE2FF"/>
<path d="M51.0355 53.1201V27.7357C51.0355 26.8202 50.2934 26.078 49.3778 26.078H48.2207V53.12H51.0355V53.1201Z" fill="#BED8FB"/>
<path d="M52.7977 56.0595V53.1201H1.51203C0.68457 53.1201 0.0136719 53.7909 0.0136719 54.6185C0.0136719 57.5906 2.42305 60 5.39527 60H48.8585C51.0342 59.9993 52.7977 58.2354 52.7977 56.0595V56.0595Z" fill="#D8E2F1"/>
<path d="M58.4882 53.1201H52.3447V56.0595C52.3447 58.2358 50.5806 60 48.4043 60H54.6049C57.577 60 59.9865 57.5906 59.9865 54.6184C59.9865 53.7909 59.3156 53.1201 58.4882 53.1201Z" fill="#B9CBEA"/>
<path d="M20.8623 53.1201C20.8623 55.02 22.4024 56.56 24.3022 56.56H35.698C37.5978 56.56 39.1379 55.02 39.1379 53.1201H20.8623Z" fill="#B9CBEA"/>
<path d="M24.56 7.56152H18.4991C15.5052 7.56152 13.0781 9.98859 13.0781 12.9825V18.2114L14.1641 19.0011H25.032V8.35934L24.56 7.56152Z" fill="#EFC984"/>
<path d="M36.4572 35.8255L28.7083 33.5505H16.5777L8.82594 35.8257C6.0473 36.6412 4.13867 39.1907 4.13867 42.0865V53.1204H41.144V42.0861C41.144 39.1904 39.2356 36.6411 36.4572 35.8255V35.8255Z" fill="#4A80AA"/>
<path d="M36.4573 35.8255L28.7084 33.5505H22.6758L22.7307 36.6187L28.8156 38.5001C31.594 39.3157 33.5024 41.865 33.5024 44.7607V53.1203H41.144V42.086C41.144 39.1904 39.2356 36.6411 36.4573 35.8255V35.8255Z" fill="#407093"/>
<path d="M23.8235 41.0531H21.4589L19.3232 53.102L19.333 53.1201H25.9636L23.8235 41.0531Z" fill="#DD636E"/>
<path d="M26.8966 34.0584V27.2152H18.3818V34.0584C18.3818 36.4096 22.6393 36.6186 22.6393 36.6186C22.6393 36.6186 26.8966 36.4096 26.8966 34.0584V34.0584Z" fill="#FFDDCE"/>
<path d="M35.8931 53.1199V49.343C35.8931 48.8431 35.488 48.438 34.9881 48.438C34.4881 48.438 34.083 48.8431 34.083 49.343V53.1199H35.8931Z" fill="#365E7D"/>
<path d="M29.8458 10.7125H29.7665C29.3271 10.7125 28.971 10.3563 28.971 9.91699C28.971 8.61609 27.9164 7.56152 26.6155 7.56152H24.5596V19.0011H31.1153L32.2013 18.2114V13.0679C32.2013 11.767 31.1467 10.7125 29.8458 10.7125V10.7125Z" fill="#EABC6B"/>
<path d="M16.723 33.0965L15.5104 33.6408C14.8183 33.9516 14.6512 34.8589 15.1873 35.3959L18.5453 38.759C18.9712 39.1736 19.6417 39.1992 20.098 38.8181L22.731 36.6186L18.2418 33.2641C17.8035 32.9365 17.2221 32.8724 16.723 33.0965V33.0965Z" fill="#365E7D"/>
<path d="M27.0364 33.285L22.7314 36.6185L25.2063 38.7346C25.6597 39.1222 26.3333 39.1028 26.7635 38.6894L30.1231 35.4177C30.6723 34.883 30.5082 33.9628 29.808 33.6507L28.5719 33.1C28.0651 32.8742 27.4752 32.9453 27.0364 33.285V33.285Z" fill="#365E7D"/>
<path d="M22.7306 36.6188L20.1377 38.7843L21.4589 41.0533H23.8235L25.1446 38.6857L22.7306 36.6188Z" fill="#E28086"/>
<path d="M50.092 0H42.3689C40.9025 0 39.7139 1.18863 39.7139 2.655V9.41461C39.7139 10.6921 40.6161 11.7584 41.818 12.012C41.8703 12.023 41.9089 12.0396 41.95 12.0696L42.3437 12.3311H46.5267L46.8057 12.0696H50.092C51.5584 12.0696 52.747 10.881 52.747 9.41461V2.655C52.747 1.18863 51.5582 0 50.092 0V0Z" fill="#E28086"/>
<path d="M42.1173 12.3884V15.8259C42.1173 16.2432 42.6218 16.4522 42.9169 16.1571L46.8911 12.1829C46.9636 12.1104 47.062 12.0696 47.1647 12.0696H41.9502C42.0524 12.1399 42.1173 12.2585 42.1173 12.3884V12.3884Z" fill="#DD636E"/>
<path d="M57.0304 0H49.3887C50.855 0 52.0437 1.18863 52.0437 2.655V9.41461C52.0437 10.881 50.855 12.0696 49.3887 12.0696H57.0304C58.4967 12.0696 59.6854 10.881 59.6854 9.41461V2.655C59.6852 1.18863 58.4966 0 57.0304 0V0Z" fill="#DD636E"/>
<path d="M11.1948 53.1201V49.3433C11.1948 48.8433 10.7897 48.4382 10.2898 48.4382C9.78988 48.4382 9.38477 48.8433 9.38477 49.3433V53.1201H11.1948Z" fill="#365E7D"/>
<path d="M25.0311 22.9718V14.4547C22.9019 14.8591 20.695 14.7186 18.6198 14.0331L18.6167 14.032C17.4972 13.6622 16.3438 14.4958 16.3438 15.6749V16.5722C16.3438 17.4773 15.6099 18.2111 14.7048 18.2111H13.0771V20.8913C13.0771 21.5762 13.6324 22.1314 14.3172 22.1314C14.5333 22.1314 14.7091 22.3008 14.7227 22.5164C14.9523 26.1567 17.6352 29.131 21.1374 29.802C23.4402 28.3874 24.9874 25.8625 25.0311 22.9718V22.9718Z" fill="#FFDDCE"/>
<path d="M30.5729 18.2114C29.6677 18.2114 28.9339 17.4776 28.9339 16.5724V15.6754C28.9339 14.4963 27.7803 13.6626 26.6608 14.0327C25.9721 14.2603 25.2687 14.4262 24.5588 14.5338V22.8558C24.5146 25.7758 22.8929 28.3119 20.5088 29.6529C21.1867 29.8415 21.9005 29.9443 22.6387 29.9443C26.8503 29.9443 30.2935 26.6624 30.5549 22.5167C30.5685 22.3011 30.7444 22.1318 30.9604 22.1318C31.6452 22.1318 32.2005 21.5765 32.2005 20.8917V18.2115H30.5729V18.2114Z" fill="#FFCBBE"/>
</g>
<defs>
<clipPath id="clip0">
<rect width="60" height="60" fill="white"/>
</clipPath>
</defs>
</svg>
