<svg width="40" height="40" viewBox="0 0 40 40" fill="none" xmlns="http://www.w3.org/2000/svg">
<path d="M31.0348 28.9654H20.7015V23.4704C20.7015 23.0896 20.393 22.7808 20.0118 22.7808C19.6306 22.7808 19.3221 23.0896 19.3221 23.4704V28.9654H8.96585C7.06453 28.9654 5.51758 30.5124 5.51758 32.4137V36.5517C5.51758 36.9325 5.82601 37.2414 6.20726 37.2414C6.58851 37.2414 6.89695 36.9325 6.89695 36.5517V32.4137C6.89695 31.2729 7.82507 30.3447 8.96593 30.3447H19.3222V36.5516C19.3222 36.9324 19.6307 37.2413 20.0119 37.2413C20.3931 37.2413 20.7016 36.9324 20.7016 36.5516V30.3447H31.035C32.1758 30.3447 33.1039 31.2729 33.1039 32.4137V36.5517C33.1039 36.9325 33.4124 37.2414 33.7936 37.2414C34.1748 37.2414 34.4833 36.9325 34.4833 36.5517V32.4137C34.4831 30.5125 32.936 28.9654 31.0348 28.9654Z" fill="#B9CBEA"/>
<path d="M23.6663 16.7048V13.853H16.333V16.7048L19.9996 19.964L23.6663 16.7048Z" fill="#E6AF78"/>
<path d="M29.3359 18.0389L24.2946 16.8527C24.2185 16.8348 24.1485 16.8045 24.0829 16.7676L19.9998 19.1494L16.0758 16.6523C15.9742 16.748 15.8482 16.8191 15.7049 16.8528L10.6636 18.039C9.92754 18.2122 9.40723 18.8691 9.40723 19.6253V22.8161C9.40723 23.2661 9.77207 23.6309 10.2221 23.6309H29.7775C30.2275 23.6309 30.5923 23.2661 30.5923 22.8161V19.6253C30.5923 18.869 30.072 18.2121 29.3359 18.0389Z" fill="#707487"/>
<path d="M16.333 13.8531V16.862C20.952 18.5261 23.6663 14.3612 23.6663 14.3612V13.853H16.333V13.8531Z" fill="#D29B6E"/>
<path d="M14.7041 4.48267L15.0591 12.2932C15.0923 13.0229 15.45 13.6995 16.0343 14.1377L17.7188 15.4011C18.1419 15.7184 18.6565 15.89 19.1854 15.89H20.8151C21.344 15.89 21.8586 15.7184 22.2818 15.4011L23.9662 14.1377C24.5505 13.6994 24.9082 13.0229 24.9414 12.2932L25.2964 4.48267H14.7041V4.48267Z" fill="#F0C087"/>
<path d="M18.7782 6.11235C20.4078 6.11235 22.8522 5.70493 23.432 4.48267H14.7041L15.0591 12.2932C15.0923 13.0229 15.45 13.6995 16.0343 14.1377L17.7188 15.4011C18.1419 15.7184 18.6565 15.89 19.1854 15.89H20.0003C19.1855 15.89 17.556 14.2603 17.556 12.2234C17.556 11.227 17.556 8.55672 17.556 7.33446C17.556 6.92719 17.9634 6.11235 18.7782 6.11235Z" fill="#E6AF78"/>
<path d="M27.6016 20.9867L30.2415 18.6152C30.4627 18.8953 30.5924 19.2478 30.5924 19.6252V22.8159C30.5924 23.2659 30.2276 23.6308 29.7776 23.6308H26.9258V22.5022C26.9258 21.924 27.1715 21.3731 27.6016 20.9867Z" fill="#5B5D6E"/>
<path d="M12.3981 20.9867L9.75816 18.6152C9.53699 18.8953 9.40723 19.2478 9.40723 19.6252V22.8159C9.40723 23.2659 9.77207 23.6308 10.2221 23.6308H13.0739V22.5022C13.0739 21.924 12.8282 21.3731 12.3981 20.9867Z" fill="#5B5D6E"/>
<path d="M21.0185 23.6307H18.9814L19.2361 19.9641H20.7639L21.0185 23.6307Z" fill="#5B5D6E"/>
<path d="M21.0184 19.1492H18.9814V19.6003C18.9814 20.0261 19.3266 20.3713 19.7525 20.3713H20.2474C20.6732 20.3713 21.0184 20.0261 21.0184 19.6003V19.1492Z" fill="#515262"/>
<path d="M16.2763 15.7978L20.0001 19.1492C20.0001 19.1492 18.9573 19.6757 17.6703 20.7368C17.4048 20.9557 17.0033 20.8669 16.8609 20.5537L15.1113 16.7048L15.6648 15.8746C15.8026 15.6679 16.0916 15.6315 16.2763 15.7978Z" fill="#5B5D6E"/>
<path d="M23.7239 15.7978L20 19.1492C20 19.1492 21.0428 19.6757 22.3298 20.7368C22.5954 20.9557 22.9969 20.8669 23.1393 20.5537L24.8889 16.7048L24.3355 15.8746C24.1976 15.6679 23.9084 15.6315 23.7239 15.7978Z" fill="#5B5D6E"/>
<path d="M22.4697 1.78361L22.8517 4.48266C24.5951 4.83134 24.8464 7.56742 24.8826 8.34899C24.8892 8.49078 24.9345 8.62781 25.0114 8.74711L25.6766 9.77898C25.6766 9.77898 25.4489 8.07297 26.4914 6.92719C26.4914 6.92711 26.8493 0.154001 22.4697 1.78361Z" fill="#785550"/>
<path d="M26.085 9.60461L25.6249 11.4449C25.5705 11.663 25.3745 11.8159 25.1498 11.8159C24.9028 11.8159 24.6945 11.6319 24.6638 11.3869L24.4285 9.50461C24.3656 9.00125 24.7581 8.55664 25.2653 8.55664H25.267C25.8155 8.5568 26.2181 9.07234 26.085 9.60461Z" fill="#F0C087"/>
<path d="M15.0937 1.05374L15.6963 1.46538C12.9718 3.47694 13.4811 6.92709 13.4811 6.92709C14.2959 7.74194 14.2959 9.77888 14.2959 9.77888L15.1107 8.96404C15.1107 8.96404 14.7963 6.61038 16.333 5.70483C17.7589 4.8646 19.0066 5.29741 20.2797 5.29741C23.6917 5.29741 24.6466 4.01155 24.4811 2.44562C24.3953 1.63538 23.1566 -0.0523468 19.9996 0.00124682C18.7255 0.0229655 16.3329 0.408668 15.0937 1.05374Z" fill="#694B4B"/>
<path d="M14.8561 4.94103C14.8561 4.94103 14.4232 3.23502 15.6963 1.46533C12.9718 3.47689 13.4811 6.92704 13.4811 6.92704C14.2959 7.74188 14.2959 9.77883 14.2959 9.77883L15.1107 8.96399C15.1107 8.96399 14.7963 6.61032 16.333 5.70478C17.7589 4.86454 19.0066 5.29736 20.2797 5.29736C20.8346 5.29736 21.3182 5.26017 21.7489 5.1965C19.1211 5.2847 17.5721 3.29439 14.8561 4.94103Z" fill="#5A4146"/>
<path d="M13.9143 9.60461L14.3744 11.4449C14.4288 11.663 14.6248 11.8159 14.8495 11.8159C15.0965 11.8159 15.3048 11.6319 15.3355 11.3869L15.5708 9.50461C15.6337 9.00125 15.2412 8.55664 14.734 8.55664H14.7323C14.1837 8.5568 13.7812 9.07234 13.9143 9.60461Z" fill="#E6AF78"/>
<path d="M25.0672 22.8159H22.6737C22.3222 22.8159 22.0371 23.1009 22.0371 23.4526V23.6308H25.7037V23.4526C25.7037 23.1009 25.4187 22.8159 25.0672 22.8159Z" fill="#5B5D6E"/>
<path d="M22.7587 40H17.2414C16.8606 40 16.5518 39.6912 16.5518 39.3104V36.5518C16.5518 36.1709 16.8606 35.8621 17.2414 35.8621H22.7587C23.1396 35.8621 23.4484 36.1709 23.4484 36.5518V39.3104C23.4483 39.6912 23.1396 40 22.7587 40Z" fill="#FFD782"/>
<path d="M21.3789 38.6206H18.6204C18.2395 38.6206 17.9307 38.3118 17.9307 37.9309C17.9307 37.55 18.2395 37.2412 18.6204 37.2412H21.3789C21.7598 37.2412 22.0686 37.55 22.0686 37.9309C22.0686 38.3118 21.7598 38.6206 21.3789 38.6206Z" fill="#FFC36E"/>
<path d="M36.5517 40H31.0344C30.6536 40 30.3447 39.6912 30.3447 39.3104V36.5518C30.3447 36.1709 30.6536 35.8621 31.0344 35.8621H36.5517C36.9325 35.8621 37.2414 36.1709 37.2414 36.5518V39.3104C37.2414 39.6912 36.9325 40 36.5517 40Z" fill="#C3E678"/>
<path d="M35.1719 38.6206H32.4133C32.0325 38.6206 31.7236 38.3118 31.7236 37.9309C31.7236 37.55 32.0325 37.2412 32.4133 37.2412H35.1719C35.5528 37.2412 35.8616 37.55 35.8616 37.9309C35.8616 38.3118 35.5528 38.6206 35.1719 38.6206Z" fill="#A5D76E"/>
<path d="M8.96573 40H3.44848C3.06762 40 2.75879 39.6912 2.75879 39.3104V36.5518C2.75879 36.1709 3.06762 35.8621 3.44848 35.8621H8.96573C9.34659 35.8621 9.65542 36.1709 9.65542 36.5518V39.3104C9.65534 39.6912 9.34659 40 8.96573 40Z" fill="#FF6464"/>
<path d="M7.58597 38.6206H4.82738C4.44652 38.6206 4.1377 38.3118 4.1377 37.9309C4.1377 37.55 4.44652 37.2412 4.82738 37.2412H7.58597C7.96683 37.2412 8.27566 37.55 8.27566 37.9309C8.27558 38.3118 7.96683 38.6206 7.58597 38.6206Z" fill="#D2555A"/>
</svg>
