<svg width="40" height="40" viewBox="0 0 40 40" fill="none" xmlns="http://www.w3.org/2000/svg">
<path d="M39.9995 19.9994C39.9995 25.393 37.8639 30.2879 34.3925 33.8852C33.8113 34.4872 33.1928 35.0536 32.5405 35.5792C31.5031 36.4154 30.3798 37.151 29.1871 37.7695C29.1863 37.7703 29.1854 37.7703 29.1845 37.7712C28.5461 38.1008 27.8877 38.3974 27.212 38.6595C27.2112 38.6603 27.2112 38.6595 27.2112 38.6595C24.9741 39.5252 22.5427 39.9996 20.0002 39.9996C16.9807 39.9996 14.1182 39.3309 11.5515 38.132C9.73336 37.2837 8.06531 36.1699 6.59414 34.8419L6.59328 34.841C6.25414 34.5339 5.92625 34.2165 5.60875 33.8877L5.60789 33.8869C2.13555 30.2897 2.04482e-09 25.3939 2.04482e-09 19.9994C-0.000156248 8.95359 8.9543 0 20.0002 0C31.0451 0 39.9995 8.95359 39.9995 19.9994Z" fill="#27536B"/>
<path d="M34.854 16.1926L38.6195 15.7764L34.854 15.3601L34.4377 11.5945L34.0214 15.3601L30.2559 15.7764L34.0214 16.1926L34.4377 19.9582L34.854 16.1926Z" fill="white"/>
<path d="M36.7422 25.3292C36.7422 28.4554 35.8852 31.3812 34.3932 33.8855C30.757 37.6553 25.6521 40 20.0009 40C14.3496 40 9.24566 37.6562 5.60855 33.8873C4.88855 32.6789 4.31605 31.3717 3.91707 29.9916C3.55012 28.727 3.33066 27.4006 3.27348 26.0319C3.27262 26.0102 3.27176 25.9885 3.2709 25.9668C3.26309 25.7552 3.25879 25.5427 3.25879 25.3292C3.25879 24.5867 3.30738 23.8555 3.40105 23.139C3.53465 22.1154 3.7602 21.1213 4.0698 20.1655C6.24707 13.4464 12.5567 8.58789 20.001 8.58789C20.9187 8.58789 21.8182 8.66164 22.6952 8.80391C24.7224 9.1318 26.6272 9.82312 28.3413 10.8102C32.8441 13.4021 36.0275 18.029 36.6356 23.4356C36.7067 24.0567 36.7422 24.6891 36.7422 25.3292Z" fill="#51BEE5"/>
<path d="M32.5404 35.5793C29.1105 38.3447 24.7483 39.9997 20 39.9997C14.3496 39.9997 9.24562 37.6559 5.60852 33.8878L5.60766 33.887C4.21719 31.5536 3.37836 28.8533 3.26992 25.9665C3.26211 25.7548 3.25781 25.5423 3.25781 25.3289C3.25781 24.5864 3.30641 23.8552 3.40008 23.1387C3.53367 22.1151 3.75922 21.121 4.06883 20.1652C5.21992 16.6139 7.52469 13.5823 10.5424 11.5126C9.64375 12.8216 8.92726 14.2649 8.42766 15.8063C8.11797 16.7623 7.89242 17.7563 7.75891 18.7798C7.66523 19.4963 7.61664 20.2276 7.61664 20.9701C7.61664 21.1834 7.62102 21.396 7.62875 21.6077C7.76406 25.2196 9.04351 28.5402 11.1158 31.2144C12.4542 32.9414 14.1223 34.3995 16.0262 35.4943C18.4802 36.9048 21.3254 37.7114 24.3587 37.7114C27.3297 37.7115 30.1211 36.9369 32.5404 35.5793Z" fill="#3EAECC"/>
<path d="M22.6947 8.80346L21.9634 10.0864C21.9634 10.0864 20.4203 12.5229 18.2274 12.9289C16.0345 13.3349 15.8723 13.4971 15.3441 14.0253C14.8166 14.5528 13.9232 14.6342 13.9232 13.6602C13.9232 12.6852 14.5729 11.7917 13.4765 12.2385C12.3801 12.6852 11.5681 12.9289 12.3801 13.7409C13.192 14.5528 10.9991 14.0662 11.4059 15.3656C11.8119 16.6649 12.197 16.8471 11.6089 17.4361C11.0199 18.0251 10.6747 17.1516 10.0658 17.1516C9.45602 17.1516 9.9643 18.1465 9.5375 18.5733C9.22781 18.883 8.36125 18.5499 7.73844 18.9515C7.50422 19.1024 7.30469 19.3583 7.18242 19.7912C6.83281 21.0307 5.6618 22.0968 4.39016 22.7353C4.06312 22.8992 3.72914 23.0354 3.40039 23.1386C3.53398 22.115 3.75953 21.121 4.06914 20.1651C5.22023 16.6139 7.525 13.5822 10.5419 11.5134C10.5427 11.5134 10.5427 11.5125 10.5427 11.5125C13.2335 9.66752 16.4907 8.58752 20.0003 8.58752C20.9182 8.58745 21.8177 8.6612 22.6947 8.80346Z" fill="#35BC58"/>
<path d="M13.5637 33.7654C13.6747 34.4428 14.0781 35.4941 13.5377 36.0346C12.9183 36.654 12.1472 36.4917 11.69 37.4155C11.5677 37.6636 11.5382 37.9022 11.5521 38.132C9.73402 37.2837 8.06598 36.1699 6.5948 34.8419L6.59395 34.841C6.14465 33.3785 5.24855 33.3924 4.94934 32.0141C4.64832 30.6297 4.39246 28.062 3.2709 25.9663C3.26309 25.7547 3.25879 25.5422 3.25879 25.3288C3.25879 24.5863 3.30738 23.855 3.40105 23.1385C3.53465 22.1149 3.7602 21.1209 4.0698 20.165C4.37949 20.0288 4.58418 19.9542 4.58418 19.9542L4.62496 21.9034C4.62496 21.9034 4.50004 22.2373 4.39074 22.7352C4.17559 23.712 4.02207 25.321 4.99012 26.2891C5.39605 26.695 5.96426 26.0453 6.69551 26.3698C7.20121 26.5945 8.30027 27.2962 9.11043 27.8886C9.47129 28.1514 9.77488 28.3934 9.94402 28.5626C10.4922 29.1108 10.2086 29.5575 10.9598 29.9435C11.711 30.3295 14.2083 31.0399 14.2083 31.9334C14.2083 32.8268 13.5378 32.8667 13.5378 33.4965C13.5377 33.5762 13.5472 33.6665 13.5637 33.7654Z" fill="#35BC58"/>
<path d="M36.6357 23.4352C36.4032 23.6746 35.6512 24.47 35.4456 24.9489C35.2019 25.517 34.1463 25.2325 34.4307 25.923C34.7152 26.6135 34.8366 28.1566 33.984 29.0093C33.1313 29.862 32.7253 30.5933 32.7253 31.8927C32.7253 33.1922 31.7503 34.6945 30.7146 36.1361C30.6019 36.2932 30.4778 36.4519 30.3451 36.6089C29.9981 37.0226 29.5939 37.4268 29.188 37.7695C29.1871 37.7704 29.1863 37.7704 29.1854 37.7712C28.547 38.1008 27.8886 38.3975 27.2129 38.6595C27.212 38.6604 27.212 38.6595 27.212 38.6595C27.1782 38.6422 27.1478 38.6196 27.1209 38.5927C26.9449 38.4166 26.7488 38.0375 26.5624 37.5674C26.1486 36.523 25.7816 35.0293 25.7816 34.3293C25.7816 33.3135 26.3091 33.0697 26.3091 32.1772C26.3091 31.2837 25.4564 31.04 25.4564 30.1873C25.4564 29.3347 24.9689 28.8879 24.5222 28.4412C24.0755 27.9945 22.5332 29.1317 21.5582 29.1317C20.5832 29.1317 19.3246 27.7915 18.7156 26.8165C18.1067 25.8424 18.2888 22.5323 19.5275 21.6189C20.7662 20.7054 21.1114 19.7105 21.1114 19.7105C19.5275 18.6947 20.787 16.9087 21.3144 16.3804C21.8427 15.8522 23.3858 16.0959 23.7102 15.7715C24.0356 15.4462 23.7102 14.8781 23.7102 14.3099C23.7102 13.7408 24.8066 13.2135 25.6186 12.929C26.4314 12.6444 27.8115 11.2635 27.8115 11.2635L28.3415 10.8098C32.8442 13.4017 36.0277 18.0286 36.6357 23.4352Z" fill="#35BC58"/>
<path d="M13.5377 36.0346C12.9183 36.654 12.1472 36.4917 11.69 37.4156C11.5677 37.6636 11.5382 37.9022 11.5521 38.1321C9.73402 37.2837 8.06512 36.1699 6.59395 34.841C6.14465 33.3785 5.24855 33.3924 4.94934 32.0141C4.64832 30.6297 4.39246 28.0621 3.2709 25.9664C3.26309 25.7547 3.25879 25.5422 3.25879 25.3288C3.25879 24.5863 3.30738 23.855 3.40105 23.1385C3.53465 22.1149 3.7602 21.1209 4.0698 20.165C5.2209 16.6138 7.52566 13.5821 10.5425 11.5133C9.64473 12.8223 8.92824 14.2648 8.42863 15.8062C8.11894 16.7621 7.8934 17.7562 7.75988 18.7797C7.75207 18.837 7.74512 18.8942 7.7391 18.9514C7.50488 19.1024 7.30535 19.3582 7.18309 19.7911C6.83348 21.0307 5.66246 22.0967 4.39082 22.7352C4.17566 23.7119 4.02215 25.321 4.9902 26.289C5.39613 26.6949 5.96434 26.0453 6.69559 26.3697C7.20129 26.5944 8.30035 27.2961 9.11051 27.8885C9.6509 29.0786 10.3257 30.1933 11.1168 31.2142C11.8411 32.1485 12.6618 33.0038 13.5639 33.7653C13.6747 34.4429 14.0781 35.4942 13.5377 36.0346Z" fill="#28A044"/>
<path d="M30.3453 36.6089C29.9984 37.0226 29.5941 37.4269 29.1882 37.7695C29.1882 37.7695 29.1882 37.7695 29.1873 37.7704C28.548 38.1 27.8897 38.3976 27.213 38.6595C27.2122 38.6604 27.2122 38.6595 27.2122 38.6595C27.1784 38.6422 27.148 38.6196 27.1211 38.5927C26.945 38.4166 26.749 38.0376 26.5625 37.5674C27.8774 37.3947 29.1448 37.0694 30.3453 36.6089Z" fill="#28A044"/>
<path d="M9.56109 6.9636L13.3267 6.54735L9.56109 6.1311L9.14477 2.36548L8.72844 6.1311L4.96289 6.54735L8.72844 6.9636L9.14477 10.7292L9.56109 6.9636Z" fill="white"/>
<path d="M22.0887 5.74423L22.6611 6.31665L23.2336 5.74423L22.6611 5.17181L22.0887 5.74423Z" fill="white"/>
<path d="M29.8651 7.09884L30.4375 7.67126L31.0099 7.09884L30.4375 6.52642L29.8651 7.09884Z" fill="white"/>
<path d="M37.8172 20.6527L38.3896 21.2251L38.9621 20.6527L38.3896 20.0802L37.8172 20.6527Z" fill="white"/>
<path d="M2.31137 17.5938L2.88379 18.1663L3.45621 17.5938L2.88379 17.0214L2.31137 17.5938Z" fill="white"/>
<path d="M18.4881 3.08017L19.0605 3.65259L19.633 3.08017L19.0605 2.50775L18.4881 3.08017Z" fill="white"/>
<path d="M23.8659 20.3381L21.0685 24.7168C21.0685 24.7168 11.4466 34.9629 3.51234 27.83C3.41484 27.7425 3.31766 27.6523 3.22078 27.5597C1.70688 26.1136 0.768907 24.1484 0.689376 22.0565C0.516251 17.5047 4.26149 14.074 7.81774 13.8472C6.77336 14.9531 5.87906 16.2022 5.16688 17.5615C4.93094 17.9145 4.75055 18.2944 4.62734 18.69C4.30555 19.7109 4.35844 20.8326 4.81297 21.8404C4.8225 21.8612 4.83203 21.8821 4.84156 21.9038C5.81133 24.0134 11.6517 28.1562 19.488 23.1355L23.8659 20.3381Z" fill="white"/>
<path d="M32.0371 16.9626C30.7923 15.7178 29.1859 15.3059 28.4492 16.0427C27.7124 16.7794 28.1243 18.3858 29.3691 19.6306C30.6139 20.8754 32.2203 21.2873 32.957 20.5505C33.6938 19.8138 33.2819 18.2074 32.0371 16.9626Z" fill="#6FDD89"/>
<path d="M22.1756 18.508L20.4987 18.4381L16.8652 21.7222L20.3938 22.1065" fill="#F77759"/>
<path d="M25.6961 22.0287L25.766 23.7056L22.482 27.3391L22.0977 23.8105" fill="#F77759"/>
<path d="M26.5877 21.7045C26.5364 21.7558 26.4845 21.8067 26.4331 21.857C24.9479 23.2961 23.3013 24.2508 21.8974 24.5879C21.6097 24.6576 21.3319 24.7005 21.0683 24.7168C20.9777 24.3463 20.7879 23.9951 20.4987 23.7058C20.2089 23.416 19.8578 23.2263 19.4873 23.1357C19.503 22.8779 19.5444 22.608 19.611 22.3276C19.9437 20.9194 20.9007 19.2635 22.347 17.771C22.3973 17.7197 22.4482 17.6678 22.4995 17.6164C22.7562 17.3596 23.0178 17.118 23.2835 16.8912C25.5128 14.9847 27.9706 14.1567 29.3787 14.8259C30.0479 16.2341 29.2194 18.6913 27.3129 20.9206C27.0861 21.1862 26.8445 21.4477 26.5877 21.7045Z" fill="#E6E6E6"/>
<path d="M24.4077 18.0152C24.153 18.2532 23.8968 18.4999 23.64 18.7568C23.5886 18.8081 23.5378 18.86 23.4869 18.9108C22.028 20.3908 20.8755 21.8512 20.243 22.9597C20.165 23.0965 20.0952 23.2269 20.0333 23.3516C19.8598 23.2536 19.676 23.1819 19.4873 23.1357C19.503 22.8779 19.5444 22.608 19.611 22.3276C19.9437 20.9194 20.9007 19.2635 22.347 17.771C22.3973 17.7197 22.4482 17.6678 22.4995 17.6164C22.7562 17.3596 23.0178 17.118 23.2835 16.8912C25.5128 14.9847 27.9706 14.1567 29.3787 14.8259C28.5503 14.7362 26.5468 16.0186 24.4077 18.0152Z" fill="#CCCCCC"/>
<path d="M21.8974 24.5878C21.6096 24.6575 21.3319 24.7004 21.0683 24.7167C20.9777 24.3462 20.7879 23.9951 20.4987 23.7058C20.2089 23.4159 19.8578 23.2262 19.4873 23.1356C19.503 22.8778 19.5444 22.6079 19.611 22.3275L19.6257 22.3159L21.8974 24.5878Z" fill="#27536B"/>
<path d="M26.5883 21.7045C26.537 21.7558 26.4851 21.8067 26.4337 21.857L22.3477 17.771C22.398 17.7196 22.4488 17.6678 22.5002 17.6163C22.7569 17.3596 23.0184 17.118 23.2841 16.8911L27.3136 20.9206C27.0866 21.1861 26.8451 21.4477 26.5883 21.7045Z" fill="#F77759"/>
<path d="M21.8146 22.809C20.5657 24.0579 20.0343 24.4016 19.9185 24.2859C19.8027 24.1701 20.1464 23.6387 21.3954 22.3898C22.6443 21.1409 23.7506 20.2223 23.8664 20.338C23.9822 20.4537 23.0635 21.5601 21.8146 22.809Z" fill="#F77759"/>
</svg>
