<svg width="26" height="26" viewBox="0 0 26 26" fill="none" xmlns="http://www.w3.org/2000/svg">
<path d="M16.9 17.9833V14.95H9.09999V17.9833L12.9999 21.45L16.9 17.9833Z" fill="#E6AF78"/>
<path d="M23.312 19.7496L17.7437 18.4239C17.6596 18.4039 17.5822 18.3699 17.51 18.3287L12.9998 20.991L8.66564 18.2C8.55336 18.3069 8.41422 18.3863 8.25607 18.424L2.68775 19.7498C1.87457 19.9433 1.3 20.6775 1.3 21.5229V25.0892C1.3 25.5921 1.70294 26 2.20004 26H23.8C24.297 26 24.7 25.5922 24.7 25.0892V21.5229C24.6998 20.6774 24.1251 19.9432 23.312 19.7496Z" fill="#8FB2C7"/>
<path d="M9.09999 14.95V18.3999C14.013 20.3079 16.9 15.5325 16.9 15.5325V14.95H9.09999Z" fill="#D29B6E"/>
<path d="M7.15001 5.19998L7.54223 13.656C7.57892 14.446 7.97402 15.1785 8.61943 15.6529L10.4801 17.0207C10.9475 17.3643 11.5159 17.55 12.1 17.55H13.9C14.4842 17.55 15.0527 17.3642 15.5199 17.0207L17.3806 15.6529C18.026 15.1785 18.4212 14.4459 18.4578 13.656L18.85 5.19998H7.15001Z" fill="#F0C087"/>
<path d="M11.7011 6.96424C13.5216 6.96424 16.2523 6.52325 16.9 5.19998H7.15001L7.54657 13.656C7.58368 14.446 7.98327 15.1785 8.63602 15.6529L10.5178 17.0207C10.9905 17.3643 11.5655 17.55 12.1562 17.55H13.0664C12.1562 17.55 10.3357 15.7857 10.3357 13.5803C10.3357 12.5017 10.3357 9.61067 10.3357 8.2874C10.3357 7.84642 10.7909 6.96424 11.7011 6.96424Z" fill="#E6AF78"/>
<path d="M21.5187 23.2587L24.3267 20.8C24.562 21.0905 24.7 21.4558 24.7 21.8471V25.1552C24.7 25.6217 24.312 26 23.8333 26H20.8V24.8299C20.8 24.2305 21.0612 23.6594 21.5187 23.2587Z" fill="white"/>
<path d="M4.48132 23.2587L1.67333 20.8C1.43803 21.0905 1.3 21.4558 1.3 21.8471V25.1552C1.3 25.6217 1.68802 26 2.16671 26H5.2V24.8299C5.2 24.2305 4.93883 23.6594 4.48132 23.2587Z" fill="white"/>
<path d="M13.975 25.675H12.025L12.2689 21.775H13.7313L13.975 25.675Z" fill="#5B5D6E"/>
<path d="M9.03918 17.6685L13 21.4648C13 21.4648 11.8908 22.0611 10.5219 23.2631C10.2395 23.5111 9.81234 23.4105 9.6609 23.0558L7.8 18.696L8.38873 17.7557C8.53538 17.5214 8.84284 17.4803 9.03918 17.6685Z" fill="white"/>
<path d="M16.9608 17.6685L13 21.4648C13 21.4648 14.1092 22.0611 15.4781 23.2631C15.7605 23.5111 16.1877 23.4105 16.3391 23.0558L18.2 18.696L17.6113 17.7557C17.4647 17.5214 17.1573 17.4803 16.9608 17.6685Z" fill="white"/>
<path d="M15.6 2.2292L16.0314 5.20695C18.0004 5.59165 18.2841 8.61014 18.325 9.47236C18.3325 9.62877 18.3836 9.78 18.4705 9.91158L19.2218 11.05C19.2218 11.05 18.9646 9.1678 20.1421 7.90378C20.1419 7.90378 20.5461 0.431352 15.6 2.2292Z" fill="#785550"/>
<path d="M20.1204 10.3539L19.5891 12.5561C19.5262 12.8169 19.3 13 19.0405 13C18.7553 13 18.5147 12.78 18.4793 12.4866L18.2077 10.2343C18.135 9.63196 18.5882 9.10001 19.1738 9.10001H19.1758C19.8093 9.09989 20.2741 9.71696 20.1204 10.3539Z" fill="#F0C087"/>
<path d="M5.87956 10.3539L6.41087 12.5561C6.47383 12.8169 6.70003 13 6.95951 13C7.24474 13 7.48527 12.78 7.52074 12.4866L7.79234 10.2343C7.865 9.63196 7.41179 9.10001 6.82619 9.10001H6.82422C6.19067 9.09989 5.72591 9.71696 5.87956 10.3539Z" fill="#E6AF78"/>
<path d="M7.69361 1.19059L8.36679 1.65573C5.3233 3.92883 5.8921 7.82752 5.8921 7.82752C6.80235 8.7483 6.80235 11.05 6.80235 11.05L7.7126 10.1292C7.7126 10.1292 7.36131 7.46946 9.07799 6.44637C10.6708 5.49688 12.0646 5.98609 13.4867 5.98609C17.2982 5.98609 18.3649 4.53303 18.1801 2.76361C18.0844 1.84793 16.7005 -0.0591902 13.174 0.00141077C11.7506 0.025832 9.07799 0.461798 7.69361 1.19059Z" fill="#694B4B"/>
<path d="M7.3979 5.10452C7.3979 5.10452 6.92365 3.23709 8.31854 1.30002C5.3334 3.50191 5.89129 7.27848 5.89129 7.27848C6.78409 8.17041 6.78409 10.4 6.78409 10.4L7.6769 9.50809C7.6769 9.50809 7.33234 6.93164 9.01599 5.94059C10.5783 5.02084 11.9453 5.49474 13.3402 5.49474C13.9482 5.49474 14.478 5.45399 14.95 5.38434C12.071 5.48083 10.3738 3.30226 7.3979 5.10452Z" fill="#5A4146"/>
<path d="M13.975 20.475H12.025V20.7253C12.025 21.3051 12.448 21.775 12.9696 21.775H13.0302C13.552 21.775 13.9748 21.305 13.9748 20.7253V20.475H13.975Z" fill="#515262"/>
</svg>
