<svg width="594" height="328" viewBox="0 0 594 328" fill="none" xmlns="http://www.w3.org/2000/svg">
<g clip-path="url(#clip0)">
<path opacity="0.25" d="M527.518 167.42C527.611 184.302 526.497 199.791 524.361 213.519C524.176 214.539 524.083 215.559 523.897 216.58C522.783 223.258 521.483 229.473 519.904 235.223C519.626 236.244 519.347 237.171 519.069 238.099C513.219 258.597 504.862 272.417 496.041 277.519H122.963C122.963 277.519 91.1148 249.971 84.8008 210.644C84.6151 209.623 84.5223 208.603 84.3366 207.583C81.8296 188.012 85.8222 165.658 103 142.47C110.799 131.896 121.106 124.568 132.991 119.467C133.919 119.096 134.848 118.725 135.776 118.354C153.325 111.49 173.939 109.357 194.645 108.986C195.666 108.986 196.78 108.986 197.801 108.986C210.151 108.893 222.407 109.449 234.014 109.913C235.128 110.006 236.242 110.006 237.263 110.099C256.112 110.933 273.011 111.49 285.361 109.264C286.475 109.078 287.589 108.8 288.611 108.522C302.26 105.183 308.945 97.4841 304.117 80.8812C294.739 48.6957 304.302 25.0436 325.194 12.058C326.216 11.4088 327.33 10.7595 328.444 10.1102C340.236 3.71022 355.185 0.371094 371.991 0.371094C373.199 0.371094 374.406 0.371092 375.613 0.463846C389.912 0.927614 405.604 3.71023 421.853 9.08994C430.581 11.9653 438.752 15.5827 446.273 19.6638C447.201 20.1276 448.13 20.6841 449.058 21.2407C463.822 29.774 476.357 40.5334 486.663 52.7769C487.406 53.6117 488.056 54.4465 488.706 55.2812C515.633 88.3015 527.24 130.968 527.518 167.42Z" fill="url(#paint0_linear)"/>
<path d="M519.997 235.316C519.719 236.336 519.44 237.264 519.161 238.191C513.683 236.244 507.834 233.739 501.891 230.493C474.5 215.652 439.68 182.539 429.095 109.264C424.546 77.6349 430.395 47.5827 446.366 19.7566C447.294 20.2204 448.223 20.7769 449.151 21.3334C435.131 45.7276 427.238 74.8523 432.066 108.8C442.466 180.777 476.45 213.241 503.191 227.71C508.948 230.957 514.612 233.368 519.997 235.316Z" fill="white" fill-opacity="0.4"/>
<path d="M524.454 213.612C524.268 214.632 524.175 215.652 523.99 216.673C506.719 208.603 484.899 190.887 474.778 152.673C464.936 115.571 468.836 82.6436 486.849 52.9624C487.592 53.7972 488.242 54.632 488.892 55.4668C471.807 84.2204 468.186 116.128 477.75 151.931C487.313 188.475 507.926 205.635 524.454 213.612Z" fill="white" fill-opacity="0.4"/>
<path d="M361.313 63.0726C362.799 111.768 357.228 143.212 343.3 165.009C328.722 187.919 304.488 201.739 264.655 209.901C257.227 211.386 249.891 212.22 242.649 212.22C220.179 212.22 199.101 204.893 180.531 190.609C158.989 174.006 142.462 148.962 132.991 119.652C133.919 119.281 134.848 118.91 135.777 118.539C145.062 147.386 161.218 171.965 182.295 188.29C206.065 206.655 234.292 213.055 263.912 207.026C338.101 191.907 360.942 156.939 358.156 63.1653C357.321 36.545 362.056 15.5827 371.991 0.463867C373.198 0.463867 374.406 0.463866 375.613 0.556619C365.306 15.1189 360.478 36.174 361.313 63.0726Z" fill="white" fill-opacity="0.4"/>
<path d="M268.74 163.803C265.676 164.267 262.519 164.545 259.269 164.545C235.406 164.545 208.015 150.075 194.644 109.264C195.666 109.264 196.78 109.264 197.801 109.264C212.472 153.136 243.949 164.916 268.276 160.928C301.145 155.548 332.715 121.786 326.587 69.6581C323.987 47.3044 323.801 28.29 325.287 12.1508C326.308 11.5016 327.423 10.8523 328.537 10.203C326.865 26.6204 326.865 46.1914 329.558 69.287C335.965 123.177 303.003 158.145 268.74 163.803Z" fill="white" fill-opacity="0.4"/>
<path d="M288.703 108.615C287.589 113.902 285.546 119.188 282.111 123.733C277.561 129.762 271.062 133.287 262.983 134.307C262.055 134.4 261.034 134.493 260.105 134.493C255.091 134.493 250.448 132.73 246.363 129.299C240.978 124.754 236.985 117.704 234.107 110.099C235.221 110.191 236.335 110.191 237.356 110.284C240.049 117.055 243.577 123.177 248.22 127.073C252.398 130.597 257.227 131.988 262.519 131.339C269.854 130.412 275.611 127.258 279.697 121.971C282.575 118.261 284.339 113.809 285.454 109.357C286.568 109.078 287.589 108.893 288.703 108.615Z" fill="white" fill-opacity="0.4"/>
<path d="M172.546 277.612H169.296C155.925 246.91 136.519 226.504 111.728 216.765C102.721 213.241 93.6218 211.386 84.8009 210.736C84.6152 209.716 84.5223 208.696 84.3366 207.675C93.6218 208.325 103.278 210.273 112.842 213.983C138.748 224.186 158.804 245.519 172.546 277.612Z" fill="white" fill-opacity="0.4"/>
<path d="M107.827 185.136L98.5422 194.69L94.6424 189.032L93.3425 187.177C89.257 188.197 83.1288 180.128 80.7147 175.861C78.3005 171.594 88.05 164.916 88.05 164.916C86.4715 160.185 80.0647 157.217 79.879 155.826C79.6933 154.528 81.2718 153.136 87.0286 155.826C92.7854 158.516 97.8923 168.162 97.8923 168.162C98.9136 165.38 94.3639 157.774 95.1996 156.939C96.0352 156.104 100.492 157.125 104.02 164.452C107.456 171.78 105.413 180.313 105.413 180.313V180.406L107.827 185.136Z" fill="#98B2D8"/>
<path d="M87.7721 164.081C87.7721 164.081 94.6431 171.965 93.9003 175.026C93.1575 178.087 89.722 174.562 89.722 174.562C89.722 174.562 92.879 178.272 91.8576 179.478C90.8362 180.684 87.0293 177.623 87.0293 177.623C87.0293 177.623 91.579 183.281 87.0293 182.446C82.4796 181.612 76.7228 172.985 81.0868 172.151C81.0868 172.151 80.5297 165.843 84.6152 167.977C84.6152 167.884 82.7581 162.69 87.7721 164.081Z" fill="#B1C3E8"/>
<path d="M171.246 277.704C171.246 277.704 178.952 255.165 174.867 232.904C174.867 232.904 174.867 232.904 174.867 232.719C174.867 232.719 174.867 232.626 174.867 232.533C174.774 231.977 174.588 231.328 174.496 230.771C174.496 230.771 170.039 234.667 163.818 238.562C156.389 243.2 146.454 247.838 138.841 245.704C124.913 241.716 104.485 214.632 95.0145 193.206C95.0145 193.206 99.7499 186.157 109.221 183.93C109.221 183.93 128.163 209.159 144.876 215.096C144.876 215.096 153.882 204.429 160.846 188.661C165.303 178.643 171.989 172.336 180.438 168.904C185.266 166.957 190.559 165.936 196.409 165.751L211.079 158.887C211.079 158.887 213.493 158.887 217.115 159.351C223.986 160.278 235.406 162.783 244.599 169.739C258.805 180.591 279.232 277.426 279.232 277.426H171.246V277.704Z" fill="url(#paint1_linear)" fill-opacity="0.8"/>
<path d="M174.867 232.719C174.774 232.07 174.589 231.42 174.496 230.771C174.496 230.771 170.039 234.667 163.818 238.562L168.182 201.646C172.546 218.62 174.589 231.235 174.867 232.719Z" fill="url(#paint2_linear)" fill-opacity="0.43"/>
<path d="M217.022 159.536C214.793 173.913 200.401 187.084 190.002 186.899C181.645 186.713 180.438 174.841 180.345 168.997C185.174 167.049 190.466 166.029 196.316 165.843L210.986 158.98C210.894 158.98 213.308 159.072 217.022 159.536Z" fill="#CED9EA"/>
<path d="M192.138 263.049C192.138 263.049 225.1 228.823 226.493 192.742L236.242 223.072L232.528 254.701L192.138 263.049Z" fill="url(#paint3_linear)" fill-opacity="0.43"/>
<path d="M191.209 277.704H154.254C154.254 277.704 154.347 272.696 160.011 271.026C165.675 269.357 169.389 262.215 186.473 263.142L191.209 277.704Z" fill="#98B2D8"/>
<path d="M229 243.757C229 243.757 211.636 253.774 184.245 260.823C184.245 260.823 180.438 270.006 187.124 277.612H240.142L229 243.757Z" fill="url(#paint4_linear)" fill-opacity="0.47"/>
<path d="M164.189 139.038C164.189 139.038 156.297 128.185 157.318 120.858C158.339 113.53 165.025 115.293 165.025 115.293C165.025 115.293 164.746 97.5767 181.181 102.029C181.181 102.029 180.809 96.6492 184.431 96.7419C188.052 96.9274 193.623 105.182 193.623 105.182C193.623 105.182 195.016 99.0607 197.43 100.545C199.844 102.029 200.587 108.336 205.694 111.304C210.801 114.365 213.958 118.261 209.965 130.597C205.972 142.933 208.944 143.768 207.551 150.075C206.158 156.104 205.137 159.722 201.423 160.093C197.709 160.464 183.409 145.345 183.409 145.345L164.189 139.038Z" fill="#5D7CA0"/>
<path d="M210.893 158.98C210.893 158.98 201.701 181.148 192.137 179.478C187.309 178.643 186.288 175.768 186.288 172.336C186.288 167.884 187.959 162.783 185.359 160.557L196.873 144.139L199.38 140.522C199.38 140.707 202.537 149.704 210.893 158.98Z" fill="#98B2D8"/>
<path d="M186.288 172.429C186.288 167.977 187.959 162.875 185.359 160.649L196.873 144.232C197.894 145.345 198.544 147.386 198.823 150.632C200.401 167.606 191.395 171.594 186.288 172.429Z" fill="#799CBF"/>
<path d="M163.075 130.412C163.075 130.412 166.232 158.98 177.838 165.472C187.959 171.038 200.309 154.156 200.123 145.809C200.123 145.809 204.58 142.469 203.837 136.997C203.094 131.525 197.337 133.38 196.595 142.191C196.595 142.191 191.859 141.82 191.023 130.875C188.052 133.287 184.895 132.545 181.553 129.577C181.553 129.577 179.881 135.698 171.339 128.556C171.339 128.371 168.089 132.823 163.075 130.412Z" fill="#98B2D8"/>
<path d="M438.752 241.252C438.752 241.252 453.794 266.388 459.086 278.632H405.882C405.882 278.632 402.818 263.977 397.526 249.786L438.752 241.252Z" fill="#5D7CA0" fill-opacity="0.9"/>
<path d="M417.953 246.817C415.075 256.464 410.618 264.719 404.025 270.933L405.789 278.539L341.443 277.704L348.593 233.646L417.953 246.817Z" fill="#799CBF" fill-opacity="0.9"/>
<path d="M518.974 109.635C518.974 109.635 521.11 96.2782 525.381 91.5478C529.652 86.8174 541.166 79.8608 542.559 82.2724C543.951 84.7768 532.345 92.5681 532.345 92.5681C532.345 92.5681 537.545 91.3623 542.094 99.0608C546.551 106.759 532.159 112.788 532.159 112.788L529.281 119.281L517.86 112.046L518.974 109.635Z" fill="#799CBF"/>
<path d="M533.832 92.9391C533.832 92.9391 527.332 99.5246 528.354 101.38C529.282 103.235 532.903 100.267 532.903 100.267C532.903 100.267 530.025 104.719 532.254 105.832C534.482 106.945 538.01 103.142 538.01 103.142C538.01 103.142 535.132 107.13 536.803 107.872C538.475 108.614 547.388 102.307 545.81 100.823C544.231 99.3391 543.303 100.545 543.303 100.545C543.303 100.545 545.16 97.3913 543.303 96.371C541.26 95.2579 540.239 97.2058 540.239 97.2058C540.239 97.2058 541.724 94.7942 540.517 93.8666C539.31 92.9391 536.71 94.1449 536.71 94.1449C536.71 94.1449 537.453 90.2492 533.832 92.9391Z" fill="#98B2D8"/>
<path d="M527.797 92.7536C525.847 92.197 521.854 96.2782 521.854 96.2782C520.276 98.3188 519.997 102.307 519.904 104.162C519.719 109.356 517.769 112.046 517.769 112.046L523.618 115.664C528.168 109.913 526.683 102.4 525.94 99.8028C528.075 96.5565 529.004 93.0318 527.797 92.7536Z" fill="#98B2D8"/>
<path d="M531.604 120.672C531.604 120.672 512.198 172.336 481.278 176.974C467.443 179.015 457.044 179.2 449.708 178.829C440.98 178.365 436.709 177.067 436.43 176.974C436.43 176.974 427.981 192.742 433.459 215.374C438.937 238.006 440.98 242.736 440.98 242.736C440.98 242.736 399.383 273.345 365.492 245.426L334.758 198.029L325.194 183.188C325.194 183.188 334.015 154.342 358.806 135.606C368.184 128.557 379.791 122.899 394.09 120.765C401.425 119.652 409.411 119.467 418.232 120.58C418.232 120.58 424.917 122.435 435.873 126.516C441.723 128.649 448.873 131.432 456.858 134.864C479.514 144.603 485.735 147.478 485.735 147.478C485.735 147.478 509.876 123.641 516.097 109.264C516.097 109.078 528.539 110.284 531.604 120.672Z" fill="url(#paint5_linear)" fill-opacity="0.8"/>
<path d="M375.613 144.232C375.52 155.826 373.013 167.049 371.899 175.768L391.119 171.873L421.017 201.368C421.017 201.368 424.824 209.994 417.117 211.478C411.082 212.684 382.855 216.58 382.855 216.58C376.355 225.391 373.384 238.933 370.134 252.104L341.443 202.388L375.613 144.232Z" fill="#97B3D1"/>
<path d="M418.232 147.014C404.861 143.582 397.804 131.617 394.09 120.672C401.425 119.559 409.411 119.374 418.232 120.487C418.232 120.487 424.917 122.342 435.873 126.423C437.173 135.977 436.709 151.745 418.232 147.014Z" fill="#CED9EA"/>
<path d="M453.329 157.588C453.329 157.588 450.451 168.812 449.708 178.736C440.98 178.272 436.709 176.974 436.43 176.881C436.43 176.881 443.951 163.988 453.329 157.588Z" fill="url(#paint6_linear)" fill-opacity="0.8"/>
<path d="M419.903 206.377L386.569 211.2C385.548 211.386 384.619 210.644 384.526 209.716L377.191 158.98C377.005 157.959 377.748 157.032 378.677 156.939L412.011 152.116C413.032 151.931 413.96 152.673 414.053 153.6L421.389 204.336C421.574 205.264 420.924 206.191 419.903 206.377Z" fill="#F2F4F9" fill-opacity="0.8"/>
<path d="M395.669 174.006L400.776 172.058C400.776 172.058 405.604 158.609 411.639 167.049C411.639 167.049 415.818 164.545 415.725 163.154C415.632 161.762 415.539 159.814 415.539 159.814C415.539 159.814 423.989 161.67 422.131 173.449C420.274 185.229 413.032 183.745 405.882 183.838L397.062 187.362L395.669 174.006Z" fill="url(#paint7_linear)" fill-opacity="0.8"/>
<path d="M398.918 190.516C398.918 190.516 359.085 216.858 341.907 204.151C339.308 202.203 336.893 200.162 334.758 198.029L325.194 183.188C325.194 183.188 334.015 154.342 358.806 135.606C366.977 131.896 375.613 133.287 376.077 140.893C377.098 158.98 361.592 170.11 359.735 178.365L395.39 171.13C395.39 171.038 401.147 177.252 398.918 190.516Z" fill="url(#paint8_linear)" fill-opacity="0.8"/>
<path d="M445.716 92.9391C445.716 92.9391 451.38 80.7884 449.058 73.8318C446.737 66.8753 440.423 69.7507 440.423 69.7507C440.423 69.7507 437.359 52.2202 422.039 59.826C422.039 59.826 421.389 54.4463 417.86 55.2811C414.332 56.1159 410.339 65.2985 410.339 65.2985C410.339 65.2985 407.832 59.5478 405.697 61.4028C403.561 63.2579 404.025 69.6579 399.568 73.5536C395.112 77.4492 392.79 81.9014 399.011 93.3101C405.232 104.626 402.447 106.11 405.047 112.046C407.461 117.704 409.225 121.043 413.032 120.672C416.746 120.301 427.981 102.864 427.981 102.864L445.716 92.9391Z" fill="#5D7CA0"/>
<path d="M403.561 121.322C403.561 121.322 412.382 143.026 426.217 139.409C430.952 138.203 430.952 133.194 430.395 129.855C429.652 125.496 426.96 120.765 429.095 118.168L414.703 104.255L411.546 101.194C411.454 101.194 410.061 110.562 403.561 121.322Z" fill="#98B2D8"/>
<path d="M430.395 129.855C429.652 125.496 426.96 120.765 429.095 118.168L414.703 104.255C413.961 105.554 413.682 107.687 413.961 110.933C415.632 127.815 425.103 129.948 430.395 129.855Z" fill="#799CBF"/>
<path d="M445.159 84.2204C445.159 84.2204 447.48 112.881 437.173 121.415C428.26 128.835 412.939 114.551 411.639 106.203C411.639 106.203 406.625 103.699 406.347 98.2261C406.068 92.7537 412.103 93.403 414.425 101.936C414.425 101.936 418.974 100.731 417.767 89.7856C421.11 91.6406 424.081 90.2493 426.867 86.7247C426.867 86.7247 429.652 92.4754 436.709 83.7566C436.709 83.8493 440.702 87.5595 445.159 84.2204Z" fill="#98B2D8"/>
<path d="M372.177 261.842C371.713 263.604 371.156 265.274 370.32 266.665C363.078 279.836 331.787 277.703 331.787 277.703H260.384C230.857 277.703 218.972 276.961 216.186 267.778C216 267.314 215.908 266.758 215.815 266.201C213.772 255.535 223.8 220.659 242.185 196.729C251.656 184.485 261.405 178.085 270.04 174.746C278.304 171.5 285.639 171.129 290.839 171.129C299.938 171.129 307.181 171.778 313.402 173.262C330.022 177.158 338.751 186.526 351.843 203.222C367.906 223.535 375.798 247.465 372.177 261.842Z" fill="url(#paint9_linear)"/>
<path opacity="0.22" d="M246.641 253.31C254.348 241.159 256.855 224.278 258.991 207.119L265.676 241.994H323.987L334.665 207.119C334.386 223.444 336.615 239.397 344.414 254.702C344.414 254.702 306.252 297.832 246.641 253.31Z" fill="#1F395E"/>
<path d="M264.283 277.704H260.383C230.857 277.704 218.972 276.962 216.186 267.78C214.607 260.545 216.65 252.939 225.471 250.62C239.306 247.096 263.448 261.102 263.448 261.102L264.283 277.704Z" fill="url(#paint10_linear)"/>
<path d="M372.177 261.843C371.713 263.606 371.156 265.275 370.32 266.667C363.078 279.838 331.787 277.704 331.787 277.704H310.616L313.309 259.803C313.309 259.803 350.821 242.458 364.285 247.838C370.97 250.435 372.92 255.907 372.177 261.843Z" fill="url(#paint11_linear)"/>
<path d="M313.495 173.171C312.845 181.519 309.409 196.823 292.51 196.823C274.683 196.823 270.969 181.797 270.133 174.655C278.397 171.409 285.732 171.038 290.932 171.038C299.938 171.038 307.274 171.687 313.495 173.171Z" fill="#1F395E"/>
<path d="M328.999 278H259.996C258.311 278 257 276.688 257 275C257 273.313 258.311 272 259.996 272H328.999C330.685 272 331.996 273.313 331.996 275C332.089 276.594 330.685 278 328.999 278Z" fill="#14002E"/>
<path d="M337.172 226.319L336.893 227.896L329.837 271.768H260.105L253.048 226.319C252.677 224.093 254.441 222.052 256.669 222.052H333.458C335.779 222.052 337.45 224.093 337.172 226.319Z" fill="#14002E"/>
<path d="M336.893 227.896L329.837 271.768H260.476L283.968 269.357C308.109 266.76 328.63 250.62 336.893 227.896Z" fill="#27234B"/>
<path d="M292.23 190.516H291.766C289.073 190.516 286.845 189.959 285.081 189.125C280.717 187.177 278.024 182.539 278.117 177.716C278.117 177.252 278.117 176.788 278.117 176.232C278.117 172.244 277.838 168.904 277.838 168.904V167.142L303.001 166.029C303.094 169.646 303.465 172.893 304.022 175.397V175.49C305.415 183.096 299.844 190.238 292.23 190.516Z" fill="#FEB19E"/>
<path d="M303.931 175.488C293.439 187.732 282.761 180.59 278.025 176.323C278.025 172.335 277.747 168.995 277.747 168.995V167.233L302.91 166.12C303.003 169.738 303.467 172.891 303.931 175.488Z" fill="#FF856A"/>
<path d="M270.133 154.991C270.133 154.991 277.933 176.881 290.932 176.881C303.931 176.881 309.317 153.229 309.317 153.229V132.73H269.112L270.133 154.991Z" fill="#FEB19E"/>
<path d="M265.955 142.655C265.955 142.655 262.148 143.397 262.798 147.756C263.448 152.116 267.44 157.496 270.69 154.62L265.955 142.655Z" fill="#FEB19E"/>
<path d="M312.288 140.8C312.288 140.8 316.187 140.986 316.095 145.438C316.002 149.89 312.845 155.641 309.223 153.322L312.288 140.8Z" fill="#FEB19E"/>
<path d="M312.288 140.8C312.288 140.8 310.895 148.498 309.224 153.322C309.224 153.322 306.159 152.672 305.138 144.603C305.138 144.603 298.453 145.901 294.274 139.594C294.274 139.594 293.253 145.809 286.846 141.356C282.575 144.881 277.468 145.252 271.804 142.841C271.804 142.841 272.733 151.003 270.04 154.898C270.04 154.898 269.019 151.652 265.862 142.562C265.862 142.562 264.469 142.655 263.633 143.861C263.633 143.861 256.762 130.412 260.012 123.919C263.262 117.426 267.626 119.93 267.626 119.93C267.626 119.93 266.048 111.119 275.611 107.872C285.175 104.626 285.175 100.267 286.661 101.194C288.146 102.029 288.796 105.275 288.796 105.275C288.796 105.275 305.324 103.513 309.874 121.322C309.874 121.322 321.851 121.693 314.702 141.727C314.795 141.82 314.33 140.985 312.288 140.8Z" fill="#14002E"/>
<path opacity="0.4" d="M248.313 159.443H185.731C183.688 159.443 182.017 161.113 182.017 163.154V200.533C182.017 202.574 183.688 204.243 185.731 204.243H228.907L240.142 214.261C240.977 215.003 242.277 214.168 241.906 213.055L238.842 204.243H248.313C250.355 204.243 252.027 202.574 252.027 200.533V163.154C252.027 161.113 250.355 159.443 248.313 159.443Z" fill="#00A5B9"/>
<path d="M205.137 169.461H190.745C190.188 169.461 189.723 168.997 189.723 168.441C189.723 167.884 190.188 167.42 190.745 167.42H205.137C205.694 167.42 206.158 167.884 206.158 168.441C206.065 168.997 205.694 169.461 205.137 169.461Z" fill="#BFE9EA" fill-opacity="0.5"/>
<path d="M240.699 177.902H198.916C198.359 177.902 197.894 177.438 197.894 176.881C197.894 176.325 198.359 175.861 198.916 175.861H240.699C241.256 175.861 241.72 176.325 241.72 176.881C241.628 177.531 241.256 177.902 240.699 177.902Z" fill="#BFE9EA" fill-opacity="0.5"/>
<path d="M240.699 184.023H190.745C190.188 184.023 189.723 183.56 189.723 183.003C189.723 182.446 190.188 181.983 190.745 181.983H240.699C241.256 181.983 241.72 182.446 241.72 183.003C241.628 183.56 241.256 184.023 240.699 184.023Z" fill="#BFE9EA" fill-opacity="0.5"/>
<path d="M240.699 190.052H190.745C190.188 190.052 189.723 189.589 189.723 189.032C189.723 188.475 190.188 188.012 190.745 188.012H240.699C241.256 188.012 241.72 188.475 241.72 189.032C241.628 189.589 241.256 190.052 240.699 190.052Z" fill="#BFE9EA" fill-opacity="0.5"/>
<path d="M240.699 196.081H190.745C190.188 196.081 189.723 195.617 189.723 195.061C189.723 194.504 190.188 194.041 190.745 194.041H240.699C241.256 194.041 241.72 194.504 241.72 195.061C241.628 195.71 241.256 196.081 240.699 196.081Z" fill="#BFE9EA" fill-opacity="0.5"/>
<path d="M525.94 287.351H71.4302C70.5016 287.351 69.8517 286.609 69.8517 285.774V279.281C69.8517 278.354 70.5945 277.704 71.4302 277.704H525.94C526.868 277.704 527.518 278.446 527.518 279.281V285.774C527.518 286.609 526.868 287.351 525.94 287.351Z" fill="#C1C8D3"/>
<path d="M432.902 253.681H413.496V270.47C413.496 274.365 416.653 277.519 420.553 277.519H425.752C429.652 277.519 432.809 274.365 432.809 270.47V253.681H432.902Z" fill="url(#paint12_linear)"/>
<path d="M419.624 253.681V248.487C419.624 247.652 420.274 246.91 421.203 246.91H423.153C423.989 246.91 424.731 246.261 424.731 245.333V243.478C424.731 242.643 424.081 241.901 423.153 241.901H416.839C412.475 241.901 408.947 238.377 408.947 234.017C408.947 229.658 412.475 226.133 416.839 226.133H425.196C426.031 226.133 426.774 225.484 426.774 224.556V224C426.774 219.548 430.395 215.838 434.945 215.838C439.402 215.838 443.116 219.455 443.116 224C443.116 228.823 439.216 232.812 434.295 232.812H419.532C418.696 232.812 417.953 233.461 417.953 234.388C417.953 235.223 418.603 235.965 419.532 235.965H427.61C430.581 235.965 432.995 238.377 432.995 241.345V244.684C432.995 247.652 430.581 250.064 427.61 250.064C426.774 250.064 426.031 250.713 426.031 251.64V253.867H419.624V253.681Z" fill="url(#paint13_linear)" fill-opacity="0.8"/>
<path d="M405.697 226.226H354.628C352.678 226.226 351.1 224.649 351.1 222.702V158.331C351.1 156.383 352.678 154.806 354.628 154.806H405.697C407.647 154.806 409.225 156.383 409.225 158.331V222.702C409.225 224.649 407.647 226.226 405.697 226.226Z" fill="url(#paint14_linear)" fill-opacity="0.65"/>
<path d="M408.854 223.814H357.785C355.371 223.814 353.514 221.867 353.514 219.548V155.177C353.514 152.765 355.464 150.91 357.785 150.91H408.854C411.268 150.91 413.125 152.858 413.125 155.177V219.548C413.218 221.959 411.268 223.814 408.854 223.814ZM357.878 152.394C356.299 152.394 355.092 153.693 355.092 155.177V219.548C355.092 221.125 356.392 222.33 357.878 222.33H408.946C410.525 222.33 411.732 221.032 411.732 219.548V155.177C411.732 153.6 410.432 152.394 408.946 152.394H357.878V152.394Z" fill="#4F7EB7" fill-opacity="0.8"/>
<path d="M368.277 173.357L364.935 169.646L366.049 168.626L368.092 170.945C369.113 169.554 371.713 166.864 376.448 164.823L377.005 166.215C370.97 168.719 368.835 172.429 368.742 172.522L368.277 173.357Z" fill="#EA9BA1"/>
<path d="M368.277 194.133L364.935 190.423L366.049 189.403L368.092 191.722C369.113 190.331 371.713 187.641 376.448 185.6L377.005 186.991C370.97 189.496 368.835 193.206 368.742 193.299L368.277 194.133Z" fill="#EA9BA1"/>
<path d="M368.277 215.003L364.935 211.293L366.049 210.272L368.092 212.591C369.113 211.2 371.713 208.51 376.448 206.469L377.005 207.861C370.97 210.365 368.835 214.075 368.742 214.168L368.277 215.003Z" fill="#EA9BA1"/>
<g opacity="0.25">
<path d="M371.156 177.623H359.828V164.081H371.156V177.623ZM361.313 176.139H369.67V165.565H361.313V176.139Z" fill="#00A5B9"/>
<path d="M400.032 169.09H382.483C381.834 169.09 381.369 168.626 381.369 167.977C381.369 167.327 381.834 166.864 382.483 166.864H400.032C400.682 166.864 401.147 167.327 401.147 167.977C401.147 168.626 400.682 169.09 400.032 169.09Z" fill="#00A5B9"/>
<path d="M400.032 174.469H382.483C381.834 174.469 381.369 174.006 381.369 173.356C381.369 172.707 381.834 172.243 382.483 172.243H400.032C400.682 172.243 401.147 172.707 401.147 173.356C401.147 174.006 400.682 174.469 400.032 174.469Z" fill="#00A5B9"/>
<path d="M371.156 198.4H359.828V184.858H371.156V198.4ZM361.313 196.916H369.67V186.342H361.313V196.916Z" fill="#00A5B9"/>
<path d="M400.032 189.867H382.483C381.834 189.867 381.369 189.403 381.369 188.754C381.369 188.104 381.834 187.64 382.483 187.64H400.032C400.682 187.64 401.147 188.104 401.147 188.754C401.147 189.403 400.682 189.867 400.032 189.867Z" fill="#00A5B9"/>
<path d="M400.032 195.246H382.483C381.834 195.246 381.369 194.782 381.369 194.133C381.369 193.484 381.834 193.02 382.483 193.02H400.032C400.682 193.02 401.147 193.484 401.147 194.133C401.147 194.782 400.682 195.246 400.032 195.246Z" fill="#00A5B9"/>
<path d="M371.156 219.177H359.828V205.635H371.156V219.177ZM361.313 217.693H369.67V207.119H361.313V217.693Z" fill="#00A5B9"/>
<path d="M400.032 210.643H382.483C381.834 210.643 381.369 210.18 381.369 209.53C381.369 208.881 381.834 208.417 382.483 208.417H400.032C400.682 208.417 401.147 208.881 401.147 209.53C401.147 210.18 400.682 210.643 400.032 210.643Z" fill="#00A5B9"/>
<path d="M400.032 216.116H382.483C381.834 216.116 381.369 215.652 381.369 215.003C381.369 214.353 381.834 213.89 382.483 213.89H400.032C400.682 213.89 401.147 214.353 401.147 215.003C401.147 215.559 400.682 216.116 400.032 216.116Z" fill="#00A5B9"/>
</g>
<path d="M584.9 127.722H533.832C531.882 127.722 530.304 126.145 530.304 124.197V59.8262C530.304 57.8783 531.882 56.3015 533.832 56.3015H584.9C586.85 56.3015 588.429 57.8783 588.429 59.8262V124.197C588.429 126.145 586.85 127.722 584.9 127.722Z" fill="url(#paint15_linear)" fill-opacity="0.75"/>
<path d="M589.357 124.383H538.289C535.875 124.383 534.018 122.435 534.018 120.116V55.7449C534.018 53.3334 535.967 51.4783 538.289 51.4783H589.357C591.771 51.4783 593.628 53.4261 593.628 55.7449V120.116C593.721 122.435 591.771 124.383 589.357 124.383ZM538.382 52.8696C536.803 52.8696 535.596 54.1681 535.596 55.6522V120.116C535.596 121.693 536.896 122.899 538.382 122.899H589.45C591.029 122.899 592.236 121.6 592.236 120.116V55.7449C592.236 54.1681 590.936 52.9623 589.45 52.9623H538.382V52.8696Z" fill="#4F7EB7" fill-opacity="0.8"/>
<path opacity="0.5" d="M548.596 74.11L554.538 63.4434C560.016 64.8347 562.616 69.9361 560.016 75.2231L548.596 74.11Z" fill="#E83F54"/>
<g opacity="0.25">
<path d="M554.983 77.3822C556.129 72.5469 553.135 67.6964 548.295 66.5482C543.456 65.4 538.604 68.389 537.458 73.2242C536.312 78.0595 539.307 82.91 544.146 84.0581C548.986 85.2063 553.838 82.2174 554.983 77.3822Z" fill="#00A5B9"/>
<path d="M543.024 93.9593C543.024 95.4434 541.817 96.5565 540.424 96.5565C539.032 96.5565 537.825 95.3507 537.825 93.9593C537.825 92.4753 539.032 91.3622 540.424 91.3622C541.817 91.3622 543.024 92.568 543.024 93.9593Z" fill="#00A5B9"/>
<path d="M543.024 105.554C543.024 107.038 541.817 108.151 540.424 108.151C539.032 108.151 537.825 106.945 537.825 105.554C537.825 104.069 539.032 102.956 540.424 102.956C541.817 102.956 543.024 104.162 543.024 105.554Z" fill="#00A5B9"/>
<path d="M577.101 96.6492H556.209C554.724 96.6492 553.609 95.4434 553.609 94.0521C553.609 92.5681 554.816 91.455 556.209 91.455H577.101C578.586 91.455 579.701 92.6608 579.701 94.0521C579.794 95.4434 578.586 96.6492 577.101 96.6492Z" fill="#00A5B9"/>
<path d="M577.101 108.151H556.209C554.724 108.151 553.609 106.945 553.609 105.554C553.609 104.069 554.816 102.956 556.209 102.956H577.101C578.586 102.956 579.701 104.162 579.701 105.554C579.794 107.038 578.586 108.151 577.101 108.151Z" fill="#00A5B9"/>
<path d="M543.024 117.333C543.024 118.817 541.817 119.93 540.424 119.93C539.032 119.93 537.825 118.725 537.825 117.333C537.825 115.849 539.032 114.736 540.424 114.736C541.817 114.736 543.024 115.849 543.024 117.333Z" fill="#00A5B9"/>
<path d="M577.101 119.93H556.209C554.724 119.93 553.609 118.725 553.609 117.333C553.609 115.849 554.816 114.736 556.209 114.736H577.101C578.586 114.736 579.701 115.942 579.701 117.333C579.794 118.817 578.586 119.93 577.101 119.93Z" fill="#00A5B9"/>
</g>
<path d="M148.497 106.76H97.4288C95.4789 106.76 93.9004 105.183 93.9004 103.235V26.8987C93.9004 24.9508 95.4789 23.374 97.4288 23.374H148.497C150.447 23.374 152.026 24.9508 152.026 26.8987V103.235C152.026 105.183 150.447 106.76 148.497 106.76Z" fill="url(#paint16_linear)" fill-opacity="0.75"/>
<path d="M145.247 104.255H94.1788C91.7646 104.255 89.9076 102.307 89.9076 99.9884V23.6522C89.9076 21.2406 91.8575 19.3855 94.1788 19.3855H145.247C147.661 19.3855 149.518 21.3333 149.518 23.6522V99.9884C149.518 102.307 147.661 104.255 145.247 104.255ZM94.2716 20.7768C92.6931 20.7768 91.4861 22.0753 91.4861 23.5594V99.8956C91.4861 101.472 92.786 102.678 94.2716 102.678H145.34C146.919 102.678 148.126 101.38 148.126 99.8956V23.5594C148.126 21.9826 146.826 20.7768 145.34 20.7768H94.2716V20.7768Z" fill="#4F7EB7" fill-opacity="0.8"/>
<g opacity="0.5">
<path d="M120.27 57.6L119.527 58.2493C119.063 58.6203 118.32 58.6203 117.949 58.1565L110.428 49.716L112.842 47.5826L120.363 56.0232C120.734 56.487 120.734 57.229 120.27 57.6Z" fill="#00B28F"/>
<path d="M107.828 34.3188C103.092 34.3188 99.1926 38.1217 99.1926 42.9449C99.1926 47.7681 103.092 51.571 107.828 51.571C112.563 51.571 116.463 47.7681 116.463 42.9449C116.463 38.1217 112.563 34.3188 107.828 34.3188ZM107.828 48.7884C104.578 48.7884 101.978 46.1913 101.978 42.9449C101.978 39.6986 104.578 37.1015 107.828 37.1015C111.078 37.1015 113.677 39.6986 113.677 42.9449C113.677 46.0986 111.078 48.7884 107.828 48.7884Z" fill="#00B28F"/>
<path d="M142.647 39.0493H129.091C128.255 39.0493 127.512 38.3073 127.512 37.4725C127.512 36.6377 128.255 35.8957 129.091 35.8957H142.647C143.483 35.8957 144.226 36.6377 144.226 37.4725C144.226 38.3073 143.576 39.0493 142.647 39.0493Z" fill="#00B28F"/>
<path d="M142.647 47.1188H129.091C128.255 47.1188 127.512 46.3768 127.512 45.542C127.512 44.7073 128.255 43.9652 129.091 43.9652H142.647C143.483 43.9652 144.226 44.7073 144.226 45.542C144.226 46.4696 143.576 47.1188 142.647 47.1188Z" fill="#00B28F"/>
<path d="M142.647 54.6319H129.091C128.255 54.6319 127.512 53.8899 127.512 53.0551C127.512 52.2203 128.255 51.4783 129.091 51.4783H142.647C143.483 51.4783 144.226 52.2203 144.226 53.0551C144.226 53.8899 143.576 54.6319 142.647 54.6319Z" fill="#00B28F"/>
<path d="M125.748 75.4087H104.857C103.835 75.4087 103.092 74.5739 103.092 73.6464C103.092 72.6261 103.928 71.8841 104.857 71.8841H125.748C126.77 71.8841 127.512 72.7188 127.512 73.6464C127.512 74.5739 126.77 75.4087 125.748 75.4087Z" fill="#00B28F"/>
<path d="M125.748 86.4464H104.857C103.835 86.4464 103.092 85.6116 103.092 84.6841C103.092 83.6638 103.928 82.9217 104.857 82.9217H125.748C126.77 82.9217 127.512 83.7565 127.512 84.6841C127.512 85.7044 126.77 86.4464 125.748 86.4464Z" fill="#00B28F"/>
<path d="M125.748 97.5768H104.857C103.835 97.5768 103.092 96.742 103.092 95.8145C103.092 94.7942 103.928 94.0522 104.857 94.0522H125.748C126.77 94.0522 127.512 94.887 127.512 95.8145C127.512 96.8348 126.77 97.5768 125.748 97.5768Z" fill="#00B28F"/>
<path d="M142.183 73.6464C142.183 75.2232 140.883 76.5217 139.304 76.5217C137.726 76.5217 136.426 75.2232 136.426 73.6464C136.426 72.0696 137.726 70.771 139.304 70.771C140.883 70.771 142.183 72.0696 142.183 73.6464Z" fill="#00B28F"/>
<path d="M142.183 84.6841C142.183 86.2609 140.883 87.5594 139.304 87.5594C137.726 87.5594 136.426 86.2609 136.426 84.6841C136.426 83.1073 137.726 81.8087 139.304 81.8087C140.883 81.9015 142.183 83.1073 142.183 84.6841Z" fill="#00B28F"/>
<path d="M142.183 95.8145C142.183 97.3913 140.883 98.6899 139.304 98.6899C137.726 98.6899 136.426 97.3913 136.426 95.8145C136.426 94.2377 137.726 92.9391 139.304 92.9391C140.883 92.9391 142.183 94.2377 142.183 95.8145Z" fill="#00B28F"/>
</g>
<path d="M397.804 107.873H304.395C300.96 107.873 298.267 105.09 298.267 101.751V39.7914C298.267 36.3595 301.053 33.6697 304.395 33.6697H397.804C401.24 33.6697 403.932 36.4523 403.932 39.7914V101.751C403.932 105.183 401.24 107.873 397.804 107.873Z" fill="url(#paint17_linear)" fill-opacity="0.75"/>
<path d="M401.054 105.275H307.552C303.745 105.275 300.681 102.214 300.681 98.4116V36.4522C300.681 32.6493 303.745 29.5884 307.552 29.5884H400.961C404.768 29.5884 407.832 32.6493 407.832 36.4522V98.4116C407.925 102.122 404.861 105.275 401.054 105.275ZM307.552 30.8869C304.581 30.8869 302.167 33.2985 302.167 36.2667V98.2261C302.167 101.194 304.581 103.606 307.552 103.606H400.961C403.932 103.606 406.346 101.194 406.346 98.2261V36.2667C406.346 33.2985 403.932 30.8869 400.961 30.8869H307.552Z" fill="#4F7EB7" fill-opacity="0.8"/>
<path opacity="0.5" d="M364.006 88.4869H310.616C309.595 88.4869 308.667 87.6522 308.667 86.5391V60.1043C308.667 59.084 309.502 58.1565 310.616 58.1565H364.006C365.028 58.1565 365.956 58.9913 365.956 60.1043V86.5391C365.956 87.6522 365.12 88.4869 364.006 88.4869Z" fill="#7CA6D8"/>
<g opacity="0.25">
<path d="M363.262 48.6956H311.451C309.965 48.6956 308.758 47.4898 308.758 46.0058C308.758 44.5217 309.965 43.3159 311.451 43.3159H363.262C364.748 43.3159 365.955 44.5217 365.955 46.0058C365.955 47.4898 364.748 48.6956 363.262 48.6956Z" fill="#00A5B9"/>
<path d="M390.748 48.6956H375.427C373.942 48.6956 372.735 47.4898 372.735 46.0058C372.735 44.5217 373.942 43.3159 375.427 43.3159H390.748C392.233 43.3159 393.44 44.5217 393.44 46.0058C393.44 47.4898 392.233 48.6956 390.748 48.6956Z" fill="#00A5B9"/>
<path d="M391.769 63.0724H375.706C374.777 63.0724 374.034 62.3304 374.034 61.4029C374.034 60.4753 374.777 59.7333 375.706 59.7333H391.769C392.698 59.7333 393.44 60.4753 393.44 61.4029C393.44 62.3304 392.698 63.0724 391.769 63.0724Z" fill="#00A5B9"/>
<path d="M391.769 70.6782H375.706C374.777 70.6782 374.034 69.9362 374.034 69.0087C374.034 68.0811 374.777 67.3391 375.706 67.3391H391.769C392.698 67.3391 393.44 68.0811 393.44 69.0087C393.44 69.9362 392.698 70.6782 391.769 70.6782Z" fill="#00A5B9"/>
<path d="M391.769 78.284H375.706C374.777 78.284 374.034 77.542 374.034 76.6145C374.034 75.6869 374.777 74.9449 375.706 74.9449H391.769C392.698 74.9449 393.44 75.6869 393.44 76.6145C393.44 77.542 392.698 78.284 391.769 78.284Z" fill="#00A5B9"/>
<path d="M391.769 85.8898H375.706C374.777 85.8898 374.034 85.1478 374.034 84.2203C374.034 83.2927 374.777 82.5507 375.706 82.5507H391.769C392.698 82.5507 393.44 83.2927 393.44 84.2203C393.44 85.1478 392.698 85.8898 391.769 85.8898Z" fill="#00A5B9"/>
<path d="M380.813 100.359H321.202C319.995 100.359 318.973 99.3391 318.973 98.1333C318.973 96.9275 319.995 95.9072 321.202 95.9072H380.813C382.02 95.9072 383.041 96.9275 383.041 98.1333C383.041 99.3391 382.02 100.359 380.813 100.359Z" fill="#00A5B9"/>
</g>
<path d="M97.8929 183.931H9.40511C6.61956 183.931 4.39111 181.704 4.39111 178.922V125.403C4.39111 122.62 6.61956 120.394 9.40511 120.394H97.8929C100.678 120.394 102.907 122.62 102.907 125.403V178.922C102.907 181.704 100.678 183.931 97.8929 183.931Z" fill="url(#paint18_linear)" fill-opacity="0.75"/>
<path d="M94.2718 181.055H5.78403C2.62707 181.055 0.0272217 178.458 0.0272217 175.304V121.786C0.0272217 118.632 2.62707 116.035 5.78403 116.035H94.2718C97.4287 116.035 100.029 118.632 100.029 121.786V175.304C100.029 178.458 97.4287 181.055 94.2718 181.055ZM5.78403 117.519C3.46274 117.519 1.51285 119.374 1.51285 121.786V175.304C1.51285 177.623 3.36989 179.571 5.78403 179.571H94.2718C96.5931 179.571 98.543 177.716 98.543 175.304V121.786C98.543 119.467 96.6859 117.519 94.2718 117.519H5.78403V117.519Z" fill="#4F7EB7" fill-opacity="0.8"/>
<g opacity="0.5">
<path d="M45.246 139.873C45.246 142.841 44.0389 145.531 42.0891 147.478L34.4752 139.873L37.9107 129.67C42.1819 131.061 45.246 135.142 45.246 139.873Z" fill="#E83F54"/>
<path d="M76.5371 135.884H72.823V152.765H76.5371V135.884Z" fill="#E83F54"/>
</g>
<g opacity="0.5">
<path d="M39.8596 149.797C37.5383 152.116 34.3814 153.507 30.853 153.507C23.8891 153.507 18.1323 147.849 18.1323 140.8C18.1323 133.751 23.7963 128.093 30.853 128.093C32.2458 128.093 33.6386 128.371 34.9385 128.742L30.853 140.707L39.8596 149.797Z" fill="#00A5B9"/>
<path d="M88.1435 154.249H58.988V129.67C58.988 129.299 59.3594 128.928 59.7309 128.928C60.1023 128.928 60.4737 129.299 60.4737 129.67V152.765H88.1435C88.5149 152.765 88.8863 153.136 88.8863 153.507C88.8863 153.878 88.5149 154.249 88.1435 154.249Z" fill="#00A5B9"/>
<path d="M68.7375 141.542H65.0234V152.672H68.7375V141.542Z" fill="#00A5B9"/>
<path d="M84.058 144.325H80.3439V152.765H84.058V144.325Z" fill="#00A5B9"/>
<path d="M36.5179 165.658H18.8761C18.1333 165.658 17.5762 165.101 17.5762 164.359C17.5762 163.617 18.1333 163.061 18.8761 163.061H36.4251C37.1679 163.061 37.725 163.617 37.725 164.359C37.8179 165.101 37.1679 165.658 36.5179 165.658Z" fill="#00A5B9"/>
<path d="M63.2593 165.658H45.7103C44.9675 165.658 44.4104 165.101 44.4104 164.359C44.4104 163.617 44.9675 163.061 45.7103 163.061H63.2593C64.0021 163.061 64.5592 163.617 64.5592 164.359C64.5592 165.101 64.0021 165.658 63.2593 165.658Z" fill="#00A5B9"/>
<path d="M88.4221 165.658H70.8731C70.1303 165.658 69.5732 165.101 69.5732 164.359C69.5732 163.617 70.1303 163.061 70.8731 163.061H88.4221C89.1649 163.061 89.722 163.617 89.722 164.359C89.722 165.101 89.1649 165.658 88.4221 165.658Z" fill="#00A5B9"/>
<path d="M48.0316 175.026H30.3897C29.6469 175.026 29.0898 174.47 29.0898 173.728C29.0898 172.985 29.6469 172.429 30.3897 172.429H48.0316C48.7744 172.429 49.3315 172.985 49.3315 173.728C49.3315 174.377 48.6815 175.026 48.0316 175.026Z" fill="#00A5B9"/>
<path d="M73.1944 175.026H55.6454C54.9026 175.026 54.3455 174.47 54.3455 173.728C54.3455 172.985 54.9026 172.429 55.6454 172.429H73.1944C73.9372 172.429 74.4943 172.985 74.4943 173.728C74.4943 174.377 73.8443 175.026 73.1944 175.026Z" fill="#00A5B9"/>
</g>
</g>
<path d="M393.685 325.335C393.685 325.335 405.49 329.081 411.309 325.335C420.523 319.405 419.932 303.687 411.309 296.896C400.539 288.414 366.759 307.873 351.583 288.414C345.991 281.246 348.339 276.398 339.833 273.447C336.937 272.442 332 273.447 332 273.447" stroke="#C1C8D3"/>
<defs>
<linearGradient id="paint0_linear" x1="527.524" y1="0.371316" x2="66.6674" y2="32.2932" gradientUnits="userSpaceOnUse">
<stop stop-color="#00B38F"/>
<stop offset="1" stop-color="#00A5B9"/>
</linearGradient>
<linearGradient id="paint1_linear" x1="258.911" y1="277.73" x2="132.185" y2="145.242" gradientUnits="userSpaceOnUse">
<stop stop-color="#7D7DC7" stop-opacity="0"/>
<stop offset="1" stop-color="#8686FF"/>
</linearGradient>
<linearGradient id="paint2_linear" x1="173.648" y1="238.57" x2="158.362" y2="235.485" gradientUnits="userSpaceOnUse">
<stop stop-color="#7D7DC7"/>
<stop offset="1" stop-color="#A09ADC"/>
</linearGradient>
<linearGradient id="paint3_linear" x1="231.377" y1="263.064" x2="177.513" y2="240.28" gradientUnits="userSpaceOnUse">
<stop stop-color="#7D7DC7"/>
<stop offset="1" stop-color="#A09ADC"/>
</linearGradient>
<linearGradient id="paint4_linear" x1="233.857" y1="277.619" x2="198" y2="236.928" gradientUnits="userSpaceOnUse">
<stop stop-color="#7D7DC7"/>
<stop offset="1" stop-color="#A09ADC"/>
</linearGradient>
<linearGradient id="paint5_linear" x1="508.834" y1="257.205" x2="351.198" y2="108.886" gradientUnits="userSpaceOnUse">
<stop stop-color="#7D7DC7" stop-opacity="0"/>
<stop offset="1" stop-color="#8686FF"/>
</linearGradient>
<linearGradient id="paint6_linear" x1="451.465" y1="178.741" x2="432.609" y2="168.58" gradientUnits="userSpaceOnUse">
<stop stop-color="#7D7DC7" stop-opacity="0"/>
<stop offset="1" stop-color="#8686FF"/>
</linearGradient>
<linearGradient id="paint7_linear" x1="419.45" y1="187.368" x2="392.501" y2="169.736" gradientUnits="userSpaceOnUse">
<stop stop-color="#7D7DC7" stop-opacity="0"/>
<stop offset="1" stop-color="#8686FF"/>
</linearGradient>
<linearGradient id="paint8_linear" x1="391.242" y1="207.631" x2="317.923" y2="158.021" gradientUnits="userSpaceOnUse">
<stop stop-color="#7D7DC7" stop-opacity="0"/>
<stop offset="1" stop-color="#8686FF"/>
</linearGradient>
<linearGradient id="paint9_linear" x1="297.546" y1="318" x2="305.682" y2="171.725" gradientUnits="userSpaceOnUse">
<stop stop-color="#130E3A"/>
<stop offset="1" stop-color="#A09ADC"/>
</linearGradient>
<linearGradient id="paint10_linear" x1="240.993" y1="288.115" x2="242.766" y2="250.172" gradientUnits="userSpaceOnUse">
<stop stop-color="#130E3A"/>
<stop offset="1" stop-color="#A09ADC"/>
</linearGradient>
<linearGradient id="paint11_linear" x1="342.743" y1="289.514" x2="344.502" y2="246.917" gradientUnits="userSpaceOnUse">
<stop stop-color="#130E3A"/>
<stop offset="1" stop-color="#A09ADC"/>
</linearGradient>
<linearGradient id="paint12_linear" x1="413.476" y1="265.664" x2="432.913" y2="265.664" gradientUnits="userSpaceOnUse">
<stop stop-color="#1F3A65"/>
<stop offset="1" stop-color="#294A7A"/>
</linearGradient>
<linearGradient id="paint13_linear" x1="441.234" y1="198.973" x2="416.606" y2="247.909" gradientUnits="userSpaceOnUse">
<stop stop-color="#E2E8F7"/>
<stop offset="1" stop-color="white"/>
</linearGradient>
<linearGradient id="paint14_linear" x1="402.813" y1="226.241" x2="338.495" y2="190.945" gradientUnits="userSpaceOnUse">
<stop stop-color="#7D7DC7" stop-opacity="0"/>
<stop offset="1" stop-color="#8686FF"/>
</linearGradient>
<linearGradient id="paint15_linear" x1="582.017" y1="127.737" x2="517.698" y2="92.4403" gradientUnits="userSpaceOnUse">
<stop stop-color="#7D7DC7" stop-opacity="0"/>
<stop offset="1" stop-color="#8686FF"/>
</linearGradient>
<linearGradient id="paint16_linear" x1="145.614" y1="106.777" x2="77.0687" y2="74.5588" gradientUnits="userSpaceOnUse">
<stop stop-color="#7D7DC7" stop-opacity="0"/>
<stop offset="1" stop-color="#8686FF"/>
</linearGradient>
<linearGradient id="paint17_linear" x1="392.276" y1="107.889" x2="313.121" y2="31.8826" gradientUnits="userSpaceOnUse">
<stop stop-color="#7D7DC7" stop-opacity="0"/>
<stop offset="1" stop-color="#8686FF"/>
</linearGradient>
<linearGradient id="paint18_linear" x1="92.0392" y1="183.944" x2="24.2742" y2="113.093" gradientUnits="userSpaceOnUse">
<stop stop-color="#7D7DC7" stop-opacity="0"/>
<stop offset="1" stop-color="#8686FF"/>
</linearGradient>
<clipPath id="clip0">
<rect width="594" height="288" fill="white"/>
</clipPath>
</defs>
</svg>
